G04 start of page 12 for group -4078 idx -4078 *
G04 Title: MMDVM_pog, bottomsilk *
G04 Creator: pcb v4.0.0-ga246c150 *
G04 CreationDate: Wed Apr 26 20:29:48 2017 UTC *
G04 For: wojtek *
G04 Format: Gerber/RS-274X *
G04 PCB-Dimensions (mm): 66.29 58.42 *
G04 PCB-Coordinate-Origin: lower left *
%MOMM*%
%FSLAX43Y43*%
%LNBOTTOMSILK*%
%ADD120C,0.150*%
%ADD119C,0.254*%
%ADD118C,0.203*%
G54D118*X42176Y28073D02*Y27873D01*
X40776Y28073D02*Y27873D01*
G54D119*X12799Y29497D02*X16330D01*
X12799Y32748D02*Y29497D01*
Y32748D02*X16330D01*
Y29497D01*
X12799Y23655D02*X16330D01*
X12799Y26906D02*Y23655D01*
Y26906D02*X16330D01*
Y23655D01*
G54D118*X37066Y31844D02*X38266D01*
X37066Y29944D02*X38266D01*
G54D120*X16105Y33167D02*Y33950D01*
X15851D02*X15714Y33813D01*
Y33304D02*Y33813D01*
X15851Y33167D02*X15714Y33304D01*
X15851Y33167D02*X16203D01*
X15851Y33950D02*X16203D01*
X15479Y33852D02*X15382Y33950D01*
X15088D02*X15382D01*
X15088D02*X14990Y33852D01*
Y33656D02*Y33852D01*
X15479Y33167D02*X14990Y33656D01*
Y33167D02*X15479D01*
X14756Y33793D02*X14599Y33950D01*
Y33167D02*Y33950D01*
X14462Y33167D02*X14756D01*
X39175Y32189D02*X39432D01*
X39571Y32328D02*X39432Y32189D01*
X39571Y32328D02*Y32843D01*
X39432Y32982D01*
X39175D02*X39432D01*
X38937Y32487D02*X38541Y32982D01*
X38442Y32487D02*X38937D01*
X38541Y32189D02*Y32982D01*
X39571Y26982D02*Y27775D01*
X39175D02*X39571D01*
X39274Y27418D02*X39571D01*
X38541Y26982D02*X38937D01*
X38541D02*X38442Y27081D01*
Y27319D01*
X38541Y27418D02*X38442Y27319D01*
X38541Y27418D02*X38838D01*
Y26982D02*Y27775D01*
X38541D02*X38937D01*
X38541D02*X38442Y27676D01*
Y27517D02*Y27676D01*
X38541Y27418D02*X38442Y27517D01*
X38204Y27616D02*X38045Y27775D01*
Y26982D02*Y27775D01*
X37907Y26982D02*X38204D01*
X42644Y27350D02*Y27607D01*
X42783Y27211D02*X42644Y27350D01*
X42783Y27211D02*X43298D01*
X43437Y27350D01*
Y27607D01*
X43278Y27845D02*X43437Y28003D01*
X42644D02*X43437D01*
X42644Y27845D02*Y28142D01*
X42743Y28380D02*X42644Y28479D01*
X42743Y28380D02*X43338D01*
X43437Y28479D01*
Y28677D01*
X43338Y28776D01*
X42743D02*X43338D01*
X42644Y28677D02*X42743Y28776D01*
X42644Y28479D02*Y28677D01*
X42843Y28380D02*X43239Y28776D01*
X16105Y27325D02*Y28108D01*
X15851D02*X15714Y27971D01*
Y27462D02*Y27971D01*
X15851Y27325D02*X15714Y27462D01*
X15851Y27325D02*X16203D01*
X15851Y28108D02*X16203D01*
X15479Y28010D02*X15382Y28108D01*
X15088D02*X15382D01*
X15088D02*X14990Y28010D01*
Y27814D02*Y28010D01*
X15479Y27325D02*X14990Y27814D01*
Y27325D02*X15479D01*
X14756Y28010D02*X14658Y28108D01*
X14365D02*X14658D01*
X14365D02*X14267Y28010D01*
Y27814D02*Y28010D01*
X14756Y27325D02*X14267Y27814D01*
Y27325D02*X14756D01*
M02*
