G04 start of page 5 for group 3 idx 3 *
G04 Title: MMDVM_pog, spare *
G04 Creator: pcb v4.0.0-ga246c150 *
G04 CreationDate: Wed Apr 26 20:29:48 2017 UTC *
G04 For: wojtek *
G04 Format: Gerber/RS-274X *
G04 PCB-Dimensions (mm): 66.29 58.42 *
G04 PCB-Coordinate-Origin: lower left *
%MOMM*%
%FSLAX43Y43*%
%LNGROUP3*%
%ADD70C,2.300*%
%ADD69C,1.000*%
%ADD68C,0.800*%
%ADD67C,0.300*%
%ADD66C,0.500*%
%ADD65C,2.750*%
%ADD64C,1.500*%
%ADD63C,0.900*%
%ADD62C,1.100*%
%ADD61C,3.600*%
%ADD60C,1.750*%
%ADD59C,1.800*%
%ADD58C,1.778*%
%ADD57C,0.002*%
G54D57*G36*
X17179Y4176D02*X17752D01*
X17829Y4175D01*
X18374Y4003D01*
X18408Y3973D01*
X18313Y4163D01*
X19063D01*
X19877Y2492D01*
X20005D01*
X20806Y4154D01*
X21551D01*
X20460Y1950D01*
X19409D01*
X18635Y3511D01*
X18642Y3470D01*
X18659Y3016D01*
X18658Y2970D01*
X18653Y2872D01*
X18631Y2576D01*
X18543Y2260D01*
X18320Y2044D01*
X18000Y1951D01*
X17893Y1946D01*
X17179Y1943D01*
Y2500D01*
X17663Y2501D01*
X17818Y2571D01*
X17931Y2647D01*
X17981Y2934D01*
X17984Y3017D01*
X17982Y3086D01*
X17939Y3428D01*
X17799Y3546D01*
X17646Y3605D01*
X17179Y3605D01*
Y4176D01*
G37*
G36*
X15696D02*X17179D01*
Y3605D01*
X16374Y3605D01*
X16374Y2497D01*
X17179Y2500D01*
Y1943D01*
X15696Y1938D01*
Y4176D01*
G37*
G36*
X6706Y1659D02*X25293D01*
Y1115D01*
X6477Y1120D01*
X6706Y1659D01*
G37*
G36*
X34999Y10193D02*Y8415D01*
X36777D01*
Y10193D01*
X34999D01*
G37*
G54D58*X38428Y9304D03*
G54D59*X16878Y10280D03*
G54D57*G36*
X18478Y8680D02*Y6880D01*
X20278D01*
Y8680D01*
X18478D01*
G37*
G54D59*X14378Y7780D03*
G54D58*X40968Y9304D03*
X43508D03*
X46048D03*
X48588D03*
X51128D03*
X53668D03*
X56208D03*
X58748D03*
G54D57*G36*
X7059Y34577D02*Y32799D01*
X8837D01*
Y34577D01*
X7059D01*
G37*
G54D58*X10488Y33688D03*
X7948Y31148D03*
X10488D03*
X7948Y28608D03*
Y26068D03*
Y23528D03*
X10488Y28608D03*
Y26068D03*
Y23528D03*
G54D59*X10448Y40332D03*
G54D57*G36*
X7048Y43732D02*Y41932D01*
X8848D01*
Y43732D01*
X7048D01*
G37*
G54D59*X12948Y42832D03*
G54D57*G36*
X23569Y23655D02*Y21877D01*
X25347D01*
Y23655D01*
X23569D01*
G37*
G54D58*X21918Y22766D03*
X24458Y25306D03*
X21918D03*
Y27846D03*
G54D57*G36*
X21029Y33815D02*Y32037D01*
X22807D01*
Y33815D01*
X21029D01*
G37*
G54D58*X24458Y32926D03*
G54D57*G36*
X49491Y43453D02*Y41703D01*
X51241D01*
Y43453D01*
X49491D01*
G37*
G54D60*X50366Y40078D03*
X52366D03*
G54D61*X55066Y35328D03*
G54D60*X52366Y42578D03*
G54D61*X55066Y47328D03*
G54D57*G36*
X8075Y52611D02*Y50833D01*
X9853D01*
Y52611D01*
X8075D01*
G37*
G54D58*X8964Y54262D03*
X11504Y51722D03*
Y54262D03*
X14044Y51722D03*
Y54262D03*
X16584Y51722D03*
Y54262D03*
X19124Y51722D03*
Y54262D03*
X21664Y51722D03*
X24204D03*
X26744D03*
X21664Y54262D03*
X24204D03*
X26744D03*
X29284D03*
X31824D03*
X34364D03*
X29284Y51722D03*
X31824D03*
X34364D03*
X36904D03*
Y54262D03*
X39444Y51722D03*
X41984D03*
X44524D03*
X39444Y54262D03*
X41984D03*
X44524D03*
X47064D03*
X49604D03*
X52144D03*
X47064Y51722D03*
X49604D03*
X52144D03*
X54684D03*
Y54262D03*
X57224D03*
Y51722D03*
G54D62*X38047Y26068D03*
X39190D03*
G54D63*X44905Y14892D03*
X38555Y16670D03*
X41730Y18956D03*
G54D62*X44143Y20099D03*
G54D63*X55827Y25433D03*
Y18067D03*
G54D62*X47318Y25814D03*
G54D63*X45032Y23655D03*
G54D62*X46810Y41435D03*
G54D64*X46429Y39784D03*
G54D63*X47191Y47531D03*
X54049Y26576D03*
X53922Y27846D03*
X57224Y19210D03*
X52398Y19591D03*
G54D64*X41730Y34577D03*
G54D63*X45921Y34196D03*
X47191D03*
G54D62*X40587Y23401D03*
X44905Y29243D03*
G54D63*Y31529D03*
G54D62*X37793Y32291D03*
Y31021D03*
G54D63*X37412Y37752D03*
X39444Y36355D03*
X56335Y31783D03*
X51636Y31529D03*
X16584Y20480D03*
G54D62*X18870Y22004D03*
G54D63*X12266Y8542D03*
X12139Y14511D03*
X21410Y5875D03*
X21283Y11844D03*
X25855Y7272D03*
X12520Y23401D03*
G54D62*X33475Y26068D03*
G54D63*X28014Y22766D03*
X35380Y24163D03*
G54D62*X30427Y12987D03*
X34364Y26957D03*
X33475Y30259D03*
X34364Y31148D03*
G54D63*X32332Y28862D03*
X30935Y34704D03*
G54D62*X28014Y17813D03*
G54D63*X29538Y33180D03*
X28522Y32291D03*
X28649Y31148D03*
G54D62*X18108Y37752D03*
Y48547D03*
Y43467D03*
G54D63*X17219Y39403D03*
G54D62*X29538Y48547D03*
G54D63*X29411Y46515D03*
X30681Y39022D03*
X31697Y38514D03*
X31189Y41435D03*
X32205Y41943D03*
G54D62*X33475Y48674D03*
G54D63*Y36736D03*
X8583Y37371D03*
X29792Y37117D03*
X26998D03*
X26236Y27719D03*
X23569Y34958D03*
X24458Y30640D03*
X25220Y31529D03*
X12393Y29497D03*
Y28227D03*
X12520Y25941D03*
X12139Y31529D03*
X12647Y33307D03*
X27633Y27465D03*
G54D65*G54D66*G54D67*G54D66*G54D67*G54D66*G54D67*G54D65*G54D66*G54D68*G54D67*G54D68*G54D67*G54D66*G54D67*G54D66*G54D67*G54D65*G54D67*G54D66*G54D67*G54D66*G54D67*G54D66*G54D67*G54D66*G54D67*G54D65*G54D66*G54D67*G54D66*G54D67*G54D66*G54D67*G54D69*G54D63*G54D70*G54D63*G54D70*G54D69*M02*
