G04 start of page 11 for group -4079 idx -4079 *
G04 Title: MMDVM_pog, topsilk *
G04 Creator: pcb v4.0.0-ga246c150 *
G04 CreationDate: Wed Apr 26 20:29:48 2017 UTC *
G04 For: wojtek *
G04 Format: Gerber/RS-274X *
G04 PCB-Dimensions (mm): 66.29 58.42 *
G04 PCB-Coordinate-Origin: lower left *
%MOMM*%
%FSLAX43Y43*%
%LNTOPSILK*%
%ADD117C,0.250*%
%ADD116C,0.508*%
%ADD115C,0.200*%
%ADD114C,0.254*%
%ADD113C,0.200*%
%ADD112C,0.203*%
%ADD111C,0.150*%
%ADD110C,0.168*%
%ADD109C,0.165*%
%ADD108C,0.166*%
%ADD107C,0.002*%
G54D107*G36*
X34375Y2510D02*X34371Y2514D01*
X34353Y2566D01*
X34355Y2572D01*
Y2579D01*
X34388Y2639D01*
X34395Y2645D01*
X34398Y2649D01*
X34443Y2676D01*
X34450Y2678D01*
X34455Y2680D01*
X34499Y2682D01*
X34503Y2679D01*
X35098Y2309D01*
X34727Y2902D01*
X34724Y2906D01*
X34728Y2954D01*
X34731Y2959D01*
X34734Y2966D01*
X34764Y3016D01*
X34768Y3018D01*
X34771Y3022D01*
X34815Y3048D01*
X34820Y3050D01*
X34826Y3053D01*
X34872Y3054D01*
X34876Y3051D01*
X35469Y2680D01*
X35099Y3274D01*
X35096Y3279D01*
X35099Y3325D01*
X35103Y3331D01*
X35106Y3338D01*
X35136Y3388D01*
X35140Y3390D01*
X35146Y3396D01*
X35192Y3423D01*
X35209D01*
X35215Y3425D01*
X35264Y3407D01*
X35268Y3403D01*
X35286Y3385D01*
X35913Y2387D01*
X35916Y2383D01*
X35913Y2335D01*
X35911Y2329D01*
X35908Y2325D01*
X35874Y2282D01*
X35872Y2278D01*
X35868Y2275D01*
X35825Y2242D01*
X35821Y2238D01*
X35815Y2235D01*
X35769D01*
X35764Y2238D01*
X35170Y2609D01*
X35540Y2014D01*
X35543Y2009D01*
Y1963D01*
X35540Y1957D01*
X35536Y1953D01*
X35503Y1910D01*
X35500Y1906D01*
X35496Y1904D01*
X35452Y1869D01*
X35448Y1865D01*
X35442Y1862D01*
X35396Y1863D01*
X35392Y1866D01*
X34393Y2492D01*
X34375Y2510D01*
G37*
G36*
X37698Y3141D02*X37705Y3148D01*
X37786Y3211D01*
X37796Y3217D01*
X37805Y3224D01*
X37900Y3266D01*
X37911Y3269D01*
X37921Y3273D01*
X38012Y3287D01*
X38022Y3286D01*
X38044D01*
X38104Y3256D01*
X38306Y3055D01*
X38308Y3053D01*
X38306Y3007D01*
X38303Y3000D01*
X38299Y2995D01*
X38267Y2952D01*
X38264Y2948D01*
X38263Y2947D01*
X38242Y2930D01*
X38241Y2927D01*
X38238Y2926D01*
X38212Y2908D01*
X38209Y2906D01*
X38206Y2905D01*
X38180Y2897D01*
X38179Y2896D01*
X38176D01*
X38154Y2901D01*
X38153Y2902D01*
X37979Y3076D01*
X37976Y3079D01*
X37946Y3090D01*
X37943Y3088D01*
X37932D01*
X37902Y3080D01*
X37899Y3077D01*
X37895Y3076D01*
X37858Y3055D01*
X37855Y3053D01*
X37851Y3051D01*
X37819Y3026D01*
X37814Y3021D01*
X37789Y2989D01*
X37787Y2985D01*
X37785Y2982D01*
X37764Y2945D01*
X37762Y2941D01*
X37760Y2938D01*
X37753Y2909D01*
Y2890D01*
X37765Y2867D01*
X37768Y2864D01*
X38343Y2289D01*
X38348Y2284D01*
X38413Y2271D01*
X38421Y2274D01*
X38428Y2278D01*
X38500Y2326D01*
X38507Y2332D01*
X38511Y2338D01*
X38547Y2377D01*
X38549Y2380D01*
X38552Y2384D01*
X38565Y2431D01*
Y2439D01*
X38562Y2471D01*
Y2475D01*
X38560Y2479D01*
X38554Y2500D01*
X38387Y2668D01*
X38385Y2670D01*
X38380Y2690D01*
X38381Y2693D01*
Y2696D01*
X38390Y2725D01*
X38391Y2727D01*
X38392Y2732D01*
X38409Y2762D01*
X38412Y2764D01*
X38413Y2767D01*
X38428Y2788D01*
X38431Y2789D01*
X38434Y2794D01*
X38479Y2820D01*
X38486Y2821D01*
X38492Y2824D01*
X38537D01*
X38540Y2821D01*
X38723Y2637D01*
X38728Y2631D01*
X38764Y2555D01*
X38766Y2546D01*
Y2537D01*
X38759Y2445D01*
X38757Y2434D01*
X38753Y2424D01*
X38711Y2326D01*
X38705Y2315D01*
X38698Y2307D01*
X38632Y2223D01*
X38625Y2215D01*
X38617Y2208D01*
X38532Y2140D01*
X38522Y2134D01*
X38512Y2128D01*
X38416Y2087D01*
X38406Y2082D01*
X38396Y2080D01*
X38301Y2071D01*
X38293D01*
X38284Y2073D01*
X38208Y2110D01*
X38202Y2116D01*
X37589Y2730D01*
X37583Y2736D01*
X37552Y2807D01*
Y2844D01*
X37565Y2918D01*
X37570Y2927D01*
X37572Y2938D01*
X37616Y3035D01*
X37622Y3043D01*
X37628Y3053D01*
X37691Y3134D01*
X37698Y3141D01*
G37*
G36*
X38130Y3352D02*X38126Y3347D01*
X38080Y3335D01*
X38074Y3336D01*
X38069Y3339D01*
X38034Y3359D01*
X38033Y3360D01*
X38028Y3364D01*
X38009Y3412D01*
X38011Y3418D01*
Y3425D01*
X38044Y3484D01*
X38049Y3489D01*
X38431Y3871D01*
X38435Y3877D01*
X38492Y3901D01*
X38498Y3900D01*
X38511D01*
X38548Y3885D01*
X38552Y3881D01*
X38554Y3879D01*
X38573Y3841D01*
X38574Y3835D01*
X38576Y3831D01*
X38565Y3786D01*
X38562Y3782D01*
X38424Y3644D01*
X39203Y2865D01*
X39204Y2864D01*
X39210Y2842D01*
Y2839D01*
X39208Y2838D01*
X39200Y2812D01*
X39198Y2809D01*
X39196Y2806D01*
X39178Y2780D01*
X39176Y2777D01*
X39174Y2776D01*
X39158Y2756D01*
X39157Y2755D01*
X39156Y2754D01*
X39135Y2736D01*
X39134Y2733D01*
X39131Y2732D01*
X39106Y2716D01*
X39103Y2715D01*
X39101Y2714D01*
X39073Y2703D01*
X39072Y2701D01*
X39065D01*
X39048Y2709D01*
X39047Y2711D01*
X38268Y3489D01*
X38130Y3352D01*
G37*
G36*
X35746Y3893D02*X35822Y3900D01*
X35833Y3899D01*
X35836D01*
X35874Y3890D01*
X35880Y3889D01*
X35884D01*
X35919Y3872D01*
X35922Y3870D01*
X36128Y3663D01*
X36131Y3662D01*
X36148Y3627D01*
X36149Y3623D01*
Y3620D01*
X36157Y3578D01*
X36158Y3572D01*
Y3568D01*
X36163Y3529D01*
X36164Y3525D01*
Y3522D01*
X36172Y3499D01*
X36174Y3498D01*
X36196Y3491D01*
X36200Y3489D01*
X36211D01*
X36241Y3488D01*
X36245Y3487D01*
X36249D01*
X36290Y3481D01*
X36294Y3480D01*
X36296D01*
X36327Y3466D01*
X36330Y3463D01*
X36659Y3133D01*
X36661Y3130D01*
Y3083D01*
X36659Y3076D01*
X36655Y3072D01*
X36622Y3030D01*
X36619Y3026D01*
X36616Y3025D01*
X36597Y3007D01*
X36595Y3004D01*
X36593Y3003D01*
X36565Y2985D01*
X36562Y2984D01*
X36560D01*
X36535Y2974D01*
X36532Y2973D01*
X36529D01*
X36508Y2978D01*
X36507Y2980D01*
X36198Y3288D01*
X36196Y3291D01*
X36164Y3301D01*
X36160Y3299D01*
X36156Y3301D01*
X36116Y3291D01*
X36112Y3288D01*
X36106Y3287D01*
X36065Y3266D01*
X36061Y3263D01*
X36057Y3262D01*
X36025Y3236D01*
X36023Y3233D01*
X36022D01*
X36004Y3214D01*
X36003Y3211D01*
X36000Y3210D01*
X35977Y3184D01*
X35974Y3181D01*
X35971Y3179D01*
X35946Y3152D01*
X35945Y3149D01*
X35942Y3148D01*
X35926Y3131D01*
Y3130D01*
X36291Y2764D01*
X36292Y2763D01*
X36299Y2741D01*
Y2738D01*
X36298Y2737D01*
X36287Y2709D01*
X36285Y2707D01*
X36284Y2704D01*
X36266Y2678D01*
X36265Y2675D01*
X36262Y2672D01*
X36247Y2653D01*
X36245Y2652D01*
X36241Y2649D01*
X36198Y2614D01*
X36193Y2610D01*
X36187Y2608D01*
X36142Y2609D01*
X36139Y2612D01*
X35746Y3005D01*
Y3318D01*
X35807Y3256D01*
X35949Y3399D01*
X35953Y3403D01*
X35973Y3458D01*
Y3480D01*
X35959Y3521D01*
X35956Y3524D01*
X35788Y3691D01*
X35784Y3695D01*
X35746Y3705D01*
Y3893D01*
G37*
G36*
X35323Y3574D02*Y3575D01*
X35340Y3592D01*
X35343Y3593D01*
X35344Y3596D01*
X35366Y3620D01*
X35369Y3622D01*
X35417Y3670D01*
X35424Y3678D01*
X35504Y3753D01*
X35512Y3759D01*
X35519Y3768D01*
X35602Y3833D01*
X35611Y3837D01*
X35620Y3844D01*
X35709Y3886D01*
X35719Y3889D01*
X35727Y3892D01*
X35746Y3893D01*
Y3705D01*
X35740Y3707D01*
X35736Y3706D01*
X35730D01*
X35680Y3685D01*
X35676Y3681D01*
X35671Y3678D01*
X35620Y3642D01*
X35616Y3637D01*
X35610Y3633D01*
X35569Y3596D01*
X35566Y3592D01*
X35519Y3544D01*
X35746Y3318D01*
Y3005D01*
X35288Y3463D01*
X35284Y3466D01*
X35285Y3512D01*
X35289Y3517D01*
X35292Y3524D01*
X35321Y3571D01*
X35323Y3574D01*
G37*
G36*
X39424Y2504D02*X39426Y2505D01*
X39446Y2519D01*
X39449Y2521D01*
X39452Y2524D01*
X39480Y2536D01*
X39484D01*
X39486Y2537D01*
X39508Y2544D01*
X39517D01*
X39520Y2546D01*
X39538Y2543D01*
X39539Y2541D01*
X40312Y1768D01*
X40614Y2070D01*
X40618Y2076D01*
X40676Y2100D01*
X40682Y2099D01*
X40688D01*
X40737Y2080D01*
X40740Y2076D01*
X40742Y2074D01*
X40760Y2040D01*
X40762Y2034D01*
X40764Y2030D01*
X40750Y1985D01*
X40746Y1979D01*
X40315Y1549D01*
X40312Y1548D01*
X40279Y1531D01*
X40275Y1530D01*
X40269D01*
X40239Y1535D01*
X40238Y1537D01*
X39386Y2388D01*
X39385Y2390D01*
X39378Y2406D01*
Y2414D01*
X39387Y2443D01*
X39389Y2446D01*
X39390Y2450D01*
X39402Y2478D01*
X39405Y2479D01*
X39407Y2482D01*
X39422Y2503D01*
X39424Y2504D01*
G37*
G36*
X40490Y3454D02*X40491Y3452D01*
X40509Y3415D01*
X40512Y3409D01*
X40513Y3405D01*
X40502Y3360D01*
X40498Y3356D01*
X40180Y3036D01*
X40472Y2743D01*
X40771Y3042D01*
X40775Y3047D01*
X40833Y3071D01*
X40840Y3069D01*
X40845D01*
X40892Y3051D01*
X40896Y3047D01*
X40898Y3046D01*
X40917Y3009D01*
X40918Y3003D01*
X40920Y2999D01*
X40909Y2952D01*
X40586Y2630D01*
X40880Y2336D01*
X41183Y2639D01*
X41241Y2664D01*
X41248Y2663D01*
X41253D01*
X41300Y2643D01*
X41304Y2639D01*
X41305Y2638D01*
X41323Y2605D01*
X41326Y2599D01*
X41328Y2595D01*
X41314Y2548D01*
X41310Y2544D01*
X40880Y2113D01*
X40877Y2112D01*
X40842Y2095D01*
X40838Y2093D01*
X40833D01*
X40803Y2099D01*
X40801Y2100D01*
X39950Y2952D01*
X39947Y2955D01*
X39948Y3002D01*
X39952Y3007D01*
X39955Y3014D01*
X39983Y3061D01*
X39987Y3064D01*
X40367Y3444D01*
X40373Y3450D01*
X40429Y3476D01*
X40436Y3474D01*
X40442D01*
X40486Y3458D01*
X40490Y3454D01*
G37*
G36*
X42094Y2639D02*X42100Y2646D01*
X42182Y2709D01*
X42192Y2715D01*
X42200Y2722D01*
X42296Y2764D01*
X42306Y2767D01*
X42316Y2771D01*
X42407Y2785D01*
X42416Y2784D01*
X42438D01*
X42499Y2755D01*
X42504Y2750D01*
X42700Y2554D01*
X42703Y2551D01*
X42702Y2505D01*
X42699Y2499D01*
X42695Y2493D01*
X42663Y2450D01*
X42660Y2446D01*
X42657Y2445D01*
X42637Y2428D01*
X42635Y2426D01*
X42632Y2424D01*
X42606Y2406D01*
X42603Y2405D01*
X42601Y2404D01*
X42575Y2395D01*
X42573Y2394D01*
X42570D01*
X42548Y2400D01*
X42547Y2401D01*
X42375Y2574D01*
X42372Y2577D01*
X42340Y2588D01*
X42338Y2587D01*
X42327D01*
X42296Y2579D01*
X42294Y2576D01*
X42289Y2574D01*
X42252Y2554D01*
X42249Y2551D01*
X42245Y2550D01*
X42214Y2525D01*
X42212Y2522D01*
X42210Y2519D01*
X42183Y2488D01*
X42182Y2484D01*
X42179Y2481D01*
X42158Y2443D01*
X42157Y2439D01*
X42156Y2437D01*
X42148Y2408D01*
Y2394D01*
X42160Y2365D01*
X42163Y2362D01*
X42737Y1788D01*
X42743Y1782D01*
X42809Y1770D01*
X42817Y1772D01*
X42824Y1776D01*
X42896Y1825D01*
X42903Y1830D01*
X42907Y1836D01*
X42941Y1876D01*
X42944Y1879D01*
X42947Y1883D01*
X42961Y1930D01*
Y1935D01*
X42956Y1970D01*
Y1974D01*
X42955Y1978D01*
X42950Y1998D01*
X42781Y2167D01*
X42780Y2168D01*
X42774Y2189D01*
X42776Y2191D01*
Y2194D01*
X42784Y2223D01*
X42786Y2226D01*
X42787Y2230D01*
X42803Y2260D01*
X42806Y2263D01*
X42808Y2266D01*
X42824Y2286D01*
X42826Y2288D01*
X42828Y2292D01*
X42875Y2318D01*
X42882Y2320D01*
X42888Y2322D01*
X42932D01*
X42934Y2320D01*
X43119Y2135D01*
X43124Y2129D01*
X43160Y2054D01*
X43162Y2044D01*
Y2035D01*
X43153Y1943D01*
X43152Y1932D01*
X43150Y1922D01*
X43105Y1825D01*
X43100Y1814D01*
X43094Y1805D01*
X43027Y1721D01*
X43020Y1713D01*
X43011Y1706D01*
X42926Y1637D01*
X42916Y1630D01*
X42907Y1626D01*
X42810Y1584D01*
X42801Y1581D01*
X42791Y1578D01*
X42696Y1570D01*
X42688D01*
X42678Y1571D01*
X42603Y1609D01*
X42598Y1614D01*
X41985Y2229D01*
X41978Y2234D01*
X41946Y2306D01*
Y2343D01*
X41960Y2416D01*
X41964Y2426D01*
X41967Y2437D01*
X42011Y2533D01*
X42018Y2541D01*
X42023Y2551D01*
X42087Y2632D01*
X42094Y2639D01*
G37*
G36*
X43702Y2758D02*X43673Y2788D01*
X43670Y2792D01*
X43672Y2840D01*
X43674Y2846D01*
X43676Y2853D01*
X43707Y2901D01*
X43712Y2904D01*
X43718Y2912D01*
X43782Y2941D01*
X43789Y2940D01*
X43794D01*
X43849Y2919D01*
X43855Y2915D01*
X43860Y2913D01*
X43921Y2900D01*
X43928Y2898D01*
X43952D01*
X44016Y2947D01*
X44026Y2955D01*
X44028Y2958D01*
X44055Y2989D01*
X44057Y2992D01*
X44059Y2996D01*
X44080Y3032D01*
X44082Y3035D01*
X44084Y3039D01*
X44090Y3068D01*
Y3086D01*
X44077Y3112D01*
X44075Y3113D01*
X43902Y3287D01*
X43848Y3304D01*
X43842Y3302D01*
X43836Y3301D01*
X43775Y3270D01*
X43769Y3265D01*
X43762Y3261D01*
X43702Y3211D01*
X43696Y3205D01*
X43690Y3201D01*
X43634Y3162D01*
X43630Y3159D01*
X43623Y3156D01*
X43556Y3126D01*
X43549Y3123D01*
X43541Y3122D01*
X43466Y3108D01*
X43459Y3106D01*
X43451D01*
X43384Y3112D01*
X43378Y3113D01*
X43371Y3114D01*
X43319Y3142D01*
X43315Y3146D01*
X43114Y3346D01*
X43108Y3353D01*
X43075Y3426D01*
Y3434D01*
X43074Y3444D01*
X43085Y3536D01*
X43087Y3546D01*
X43090Y3556D01*
X43133Y3652D01*
X43140Y3660D01*
X43145Y3671D01*
X43208Y3757D01*
X43217Y3764D01*
X43225Y3773D01*
X43320Y3845D01*
X43331Y3851D01*
X43341Y3856D01*
X43442Y3893D01*
X43452Y3895D01*
X43462Y3897D01*
X43557Y3896D01*
X43567Y3893D01*
X43575Y3892D01*
X43652Y3849D01*
X43659Y3842D01*
X43688Y3813D01*
X43690Y3809D01*
X43688Y3761D01*
X43685Y3755D01*
X43682Y3751D01*
X43651Y3711D01*
X43648Y3707D01*
X43640Y3699D01*
X43571Y3664D01*
X43567D01*
X43561Y3666D01*
X43508Y3684D01*
X43503Y3686D01*
X43498Y3689D01*
X43440Y3706D01*
X43435D01*
X43428Y3707D01*
X43350Y3660D01*
X43341Y3651D01*
X43338Y3649D01*
X43313Y3619D01*
X43311Y3615D01*
X43308Y3612D01*
X43286Y3574D01*
X43284Y3569D01*
X43282Y3567D01*
X43272Y3535D01*
Y3516D01*
X43284Y3489D01*
X43287Y3487D01*
X43455Y3318D01*
X43459Y3314D01*
X43508Y3298D01*
X43513D01*
X43519Y3299D01*
X43575Y3325D01*
X43582Y3328D01*
X43588Y3332D01*
X43641Y3375D01*
X43647Y3379D01*
X43652Y3385D01*
X43698Y3423D01*
X43702Y3426D01*
X43707Y3432D01*
X43782Y3470D01*
X43792Y3473D01*
X43798Y3477D01*
X43880Y3496D01*
X43888D01*
X43896Y3498D01*
X43970Y3492D01*
X43978Y3489D01*
X43984Y3488D01*
X44042Y3460D01*
X44048Y3455D01*
X44253Y3248D01*
X44259Y3243D01*
X44289Y3181D01*
Y3152D01*
X44277Y3059D01*
X44274Y3048D01*
X44270Y3039D01*
X44226Y2944D01*
X44220Y2934D01*
X44215Y2926D01*
X44151Y2843D01*
X44144Y2836D01*
X44135Y2828D01*
X44041Y2756D01*
X44031Y2751D01*
X44020Y2745D01*
X43920Y2707D01*
X43910Y2704D01*
X43899Y2703D01*
X43804Y2704D01*
X43796Y2705D01*
X43786Y2708D01*
X43709Y2752D01*
X43702Y2758D01*
G37*
G36*
X41442Y2679D02*X41439Y2678D01*
X41403Y2663D01*
X41399Y2661D01*
X41395D01*
X41365Y2666D01*
X41147Y2883D01*
Y3196D01*
X41439Y2904D01*
X41542Y3009D01*
X41545Y3021D01*
X41547Y3022D01*
Y3025D01*
X41549Y3047D01*
Y3077D01*
X41529Y3159D01*
X41524Y3168D01*
X41520Y3179D01*
X41469Y3270D01*
X41464Y3279D01*
X41457Y3288D01*
X41390Y3370D01*
X41383Y3376D01*
X41376Y3385D01*
X41310Y3452D01*
X41304Y3458D01*
X41293Y3469D01*
X41177Y3569D01*
X41166Y3578D01*
X41154Y3587D01*
X41147Y3592D01*
Y3847D01*
X41192Y3826D01*
X41202Y3820D01*
X41210Y3816D01*
X41290Y3768D01*
X41299Y3762D01*
X41305Y3758D01*
X41361Y3711D01*
X41365Y3707D01*
X41555Y3517D01*
X41559Y3513D01*
X41604Y3458D01*
X41610Y3450D01*
X41616Y3444D01*
X41665Y3366D01*
X41671Y3356D01*
X41675Y3347D01*
X41719Y3254D01*
X41723Y3243D01*
X41726Y3233D01*
X41748Y3134D01*
X41749Y3123D01*
Y3113D01*
X41737Y3013D01*
X41734Y3002D01*
X41731Y2992D01*
X41675Y2901D01*
X41666Y2891D01*
X41662Y2889D01*
X41660Y2887D01*
X41624Y2850D01*
X41620Y2844D01*
X41614Y2840D01*
X41558Y2789D01*
X41552Y2784D01*
X41545Y2778D01*
X41490Y2725D01*
X41485Y2719D01*
X41479Y2715D01*
X41443Y2682D01*
X41442Y2679D01*
G37*
G36*
X41147Y2883D02*X40509Y3521D01*
X40510Y3567D01*
X40515Y3572D01*
X40517Y3579D01*
X40546Y3626D01*
X40549Y3629D01*
X40743Y3823D01*
X40750Y3831D01*
X40838Y3885D01*
X40848Y3888D01*
X40858Y3890D01*
X40957Y3901D01*
X40968Y3900D01*
X40978D01*
X41078Y3877D01*
X41089Y3872D01*
X41099Y3870D01*
X41147Y3847D01*
Y3592D01*
X41022Y3671D01*
X41008Y3678D01*
X41005Y3680D01*
X40978Y3688D01*
X40975Y3689D01*
X40970Y3691D01*
X40931Y3700D01*
X40927D01*
X40921Y3702D01*
X40877Y3704D01*
X40874Y3703D01*
X40863D01*
X40836Y3691D01*
X40833Y3688D01*
X40745Y3598D01*
X41147Y3196D01*
Y2883D01*
G37*
G36*
X43116Y3258D02*X43684Y2690D01*
X43720Y2613D01*
X43721Y2604D01*
Y2595D01*
X43714Y2503D01*
X43712Y2492D01*
X43709Y2482D01*
X43666Y2386D01*
X43661Y2375D01*
X43654Y2366D01*
X43588Y2281D01*
X43581Y2273D01*
X43572Y2266D01*
X43487Y2198D01*
X43477Y2191D01*
X43468Y2186D01*
X43371Y2144D01*
X43361Y2142D01*
X43350Y2139D01*
X43257Y2129D01*
X43249D01*
X43239Y2131D01*
X43163Y2169D01*
X43158Y2175D01*
X43116Y2217D01*
Y2531D01*
X43298Y2348D01*
X43304Y2343D01*
X43368Y2330D01*
X43377Y2333D01*
X43384Y2338D01*
X43455Y2386D01*
X43462Y2391D01*
X43468Y2398D01*
X43515Y2468D01*
X43519Y2475D01*
X43522Y2484D01*
X43512Y2550D01*
X43506Y2555D01*
X43116Y2945D01*
Y3258D01*
G37*
G36*
X42656Y3205D02*X42663Y3214D01*
X42750Y3277D01*
X42760Y3283D01*
X42769Y3288D01*
X42865Y3328D01*
X42875Y3330D01*
X42885Y3334D01*
X42976Y3341D01*
X42985Y3339D01*
X42994D01*
X43069Y3305D01*
X43116Y3258D01*
Y2945D01*
X42936Y3124D01*
X42930Y3130D01*
X42862Y3142D01*
X42856Y3138D01*
X42848Y3135D01*
X42777Y3088D01*
X42772Y3082D01*
X42765Y3076D01*
X42716Y3004D01*
X42714Y2996D01*
X42710Y2989D01*
X42723Y2923D01*
X42729Y2918D01*
X43116Y2531D01*
Y2217D01*
X42556Y2777D01*
X42548Y2784D01*
X42513Y2861D01*
Y2869D01*
X42511Y2879D01*
X42521Y2973D01*
X42524Y2982D01*
X42526Y2993D01*
X42569Y3091D01*
X42576Y3101D01*
X42582Y3110D01*
X42648Y3199D01*
X42656Y3205D01*
G37*
G36*
X45189Y2789D02*X45185Y2785D01*
X45136Y2773D01*
X45132Y2774D01*
X45127Y2777D01*
X45091Y2796D01*
X45090Y2798D01*
X45086Y2802D01*
X45068Y2850D01*
X45069Y2855D01*
Y2863D01*
X45101Y2922D01*
X45107Y2927D01*
X45488Y3309D01*
X45493Y3314D01*
X45550Y3339D01*
X45557Y3338D01*
X45569D01*
X45606Y3323D01*
X45611Y3318D01*
X45612Y3317D01*
X45630Y3280D01*
X45632Y3274D01*
X45634Y3270D01*
X45623Y3224D01*
X45619Y3219D01*
X45481Y3082D01*
X46260Y2303D01*
X46261Y2302D01*
X46266Y2280D01*
Y2277D01*
X46265Y2275D01*
X46257Y2251D01*
X46256Y2246D01*
X46254Y2244D01*
X46236Y2217D01*
X46235Y2215D01*
X46232Y2213D01*
X46217Y2194D01*
X46215Y2193D01*
X46213Y2191D01*
X46193Y2174D01*
X46192Y2171D01*
X46189Y2169D01*
X46164Y2154D01*
X46162Y2153D01*
X46158Y2151D01*
X46131Y2140D01*
X46128Y2139D01*
X46122D01*
X46107Y2147D01*
X46105Y2149D01*
X45327Y2927D01*
X45189Y2789D01*
G37*
G36*
X47607Y1316D02*X47604Y1315D01*
X47569Y1300D01*
X47565Y1298D01*
X47560D01*
X47530Y1302D01*
X47312Y1520D01*
Y1834D01*
X47604Y1542D01*
X47708Y1646D01*
Y1647D01*
X47711Y1659D01*
X47712Y1661D01*
Y1664D01*
X47715Y1686D01*
Y1716D01*
X47694Y1797D01*
X47690Y1807D01*
X47686Y1817D01*
X47635Y1909D01*
X47629Y1917D01*
X47622Y1927D01*
X47555Y2007D01*
X47548Y2014D01*
X47540Y2022D01*
X47475Y2091D01*
X47469Y2096D01*
X47458Y2107D01*
X47343Y2208D01*
X47332Y2216D01*
X47319Y2226D01*
X47312Y2230D01*
Y2486D01*
X47358Y2464D01*
X47368Y2459D01*
X47376Y2455D01*
X47456Y2406D01*
X47464Y2401D01*
X47471Y2395D01*
X47526Y2350D01*
X47530Y2346D01*
X47625Y2251D01*
X47719Y2155D01*
X47723Y2151D01*
X47770Y2096D01*
X47776Y2088D01*
X47781Y2082D01*
X47831Y2004D01*
X47836Y1994D01*
X47840Y1986D01*
X47884Y1892D01*
X47888Y1881D01*
X47891Y1872D01*
X47912Y1772D01*
X47913Y1762D01*
Y1752D01*
X47902Y1651D01*
X47899Y1640D01*
X47897Y1630D01*
X47840Y1540D01*
X47832Y1530D01*
X47828Y1527D01*
X47825Y1526D01*
X47789Y1489D01*
X47784Y1483D01*
X47778Y1479D01*
X47723Y1426D01*
X47718Y1421D01*
X47711Y1417D01*
X47655Y1363D01*
X47650Y1358D01*
X47644Y1354D01*
X47609Y1319D01*
X47607Y1316D01*
G37*
G36*
X47312Y1520D02*X46674Y2158D01*
X46676Y2205D01*
X46680Y2210D01*
X46682Y2217D01*
X46710Y2264D01*
X46714Y2267D01*
X46909Y2462D01*
X46915Y2470D01*
X47004Y2522D01*
X47014Y2525D01*
X47023Y2529D01*
X47122Y2539D01*
X47133Y2537D01*
X47143D01*
X47244Y2515D01*
X47254Y2511D01*
X47264Y2508D01*
X47312Y2486D01*
Y2230D01*
X47187Y2310D01*
X47173Y2317D01*
X47170Y2318D01*
X47143Y2326D01*
X47140Y2328D01*
X47136Y2329D01*
X47095Y2339D01*
X47090D01*
X47085Y2340D01*
X47042Y2343D01*
X47040Y2342D01*
X47028D01*
X47000Y2328D01*
X46998Y2325D01*
X46910Y2237D01*
X47312Y1834D01*
Y1520D01*
G37*
G36*
X44997Y2714D02*X45073Y2721D01*
X45084Y2719D01*
X45095D01*
X45126Y2711D01*
X45131Y2709D01*
X45135D01*
X45171Y2693D01*
X45174Y2690D01*
X45379Y2485D01*
X45382Y2482D01*
X45408Y2430D01*
X45411Y2423D01*
X45412Y2416D01*
X45420Y2358D01*
Y2311D01*
X45383Y2198D01*
X45376Y2186D01*
X45368Y2175D01*
X45276Y2060D01*
X45265Y2048D01*
X45172Y1956D01*
X45544Y1584D01*
X45550Y1563D01*
Y1560D01*
X45548Y1558D01*
X45538Y1531D01*
X45536Y1527D01*
X45535Y1526D01*
X45517Y1498D01*
X45515Y1496D01*
X45513Y1494D01*
X45498Y1475D01*
X45496Y1473D01*
X45492Y1471D01*
X45449Y1436D01*
X45444Y1432D01*
X45438Y1429D01*
X45393D01*
X45390Y1432D01*
X44997Y1825D01*
Y2138D01*
X45058Y2077D01*
X45200Y2219D01*
X45204Y2224D01*
X45224Y2270D01*
Y2285D01*
X45223Y2293D01*
X45209Y2342D01*
X45207Y2344D01*
X45039Y2512D01*
X45034Y2517D01*
X44997Y2526D01*
Y2714D01*
G37*
G36*
X44574Y2395D02*Y2397D01*
X44591Y2412D01*
X44594Y2413D01*
X44595Y2416D01*
X44617Y2442D01*
X44620Y2443D01*
X44649Y2471D01*
X44668Y2490D01*
X44675Y2499D01*
X44755Y2573D01*
X44763Y2580D01*
X44770Y2588D01*
X44853Y2653D01*
X44862Y2659D01*
X44870Y2666D01*
X44960Y2707D01*
X44970Y2709D01*
X44978Y2712D01*
X44997Y2714D01*
Y2526D01*
X44990Y2528D01*
X44986Y2526D01*
X44981D01*
X44931Y2507D01*
X44927Y2503D01*
X44922Y2500D01*
X44870Y2463D01*
X44866Y2457D01*
X44861Y2453D01*
X44821Y2416D01*
X44818Y2412D01*
X44770Y2365D01*
X44997Y2138D01*
Y1825D01*
X44538Y2284D01*
X44534Y2288D01*
X44536Y2333D01*
X44540Y2339D01*
X44542Y2346D01*
X44572Y2393D01*
X44574Y2395D01*
G37*
G36*
X45751Y3352D02*X45747Y3347D01*
X45699Y3335D01*
X45695Y3336D01*
X45689Y3339D01*
X45653Y3359D01*
X45652Y3360D01*
X45648Y3364D01*
X45630Y3412D01*
X45631Y3418D01*
Y3425D01*
X45663Y3484D01*
X45670Y3489D01*
X46050Y3871D01*
X46056Y3877D01*
X46112Y3901D01*
X46119Y3900D01*
X46131D01*
X46169Y3885D01*
X46173Y3881D01*
X46174Y3879D01*
X46192Y3841D01*
X46195Y3835D01*
X46196Y3831D01*
X46185Y3786D01*
X46181Y3782D01*
X46043Y3644D01*
X46822Y2865D01*
X46823Y2864D01*
X46829Y2842D01*
Y2839D01*
X46827Y2838D01*
X46819Y2812D01*
X46818Y2809D01*
X46816Y2806D01*
X46798Y2780D01*
X46797Y2777D01*
X46794Y2776D01*
X46779Y2756D01*
X46778Y2755D01*
X46775Y2754D01*
X46756Y2736D01*
X46753Y2733D01*
X46750Y2732D01*
X46727Y2716D01*
X46724Y2715D01*
X46720Y2714D01*
X46692Y2703D01*
X46691Y2701D01*
X46684D01*
X46669Y2709D01*
X46667Y2711D01*
X45889Y3489D01*
X45751Y3352D01*
G37*
G36*
X34250Y2397D02*X34326Y2404D01*
X34337Y2402D01*
X34340D01*
X34378Y2394D01*
X34384Y2393D01*
X34388D01*
X34424Y2376D01*
X34426Y2373D01*
X34632Y2167D01*
X34634Y2164D01*
X34661Y2113D01*
X34663Y2105D01*
X34665Y2099D01*
X34673Y2041D01*
Y1994D01*
X34636Y1881D01*
X34629Y1869D01*
X34620Y1858D01*
X34528Y1742D01*
X34517Y1731D01*
X34425Y1639D01*
X34795Y1268D01*
X34797Y1267D01*
X34803Y1245D01*
Y1242D01*
X34801Y1240D01*
X34790Y1213D01*
X34789Y1210D01*
X34787Y1208D01*
X34769Y1181D01*
X34768Y1179D01*
X34765Y1177D01*
X34750Y1158D01*
X34749Y1156D01*
X34745Y1154D01*
X34702Y1118D01*
X34696Y1114D01*
X34691Y1111D01*
X34645Y1112D01*
X34643Y1115D01*
X34250Y1508D01*
Y1821D01*
X34311Y1760D01*
X34453Y1902D01*
X34457Y1908D01*
X34477Y1953D01*
Y1968D01*
X34476Y1975D01*
X34462Y2025D01*
X34460Y2027D01*
X34291Y2194D01*
X34287Y2198D01*
X34250Y2209D01*
Y2397D01*
G37*
G36*
X33827Y2077D02*Y2078D01*
X33844Y2095D01*
X33846Y2096D01*
X33848Y2099D01*
X33870Y2124D01*
X33872Y2126D01*
X33901Y2154D01*
X33920Y2174D01*
X33927Y2182D01*
X34007Y2256D01*
X34016Y2263D01*
X34023Y2271D01*
X34105Y2336D01*
X34115Y2340D01*
X34123Y2347D01*
X34213Y2390D01*
X34222Y2393D01*
X34231Y2395D01*
X34250Y2397D01*
Y2209D01*
X34243Y2210D01*
X34239Y2209D01*
X34233D01*
X34184Y2190D01*
X34180Y2186D01*
X34174Y2183D01*
X34123Y2146D01*
X34119Y2140D01*
X34114Y2136D01*
X34074Y2099D01*
X34071Y2095D01*
X34023Y2048D01*
X34250Y1821D01*
Y1508D01*
X33791Y1967D01*
X33787Y1971D01*
X33788Y2015D01*
X33792Y2021D01*
X33795Y2027D01*
X33824Y2074D01*
X33827Y2077D01*
G37*
G36*
X37420Y2719D02*X37461Y2722D01*
X37470Y2721D01*
X37479D01*
X37556Y2685D01*
X37563Y2678D01*
X38289Y1952D01*
X38292Y1949D01*
X38290Y1904D01*
X38288Y1896D01*
X38284Y1891D01*
X38250Y1850D01*
X38248Y1846D01*
X38246Y1844D01*
X38226Y1826D01*
X38224Y1823D01*
X38222Y1822D01*
X38195Y1804D01*
X38192Y1803D01*
X38190D01*
X38164Y1793D01*
X38162Y1792D01*
X38160D01*
X38137Y1797D01*
X38136Y1799D01*
X37767Y2168D01*
X37552Y1953D01*
X37921Y1584D01*
X37922Y1582D01*
X37928Y1560D01*
Y1558D01*
X37927Y1556D01*
X37915Y1529D01*
X37914Y1526D01*
X37913Y1523D01*
X37895Y1497D01*
X37894Y1494D01*
X37891Y1493D01*
X37876Y1473D01*
X37874Y1472D01*
X37870Y1469D01*
X37827Y1433D01*
X37822Y1429D01*
X37816Y1426D01*
X37771Y1428D01*
X37768Y1431D01*
X37420Y1779D01*
Y2091D01*
X37436Y2076D01*
X37644Y2284D01*
X37422Y2504D01*
X37420Y2506D01*
Y2719D01*
G37*
G36*
X37138Y2581D02*X37145Y2590D01*
X37232Y2654D01*
X37241Y2660D01*
X37251Y2667D01*
X37348Y2709D01*
X37359Y2711D01*
X37368Y2715D01*
X37420Y2719D01*
Y2506D01*
X37417Y2510D01*
X37348Y2522D01*
X37341Y2518D01*
X37332Y2515D01*
X37264Y2468D01*
X37258Y2462D01*
X37251Y2456D01*
X37203Y2384D01*
X37200Y2376D01*
X37196Y2369D01*
X37208Y2303D01*
X37214Y2297D01*
X37420Y2091D01*
Y1779D01*
X37042Y2157D01*
X37035Y2164D01*
X36998Y2238D01*
X36996Y2246D01*
X36995Y2256D01*
X37005Y2351D01*
X37007Y2361D01*
X37010Y2371D01*
X37052Y2468D01*
X37058Y2476D01*
X37064Y2488D01*
X37130Y2574D01*
X37138Y2581D01*
G37*
G36*
X52973Y1960D02*X52967Y1956D01*
X52895Y1921D01*
X52888Y1918D01*
X52880Y1916D01*
X52800Y1896D01*
X52793Y1895D01*
X52785D01*
X52710Y1898D01*
X52703Y1899D01*
X52696Y1901D01*
X52638Y1930D01*
X52634Y1934D01*
X52312Y2256D01*
X52305Y2275D01*
X52306Y2277D01*
Y2280D01*
X52315Y2310D01*
X52316Y2313D01*
X52318Y2317D01*
X52331Y2344D01*
X52332Y2346D01*
X52334Y2348D01*
X52350Y2369D01*
X52352Y2371D01*
X52353Y2372D01*
X52374Y2386D01*
X52377Y2387D01*
X52380Y2390D01*
X52407Y2402D01*
X52411D01*
X52414Y2404D01*
X52436Y2410D01*
X52444D01*
X52447Y2412D01*
X52465Y2409D01*
X52466Y2408D01*
X52771Y2103D01*
X52794Y2096D01*
X52798Y2095D01*
X52802D01*
X52833Y2092D01*
X52836Y2091D01*
X52841D01*
X52885Y2102D01*
X52889Y2105D01*
X52892Y2109D01*
X52933Y2146D01*
X52939Y2150D01*
X52944Y2157D01*
X52993Y2227D01*
X52997Y2235D01*
X53000Y2245D01*
X52990Y2314D01*
X52986Y2318D01*
X52680Y2624D01*
X52675Y2645D01*
X52676Y2647D01*
Y2650D01*
X52685Y2678D01*
X52688Y2680D01*
X52690Y2685D01*
X52705Y2715D01*
X52707Y2718D01*
X52709Y2721D01*
X52724Y2743D01*
X52727Y2744D01*
X52730Y2747D01*
X52775Y2774D01*
X52782Y2776D01*
X52787Y2778D01*
X52831D01*
X53160Y2450D01*
X53190Y2393D01*
X53191Y2384D01*
X53192Y2379D01*
X53195Y2306D01*
Y2297D01*
X53194Y2291D01*
X53176Y2212D01*
X53173Y2204D01*
X53169Y2197D01*
X53133Y2122D01*
X53129Y2116D01*
X53503Y1741D01*
X53504Y1739D01*
X53510Y1717D01*
Y1714D01*
X53508Y1713D01*
X53500Y1688D01*
X53498Y1684D01*
X53497Y1681D01*
X53479Y1655D01*
X53478Y1652D01*
X53475Y1651D01*
X53460Y1632D01*
X53458Y1630D01*
X53456Y1629D01*
X53437Y1613D01*
X53435Y1610D01*
X53432Y1609D01*
X53407Y1592D01*
X53405Y1590D01*
X53400Y1589D01*
X53374Y1578D01*
X53372Y1577D01*
X53365D01*
X53350Y1585D01*
X53348Y1586D01*
X52973Y1960D01*
G37*
G36*
X53581Y2107D02*X53551Y2138D01*
X53548Y2142D01*
X53551Y2190D01*
X53553Y2196D01*
X53555Y2202D01*
X53585Y2251D01*
X53589Y2254D01*
X53596Y2262D01*
X53661Y2292D01*
X53666Y2291D01*
X53672Y2289D01*
X53727Y2268D01*
X53733Y2266D01*
X53738Y2263D01*
X53800Y2249D01*
X53807Y2248D01*
X53831D01*
X53895Y2296D01*
X53905Y2304D01*
X53908Y2309D01*
X53932Y2339D01*
X53935Y2342D01*
X53936Y2346D01*
X53957Y2383D01*
X53960Y2386D01*
X53961Y2390D01*
X53968Y2417D01*
Y2435D01*
X53954Y2462D01*
X53953Y2464D01*
X53785Y2631D01*
X53779Y2637D01*
X53726Y2653D01*
X53720Y2652D01*
X53713Y2650D01*
X53653Y2620D01*
X53647Y2614D01*
X53640Y2610D01*
X53580Y2561D01*
X53574Y2555D01*
X53567Y2551D01*
X53512Y2511D01*
X53508Y2508D01*
X53501Y2505D01*
X53434Y2476D01*
X53427Y2474D01*
X53419Y2472D01*
X53345Y2457D01*
X53339Y2456D01*
X53330D01*
X53261Y2462D01*
X53256Y2463D01*
X53249Y2464D01*
X53197Y2492D01*
X53192Y2496D01*
X52993Y2697D01*
X52986Y2703D01*
X52953Y2776D01*
Y2784D01*
X52951Y2794D01*
X52962Y2886D01*
X52967Y2896D01*
X52969Y2906D01*
X53011Y3002D01*
X53017Y3011D01*
X53023Y3021D01*
X53088Y3106D01*
X53096Y3113D01*
X53104Y3123D01*
X53198Y3194D01*
X53209Y3200D01*
X53219Y3205D01*
X53320Y3243D01*
X53332Y3244D01*
X53341Y3247D01*
X53437Y3246D01*
X53446Y3243D01*
X53454Y3242D01*
X53531Y3200D01*
X53538Y3193D01*
X53566Y3164D01*
X53567Y3160D01*
X53566Y3112D01*
X53565Y3106D01*
X53562Y3102D01*
X53529Y3061D01*
X53526Y3057D01*
X53518Y3048D01*
X53450Y3014D01*
X53445D01*
X53439Y3016D01*
X53385Y3033D01*
X53381Y3036D01*
X53376Y3039D01*
X53318Y3055D01*
X53312D01*
X53306Y3057D01*
X53228Y3011D01*
X53220Y3002D01*
X53217Y2999D01*
X53191Y2968D01*
X53188Y2964D01*
X53186Y2962D01*
X53164Y2923D01*
X53162Y2919D01*
X53160Y2916D01*
X53150Y2878D01*
Y2865D01*
X53162Y2839D01*
X53165Y2836D01*
X53333Y2668D01*
X53337Y2664D01*
X53387Y2647D01*
X53392D01*
X53398Y2649D01*
X53453Y2675D01*
X53460Y2678D01*
X53465Y2682D01*
X53520Y2725D01*
X53526Y2729D01*
X53530Y2734D01*
X53577Y2773D01*
X53581Y2776D01*
X53587Y2781D01*
X53660Y2821D01*
X53669Y2824D01*
X53678Y2828D01*
X53759Y2846D01*
X53767D01*
X53774Y2847D01*
X53850Y2843D01*
X53857Y2840D01*
X53864Y2839D01*
X53920Y2810D01*
X53926Y2805D01*
X54138Y2592D01*
X54167Y2530D01*
Y2501D01*
X54154Y2409D01*
X54152Y2398D01*
X54148Y2388D01*
X54105Y2295D01*
X54099Y2285D01*
X54092Y2275D01*
X54029Y2194D01*
X54022Y2187D01*
X54012Y2179D01*
X53919Y2106D01*
X53909Y2100D01*
X53898Y2095D01*
X53799Y2058D01*
X53789Y2055D01*
X53778Y2054D01*
X53683Y2055D01*
X53675Y2056D01*
X53665Y2059D01*
X53587Y2102D01*
X53581Y2107D01*
G37*
G36*
X53978Y3881D02*X53979Y3879D01*
X53997Y3841D01*
X54000Y3835D01*
X54001Y3831D01*
X53990Y3786D01*
X53986Y3782D01*
X53668Y3462D01*
X53960Y3170D01*
X54258Y3467D01*
X54263Y3473D01*
X54321Y3498D01*
X54328Y3496D01*
X54334D01*
X54380Y3477D01*
X54384Y3473D01*
X54386Y3472D01*
X54405Y3434D01*
X54407Y3429D01*
X54408Y3425D01*
X54397Y3378D01*
X54393Y3374D01*
X54070Y3051D01*
X54442Y2680D01*
X54444Y2679D01*
X54449Y2657D01*
Y2654D01*
X54448Y2653D01*
X54437Y2625D01*
X54435Y2621D01*
X54434Y2620D01*
X54416Y2592D01*
X54415Y2590D01*
X54412Y2588D01*
X54397Y2569D01*
X54396Y2568D01*
X54391Y2565D01*
X54349Y2530D01*
X54343Y2526D01*
X54338Y2524D01*
X54292Y2525D01*
X54289Y2528D01*
X53438Y3379D01*
X53435Y3382D01*
X53437Y3428D01*
X53440Y3433D01*
X53443Y3440D01*
X53471Y3487D01*
X53474Y3489D01*
X53855Y3871D01*
X53861Y3877D01*
X53917Y3901D01*
X53924Y3900D01*
X53936D01*
X53974Y3885D01*
X53978Y3881D01*
G37*
G36*
X47285Y2832D02*X47288Y2836D01*
X47333Y2863D01*
X47339Y2864D01*
X47344Y2867D01*
X47390Y2868D01*
X47394Y2867D01*
X48172Y2488D01*
X48179Y2494D01*
X47800Y3274D01*
X47799Y3279D01*
X47804Y3327D01*
X47807Y3332D01*
X47808Y3339D01*
X47839Y3388D01*
X47843Y3390D01*
X47846Y3393D01*
X47890Y3421D01*
X47897Y3423D01*
X47902Y3426D01*
X47948D01*
X47950Y3423D01*
X48799Y2573D01*
X48802Y2570D01*
Y2524D01*
X48799Y2517D01*
X48795Y2512D01*
X48762Y2471D01*
X48760Y2467D01*
X48757Y2466D01*
X48738Y2448D01*
X48736Y2445D01*
X48733Y2443D01*
X48706Y2426D01*
X48703Y2424D01*
X48700Y2423D01*
X48675Y2414D01*
X48673Y2413D01*
X48670D01*
X48648Y2419D01*
X48646Y2420D01*
X48295Y2771D01*
X48513Y2309D01*
X48517Y2299D01*
X48492Y2200D01*
X48482Y2189D01*
X48476Y2183D01*
X48424Y2146D01*
X48420Y2144D01*
X48416Y2143D01*
X48364Y2151D01*
X48358Y2154D01*
X47895Y2372D01*
X48248Y2019D01*
X48254Y1997D01*
Y1994D01*
X48252Y1993D01*
X48243Y1965D01*
X48241Y1961D01*
X48240Y1960D01*
X48222Y1932D01*
X48220Y1930D01*
X48218Y1928D01*
X48201Y1909D01*
Y1908D01*
X48197Y1905D01*
X48153Y1870D01*
X48148Y1866D01*
X48142Y1863D01*
X48096Y1865D01*
X48094Y1867D01*
X47244Y2718D01*
X47242Y2719D01*
X47237Y2736D01*
Y2743D01*
X47246Y2770D01*
X47248Y2773D01*
X47249Y2777D01*
X47263Y2805D01*
X47264Y2806D01*
X47265Y2809D01*
X47282Y2831D01*
X47285Y2832D01*
G37*
G36*
X55986Y1963D02*X55951Y1997D01*
X55940Y2008D01*
X55862Y2140D01*
X55858Y2155D01*
X55852Y2172D01*
X55838Y2342D01*
X55841Y2359D01*
Y2362D01*
X55847Y2397D01*
X55848Y2402D01*
Y2408D01*
X55855Y2470D01*
X55856Y2476D01*
Y2484D01*
X55865Y2546D01*
X55866Y2551D01*
Y2558D01*
X55872Y2595D01*
X55873Y2596D01*
X55874Y2608D01*
Y2736D01*
X55873Y2748D01*
X55831Y2844D01*
X55824Y2851D01*
X55641Y3036D01*
X55636Y3042D01*
X55567Y3053D01*
X55560Y3048D01*
X55552Y3046D01*
X55481Y2999D01*
X55476Y2992D01*
X55469Y2986D01*
X55428Y2929D01*
X55426Y2923D01*
X55423Y2919D01*
X55419Y2875D01*
X55421Y2871D01*
Y2868D01*
X55433Y2829D01*
X55436Y2825D01*
X55437Y2822D01*
X55454Y2788D01*
X55455Y2784D01*
Y2781D01*
X55454Y2741D01*
Y2736D01*
X55452Y2733D01*
X55419Y2686D01*
X55415Y2680D01*
X55403Y2668D01*
X55294Y2654D01*
X55284Y2664D01*
X55277Y2671D01*
X55232Y2748D01*
X55229Y2756D01*
X55226Y2766D01*
X55222Y2861D01*
X55225Y2871D01*
X55226Y2882D01*
X55262Y2984D01*
X55268Y2993D01*
X55273Y3004D01*
X55348Y3104D01*
X55357Y3112D01*
X55364Y3120D01*
X55450Y3185D01*
X55460Y3190D01*
X55469Y3197D01*
X55567Y3240D01*
X55578Y3243D01*
X55588Y3246D01*
X55681Y3252D01*
X55691Y3251D01*
X55699D01*
X55774Y3217D01*
X55780Y3210D01*
X55998Y2992D01*
X56005Y2985D01*
X56057Y2891D01*
X56060Y2880D01*
X56061Y2871D01*
X56073Y2756D01*
Y2744D01*
X56071Y2733D01*
X56059Y2610D01*
X56057Y2596D01*
X56055Y2585D01*
X56038Y2463D01*
X56037Y2450D01*
X56035Y2439D01*
X56033Y2325D01*
X56034Y2314D01*
Y2304D01*
X56067Y2213D01*
X56073Y2205D01*
X56368Y2500D01*
X56425Y2525D01*
X56432Y2524D01*
X56438D01*
X56485Y2504D01*
X56489Y2500D01*
X56490Y2499D01*
X56510Y2466D01*
X56511Y2460D01*
X56512Y2456D01*
X56498Y2409D01*
X56494Y2405D01*
X56064Y1974D01*
X56061Y1972D01*
X56028Y1959D01*
X56026Y1957D01*
X56020D01*
X55987Y1963D01*
X55986D01*
G37*
G36*
X55030Y2680D02*X55105Y2686D01*
X55116Y2685D01*
X55127D01*
X55159Y2676D01*
X55164Y2675D01*
X55169D01*
X55203Y2659D01*
X55206Y2656D01*
X55412Y2450D01*
X55415Y2448D01*
X55441Y2395D01*
X55444Y2388D01*
X55446Y2382D01*
X55454Y2335D01*
Y2277D01*
X55415Y2164D01*
X55408Y2151D01*
X55400Y2140D01*
X55309Y2026D01*
X55298Y2014D01*
X55206Y1921D01*
X55575Y1551D01*
X55577Y1549D01*
X55582Y1527D01*
Y1524D01*
X55581Y1523D01*
X55571Y1496D01*
X55570Y1493D01*
X55568Y1491D01*
X55550Y1464D01*
X55549Y1461D01*
X55546Y1460D01*
X55529Y1440D01*
X55528Y1439D01*
X55524Y1436D01*
X55481Y1402D01*
X55476Y1398D01*
X55470Y1395D01*
X55425D01*
X55422Y1398D01*
X55030Y1790D01*
Y2103D01*
X55090Y2042D01*
X55232Y2184D01*
X55236Y2190D01*
X55257Y2245D01*
Y2251D01*
X55256Y2259D01*
X55242Y2307D01*
X55239Y2310D01*
X55071Y2478D01*
X55066Y2482D01*
X55030Y2492D01*
Y2680D01*
G37*
G36*
X54608Y2361D02*Y2362D01*
X54623Y2377D01*
X54626Y2379D01*
X54627Y2382D01*
X54650Y2406D01*
X54653Y2409D01*
X54700Y2456D01*
X54707Y2464D01*
X54787Y2539D01*
X54795Y2546D01*
X54803Y2554D01*
X54886Y2618D01*
X54896Y2623D01*
X54904Y2630D01*
X54992Y2672D01*
X55002Y2675D01*
X55010Y2678D01*
X55030Y2680D01*
Y2492D01*
X55024Y2493D01*
X55020Y2492D01*
X55014D01*
X54965Y2472D01*
X54961Y2468D01*
X54955Y2466D01*
X54903Y2428D01*
X54898Y2423D01*
X54893Y2419D01*
X54853Y2382D01*
X54850Y2377D01*
X54803Y2330D01*
X55030Y2103D01*
Y1790D01*
X54570Y2249D01*
X54568Y2254D01*
X54569Y2299D01*
X54573Y2304D01*
X54576Y2311D01*
X54605Y2358D01*
X54608Y2361D01*
G37*
G36*
X56627Y2540D02*X56621Y2537D01*
X56576Y2524D01*
X56572D01*
X56567Y2525D01*
X56534Y2543D01*
X56527Y2550D01*
X56510Y2601D01*
X56511Y2608D01*
Y2625D01*
X56538Y2675D01*
X56544Y2679D01*
X56769Y2904D01*
X56770Y2906D01*
X56782Y2930D01*
X56784Y2933D01*
Y2937D01*
X56789Y2962D01*
Y2980D01*
X56785Y3006D01*
Y3009D01*
X56784Y3011D01*
X56773Y3032D01*
X56604Y3200D01*
X56602Y3203D01*
X56572Y3214D01*
X56569Y3213D01*
X56556D01*
X56526Y3205D01*
X56523Y3203D01*
X56518Y3201D01*
X56476Y3179D01*
X56472Y3177D01*
X56468Y3175D01*
X56436Y3152D01*
X56434Y3149D01*
X56431Y3148D01*
X56395Y3113D01*
X56391Y3108D01*
X56385Y3104D01*
X56332Y3053D01*
X56326Y3047D01*
X56319Y3043D01*
X56265Y2991D01*
X56261Y2985D01*
X56256Y2981D01*
X56222Y2949D01*
X56220Y2947D01*
X56217Y2945D01*
X56181Y2930D01*
X56177Y2929D01*
X56173D01*
X56144Y2931D01*
X56143Y2933D01*
X55698Y3379D01*
X55695Y3382D01*
X55696Y3428D01*
X55699Y3433D01*
X55702Y3440D01*
X55731Y3487D01*
X56115Y3871D01*
X56119Y3877D01*
X56176Y3901D01*
X56183Y3900D01*
X56197D01*
X56234Y3885D01*
X56238Y3881D01*
X56239Y3879D01*
X56257Y3841D01*
X56258Y3835D01*
X56260Y3831D01*
X56250Y3786D01*
X56246Y3782D01*
X55927Y3462D01*
X56217Y3172D01*
X56225Y3181D01*
X56308Y3254D01*
X56316Y3261D01*
X56325Y3269D01*
X56412Y3335D01*
X56421Y3341D01*
X56430Y3347D01*
X56523Y3394D01*
X56533Y3397D01*
X56541Y3401D01*
X56638Y3409D01*
X56649Y3408D01*
X56660D01*
X56691Y3400D01*
X56697Y3399D01*
X56701D01*
X56737Y3381D01*
X56740Y3378D01*
X56946Y3172D01*
X56952Y3167D01*
X56986Y3094D01*
X56987Y3084D01*
Y3076D01*
X56981Y2984D01*
X56978Y2973D01*
X56975Y2963D01*
X56937Y2868D01*
X56931Y2858D01*
X56926Y2850D01*
X56862Y2764D01*
X56855Y2756D01*
X56847Y2750D01*
X56844Y2748D01*
X56808Y2711D01*
X56804Y2705D01*
X56799Y2701D01*
X56742Y2650D01*
X56737Y2645D01*
X56730Y2639D01*
X56675Y2585D01*
X56669Y2580D01*
X56664Y2576D01*
X56628Y2543D01*
X56627Y2540D01*
G37*
G36*
X48446Y3893D02*X48522Y3900D01*
X48533Y3899D01*
X48536D01*
X48574Y3890D01*
X48580Y3889D01*
X48584D01*
X48619Y3872D01*
X48622Y3870D01*
X48828Y3663D01*
X48831Y3662D01*
X48848Y3627D01*
X48849Y3623D01*
Y3620D01*
X48857Y3578D01*
X48858Y3572D01*
Y3568D01*
X48863Y3529D01*
X48864Y3525D01*
Y3522D01*
X48872Y3499D01*
X48874Y3498D01*
X48896Y3491D01*
X48900Y3489D01*
X48911D01*
X48941Y3488D01*
X48945Y3487D01*
X48949D01*
X48989Y3481D01*
X48994Y3480D01*
X48996D01*
X49027Y3466D01*
X49030Y3463D01*
X49359Y3133D01*
X49361Y3130D01*
Y3083D01*
X49359Y3076D01*
X49355Y3072D01*
X49322Y3030D01*
X49319Y3026D01*
X49316Y3025D01*
X49297Y3007D01*
X49295Y3004D01*
X49293Y3003D01*
X49265Y2985D01*
X49262Y2984D01*
X49260D01*
X49235Y2974D01*
X49232Y2973D01*
X49229D01*
X49208Y2978D01*
X49207Y2980D01*
X48898Y3288D01*
X48896Y3291D01*
X48864Y3301D01*
X48860Y3299D01*
X48856Y3301D01*
X48816Y3291D01*
X48812Y3288D01*
X48806Y3287D01*
X48765Y3266D01*
X48761Y3263D01*
X48757Y3262D01*
X48725Y3236D01*
X48723Y3233D01*
X48722D01*
X48704Y3214D01*
X48703Y3211D01*
X48700Y3210D01*
X48677Y3184D01*
X48674Y3181D01*
X48671Y3179D01*
X48646Y3152D01*
X48645Y3149D01*
X48642Y3148D01*
X48626Y3131D01*
Y3130D01*
X48991Y2764D01*
X48992Y2763D01*
X48999Y2741D01*
Y2738D01*
X48998Y2737D01*
X48987Y2709D01*
X48985Y2707D01*
X48984Y2704D01*
X48966Y2678D01*
X48965Y2675D01*
X48962Y2672D01*
X48947Y2653D01*
X48945Y2652D01*
X48941Y2649D01*
X48898Y2614D01*
X48893Y2610D01*
X48887Y2608D01*
X48842Y2609D01*
X48839Y2612D01*
X48446Y3005D01*
Y3318D01*
X48507Y3256D01*
X48649Y3399D01*
X48653Y3403D01*
X48673Y3458D01*
Y3480D01*
X48659Y3521D01*
X48656Y3524D01*
X48488Y3691D01*
X48484Y3695D01*
X48446Y3705D01*
Y3893D01*
G37*
G36*
X48023Y3574D02*Y3575D01*
X48040Y3592D01*
X48043Y3593D01*
X48044Y3596D01*
X48066Y3620D01*
X48069Y3622D01*
X48117Y3670D01*
X48124Y3678D01*
X48204Y3753D01*
X48212Y3759D01*
X48219Y3768D01*
X48302Y3833D01*
X48311Y3837D01*
X48320Y3844D01*
X48409Y3886D01*
X48419Y3889D01*
X48427Y3892D01*
X48446Y3893D01*
Y3705D01*
X48440Y3707D01*
X48436Y3706D01*
X48430D01*
X48380Y3685D01*
X48376Y3681D01*
X48371Y3678D01*
X48320Y3642D01*
X48316Y3637D01*
X48310Y3633D01*
X48269Y3596D01*
X48266Y3592D01*
X48219Y3544D01*
X48446Y3318D01*
Y3005D01*
X47988Y3463D01*
X47984Y3466D01*
X47985Y3512D01*
X47989Y3517D01*
X47992Y3524D01*
X48021Y3571D01*
X48023Y3574D01*
G37*
G36*
X51292Y3276D02*X51290Y3280D01*
X51277Y3324D01*
Y3330D01*
X51275Y3335D01*
X51264Y3376D01*
Y3379D01*
X51259Y3385D01*
X51254Y3382D01*
X51213Y3343D01*
X51209Y3339D01*
X51205Y3336D01*
X51165Y3308D01*
X51161Y3305D01*
X51157Y3304D01*
X51125Y3294D01*
X51115D01*
X51111Y3295D01*
X51074Y3313D01*
X51071Y3316D01*
X51067Y3320D01*
X51050Y3349D01*
Y3359D01*
X51049Y3363D01*
X51059Y3403D01*
X51062Y3405D01*
X51063Y3409D01*
X51090Y3451D01*
X51095Y3455D01*
X51098Y3459D01*
X51136Y3500D01*
X51140Y3503D01*
X51135Y3509D01*
X51090Y3525D01*
X51085D01*
X51078Y3527D01*
X51028Y3542D01*
X51026Y3543D01*
X51023Y3546D01*
X51019Y3550D01*
X51006Y3601D01*
X51009Y3606D01*
X51011Y3613D01*
X51045Y3671D01*
X51050Y3676D01*
X51056Y3682D01*
X51107Y3714D01*
X51125D01*
X51130Y3716D01*
X51195Y3711D01*
X51202Y3709D01*
X51201Y3716D01*
X51194Y3779D01*
X51195Y3784D01*
Y3791D01*
X51228Y3855D01*
X51235Y3860D01*
X51246Y3872D01*
X51354Y3885D01*
X51364Y3875D01*
X51366Y3872D01*
X51385Y3835D01*
Y3812D01*
X51400Y3779D01*
X51405Y3775D01*
X51407Y3772D01*
X51410Y3776D01*
X51450Y3812D01*
X51454Y3815D01*
X51458Y3819D01*
X51500Y3848D01*
X51504Y3849D01*
X51508Y3852D01*
X51548Y3862D01*
X51552Y3860D01*
X51555Y3862D01*
X51591Y3845D01*
X51595Y3841D01*
X51598Y3838D01*
X51617Y3808D01*
Y3786D01*
X51606Y3753D01*
X51604Y3748D01*
X51602Y3746D01*
X51573Y3704D01*
X51570Y3700D01*
X51566Y3696D01*
X51529Y3658D01*
X51526Y3654D01*
X51529Y3651D01*
X51532Y3648D01*
X51567Y3630D01*
X51592D01*
X51627Y3613D01*
X51631Y3609D01*
X51639Y3600D01*
X51627Y3494D01*
X51616Y3481D01*
X51609Y3476D01*
X51545Y3440D01*
X51540Y3438D01*
X51520D01*
X51469Y3447D01*
X51464Y3448D01*
X51465Y3441D01*
X51471Y3376D01*
Y3370D01*
X51469Y3364D01*
X51436Y3304D01*
X51431Y3297D01*
X51424Y3291D01*
X51365Y3255D01*
X51359Y3254D01*
X51352D01*
X51299Y3269D01*
X51294Y3273D01*
X51292Y3276D01*
G37*
G36*
X51216Y2138D02*X51213Y2136D01*
X51177Y2121D01*
X51173Y2120D01*
X51169D01*
X51139Y2124D01*
X51137Y2125D01*
X50921Y2342D01*
Y2656D01*
X51213Y2364D01*
X51316Y2467D01*
Y2468D01*
X51319Y2481D01*
X51320Y2482D01*
Y2485D01*
X51323Y2501D01*
Y2537D01*
X51303Y2618D01*
X51299Y2628D01*
X51294Y2638D01*
X51244Y2730D01*
X51238Y2738D01*
X51231Y2748D01*
X51164Y2828D01*
X51148Y2843D01*
X51084Y2911D01*
X51078Y2916D01*
X51067Y2929D01*
X50952Y3028D01*
X50940Y3036D01*
X50928Y3046D01*
X50921Y3050D01*
Y3306D01*
X50966Y3284D01*
X50976Y3279D01*
X50984Y3274D01*
X51064Y3226D01*
X51073Y3221D01*
X51079Y3217D01*
X51135Y3170D01*
X51139Y3166D01*
X51328Y2977D01*
X51332Y2973D01*
X51378Y2916D01*
X51390Y2902D01*
X51439Y2824D01*
X51445Y2814D01*
X51449Y2806D01*
X51493Y2712D01*
X51497Y2701D01*
X51500Y2692D01*
X51520Y2592D01*
X51522Y2581D01*
Y2572D01*
X51511Y2471D01*
X51508Y2460D01*
X51505Y2450D01*
X51449Y2359D01*
X51436Y2347D01*
X51434Y2346D01*
X51398Y2310D01*
X51392Y2304D01*
X51387Y2300D01*
X51332Y2248D01*
X51326Y2242D01*
X51319Y2237D01*
X51263Y2183D01*
X51259Y2178D01*
X51253Y2174D01*
X51217Y2140D01*
X51216Y2138D01*
G37*
G36*
X50921Y2342D02*X50286Y2977D01*
X50283Y2980D01*
X50284Y3025D01*
X50288Y3030D01*
X50291Y3038D01*
X50319Y3084D01*
X50323Y3087D01*
X50517Y3281D01*
X50524Y3290D01*
X50612Y3343D01*
X50622Y3346D01*
X50632Y3349D01*
X50731Y3360D01*
X50742Y3359D01*
X50752D01*
X50852Y3335D01*
X50863Y3331D01*
X50873Y3328D01*
X50921Y3306D01*
Y3050D01*
X50796Y3130D01*
X50782Y3137D01*
X50779Y3138D01*
X50752Y3146D01*
X50749Y3148D01*
X50745Y3149D01*
X50703Y3159D01*
X50699D01*
X50694Y3160D01*
X50651Y3164D01*
X50648Y3163D01*
X50643D01*
X50608Y3149D01*
X50607Y3146D01*
X50519Y3058D01*
X50921Y2656D01*
Y2342D01*
G37*
G54D108*X12910Y4112D02*X11731D01*
X13562Y2751D02*X12910Y4112D01*
X12360Y3587D02*X12478D01*
X14200Y4112D02*X13562Y2751D01*
X15400Y4112D02*X14200D01*
X14641Y3593D02*X14765D01*
X15400Y2001D02*Y4112D01*
X14765Y2001D02*X15400D01*
X14765Y3593D02*Y2001D01*
X13829Y2010D02*X14641Y3593D01*
X13296Y2010D02*X13829D01*
X11731Y2002D02*X12360D01*
X12478Y3587D02*X13296Y2010D01*
X12360Y2002D02*Y3587D01*
G54D109*X24018Y4110D02*X23376Y2728D01*
X25191Y4110D02*X24018D01*
X24454Y3602D02*X24593D01*
X21870Y4112D02*X20806Y2000D01*
X22728Y4112D02*X21870D01*
X23376Y2728D02*X22728Y4112D01*
X22282Y3641D02*X23103Y2008D01*
X21451Y2000D02*X22282Y3641D01*
X20806Y2000D02*X21451D01*
X25191Y2006D02*Y4110D01*
X24593Y2006D02*X25191D01*
X24593Y3602D02*Y2006D01*
X23650Y2008D02*X24454Y3602D01*
X23103Y2008D02*X23650D01*
G54D110*X7979Y4112D02*X6877Y2001D01*
X8868Y4112D02*X7979D01*
X9538Y2734D02*X8868Y4112D01*
X8405Y3653D02*X9255Y2009D01*
X7545Y2001D02*X8405Y3653D01*
X6877Y2001D02*X7545D01*
G54D108*X11731Y4112D02*Y2002D01*
G54D110*X11416Y2008D02*Y4112D01*
X10799Y2008D02*X11416D01*
X10203Y4112D02*X9538Y2734D01*
X11416Y4112D02*X10203D01*
X10799Y3613D02*Y2008D01*
X10654Y3613D02*X10799D01*
X9821Y2009D02*X10654Y3613D01*
X9255Y2009D02*X9821D01*
G54D111*X2741Y34227D02*X3008D01*
X2874D02*Y33160D01*
X2741D02*X3008D01*
X3861Y34227D02*X3994Y34094D01*
X3461Y34227D02*X3861D01*
X3328Y34094D02*X3461Y34227D01*
X3328Y34094D02*Y33294D01*
X3461Y33160D01*
X3861D01*
X3994Y33294D01*
Y33561D02*Y33294D01*
X3861Y33694D02*X3994Y33561D01*
X3594Y33694D02*X3861D01*
X4315Y34227D02*Y33160D01*
Y34227D02*X4981Y33160D01*
Y34227D02*Y33160D01*
X2747Y31687D02*Y30620D01*
X2614Y31687D02*X3147D01*
X3281Y31554D01*
Y31287D01*
X3147Y31154D02*X3281Y31287D01*
X2747Y31154D02*X3147D01*
X3601Y31687D02*X4134D01*
X3867D02*Y30620D01*
X4454Y31687D02*X4988D01*
X4721D02*Y30620D01*
X1471Y29147D02*X2004D01*
X1738D02*Y28080D01*
X2324D02*X2991Y29147D01*
X2324D02*X2991Y28080D01*
X3311Y29147D02*X3845D01*
X3978Y29014D01*
Y28747D01*
X3845Y28614D02*X3978Y28747D01*
X3445Y28614D02*X3845D01*
X3445Y29147D02*Y28080D01*
X3658Y28614D02*X3978Y28080D01*
X4298D02*X4965Y29147D01*
X4298D02*X4965Y28080D01*
X1725Y26607D02*X2258D01*
X2392Y26474D01*
Y26207D01*
X2258Y26074D02*X2392Y26207D01*
X1858Y26074D02*X2258D01*
X1858Y26607D02*Y25540D01*
X2072Y26074D02*X2392Y25540D01*
X3245Y26607D02*X3379Y26474D01*
X2845Y26607D02*X3245D01*
X2712Y26474D02*X2845Y26607D01*
X2712Y26474D02*Y26207D01*
X2845Y26074D01*
X3245D01*
X3379Y25941D01*
Y25674D01*
X3245Y25540D02*X3379Y25674D01*
X2845Y25540D02*X3245D01*
X2712Y25674D02*X2845Y25540D01*
X4232Y26607D02*X4365Y26474D01*
X3832Y26607D02*X4232D01*
X3699Y26474D02*X3832Y26607D01*
X3699Y26474D02*Y26207D01*
X3832Y26074D01*
X4232D01*
X4365Y25941D01*
Y25674D01*
X4232Y25540D02*X4365Y25674D01*
X3832Y25540D02*X4232D01*
X3699Y25674D02*X3832Y25540D01*
X4685Y26607D02*X4952D01*
X4819D02*Y25540D01*
X4685D02*X4952D01*
X25811Y1386D02*X25957Y1240D01*
X25811Y2262D02*X25957Y2408D01*
X25811Y2262D02*Y1386D01*
X26512Y1240D02*X26892D01*
X26308Y1444D02*X26512Y1240D01*
X26308Y2203D02*Y1444D01*
Y2203D02*X26512Y2408D01*
X26892D01*
X27242D02*X27388Y2262D01*
Y1386D01*
X27242Y1240D02*X27388Y1386D01*
X28265Y2408D02*Y1824D01*
X28411Y1240D01*
X28703Y1824D01*
X28995Y1240D01*
X29141Y1824D01*
Y2408D02*Y1824D01*
X29491Y2408D02*Y1240D01*
Y1824D02*X30076Y2408D01*
X29491Y1824D02*X30076Y1240D01*
X58844Y11596D02*X59910D01*
X58844Y11943D02*X59030Y12130D01*
X59724D01*
X59910Y11943D02*X59724Y12130D01*
X59910Y11943D02*Y11463D01*
X58844Y11943D02*Y11463D01*
X59910Y12983D02*Y12636D01*
X59724Y12450D02*X59910Y12636D01*
X59030Y12450D02*X59724D01*
X59030D02*X58844Y12636D01*
Y12983D02*Y12636D01*
X59057Y13303D02*X58844Y13517D01*
X59910D01*
Y13703D02*Y13303D01*
Y14157D02*X58844Y14690D01*
Y14023D01*
X59057Y15010D02*X58844Y15223D01*
X59910D01*
Y15410D02*Y15010D01*
Y15864D02*X58844Y16397D01*
Y15730D01*
X57447Y11996D02*Y11463D01*
Y11996D02*X57580Y12130D01*
X57847D01*
X57980Y11996D02*X57847Y12130D01*
X57980Y11996D02*Y11596D01*
X57447D02*X58514D01*
X57980Y11810D02*X58514Y12130D01*
X57660Y12450D02*X57447Y12663D01*
X58514D01*
Y12850D02*Y12450D01*
Y13303D02*Y13170D01*
X58380Y13623D02*X58514Y13757D01*
X57580Y13623D02*X58380D01*
X57580D02*X57447Y13757D01*
Y14023D02*Y13757D01*
Y14023D02*X57580Y14157D01*
X58380D01*
X58514Y14023D02*X58380Y14157D01*
X58514Y14023D02*Y13757D01*
X58247Y13623D02*X57713Y14157D01*
X2766Y24067D02*X2900Y23934D01*
X2366Y24067D02*X2766D01*
X2233Y23934D02*X2366Y24067D01*
X2233Y23934D02*Y23134D01*
X2366Y23000D01*
X2766D01*
X2900Y23134D01*
Y23401D02*Y23134D01*
X2766Y23534D02*X2900Y23401D01*
X2500Y23534D02*X2766D01*
X3220Y24067D02*Y23000D01*
Y24067D02*X3887Y23000D01*
Y24067D02*Y23000D01*
X4340Y24067D02*Y23000D01*
X4687Y24067D02*X4873Y23881D01*
Y23187D01*
X4687Y23000D02*X4873Y23187D01*
X4207Y23000D02*X4687D01*
X4207Y24067D02*X4687D01*
X25830Y3964D02*Y3087D01*
X25684Y4110D02*X25830Y3964D01*
X25976Y4110D01*
X26268D01*
X26414Y3964D01*
Y3672D01*
X26268Y3526D02*X26414Y3672D01*
X25976Y3526D02*X26268D01*
X25830Y3672D02*X25976Y3526D01*
X26765Y3964D02*Y3672D01*
Y3964D02*X26911Y4110D01*
X27203D01*
X27349Y3964D01*
Y3672D01*
X27203Y3526D02*X27349Y3672D01*
X26911Y3526D02*X27203D01*
X26765Y3672D02*X26911Y3526D01*
X28138Y4110D02*X28284Y3964D01*
X27846Y4110D02*X28138D01*
X27699Y3964D02*X27846Y4110D01*
X27699Y3964D02*Y3672D01*
X27846Y3526D01*
X28138D01*
X28284Y3672D01*
X27699Y3233D02*X27846Y3087D01*
X28138D01*
X28284Y3233D01*
Y4110D02*Y3233D01*
X37502Y48522D02*X37905D01*
X37285Y48739D02*X37502Y48522D01*
X37285Y49544D02*Y48739D01*
Y49544D02*X37502Y49761D01*
X37905D01*
X38494Y48522D02*X38896D01*
X38277Y48739D02*X38494Y48522D01*
X38277Y49544D02*Y48739D01*
Y49544D02*X38494Y49761D01*
X38896D01*
X39268Y49141D02*X39888D01*
X40260Y48522D02*X40880D01*
X41035Y48677D01*
Y49048D02*Y48677D01*
X40880Y49203D02*X41035Y49048D01*
X40415Y49203D02*X40880D01*
X40415Y49761D02*Y48522D01*
X40260Y49761D02*X40880D01*
X41035Y49606D01*
Y49358D01*
X40880Y49203D02*X41035Y49358D01*
X41406Y49761D02*X41716Y49141D01*
X42026Y49761D01*
X41716Y49141D02*Y48522D01*
X42398Y49141D02*X43018D01*
X43390Y49761D02*Y48522D01*
Y49761D02*X44164Y48522D01*
Y49761D02*Y48522D01*
X44753D02*X45156D01*
X44536Y48739D02*X44753Y48522D01*
X44536Y49544D02*Y48739D01*
Y49544D02*X44753Y49761D01*
X45156D01*
X45528Y49141D02*X46148D01*
X47139Y49761D02*X47294Y49606D01*
X46674Y49761D02*X47139D01*
X46519Y49606D02*X46674Y49761D01*
X46519Y49606D02*Y49296D01*
X46674Y49141D01*
X47139D01*
X47294Y48986D01*
Y48677D01*
X47139Y48522D02*X47294Y48677D01*
X46674Y48522D02*X47139D01*
X46519Y48677D02*X46674Y48522D01*
X47666Y49451D02*Y48522D01*
Y49451D02*X47883Y49761D01*
X48224D01*
X48441Y49451D01*
Y48522D01*
X47666Y49141D02*X48441D01*
G54D112*X37728Y5848D02*Y5648D01*
X39128Y5848D02*Y5648D01*
X37728Y12960D02*Y12760D01*
X39128Y12960D02*Y12760D01*
X35188Y5848D02*Y5648D01*
X36588Y5848D02*Y5648D01*
X35188Y12960D02*Y12760D01*
X36588Y12960D02*Y12760D01*
G54D113*X27422Y8304D02*X33622D01*
Y12804D02*Y8304D01*
X27422Y12804D02*X33622D01*
X27422D02*Y8304D01*
X26822Y9604D02*G75*G03X26522Y9304I0J-300D01*G01*
X27122D02*G75*G03X26822Y9604I-300J0D01*G01*
Y9004D02*G75*G03X27122Y9304I0J300D01*G01*
X26522D02*G75*G03X26822Y9004I300J0D01*G01*
G54D112*X23596Y10766D02*X23796D01*
X23596Y9366D02*X23796D01*
X23596Y11652D02*X23796D01*
X23596Y13052D02*X23796D01*
X23596Y5302D02*X23796D01*
X23596Y6702D02*X23796D01*
X23596Y7334D02*X23796D01*
X23596Y8734D02*X23796D01*
X25855Y39403D02*G75*G03X24839Y38387I0J-1016D01*G01*
X26871D02*G75*G03X25855Y39403I-1016J0D01*G01*
Y37371D02*G75*G03X26871Y38387I0J1016D01*G01*
X24839D02*G75*G03X25855Y37371I1016J0D01*G01*
G54D114*X25728Y29116D02*Y21496D01*
X20648Y29116D02*X25728D01*
X20648D02*Y21496D01*
X25728D01*
X23188Y24036D02*X25728D01*
X23188D02*Y21496D01*
G54D112*X30300Y22512D02*G75*G03X29284Y21496I0J-1016D01*G01*
X31316D02*G75*G03X30300Y22512I-1016J0D01*G01*
Y20480D02*G75*G03X31316Y21496I0J1016D01*G01*
X29284D02*G75*G03X30300Y20480I1016J0D01*G01*
X23696D02*G75*G03X22680Y19464I0J-1016D01*G01*
X24712D02*G75*G03X23696Y20480I-1016J0D01*G01*
Y18448D02*G75*G03X24712Y19464I0J1016D01*G01*
X22680D02*G75*G03X23696Y18448I1016J0D01*G01*
G54D114*X20648Y31656D02*X25728D01*
Y34196D02*Y31656D01*
X20648Y34196D02*X25728D01*
X20648D02*Y31656D01*
X23188Y34196D02*Y31656D01*
X20648Y34196D02*X23188D01*
G54D112*X23596Y16224D02*X23796D01*
X23596Y17624D02*X23796D01*
X23596Y13938D02*X23796D01*
X23596Y15338D02*X23796D01*
X14298Y21750D02*G75*G03X13282Y20734I0J-1016D01*G01*
X15314D02*G75*G03X14298Y21750I-1016J0D01*G01*
Y19718D02*G75*G03X15314Y20734I0J1016D01*G01*
X13282D02*G75*G03X14298Y19718I1016J0D01*G01*
G54D114*X12901Y18829D02*Y14003D01*
X20775D01*
Y18829D01*
X12901D02*X16203D01*
X20775D02*X17473D01*
X16203D02*G75*G03X17473Y18829I635J0D01*G01*
G54D115*X20378Y12480D02*Y5280D01*
X13378Y12480D02*X20378D01*
X13378D02*X13378Y5280D01*
X13378D02*X20378D01*
X16878Y9580D02*Y8180D01*
X16178Y8880D02*X17578D01*
X19078Y12480D02*Y12180D01*
X18178D02*X19078D01*
X18178Y12480D02*Y12180D01*
X15578Y12480D02*Y12180D01*
X14678D02*X15578D01*
X14678Y12480D02*Y12180D01*
X16878Y7780D02*G75*G03X17978Y8880I0J1100D01*G01*
X15778D02*G75*G03X16878Y7780I1100J0D01*G01*
X17978Y8880D02*G75*G03X16878Y9980I-1100J0D01*G01*
G75*G03X15778Y8880I0J-1100D01*G01*
G54D112*X9118Y8858D02*X9318D01*
X9118Y10258D02*X9318D01*
G54D116*X7288Y7856D02*Y5672D01*
G54D114*X7897Y5367D01*
X11910D01*
Y8161D01*
X7897D01*
X7288Y7856D01*
G54D112*X56616Y20034D02*X56816D01*
X56616Y21434D02*X56816D01*
G54D113*X56264Y27274D02*Y23184D01*
X53612Y22830D02*X55910D01*
X56264Y23184D02*X55910Y22830D01*
X53612Y27274D02*Y22830D01*
Y27274D02*X56264D01*
G54D114*X28938Y15616D02*X32038D01*
Y20016D01*
X28938D01*
Y15616D01*
X28238Y16166D02*G75*G03X28238Y16166I200J0D01*G01*
X37539Y18804D02*Y15273D01*
X34288Y18804D02*X37539D01*
X34288D02*Y15273D01*
X37539D01*
X49718Y31914D02*Y19714D01*
X48518D02*X49718D01*
X48518Y31914D02*X49718D01*
X44918D02*Y19714D01*
Y31914D02*X46118D01*
X44918Y19714D02*X46118D01*
G54D112*X40268Y5848D02*Y5648D01*
X41668Y5848D02*Y5648D01*
X45348Y5848D02*Y5648D01*
X46748Y5848D02*Y5648D01*
X42808Y5848D02*Y5648D01*
X44208Y5848D02*Y5648D01*
X47888Y5848D02*Y5648D01*
X49288Y5848D02*Y5648D01*
X50428Y5848D02*Y5648D01*
X51828Y5848D02*Y5648D01*
X52968Y5848D02*Y5648D01*
X54368Y5848D02*Y5648D01*
G54D114*X34618Y8034D02*X60018D01*
Y10574D02*Y8034D01*
X34618Y10574D02*X60018D01*
X34618D02*Y8034D01*
X37158Y10574D02*Y8034D01*
X34618Y10574D02*X37158D01*
G54D112*X55508Y5848D02*Y5648D01*
X56908Y5848D02*Y5648D01*
X55508Y12960D02*Y12760D01*
X56908Y12960D02*Y12760D01*
X45348Y12960D02*Y12760D01*
X46748Y12960D02*Y12760D01*
X47888Y12960D02*Y12760D01*
X49288Y12960D02*Y12760D01*
X50428Y12960D02*Y12760D01*
X51828Y12960D02*Y12760D01*
X52968Y12960D02*Y12760D01*
X54368Y12960D02*Y12760D01*
X42808Y12960D02*Y12760D01*
X44208Y12960D02*Y12760D01*
X40268Y12960D02*Y12760D01*
X41668Y12960D02*Y12760D01*
X9118Y14830D02*X9318D01*
X9118Y13430D02*X9318D01*
X9118Y11144D02*X9318D01*
X9118Y12544D02*X9318D01*
X9118Y15716D02*X9318D01*
X9118Y17116D02*X9318D01*
G54D116*X6780Y20302D02*Y18118D01*
G54D114*X7389Y17813D01*
X11402D01*
Y20607D02*Y17813D01*
X7389Y20607D02*X11402D01*
X7389D02*X6780Y20302D01*
X6678Y34958D02*Y22258D01*
X11758D01*
Y34958D01*
X6678D01*
Y32418D02*X9218D01*
Y34958D01*
G54D116*X16508Y22868D02*X18692D01*
G54D114*X18997Y23477D01*
Y27490D02*Y23477D01*
X16203Y27490D02*X18997D01*
X16203D02*Y23477D01*
X16508Y22868D01*
X20013Y32139D02*Y28608D01*
X16762Y32139D02*X20013D01*
X16762D02*Y28608D01*
X20013D01*
X15949Y32139D02*Y28608D01*
X12698Y32139D02*X15949D01*
X12698D02*Y28608D01*
X15949D01*
G54D112*X21856Y45726D02*Y45526D01*
X20456Y45726D02*Y45526D01*
X10742Y48293D02*G75*G03X9726Y47277I0J-1016D01*G01*
X11758D02*G75*G03X10742Y48293I-1016J0D01*G01*
Y46261D02*G75*G03X11758Y47277I0J1016D01*G01*
X9726D02*G75*G03X10742Y46261I1016J0D01*G01*
G54D116*X19530Y46718D02*Y44534D01*
G54D114*Y46718D02*X18921Y47023D01*
X14908D02*X18921D01*
X14908D02*Y44229D01*
X18921D01*
X19530Y44534D01*
G54D115*X6948Y45332D02*Y38132D01*
X13948D01*
X13948Y45332D01*
X13948D02*X6948D01*
X10448Y42432D02*Y41032D01*
X9748Y41732D02*X11148D01*
X8248Y38132D02*Y38432D01*
X9148D01*
Y38132D01*
X11748D02*Y38432D01*
X12648D01*
Y38132D01*
X10448Y42832D02*G75*G03X9348Y41732I0J-1100D01*G01*
X11548D02*G75*G03X10448Y42832I-1100J0D01*G01*
X9348Y41732D02*G75*G03X10448Y40632I1100J0D01*G01*
G75*G03X11548Y41732I0J1100D01*G01*
G54D112*X16268Y41154D02*Y40954D01*
X14868Y41154D02*Y40954D01*
G54D114*X18997Y35593D02*X23823D01*
Y43467D02*Y35593D01*
X18997Y43467D02*X23823D01*
X18997Y38895D02*Y35593D01*
Y43467D02*Y40165D01*
Y38895D02*G75*G03X18997Y40165I0J635D01*G01*
X34389Y39479D02*X44905D01*
Y46718D02*Y39479D01*
X34389Y46718D02*X44905D01*
X34389D02*Y39479D01*
G54D112*X30736Y23710D02*X39796D01*
X30736Y33506D02*Y23710D01*
Y33506D02*X40532D01*
Y24446D01*
X39796Y23710D01*
X40050Y24446D02*G75*G03X40050Y24446I-254J0D01*G01*
X44178Y36802D02*X45378D01*
X44178Y38702D02*X45378D01*
G54D117*X57066Y35078D02*X65866D01*
Y47578D02*Y35078D01*
X57066Y47578D02*X65866D01*
X48366Y35078D02*X53066D01*
X48366Y47578D02*Y35078D01*
Y47578D02*X53066D01*
G54D112*X24142Y45726D02*Y45526D01*
X22742Y45726D02*Y45526D01*
X25028Y41662D02*Y41462D01*
X26428Y41662D02*Y41462D01*
Y45726D02*Y45526D01*
X25028Y45726D02*Y45526D01*
X27314Y41662D02*Y41462D01*
X28714Y41662D02*Y41462D01*
Y45726D02*Y45526D01*
X27314Y45726D02*Y45526D01*
G54D114*X7694Y50452D02*X58494D01*
Y55532D02*Y50452D01*
X7694Y55532D02*X58494D01*
X7694D02*Y50452D01*
X10234Y52992D02*Y50452D01*
X7694Y52992D02*X10234D01*
G54D111*X32962Y39530D02*X33833D01*
X33958Y39654D01*
Y39903D02*Y39654D01*
Y39903D02*X33833Y40028D01*
X32962D02*X33833D01*
X32962Y40824D02*Y40327D01*
X33460D01*
X33335Y40451D01*
Y40700D02*Y40451D01*
Y40700D02*X33460Y40824D01*
X33833D01*
X33958Y40700D02*X33833Y40824D01*
X33958Y40700D02*Y40451D01*
X33833Y40327D02*X33958Y40451D01*
X33086Y41123D02*X32962Y41248D01*
Y41621D02*Y41248D01*
Y41621D02*X33086Y41745D01*
X33335D01*
X33958Y41123D02*X33335Y41745D01*
X33958D02*Y41123D01*
X30371Y44371D02*Y43975D01*
Y44371D02*X30470Y44470D01*
X30668D01*
X30767Y44371D02*X30668Y44470D01*
X30767Y44371D02*Y44074D01*
X30371D02*X31164D01*
X30767Y44233D02*X31164Y44470D01*
X30866Y44708D02*X30371Y45104D01*
X30866Y45203D02*Y44708D01*
X30371Y45104D02*X31164D01*
X30470Y45441D02*X30371Y45540D01*
Y45738D02*Y45540D01*
Y45738D02*X30470Y45837D01*
X31164Y45738D02*X31065Y45837D01*
X31164Y45738D02*Y45540D01*
X31065Y45441D02*X31164Y45540D01*
X30728Y45738D02*Y45540D01*
X30470Y45837D02*X30629D01*
X30827D02*X31065D01*
X30827D02*X30728Y45738D01*
X30629Y45837D02*X30728Y45738D01*
X30371Y40561D02*Y40165D01*
Y40561D02*X30470Y40660D01*
X30668D01*
X30767Y40561D02*X30668Y40660D01*
X30767Y40561D02*Y40264D01*
X30371D02*X31164D01*
X30767Y40423D02*X31164Y40660D01*
X30866Y40898D02*X30371Y41294D01*
X30866Y41393D02*Y40898D01*
X30371Y41294D02*X31164D01*
X30530Y41631D02*X30371Y41790D01*
X31164D01*
Y41928D02*Y41631D01*
X33450Y44498D02*Y44241D01*
X33311Y44102D02*X33450Y44241D01*
X32796Y44102D02*X33311D01*
X32796D02*X32657Y44241D01*
Y44498D02*Y44241D01*
X33152Y44736D02*X32657Y45132D01*
X33152Y45231D02*Y44736D01*
X32657Y45132D02*X33450D01*
X32816Y45469D02*X32657Y45628D01*
X33450D01*
Y45766D02*Y45469D01*
X30021Y44498D02*Y44241D01*
X29882Y44102D02*X30021Y44241D01*
X29367Y44102D02*X29882D01*
X29367D02*X29228Y44241D01*
Y44498D02*Y44241D01*
X29723Y44736D02*X29228Y45132D01*
X29723Y45231D02*Y44736D01*
X29228Y45132D02*X30021D01*
X29327Y45469D02*X29228Y45568D01*
Y45766D02*Y45568D01*
Y45766D02*X29327Y45865D01*
X30021Y45766D02*X29922Y45865D01*
X30021Y45766D02*Y45568D01*
X29922Y45469D02*X30021Y45568D01*
X29585Y45766D02*Y45568D01*
X29327Y45865D02*X29486D01*
X29684D02*X29922D01*
X29684D02*X29585Y45766D01*
X29486Y45865D02*X29585Y45766D01*
X32307Y44498D02*Y44241D01*
X32168Y44102D02*X32307Y44241D01*
X31653Y44102D02*X32168D01*
X31653D02*X31514Y44241D01*
Y44498D02*Y44241D01*
X32009Y44736D02*X31514Y45132D01*
X32009Y45231D02*Y44736D01*
X31514Y45132D02*X32307D01*
X31613Y45469D02*X31514Y45568D01*
Y45865D02*Y45568D01*
Y45865D02*X31613Y45964D01*
X31811D01*
X32307Y45469D02*X31811Y45964D01*
X32307D02*Y45469D01*
X29228Y40561D02*Y40165D01*
Y40561D02*X29327Y40660D01*
X29525D01*
X29624Y40561D02*X29525Y40660D01*
X29624Y40561D02*Y40264D01*
X29228D02*X30021D01*
X29624Y40423D02*X30021Y40660D01*
X29723Y40898D02*X29228Y41294D01*
X29723Y41393D02*Y40898D01*
X29228Y41294D02*X30021D01*
X29327Y41631D02*X29228Y41730D01*
Y42027D02*Y41730D01*
Y42027D02*X29327Y42126D01*
X29525D01*
X30021Y41631D02*X29525Y42126D01*
X30021D02*Y41631D01*
X27125Y39433D02*X27572D01*
X27349D02*Y38539D01*
X27952Y39433D02*Y38539D01*
X27840Y39433D02*X28287D01*
X28399Y39322D01*
Y39098D01*
X28287Y38986D02*X28399Y39098D01*
X27952Y38986D02*X28287D01*
X28667Y38875D02*X29114Y39433D01*
X28667Y38875D02*X29226D01*
X29114Y39433D02*Y38539D01*
X29494Y39255D02*X29673Y39433D01*
Y38539D01*
X29494D02*X29830D01*
X26160Y32799D02*X26363D01*
Y31910D01*
X26236Y31783D02*X26363Y31910D01*
X26109Y31783D02*X26236D01*
X25982Y31910D02*X26109Y31783D01*
X25982Y32037D02*Y31910D01*
X26795Y32799D02*Y31783D01*
X26668Y32799D02*X27176D01*
X27303Y32672D01*
Y32418D01*
X27176Y32291D02*X27303Y32418D01*
X26795Y32291D02*X27176D01*
X27608Y32596D02*X27811Y32799D01*
Y31783D01*
X27608D02*X27989D01*
X26520Y35468D02*Y35077D01*
Y35468D02*X26618Y35566D01*
X26814D01*
X26912Y35468D02*X26814Y35566D01*
X26912Y35468D02*Y35175D01*
X26520D02*X27303D01*
X26912Y35331D02*X27303Y35566D01*
X26677Y35801D02*X26520Y35957D01*
X27303D01*
Y36094D02*Y35801D01*
X24072Y35212D02*X24943D01*
X25068Y35336D01*
Y35585D02*Y35336D01*
Y35585D02*X24943Y35710D01*
X24072D02*X24943D01*
X24694Y36009D02*X24072Y36506D01*
X24694Y36631D02*Y36009D01*
X24072Y36506D02*X25068D01*
X24271Y36930D02*X24072Y37129D01*
X25068D01*
Y37303D02*Y36930D01*
X15199Y47302D02*X15456D01*
X15060Y47441D02*X15199Y47302D01*
X15060Y47956D02*Y47441D01*
Y47956D02*X15199Y48095D01*
X15456D01*
X15694Y47600D02*X16090Y48095D01*
X15694Y47600D02*X16189D01*
X16090Y48095D02*Y47302D01*
X16427Y47600D02*X16823Y48095D01*
X16427Y47600D02*X16922D01*
X16823Y48095D02*Y47302D01*
X16850Y42349D02*X17107D01*
X16711Y42488D02*X16850Y42349D01*
X16711Y43003D02*Y42488D01*
Y43003D02*X16850Y43142D01*
X17107D01*
X17345Y42647D02*X17741Y43142D01*
X17345Y42647D02*X17840D01*
X17741Y43142D02*Y42349D01*
X18078Y43142D02*X18474D01*
X18078D02*Y42746D01*
X18177Y42845D01*
X18375D01*
X18474Y42746D01*
Y42448D01*
X18375Y42349D02*X18474Y42448D01*
X18177Y42349D02*X18375D01*
X18078Y42448D02*X18177Y42349D01*
X15403Y35309D02*X15794D01*
X15892Y35211D01*
Y35015D01*
X15794Y34917D02*X15892Y35015D01*
X15501Y34917D02*X15794D01*
X15501Y35309D02*Y34526D01*
X15657Y34917D02*X15892Y34526D01*
X16127Y35211D02*X16224Y35309D01*
X16518D01*
X16615Y35211D01*
Y35015D01*
X16127Y34526D02*X16615Y35015D01*
X16127Y34526D02*X16615D01*
X16850Y35211D02*X16948Y35309D01*
X17241D01*
X17339Y35211D01*
Y35015D01*
X16850Y34526D02*X17339Y35015D01*
X16850Y34526D02*X17339D01*
X7021Y37722D02*X7412D01*
X7510Y37624D01*
Y37428D01*
X7412Y37330D02*X7510Y37428D01*
X7119Y37330D02*X7412D01*
X7119Y37722D02*Y36939D01*
X7275Y37330D02*X7510Y36939D01*
X7745Y37624D02*X7842Y37722D01*
X8136D01*
X8233Y37624D01*
Y37428D01*
X7745Y36939D02*X8233Y37428D01*
X7745Y36939D02*X8233D01*
X8468Y37565D02*X8625Y37722D01*
Y36939D01*
X8468D02*X8762D01*
X15540Y33510D02*X15794D01*
X15403Y33647D02*X15540Y33510D01*
X15403Y34156D02*Y33647D01*
Y34156D02*X15540Y34293D01*
X15794D01*
X16029Y34195D02*X16127Y34293D01*
X16420D01*
X16518Y34195D01*
Y33999D01*
X16029Y33510D02*X16518Y33999D01*
X16029Y33510D02*X16518D01*
X16752Y33804D02*X17144Y34293D01*
X16752Y33804D02*X17241D01*
X17144Y34293D02*Y33510D01*
X18108Y33137D02*Y32542D01*
Y33137D02*X18207Y33236D01*
X18405D01*
X18504Y33137D01*
Y32642D01*
X18306Y32443D02*X18504Y32642D01*
X18207Y32443D02*X18306D01*
X18108Y32542D02*X18207Y32443D01*
X18306Y32741D02*X18504Y32443D01*
X18742Y33137D02*X18841Y33236D01*
X19138D01*
X19237Y33137D01*
Y32939D01*
X18742Y32443D02*X19237Y32939D01*
X18742Y32443D02*X19237D01*
X19475Y33137D02*X19574Y33236D01*
X19871D01*
X19970Y33137D01*
Y32939D01*
X19475Y32443D02*X19970Y32939D01*
X19475Y32443D02*X19970D01*
X15441Y33137D02*Y32542D01*
Y33137D02*X15540Y33236D01*
X15738D01*
X15837Y33137D01*
Y32642D01*
X15639Y32443D02*X15837Y32642D01*
X15540Y32443D02*X15639D01*
X15441Y32542D02*X15540Y32443D01*
X15639Y32741D02*X15837Y32443D01*
X16075Y33137D02*X16174Y33236D01*
X16471D01*
X16570Y33137D01*
Y32939D01*
X16075Y32443D02*X16570Y32939D01*
X16075Y32443D02*X16570D01*
X16808Y33077D02*X16967Y33236D01*
Y32443D01*
X16808D02*X17105D01*
X10234Y49466D02*X10681D01*
X10458D02*Y48572D01*
X11061Y49466D02*Y48572D01*
X10949Y49466D02*X11396D01*
X11508Y49355D01*
Y49131D01*
X11396Y49019D02*X11508Y49131D01*
X11061Y49019D02*X11396D01*
X11776Y48908D02*X12223Y49466D01*
X11776Y48908D02*X12335D01*
X12223Y49466D02*Y48572D01*
X12603Y49355D02*X12715Y49466D01*
X13050D01*
X13162Y49355D01*
Y49131D01*
X12603Y48572D02*X13162Y49131D01*
X12603Y48572D02*X13162D01*
X13294Y36888D02*X13551D01*
X13155Y37027D02*X13294Y36888D01*
X13155Y37542D02*Y37027D01*
Y37542D02*X13294Y37681D01*
X13551D01*
X13789Y37582D02*X13888Y37681D01*
X14185D01*
X14284Y37582D01*
Y37384D01*
X13789Y36888D02*X14284Y37384D01*
X13789Y36888D02*X14284D01*
X14522Y37522D02*X14681Y37681D01*
Y36888D01*
X14522D02*X14819D01*
X10107Y37681D02*Y36888D01*
Y37681D02*X10503D01*
X10107Y37324D02*X10404D01*
X10741Y36888D02*X11137D01*
X11236Y36987D01*
Y37225D02*Y36987D01*
X11137Y37324D02*X11236Y37225D01*
X10840Y37324D02*X11137D01*
X10840Y37681D02*Y36888D01*
X10741Y37681D02*X11137D01*
X11236Y37582D01*
Y37423D01*
X11137Y37324D02*X11236Y37423D01*
X11474Y37582D02*X11573Y37681D01*
X11870D01*
X11969Y37582D01*
Y37384D01*
X11474Y36888D02*X11969Y37384D01*
X11474Y36888D02*X11969D01*
X12207Y37522D02*X12366Y37681D01*
Y36888D01*
X12207D02*X12504D01*
X7999Y50071D02*X8202D01*
Y49182D01*
X8075Y49055D02*X8202Y49182D01*
X7948Y49055D02*X8075D01*
X7821Y49182D02*X7948Y49055D01*
X7821Y49309D02*Y49182D01*
X8507Y49944D02*X8634Y50071D01*
X8888D01*
X9015Y49944D01*
X8888Y49055D02*X9015Y49182D01*
X8634Y49055D02*X8888D01*
X8507Y49182D02*X8634Y49055D01*
Y49614D02*X8888D01*
X9015Y49944D02*Y49741D01*
Y49487D02*Y49182D01*
Y49487D02*X8888Y49614D01*
X9015Y49741D02*X8888Y49614D01*
X7048Y46541D02*Y45525D01*
X6921Y46541D02*X7429D01*
X7556Y46414D01*
Y46160D01*
X7429Y46033D02*X7556Y46160D01*
X7048Y46033D02*X7429D01*
X7861Y45906D02*X8369Y46541D01*
X7861Y45906D02*X8496D01*
X8369Y46541D02*Y45525D01*
X8801Y46338D02*X9004Y46541D01*
Y45525D01*
X8801D02*X9182D01*
X14425Y43650D02*X14821D01*
X14920Y43551D01*
Y43353D01*
X14821Y43254D02*X14920Y43353D01*
X14524Y43254D02*X14821D01*
X14524Y43650D02*Y42857D01*
X14683Y43254D02*X14920Y42857D01*
X15158Y43155D02*X15554Y43650D01*
X15158Y43155D02*X15653D01*
X15554Y43650D02*Y42857D01*
X15891Y43155D02*X16287Y43650D01*
X15891Y43155D02*X16386D01*
X16287Y43650D02*Y42857D01*
X45667Y40983D02*Y40190D01*
Y40983D02*X46063D01*
X45667Y40626D02*X45964D01*
X46301Y40190D02*X46697D01*
X46796Y40289D01*
Y40527D02*Y40289D01*
X46697Y40626D02*X46796Y40527D01*
X46400Y40626D02*X46697D01*
X46400Y40983D02*Y40190D01*
X46301Y40983D02*X46697D01*
X46796Y40884D01*
Y40725D01*
X46697Y40626D02*X46796Y40725D01*
X47034Y40983D02*X47430D01*
X47034D02*Y40587D01*
X47133Y40686D01*
X47331D01*
X47430Y40587D01*
Y40289D01*
X47331Y40190D02*X47430Y40289D01*
X47133Y40190D02*X47331D01*
X47034Y40289D02*X47133Y40190D01*
X47668Y40824D02*X47827Y40983D01*
Y40190D01*
X47668D02*X47965D01*
X46568Y39047D02*X46825D01*
X46429Y39186D02*X46568Y39047D01*
X46429Y39701D02*Y39186D01*
Y39701D02*X46568Y39840D01*
X46825D01*
X47063D02*X47459D01*
X47063D02*Y39444D01*
X47162Y39543D01*
X47360D01*
X47459Y39444D01*
Y39146D01*
X47360Y39047D02*X47459Y39146D01*
X47162Y39047D02*X47360D01*
X47063Y39146D02*X47162Y39047D01*
X47697Y39681D02*X47855Y39840D01*
Y39047D01*
X47697D02*X47994D01*
X46441Y41206D02*X46698D01*
X46302Y41345D02*X46441Y41206D01*
X46302Y41860D02*Y41345D01*
Y41860D02*X46441Y41999D01*
X46698D01*
X46936D02*X47332D01*
X46936D02*Y41603D01*
X47035Y41702D01*
X47233D01*
X47332Y41603D01*
Y41305D01*
X47233Y41206D02*X47332Y41305D01*
X47035Y41206D02*X47233D01*
X46936Y41305D02*X47035Y41206D01*
X47867Y41999D02*X47966Y41900D01*
X47669Y41999D02*X47867D01*
X47570Y41900D02*X47669Y41999D01*
X47570Y41900D02*Y41305D01*
X47669Y41206D01*
X47867Y41642D02*X47966Y41543D01*
X47570Y41642D02*X47867D01*
X47669Y41206D02*X47867D01*
X47966Y41305D01*
Y41543D02*Y41305D01*
X44028Y35618D02*X44285D01*
X43889Y35757D02*X44028Y35618D01*
X43889Y36272D02*Y35757D01*
Y36272D02*X44028Y36411D01*
X44285D01*
X44523D02*X44919D01*
X44523D02*Y36015D01*
X44622Y36114D01*
X44820D01*
X44919Y36015D01*
Y35717D01*
X44820Y35618D02*X44919Y35717D01*
X44622Y35618D02*X44820D01*
X44523Y35717D02*X44622Y35618D01*
X45256D02*X45652Y36411D01*
X45157D02*X45652D01*
X31582Y35237D02*X31839D01*
X31443Y35376D02*X31582Y35237D01*
X31443Y35891D02*Y35376D01*
Y35891D02*X31582Y36030D01*
X31839D01*
X32176Y35237D02*X32572Y36030D01*
X32077D02*X32572D01*
X37551Y35237D02*X37808D01*
X37412Y35376D02*X37551Y35237D01*
X37412Y35891D02*Y35376D01*
Y35891D02*X37551Y36030D01*
X37808D01*
X38046Y35336D02*X38145Y35237D01*
X38046Y35495D02*Y35336D01*
Y35495D02*X38185Y35634D01*
X38304D01*
X38442Y35495D01*
Y35336D01*
X38343Y35237D02*X38442Y35336D01*
X38145Y35237D02*X38343D01*
X38046Y35772D02*X38185Y35634D01*
X38046Y35931D02*Y35772D01*
Y35931D02*X38145Y36030D01*
X38343D01*
X38442Y35931D01*
Y35772D01*
X38304Y35634D02*X38442Y35772D01*
X44651Y32316D02*X45273Y33312D01*
X44651D02*X45273Y32316D01*
X45572Y33113D02*X45771Y33312D01*
Y32316D01*
X45572D02*X45945D01*
X42975Y27099D02*Y26842D01*
X42836Y26703D02*X42975Y26842D01*
X42321Y26703D02*X42836D01*
X42321D02*X42182Y26842D01*
Y27099D02*Y26842D01*
X42281Y27337D02*X42182Y27436D01*
Y27733D02*Y27436D01*
Y27733D02*X42281Y27832D01*
X42479D01*
X42975Y27337D02*X42479Y27832D01*
X42975D02*Y27337D01*
Y30401D02*Y30144D01*
X42836Y30005D02*X42975Y30144D01*
X42321Y30005D02*X42836D01*
X42321D02*X42182Y30144D01*
Y30401D02*Y30144D01*
X42341Y30639D02*X42182Y30797D01*
X42975D01*
Y30936D02*Y30639D01*
X42341Y31174D02*X42182Y31332D01*
X42975D01*
Y31471D02*Y31174D01*
X52283Y19108D02*X52540D01*
X52144Y19247D02*X52283Y19108D01*
X52144Y19762D02*Y19247D01*
Y19762D02*X52283Y19901D01*
X52540D01*
X52778D02*X53174D01*
X52778D02*Y19505D01*
X52877Y19604D01*
X53075D01*
X53174Y19505D01*
Y19207D01*
X53075Y19108D02*X53174Y19207D01*
X52877Y19108D02*X53075D01*
X52778Y19207D02*X52877Y19108D01*
X53412Y19802D02*X53511Y19901D01*
X53709D01*
X53808Y19802D01*
X53709Y19108D02*X53808Y19207D01*
X53511Y19108D02*X53709D01*
X53412Y19207D02*X53511Y19108D01*
Y19544D02*X53709D01*
X53808Y19802D02*Y19643D01*
Y19445D02*Y19207D01*
Y19445D02*X53709Y19544D01*
X53808Y19643D02*X53709Y19544D01*
X57109Y18854D02*X57366D01*
X56970Y18993D02*X57109Y18854D01*
X56970Y19508D02*Y18993D01*
Y19508D02*X57109Y19647D01*
X57366D01*
X57604D02*X58000D01*
X57604D02*Y19251D01*
X57703Y19350D01*
X57901D01*
X58000Y19251D01*
Y18953D01*
X57901Y18854D02*X58000Y18953D01*
X57703Y18854D02*X57901D01*
X57604Y18953D02*X57703Y18854D01*
X58238Y19548D02*X58337Y19647D01*
X58634D01*
X58733Y19548D01*
Y19350D01*
X58238Y18854D02*X58733Y19350D01*
X58238Y18854D02*X58733D01*
X53287Y22426D02*Y21679D01*
X53394Y21572D01*
X53607D01*
X53714Y21679D01*
Y22426D02*Y21679D01*
X53970Y22426D02*X54396D01*
X53970D02*Y21999D01*
X54076Y22106D01*
X54290D01*
X54396Y21999D01*
Y21679D01*
X54290Y21572D02*X54396Y21679D01*
X54076Y21572D02*X54290D01*
X53970Y21679D02*X54076Y21572D01*
X54653Y22255D02*X54823Y22426D01*
Y21572D01*
X54653D02*X54973D01*
X48151Y14638D02*X48944D01*
Y15034D02*Y14638D01*
X48508Y15569D02*Y15272D01*
X48944Y15668D02*Y15272D01*
X48151D02*X48944D01*
X48151Y15668D02*Y15272D01*
Y16005D02*X48944D01*
X48151Y16263D02*X48290Y16401D01*
X48805D01*
X48944Y16263D02*X48805Y16401D01*
X48944Y16263D02*Y15906D01*
X48151Y16263D02*Y15906D01*
Y16936D02*X48250Y17035D01*
X48151Y16936D02*Y16738D01*
X48250Y16639D02*X48151Y16738D01*
X48250Y16639D02*X48845D01*
X48944Y16738D01*
X48508Y16936D02*X48607Y17035D01*
X48508Y16936D02*Y16639D01*
X48944Y16936D02*Y16738D01*
Y16936D02*X48845Y17035D01*
X48607D02*X48845D01*
X50691Y14638D02*X51484D01*
Y15034D02*Y14638D01*
X51048Y15569D02*Y15272D01*
X51484Y15668D02*Y15272D01*
X50691D02*X51484D01*
X50691Y15668D02*Y15272D01*
Y16005D02*X51484D01*
X50691Y16263D02*X50830Y16401D01*
X51345D01*
X51484Y16263D02*X51345Y16401D01*
X51484Y16263D02*Y15906D01*
X50691Y16263D02*Y15906D01*
X51484Y16738D02*X50691Y17134D01*
Y16639D01*
X53231Y14638D02*X54024D01*
Y15034D02*Y14638D01*
X53588Y15569D02*Y15272D01*
X54024Y15668D02*Y15272D01*
X53231D02*X54024D01*
X53231Y15668D02*Y15272D01*
Y16005D02*X54024D01*
X53231Y16263D02*X53370Y16401D01*
X53885D01*
X54024Y16263D02*X53885Y16401D01*
X54024Y16263D02*Y15906D01*
X53231Y16263D02*Y15906D01*
X53925Y16639D02*X54024Y16738D01*
X53766Y16639D02*X53925D01*
X53766D02*X53627Y16778D01*
Y16897D02*Y16778D01*
Y16897D02*X53766Y17035D01*
X53925D01*
X54024Y16936D02*X53925Y17035D01*
X54024Y16936D02*Y16738D01*
X53489Y16639D02*X53627Y16778D01*
X53330Y16639D02*X53489D01*
X53330D02*X53231Y16738D01*
Y16936D02*Y16738D01*
Y16936D02*X53330Y17035D01*
X53489D01*
X53627Y16897D02*X53489Y17035D01*
X55771Y14638D02*X56564D01*
Y15034D02*Y14638D01*
X56128Y15569D02*Y15272D01*
X56564Y15668D02*Y15272D01*
X55771D02*X56564D01*
X55771Y15668D02*Y15272D01*
Y16005D02*X56564D01*
X55771Y16263D02*X55910Y16401D01*
X56425D01*
X56564Y16263D02*X56425Y16401D01*
X56564Y16263D02*Y15906D01*
X55771Y16263D02*Y15906D01*
X56564Y16738D02*X56167Y17035D01*
X55870D02*X56167D01*
X55771Y16936D02*X55870Y17035D01*
X55771Y16936D02*Y16738D01*
X55870Y16639D02*X55771Y16738D01*
X55870Y16639D02*X56068D01*
X56167Y16738D01*
Y17035D02*Y16738D01*
X53231Y17955D02*Y17559D01*
Y17955D02*X53330Y18054D01*
X53528D01*
X53627Y17955D02*X53528Y18054D01*
X53627Y17955D02*Y17658D01*
X53231D02*X54024D01*
X53627Y17817D02*X54024Y18054D01*
Y18391D02*X53627Y18688D01*
X53330D02*X53627D01*
X53231Y18589D02*X53330Y18688D01*
X53231Y18589D02*Y18391D01*
X53330Y18292D02*X53231Y18391D01*
X53330Y18292D02*X53528D01*
X53627Y18391D01*
Y18688D02*Y18391D01*
X33856Y20155D02*X34252D01*
X34351Y20056D01*
Y19858D01*
X34252Y19759D02*X34351Y19858D01*
X33955Y19759D02*X34252D01*
X33955Y20155D02*Y19362D01*
X34114Y19759D02*X34351Y19362D01*
X34886Y20155D02*X34985Y20056D01*
X34688Y20155D02*X34886D01*
X34589Y20056D02*X34688Y20155D01*
X34589Y20056D02*Y19461D01*
X34688Y19362D01*
X34886Y19798D02*X34985Y19699D01*
X34589Y19798D02*X34886D01*
X34688Y19362D02*X34886D01*
X34985Y19461D01*
Y19699D02*Y19461D01*
X35223Y19996D02*X35382Y20155D01*
Y19362D01*
X35223D02*X35520D01*
X36396Y19802D02*Y19207D01*
Y19802D02*X36495Y19901D01*
X36693D01*
X36792Y19802D01*
Y19307D01*
X36594Y19108D02*X36792Y19307D01*
X36495Y19108D02*X36594D01*
X36396Y19207D02*X36495Y19108D01*
X36594Y19406D02*X36792Y19108D01*
X37030Y19742D02*X37188Y19901D01*
Y19108D01*
X37030D02*X37327D01*
X33653Y7653D02*X33856D01*
Y6764D01*
X33729Y6637D02*X33856Y6764D01*
X33602Y6637D02*X33729D01*
X33475Y6764D02*X33602Y6637D01*
X33475Y6891D02*Y6764D01*
X34161Y7526D02*X34288Y7653D01*
X34669D01*
X34796Y7526D01*
Y7272D01*
X34161Y6637D02*X34796Y7272D01*
X34161Y6637D02*X34796D01*
X33818Y21466D02*X34209D01*
X34307Y21368D01*
Y21172D01*
X34209Y21074D02*X34307Y21172D01*
X33916Y21074D02*X34209D01*
X33916Y21466D02*Y20683D01*
X34072Y21074D02*X34307Y20683D01*
X34835Y21466D02*X34933Y21368D01*
X34639Y21466D02*X34835D01*
X34542Y21368D02*X34639Y21466D01*
X34542Y21368D02*Y20781D01*
X34639Y20683D01*
X34835Y21113D02*X34933Y21016D01*
X34542Y21113D02*X34835D01*
X34639Y20683D02*X34835D01*
X34933Y20781D01*
Y21016D02*Y20781D01*
X35167Y21368D02*X35265Y21466D01*
X35559D01*
X35656Y21368D01*
Y21172D01*
X35167Y20683D02*X35656Y21172D01*
X35167Y20683D02*X35656D01*
X24712Y18732D02*X25159D01*
X24936D02*Y17838D01*
X25539Y18732D02*Y17838D01*
X25427Y18732D02*X25874D01*
X25986Y18621D01*
Y18397D01*
X25874Y18285D02*X25986Y18397D01*
X25539Y18285D02*X25874D01*
X26254Y18621D02*X26366Y18732D01*
X26590D01*
X26701Y18621D01*
X26590Y17838D02*X26701Y17950D01*
X26366Y17838D02*X26590D01*
X26254Y17950D02*X26366Y17838D01*
Y18330D02*X26590D01*
X26701Y18621D02*Y18442D01*
Y18218D02*Y17950D01*
Y18218D02*X26590Y18330D01*
X26701Y18442D02*X26590Y18330D01*
X26970Y18621D02*X27081Y18732D01*
X27417D01*
X27528Y18621D01*
Y18397D01*
X26970Y17838D02*X27528Y18397D01*
X26970Y17838D02*X27528D01*
X27809Y16728D02*X28493D01*
X28591Y16826D01*
Y17021D02*Y16826D01*
Y17021D02*X28493Y17119D01*
X27809D02*X28493D01*
X27809Y17647D02*X27906Y17745D01*
X27809Y17647D02*Y17452D01*
X27906Y17354D02*X27809Y17452D01*
X27906Y17354D02*X28493D01*
X28591Y17452D01*
X28161Y17647D02*X28258Y17745D01*
X28161Y17647D02*Y17354D01*
X28591Y17647D02*Y17452D01*
Y17647D02*X28493Y17745D01*
X28258D02*X28493D01*
X27965Y17980D02*X27809Y18136D01*
X28591D01*
Y18273D02*Y17980D01*
X27100Y19606D02*Y19349D01*
X26961Y19210D02*X27100Y19349D01*
X26446Y19210D02*X26961D01*
X26446D02*X26307Y19349D01*
Y19606D02*Y19349D01*
Y20141D02*X26406Y20240D01*
X26307Y20141D02*Y19943D01*
X26406Y19844D02*X26307Y19943D01*
X26406Y19844D02*X27001D01*
X27100Y19943D01*
X26664Y20141D02*X26763Y20240D01*
X26664Y20141D02*Y19844D01*
X27100Y20141D02*Y19943D01*
Y20141D02*X27001Y20240D01*
X26763D02*X27001D01*
X26466Y20478D02*X26307Y20636D01*
X27100D01*
Y20775D02*Y20478D01*
X26121Y27490D02*X26378D01*
X25982Y27629D02*X26121Y27490D01*
X25982Y28144D02*Y27629D01*
Y28144D02*X26121Y28283D01*
X26378D01*
X26616Y28184D02*X26715Y28283D01*
X26913D01*
X27012Y28184D01*
X26913Y27490D02*X27012Y27589D01*
X26715Y27490D02*X26913D01*
X26616Y27589D02*X26715Y27490D01*
Y27926D02*X26913D01*
X27012Y28184D02*Y28025D01*
Y27827D02*Y27589D01*
Y27827D02*X26913Y27926D01*
X27012Y28025D02*X26913Y27926D01*
X26283Y22517D02*X26482D01*
Y21646D01*
X26358Y21521D02*X26482Y21646D01*
X26233Y21521D02*X26358D01*
X26109Y21646D02*X26233Y21521D01*
X26109Y21770D02*Y21646D01*
X26781Y21895D02*X27279Y22517D01*
X26781Y21895D02*X27403D01*
X27279Y22517D02*Y21521D01*
X27887Y23685D02*X28334D01*
X28111D02*Y22791D01*
X28714Y23685D02*Y22791D01*
X28602Y23685D02*X29049D01*
X29161Y23574D01*
Y23350D01*
X29049Y23238D02*X29161Y23350D01*
X28714Y23238D02*X29049D01*
X29765Y23685D02*X29876Y23574D01*
X29541Y23685D02*X29765D01*
X29429Y23574D02*X29541Y23685D01*
X29429Y23574D02*Y22903D01*
X29541Y22791D01*
X29765Y23283D02*X29876Y23171D01*
X29429Y23283D02*X29765D01*
X29541Y22791D02*X29765D01*
X29876Y22903D01*
Y23171D02*Y22903D01*
X30145Y23507D02*X30323Y23685D01*
Y22791D01*
X30145D02*X30480D01*
X29005Y24940D02*Y24683D01*
X28866Y24544D02*X29005Y24683D01*
X28351Y24544D02*X28866D01*
X28351D02*X28212Y24683D01*
Y24940D02*Y24683D01*
Y25475D02*X28311Y25574D01*
X28212Y25475D02*Y25277D01*
X28311Y25178D02*X28212Y25277D01*
X28311Y25178D02*X28906D01*
X29005Y25277D01*
X28569Y25475D02*X28668Y25574D01*
X28569Y25475D02*Y25178D01*
X29005Y25475D02*Y25277D01*
Y25475D02*X28906Y25574D01*
X28668D02*X28906D01*
X25613Y16568D02*X25870D01*
X25474Y16707D02*X25613Y16568D01*
X25474Y17222D02*Y16707D01*
Y17222D02*X25613Y17361D01*
X25870D01*
X26108Y17262D02*X26207Y17361D01*
X26405D01*
X26504Y17262D01*
X26405Y16568D02*X26504Y16667D01*
X26207Y16568D02*X26405D01*
X26108Y16667D02*X26207Y16568D01*
Y17004D02*X26405D01*
X26504Y17262D02*Y17103D01*
Y16905D02*Y16667D01*
Y16905D02*X26405Y17004D01*
X26504Y17103D02*X26405Y17004D01*
X27039Y17361D02*X27138Y17262D01*
X26841Y17361D02*X27039D01*
X26742Y17262D02*X26841Y17361D01*
X26742Y17262D02*Y16667D01*
X26841Y16568D01*
X27039Y17004D02*X27138Y16905D01*
X26742Y17004D02*X27039D01*
X26841Y16568D02*X27039D01*
X27138Y16667D01*
Y16905D02*Y16667D01*
X25474Y15075D02*X25870D01*
X25969Y14976D01*
Y14778D01*
X25870Y14679D02*X25969Y14778D01*
X25573Y14679D02*X25870D01*
X25573Y15075D02*Y14282D01*
X25732Y14679D02*X25969Y14282D01*
X26207Y14976D02*X26306Y15075D01*
X26504D01*
X26603Y14976D01*
X26504Y14282D02*X26603Y14381D01*
X26306Y14282D02*X26504D01*
X26207Y14381D02*X26306Y14282D01*
Y14718D02*X26504D01*
X26603Y14976D02*Y14817D01*
Y14619D02*Y14381D01*
Y14619D02*X26504Y14718D01*
X26603Y14817D02*X26504Y14718D01*
X26940Y14282D02*X27336Y15075D01*
X26841D02*X27336D01*
X25347Y10630D02*X25743D01*
X25842Y10531D01*
Y10333D01*
X25743Y10234D02*X25842Y10333D01*
X25446Y10234D02*X25743D01*
X25446Y10630D02*Y9837D01*
X25605Y10234D02*X25842Y9837D01*
X26080Y10531D02*X26179Y10630D01*
X26377D01*
X26476Y10531D01*
X26377Y9837D02*X26476Y9936D01*
X26179Y9837D02*X26377D01*
X26080Y9936D02*X26179Y9837D01*
Y10273D02*X26377D01*
X26476Y10531D02*Y10372D01*
Y10174D02*Y9936D01*
Y10174D02*X26377Y10273D01*
X26476Y10372D02*X26377Y10273D01*
X27011Y10630D02*X27110Y10531D01*
X26813Y10630D02*X27011D01*
X26714Y10531D02*X26813Y10630D01*
X26714Y10531D02*Y9936D01*
X26813Y9837D01*
X27011Y10273D02*X27110Y10174D01*
X26714Y10273D02*X27011D01*
X26813Y9837D02*X27011D01*
X27110Y9936D01*
Y10174D02*Y9936D01*
X25474Y6439D02*X25870D01*
X25969Y6340D01*
Y6142D01*
X25870Y6043D02*X25969Y6142D01*
X25573Y6043D02*X25870D01*
X25573Y6439D02*Y5646D01*
X25732Y6043D02*X25969Y5646D01*
X26207Y6340D02*X26306Y6439D01*
X26504D01*
X26603Y6340D01*
X26504Y5646D02*X26603Y5745D01*
X26306Y5646D02*X26504D01*
X26207Y5745D02*X26306Y5646D01*
Y6082D02*X26504D01*
X26603Y6340D02*Y6181D01*
Y5983D02*Y5745D01*
Y5983D02*X26504Y6082D01*
X26603Y6181D02*X26504Y6082D01*
X26841Y6439D02*X27237D01*
X26841D02*Y6043D01*
X26940Y6142D01*
X27138D01*
X27237Y6043D01*
Y5745D01*
X27138Y5646D02*X27237Y5745D01*
X26940Y5646D02*X27138D01*
X26841Y5745D02*X26940Y5646D01*
X25613Y7678D02*X25870D01*
X25474Y7817D02*X25613Y7678D01*
X25474Y8332D02*Y7817D01*
Y8332D02*X25613Y8471D01*
X25870D01*
X26108Y8372D02*X26207Y8471D01*
X26405D01*
X26504Y8372D01*
X26405Y7678D02*X26504Y7777D01*
X26207Y7678D02*X26405D01*
X26108Y7777D02*X26207Y7678D01*
Y8114D02*X26405D01*
X26504Y8372D02*Y8213D01*
Y8015D02*Y7777D01*
Y8015D02*X26405Y8114D01*
X26504Y8213D02*X26405Y8114D01*
X26742Y7976D02*X27138Y8471D01*
X26742Y7976D02*X27237D01*
X27138Y8471D02*Y7678D01*
X25613Y11996D02*X25870D01*
X25474Y12135D02*X25613Y11996D01*
X25474Y12650D02*Y12135D01*
Y12650D02*X25613Y12789D01*
X25870D01*
X26108Y12690D02*X26207Y12789D01*
X26405D01*
X26504Y12690D01*
X26405Y11996D02*X26504Y12095D01*
X26207Y11996D02*X26405D01*
X26108Y12095D02*X26207Y11996D01*
Y12432D02*X26405D01*
X26504Y12690D02*Y12531D01*
Y12333D02*Y12095D01*
Y12333D02*X26405Y12432D01*
X26504Y12531D02*X26405Y12432D01*
X26742Y12789D02*X27138D01*
X26742D02*Y12393D01*
X26841Y12492D01*
X27039D01*
X27138Y12393D01*
Y12095D01*
X27039Y11996D02*X27138Y12095D01*
X26841Y11996D02*X27039D01*
X26742Y12095D02*X26841Y11996D01*
X40333Y23152D02*Y22281D01*
X40457Y22156D01*
X40706D01*
X40831Y22281D01*
Y23152D02*Y22281D01*
X41130Y22953D02*X41329Y23152D01*
Y22156D01*
X41130D02*X41503D01*
X45611Y14638D02*X46404D01*
Y15034D02*Y14638D01*
X45968Y15569D02*Y15272D01*
X46404Y15668D02*Y15272D01*
X45611D02*X46404D01*
X45611Y15668D02*Y15272D01*
Y16005D02*X46404D01*
X45611Y16263D02*X45750Y16401D01*
X46265D01*
X46404Y16263D02*X46265Y16401D01*
X46404Y16263D02*Y15906D01*
X45611Y16263D02*Y15906D01*
Y17035D02*Y16639D01*
X46007D01*
X45908Y16738D01*
Y16936D02*Y16738D01*
Y16936D02*X46007Y17035D01*
X46305D01*
X46404Y16936D02*X46305Y17035D01*
X46404Y16936D02*Y16738D01*
X46305Y16639D02*X46404Y16738D01*
X31328Y14790D02*X31585D01*
X31189Y14929D02*X31328Y14790D01*
X31189Y15444D02*Y14929D01*
Y15444D02*X31328Y15583D01*
X31585D01*
X32120D02*X32219Y15484D01*
X31922Y15583D02*X32120D01*
X31823Y15484D02*X31922Y15583D01*
X31823Y15484D02*Y14889D01*
X31922Y14790D01*
X32120Y15226D02*X32219Y15127D01*
X31823Y15226D02*X32120D01*
X31922Y14790D02*X32120D01*
X32219Y14889D01*
Y15127D02*Y14889D01*
X32457Y15484D02*X32556Y15583D01*
X32754D01*
X32853Y15484D01*
X32754Y14790D02*X32853Y14889D01*
X32556Y14790D02*X32754D01*
X32457Y14889D02*X32556Y14790D01*
Y15226D02*X32754D01*
X32853Y15484D02*Y15325D01*
Y15127D02*Y14889D01*
Y15127D02*X32754Y15226D01*
X32853Y15325D02*X32754Y15226D01*
X27772Y14790D02*X28029D01*
X27633Y14929D02*X27772Y14790D01*
X27633Y15444D02*Y14929D01*
Y15444D02*X27772Y15583D01*
X28029D01*
X28564D02*X28663Y15484D01*
X28366Y15583D02*X28564D01*
X28267Y15484D02*X28366Y15583D01*
X28267Y15484D02*Y14889D01*
X28366Y14790D01*
X28564Y15226D02*X28663Y15127D01*
X28267Y15226D02*X28564D01*
X28366Y14790D02*X28564D01*
X28663Y14889D01*
Y15127D02*Y14889D01*
X28901Y15484D02*X29000Y15583D01*
X29297D01*
X29396Y15484D01*
Y15286D01*
X28901Y14790D02*X29396Y15286D01*
X28901Y14790D02*X29396D01*
X27633Y7043D02*X28255Y8039D01*
X27633D02*X28255Y7043D01*
X28927Y8039D02*X29052Y7915D01*
X28678Y8039D02*X28927D01*
X28554Y7915D02*X28678Y8039D01*
X28554Y7915D02*Y7168D01*
X28678Y7043D01*
X28927Y7591D02*X29052Y7467D01*
X28554Y7591D02*X28927D01*
X28678Y7043D02*X28927D01*
X29052Y7168D01*
Y7467D02*Y7168D01*
X29351Y7840D02*X29550Y8039D01*
Y7043D01*
X29351D02*X29724D01*
X40531Y14638D02*X41324D01*
Y15034D02*Y14638D01*
X40888Y15569D02*Y15272D01*
X41324Y15668D02*Y15272D01*
X40531D02*X41324D01*
X40531Y15668D02*Y15272D01*
Y16005D02*X41324D01*
X40531Y16263D02*X40670Y16401D01*
X41185D01*
X41324Y16263D02*X41185Y16401D01*
X41324Y16263D02*Y15906D01*
X40531Y16263D02*Y15906D01*
X40630Y16639D02*X40531Y16738D01*
Y16936D02*Y16738D01*
Y16936D02*X40630Y17035D01*
X41324Y16936D02*X41225Y17035D01*
X41324Y16936D02*Y16738D01*
X41225Y16639D02*X41324Y16738D01*
X40888Y16936D02*Y16738D01*
X40630Y17035D02*X40789D01*
X40987D02*X41225D01*
X40987D02*X40888Y16936D01*
X40789Y17035D02*X40888Y16936D01*
X39261Y14638D02*X40054D01*
Y15034D02*Y14638D01*
X39618Y15569D02*Y15272D01*
X40054Y15668D02*Y15272D01*
X39261D02*X40054D01*
X39261Y15668D02*Y15272D01*
Y16005D02*X40054D01*
X39261Y16263D02*X39400Y16401D01*
X39915D01*
X40054Y16263D02*X39915Y16401D01*
X40054Y16263D02*Y15906D01*
X39261Y16263D02*Y15906D01*
X39360Y16639D02*X39261Y16738D01*
Y17035D02*Y16738D01*
Y17035D02*X39360Y17134D01*
X39558D01*
X40054Y16639D02*X39558Y17134D01*
X40054D02*Y16639D01*
X37991Y14638D02*X38784D01*
Y15034D02*Y14638D01*
X38348Y15569D02*Y15272D01*
X38784Y15668D02*Y15272D01*
X37991D02*X38784D01*
X37991Y15668D02*Y15272D01*
Y16005D02*X38784D01*
X37991Y16263D02*X38130Y16401D01*
X38645D01*
X38784Y16263D02*X38645Y16401D01*
X38784Y16263D02*Y15906D01*
X37991Y16263D02*Y15906D01*
X38150Y16639D02*X37991Y16798D01*
X38784D01*
Y16936D02*Y16639D01*
X43071Y14638D02*X43864D01*
Y15034D02*Y14638D01*
X43428Y15569D02*Y15272D01*
X43864Y15668D02*Y15272D01*
X43071D02*X43864D01*
X43071Y15668D02*Y15272D01*
Y16005D02*X43864D01*
X43071Y16263D02*X43210Y16401D01*
X43725D01*
X43864Y16263D02*X43725Y16401D01*
X43864Y16263D02*Y15906D01*
X43071Y16263D02*Y15906D01*
X43566Y16639D02*X43071Y17035D01*
X43566Y17134D02*Y16639D01*
X43071Y17035D02*X43864D01*
X40689Y20495D02*Y20238D01*
X40550Y20099D02*X40689Y20238D01*
X40035Y20099D02*X40550D01*
X40035D02*X39896Y20238D01*
Y20495D02*Y20238D01*
X40689Y20832D02*X40292Y21129D01*
X39995D02*X40292D01*
X39896Y21030D02*X39995Y21129D01*
X39896Y21030D02*Y20832D01*
X39995Y20733D02*X39896Y20832D01*
X39995Y20733D02*X40193D01*
X40292Y20832D01*
Y21129D02*Y20832D01*
X39546Y20495D02*Y20238D01*
X39407Y20099D02*X39546Y20238D01*
X38892Y20099D02*X39407D01*
X38892D02*X38753Y20238D01*
Y20495D02*Y20238D01*
Y21129D02*Y20733D01*
X39149D01*
X39050Y20832D01*
Y21030D02*Y20832D01*
Y21030D02*X39149Y21129D01*
X39447D01*
X39546Y21030D02*X39447Y21129D01*
X39546Y21030D02*Y20832D01*
X39447Y20733D02*X39546Y20832D01*
X19771Y20124D02*X20028D01*
X19632Y20263D02*X19771Y20124D01*
X19632Y20778D02*Y20263D01*
Y20778D02*X19771Y20917D01*
X20028D01*
X20266Y20818D02*X20365Y20917D01*
X20563D01*
X20662Y20818D01*
X20563Y20124D02*X20662Y20223D01*
X20365Y20124D02*X20563D01*
X20266Y20223D02*X20365Y20124D01*
Y20560D02*X20563D01*
X20662Y20818D02*Y20659D01*
Y20461D02*Y20223D01*
Y20461D02*X20563Y20560D01*
X20662Y20659D02*X20563Y20560D01*
X20999Y20124D02*X21395Y20917D01*
X20900D02*X21395D01*
X20115Y23162D02*Y22905D01*
X19976Y22766D02*X20115Y22905D01*
X19461Y22766D02*X19976D01*
X19461D02*X19322Y22905D01*
Y23162D02*Y22905D01*
X19421Y23400D02*X19322Y23499D01*
Y23697D02*Y23499D01*
Y23697D02*X19421Y23796D01*
X20115Y23697D02*X20016Y23796D01*
X20115Y23697D02*Y23499D01*
X20016Y23400D02*X20115Y23499D01*
X19679Y23697D02*Y23499D01*
X19421Y23796D02*X19580D01*
X19778D02*X20016D01*
X19778D02*X19679Y23697D01*
X19580Y23796D02*X19679Y23697D01*
X19481Y24034D02*X19322Y24192D01*
X20115D01*
Y24331D02*Y24034D01*
X16000Y24008D02*Y23754D01*
X15863Y23617D02*X16000Y23754D01*
X15354Y23617D02*X15863D01*
X15354D02*X15217Y23754D01*
Y24008D02*Y23754D01*
X15315Y24243D02*X15217Y24341D01*
Y24634D02*Y24341D01*
Y24634D02*X15315Y24732D01*
X15511D01*
X16000Y24243D02*X15511Y24732D01*
X16000D02*Y24243D01*
X15315Y24966D02*X15217Y25064D01*
Y25358D02*Y25064D01*
Y25358D02*X15315Y25455D01*
X15511D01*
X16000Y24966D02*X15511Y25455D01*
X16000D02*Y24966D01*
X15314Y22161D02*X15761D01*
X15538D02*Y21267D01*
X16141Y22161D02*Y21267D01*
X16029Y22161D02*X16476D01*
X16588Y22050D01*
Y21826D01*
X16476Y21714D02*X16588Y21826D01*
X16141Y21714D02*X16476D01*
X16856Y22050D02*X16968Y22161D01*
X17192D01*
X17303Y22050D01*
X17192Y21267D02*X17303Y21379D01*
X16968Y21267D02*X17192D01*
X16856Y21379D02*X16968Y21267D01*
Y21759D02*X17192D01*
X17303Y22050D02*Y21871D01*
Y21647D02*Y21379D01*
Y21647D02*X17192Y21759D01*
X17303Y21871D02*X17192Y21759D01*
X17572Y21983D02*X17750Y22161D01*
Y21267D01*
X17572D02*X17907D01*
X12495Y19352D02*Y19095D01*
X12356Y18956D02*X12495Y19095D01*
X11841Y18956D02*X12356D01*
X11841D02*X11702Y19095D01*
Y19352D02*Y19095D01*
X11801Y19590D02*X11702Y19689D01*
Y19887D02*Y19689D01*
Y19887D02*X11801Y19986D01*
X12495Y19887D02*X12396Y19986D01*
X12495Y19887D02*Y19689D01*
X12396Y19590D02*X12495Y19689D01*
X12059Y19887D02*Y19689D01*
X11801Y19986D02*X11960D01*
X12158D02*X12396D01*
X12158D02*X12059Y19887D01*
X11960Y19986D02*X12059Y19887D01*
X11801Y20224D02*X11702Y20323D01*
Y20620D02*Y20323D01*
Y20620D02*X11801Y20719D01*
X11999D01*
X12495Y20224D02*X11999Y20719D01*
X12495D02*Y20224D01*
X6983Y22004D02*X7186D01*
Y21115D01*
X7059Y20988D02*X7186Y21115D01*
X6932Y20988D02*X7059D01*
X6805Y21115D02*X6932Y20988D01*
X6805Y21242D02*Y21115D01*
X7491Y21877D02*X7618Y22004D01*
X7999D01*
X8126Y21877D01*
Y21623D01*
X7491Y20988D02*X8126Y21623D01*
X7491Y20988D02*X8126D01*
X8431Y21801D02*X8634Y22004D01*
Y20988D01*
X8431D02*X8812D01*
X10996Y12281D02*X11392D01*
X11491Y12182D01*
Y11984D01*
X11392Y11885D02*X11491Y11984D01*
X11095Y11885D02*X11392D01*
X11095Y12281D02*Y11488D01*
X11254Y11885D02*X11491Y11488D01*
X11729Y12182D02*X11828Y12281D01*
X12026D01*
X12125Y12182D01*
X12026Y11488D02*X12125Y11587D01*
X11828Y11488D02*X12026D01*
X11729Y11587D02*X11828Y11488D01*
Y11924D02*X12026D01*
X12125Y12182D02*Y12023D01*
Y11825D02*Y11587D01*
Y11825D02*X12026Y11924D01*
X12125Y12023D02*X12026Y11924D01*
X12363Y12182D02*X12462Y12281D01*
X12759D01*
X12858Y12182D01*
Y11984D01*
X12363Y11488D02*X12858Y11984D01*
X12363Y11488D02*X12858D01*
X10996Y11011D02*X11392D01*
X11491Y10912D01*
Y10714D01*
X11392Y10615D02*X11491Y10714D01*
X11095Y10615D02*X11392D01*
X11095Y11011D02*Y10218D01*
X11254Y10615D02*X11491Y10218D01*
X11729Y10912D02*X11828Y11011D01*
X12026D01*
X12125Y10912D01*
X12026Y10218D02*X12125Y10317D01*
X11828Y10218D02*X12026D01*
X11729Y10317D02*X11828Y10218D01*
Y10654D02*X12026D01*
X12125Y10912D02*Y10753D01*
Y10555D02*Y10317D01*
Y10555D02*X12026Y10654D01*
X12125Y10753D02*X12026Y10654D01*
X12363Y10852D02*X12522Y11011D01*
Y10218D01*
X12363D02*X12660D01*
X10996Y13551D02*X11392D01*
X11491Y13452D01*
Y13254D01*
X11392Y13155D02*X11491Y13254D01*
X11095Y13155D02*X11392D01*
X11095Y13551D02*Y12758D01*
X11254Y13155D02*X11491Y12758D01*
X11729Y13452D02*X11828Y13551D01*
X12026D01*
X12125Y13452D01*
X12026Y12758D02*X12125Y12857D01*
X11828Y12758D02*X12026D01*
X11729Y12857D02*X11828Y12758D01*
Y13194D02*X12026D01*
X12125Y13452D02*Y13293D01*
Y13095D02*Y12857D01*
Y13095D02*X12026Y13194D01*
X12125Y13293D02*X12026Y13194D01*
X12363Y13452D02*X12462Y13551D01*
X12660D01*
X12759Y13452D01*
X12660Y12758D02*X12759Y12857D01*
X12462Y12758D02*X12660D01*
X12363Y12857D02*X12462Y12758D01*
Y13194D02*X12660D01*
X12759Y13452D02*Y13293D01*
Y13095D02*Y12857D01*
Y13095D02*X12660Y13194D01*
X12759Y13293D02*X12660Y13194D01*
X10996Y9741D02*X11392D01*
X11491Y9642D01*
Y9444D01*
X11392Y9345D02*X11491Y9444D01*
X11095Y9345D02*X11392D01*
X11095Y9741D02*Y8948D01*
X11254Y9345D02*X11491Y8948D01*
X11729Y9642D02*X11828Y9741D01*
X12026D01*
X12125Y9642D01*
X12026Y8948D02*X12125Y9047D01*
X11828Y8948D02*X12026D01*
X11729Y9047D02*X11828Y8948D01*
Y9384D02*X12026D01*
X12125Y9642D02*Y9483D01*
Y9285D02*Y9047D01*
Y9285D02*X12026Y9384D01*
X12125Y9483D02*X12026Y9384D01*
X12363Y9246D02*X12759Y9741D01*
X12363Y9246D02*X12858D01*
X12759Y9741D02*Y8948D01*
X13003Y6779D02*Y6522D01*
X12864Y6383D02*X13003Y6522D01*
X12349Y6383D02*X12864D01*
X12349D02*X12210Y6522D01*
Y6779D02*Y6522D01*
X12309Y7017D02*X12210Y7116D01*
Y7314D02*Y7116D01*
Y7314D02*X12309Y7413D01*
X13003Y7314D02*X12904Y7413D01*
X13003Y7314D02*Y7116D01*
X12904Y7017D02*X13003Y7116D01*
X12567Y7314D02*Y7116D01*
X12309Y7413D02*X12468D01*
X12666D02*X12904D01*
X12666D02*X12567Y7314D01*
X12468Y7413D02*X12567Y7314D01*
X12309Y7651D02*X12210Y7750D01*
Y7948D02*Y7750D01*
Y7948D02*X12309Y8047D01*
X13003Y7948D02*X12904Y8047D01*
X13003Y7948D02*Y7750D01*
X12904Y7651D02*X13003Y7750D01*
X12567Y7948D02*Y7750D01*
X12309Y8047D02*X12468D01*
X12666D02*X12904D01*
X12666D02*X12567Y7948D01*
X12468Y8047D02*X12567Y7948D01*
X11501Y15527D02*X12382D01*
X12507Y15653D01*
Y15904D02*Y15653D01*
Y15904D02*X12382Y16030D01*
X11501D02*X12382D01*
X11627Y16332D02*X11501Y16457D01*
Y16709D02*Y16457D01*
Y16709D02*X11627Y16835D01*
X12507Y16709D02*X12382Y16835D01*
X12507Y16709D02*Y16457D01*
X12382Y16332D02*X12507Y16457D01*
X11954Y16709D02*Y16457D01*
X11627Y16835D02*X11828D01*
X12080D02*X12382D01*
X12080D02*X11954Y16709D01*
X11828Y16835D02*X11954Y16709D01*
X11703Y17136D02*X11501Y17338D01*
X12507D01*
Y17514D02*Y17136D01*
X12042Y21458D02*X12825D01*
X12042Y21849D02*Y21458D01*
X12395Y21751D02*Y21458D01*
X12825Y22475D02*Y22084D01*
Y22475D02*X12727Y22573D01*
X12492D02*X12727D01*
X12395Y22475D02*X12492Y22573D01*
X12395Y22475D02*Y22182D01*
X12042D02*X12825D01*
X12042Y22475D02*Y22084D01*
Y22475D02*X12140Y22573D01*
X12297D01*
X12395Y22475D02*X12297Y22573D01*
X12140Y22807D02*X12042Y22905D01*
Y23199D02*Y22905D01*
Y23199D02*X12140Y23296D01*
X12336D01*
X12825Y22807D02*X12336Y23296D01*
X12825D02*Y22807D01*
X12531Y23531D02*X12042Y23922D01*
X12531Y24020D02*Y23531D01*
X12042Y23922D02*X12825D01*
X12081Y24544D02*X12863D01*
X12081Y24935D02*Y24544D01*
X12433Y24837D02*Y24544D01*
X12863Y25561D02*Y25170D01*
Y25561D02*X12765Y25659D01*
X12530D02*X12765D01*
X12433Y25561D02*X12530Y25659D01*
X12433Y25561D02*Y25268D01*
X12081D02*X12863D01*
X12081Y25561D02*Y25170D01*
Y25561D02*X12178Y25659D01*
X12335D01*
X12433Y25561D02*X12335Y25659D01*
X12178Y25894D02*X12081Y25991D01*
Y26285D02*Y25991D01*
Y26285D02*X12178Y26382D01*
X12374D01*
X12863Y25894D02*X12374Y26382D01*
X12863D02*Y25894D01*
X12178Y26617D02*X12081Y26715D01*
Y26911D02*Y26715D01*
Y26911D02*X12178Y27008D01*
X12863Y26911D02*X12765Y27008D01*
X12863Y26911D02*Y26715D01*
X12765Y26617D02*X12863Y26715D01*
X12433Y26911D02*Y26715D01*
X12178Y27008D02*X12335D01*
X12530D02*X12765D01*
X12530D02*X12433Y26911D01*
X12335Y27008D02*X12433Y26911D01*
X13525Y13775D02*Y12759D01*
X13398Y13775D02*X13906D01*
X14033Y13648D01*
Y13394D01*
X13906Y13267D02*X14033Y13394D01*
X13525Y13267D02*X13906D01*
X14338Y13648D02*X14465Y13775D01*
X14719D01*
X14846Y13648D01*
X14719Y12759D02*X14846Y12886D01*
X14465Y12759D02*X14719D01*
X14338Y12886D02*X14465Y12759D01*
Y13318D02*X14719D01*
X14846Y13648D02*Y13445D01*
Y13191D02*Y12886D01*
Y13191D02*X14719Y13318D01*
X14846Y13445D02*X14719Y13318D01*
X15151Y13572D02*X15354Y13775D01*
Y12759D01*
X15151D02*X15532D01*
X16051Y26972D02*Y26715D01*
X15912Y26576D02*X16051Y26715D01*
X15397Y26576D02*X15912D01*
X15397D02*X15258Y26715D01*
Y26972D02*Y26715D01*
X15357Y27210D02*X15258Y27309D01*
Y27606D02*Y27309D01*
Y27606D02*X15357Y27705D01*
X15555D01*
X16051Y27210D02*X15555Y27705D01*
X16051D02*Y27210D01*
X15357Y27943D02*X15258Y28042D01*
Y28240D02*Y28042D01*
Y28240D02*X15357Y28339D01*
X16051Y28240D02*X15952Y28339D01*
X16051Y28240D02*Y28042D01*
X15952Y27943D02*X16051Y28042D01*
X15615Y28240D02*Y28042D01*
X15357Y28339D02*X15516D01*
X15714D02*X15952D01*
X15714D02*X15615Y28240D01*
X15516Y28339D02*X15615Y28240D01*
X57582Y49614D02*X57846D01*
Y48458D01*
X57681Y48293D02*X57846Y48458D01*
X57516Y48293D02*X57681D01*
X57351Y48458D02*X57516Y48293D01*
X57351Y48623D02*Y48458D01*
X58243Y49614D02*X58903D01*
X58243D02*Y48953D01*
X58408Y49118D01*
X58738D01*
X58903Y48953D01*
Y48458D01*
X58738Y48293D02*X58903Y48458D01*
X58408Y48293D02*X58738D01*
X58243Y48458D02*X58408Y48293D01*
X59299Y49350D02*X59563Y49614D01*
Y48293D01*
X59299D02*X59794D01*
X58215Y31163D02*Y30906D01*
X58076Y30767D02*X58215Y30906D01*
X57561Y30767D02*X58076D01*
X57561D02*X57422Y30906D01*
Y31163D02*Y30906D01*
Y31797D02*Y31401D01*
X57818D01*
X57719Y31500D01*
Y31698D02*Y31500D01*
Y31698D02*X57818Y31797D01*
X58116D01*
X58215Y31698D02*X58116Y31797D01*
X58215Y31698D02*Y31500D01*
X58116Y31401D02*X58215Y31500D01*
X57917Y32035D02*X57422Y32431D01*
X57917Y32530D02*Y32035D01*
X57422Y32431D02*X58215D01*
X59612Y31163D02*Y30906D01*
X59473Y30767D02*X59612Y30906D01*
X58958Y30767D02*X59473D01*
X58958D02*X58819Y30906D01*
Y31163D02*Y30906D01*
Y31797D02*Y31401D01*
X59215D01*
X59116Y31500D01*
Y31698D02*Y31500D01*
Y31698D02*X59215Y31797D01*
X59513D01*
X59612Y31698D02*X59513Y31797D01*
X59612Y31698D02*Y31500D01*
X59513Y31401D02*X59612Y31500D01*
X58819Y32431D02*Y32035D01*
X59215D01*
X59116Y32134D01*
Y32332D02*Y32134D01*
Y32332D02*X59215Y32431D01*
X59513D01*
X59612Y32332D02*X59513Y32431D01*
X59612Y32332D02*Y32134D01*
X59513Y32035D02*X59612Y32134D01*
X57422Y28623D02*Y28227D01*
Y28623D02*X57521Y28722D01*
X57719D01*
X57818Y28623D02*X57719Y28722D01*
X57818Y28623D02*Y28326D01*
X57422D02*X58215D01*
X57818Y28485D02*X58215Y28722D01*
X57422Y29356D02*Y28960D01*
X57818D01*
X57719Y29059D01*
Y29257D02*Y29059D01*
Y29257D02*X57818Y29356D01*
X58116D01*
X58215Y29257D02*X58116Y29356D01*
X58215Y29257D02*Y29059D01*
X58116Y28960D02*X58215Y29059D01*
X57581Y29594D02*X57422Y29753D01*
X58215D01*
Y29891D02*Y29594D01*
X58819Y28623D02*Y28227D01*
Y28623D02*X58918Y28722D01*
X59116D01*
X59215Y28623D02*X59116Y28722D01*
X59215Y28623D02*Y28326D01*
X58819D02*X59612D01*
X59215Y28485D02*X59612Y28722D01*
X58819Y29356D02*Y28960D01*
X59215D01*
X59116Y29059D01*
Y29257D02*Y29059D01*
Y29257D02*X59215Y29356D01*
X59513D01*
X59612Y29257D02*X59513Y29356D01*
X59612Y29257D02*Y29059D01*
X59513Y28960D02*X59612Y29059D01*
X58918Y29594D02*X58819Y29693D01*
Y29990D02*Y29693D01*
Y29990D02*X58918Y30089D01*
X59116D01*
X59612Y29594D02*X59116Y30089D01*
X59612D02*Y29594D01*
X55728Y17907D02*Y17521D01*
Y17907D02*X55824Y18004D01*
X56018D01*
X56114Y17907D02*X56018Y18004D01*
X56114Y17907D02*Y17617D01*
X55728D02*X56500D01*
X56114Y17772D02*X56500Y18004D01*
X55882Y18235D02*X55728Y18390D01*
X56500D01*
Y18525D02*Y18235D01*
X56404Y18756D02*X56500Y18853D01*
X55824Y18756D02*X56404D01*
X55824D02*X55728Y18853D01*
Y19046D02*Y18853D01*
Y19046D02*X55824Y19142D01*
X56404D01*
X56500Y19046D02*X56404Y19142D01*
X56500Y19046D02*Y18853D01*
X56307Y18756D02*X55921Y19142D01*
X42975Y23797D02*Y23540D01*
X42836Y23401D02*X42975Y23540D01*
X42321Y23401D02*X42836D01*
X42321D02*X42182Y23540D01*
Y23797D02*Y23540D01*
X42341Y24035D02*X42182Y24193D01*
X42975D01*
Y24332D02*Y24035D01*
X39261Y17955D02*Y17559D01*
Y17955D02*X39360Y18054D01*
X39558D01*
X39657Y17955D02*X39558Y18054D01*
X39657Y17955D02*Y17658D01*
X39261D02*X40054D01*
X39657Y17817D02*X40054Y18054D01*
X39360Y18292D02*X39261Y18391D01*
Y18589D02*Y18391D01*
Y18589D02*X39360Y18688D01*
X40054Y18589D02*X39955Y18688D01*
X40054Y18589D02*Y18391D01*
X39955Y18292D02*X40054Y18391D01*
X39618Y18589D02*Y18391D01*
X39360Y18688D02*X39519D01*
X39717D02*X39955D01*
X39717D02*X39618Y18589D01*
X39519Y18688D02*X39618Y18589D01*
X37991Y17955D02*Y17559D01*
Y17955D02*X38090Y18054D01*
X38288D01*
X38387Y17955D02*X38288Y18054D01*
X38387Y17955D02*Y17658D01*
X37991D02*X38784D01*
X38387Y17817D02*X38784Y18054D01*
X38090Y18292D02*X37991Y18391D01*
Y18688D02*Y18391D01*
Y18688D02*X38090Y18787D01*
X38288D01*
X38784Y18292D02*X38288Y18787D01*
X38784D02*Y18292D01*
X43071Y17955D02*Y17559D01*
Y17955D02*X43170Y18054D01*
X43368D01*
X43467Y17955D02*X43368Y18054D01*
X43467Y17955D02*Y17658D01*
X43071D02*X43864D01*
X43467Y17817D02*X43864Y18054D01*
X43071Y18688D02*Y18292D01*
X43467D01*
X43368Y18391D01*
Y18589D02*Y18391D01*
Y18589D02*X43467Y18688D01*
X43765D01*
X43864Y18589D02*X43765Y18688D01*
X43864Y18589D02*Y18391D01*
X43765Y18292D02*X43864Y18391D01*
X40531Y17955D02*Y17559D01*
Y17955D02*X40630Y18054D01*
X40828D01*
X40927Y17955D02*X40828Y18054D01*
X40927Y17955D02*Y17658D01*
X40531D02*X41324D01*
X40927Y17817D02*X41324Y18054D01*
X41026Y18292D02*X40531Y18688D01*
X41026Y18787D02*Y18292D01*
X40531Y18688D02*X41324D01*
X45611Y17955D02*Y17559D01*
Y17955D02*X45710Y18054D01*
X45908D01*
X46007Y17955D02*X45908Y18054D01*
X46007Y17955D02*Y17658D01*
X45611D02*X46404D01*
X46007Y17817D02*X46404Y18054D01*
X45611Y18589D02*X45710Y18688D01*
X45611Y18589D02*Y18391D01*
X45710Y18292D02*X45611Y18391D01*
X45710Y18292D02*X46305D01*
X46404Y18391D01*
X45968Y18589D02*X46067Y18688D01*
X45968Y18589D02*Y18292D01*
X46404Y18589D02*Y18391D01*
Y18589D02*X46305Y18688D01*
X46067D02*X46305D01*
X48405Y17955D02*Y17559D01*
Y17955D02*X48504Y18054D01*
X48702D01*
X48801Y17955D02*X48702Y18054D01*
X48801Y17955D02*Y17658D01*
X48405D02*X49198D01*
X48801Y17817D02*X49198Y18054D01*
Y18391D02*X48405Y18787D01*
Y18292D01*
X50691Y17955D02*Y17559D01*
Y17955D02*X50790Y18054D01*
X50988D01*
X51087Y17955D02*X50988Y18054D01*
X51087Y17955D02*Y17658D01*
X50691D02*X51484D01*
X51087Y17817D02*X51484Y18054D01*
X51385Y18292D02*X51484Y18391D01*
X51226Y18292D02*X51385D01*
X51226D02*X51087Y18431D01*
Y18550D02*Y18431D01*
Y18550D02*X51226Y18688D01*
X51385D01*
X51484Y18589D02*X51385Y18688D01*
X51484Y18589D02*Y18391D01*
X50949Y18292D02*X51087Y18431D01*
X50790Y18292D02*X50949D01*
X50790D02*X50691Y18391D01*
Y18589D02*Y18391D01*
Y18589D02*X50790Y18688D01*
X50949D01*
X51087Y18550D02*X50949Y18688D01*
M02*
