G04 start of page 14 for group -4014 idx -4014 *
G04 Title: MMDVM_pog, bottompaste *
G04 Creator: pcb v4.0.0-ga246c150 *
G04 CreationDate: Wed Apr 26 20:29:48 2017 UTC *
G04 For: wojtek *
G04 Format: Gerber/RS-274X *
G04 PCB-Dimensions (mm): 66.29 58.42 *
G04 PCB-Coordinate-Origin: lower left *
%MOMM*%
%FSLAX43Y43*%
%LNBOTTOMPASTE*%
%ADD124C,0.002*%
G54D124*G36*
X38407Y29108D02*X37657D01*
Y28108D01*
X38407D01*
Y29108D01*
G37*
G36*
X39707D02*X38957D01*
Y28108D01*
X39707D01*
Y29108D01*
G37*
G36*
X39816Y31844D02*X38516D01*
Y29944D01*
X39816D01*
Y31844D01*
G37*
G36*
X36816D02*X35516D01*
Y29944D01*
X36816D01*
Y31844D01*
G37*
G36*
X40726Y27723D02*Y26423D01*
X42226D01*
Y27723D01*
X40726D01*
G37*
G36*
Y29523D02*Y28223D01*
X42226D01*
Y29523D01*
X40726D01*
G37*
G36*
X13028Y24722D02*Y23858D01*
X14044D01*
Y24722D01*
X13028D01*
G37*
G36*
Y26703D02*Y25839D01*
X14044D01*
Y26703D01*
X13028D01*
G37*
G36*
X15111Y25712D02*Y24849D01*
X16127D01*
Y25712D01*
X15111D01*
G37*
G36*
X13028Y30564D02*Y29700D01*
X14044D01*
Y30564D01*
X13028D01*
G37*
G36*
Y32545D02*Y31681D01*
X14044D01*
Y32545D01*
X13028D01*
G37*
G36*
X15111Y31554D02*Y30691D01*
X16127D01*
Y31554D01*
X15111D01*
G37*
M02*
