G04 start of page 9 for group -4063 idx -4063 *
G04 Title: MMDVM_pog, componentmask *
G04 Creator: pcb v4.0.0-ga246c150 *
G04 CreationDate: Wed Apr 26 20:29:48 2017 UTC *
G04 For: wojtek *
G04 Format: Gerber/RS-274X *
G04 PCB-Dimensions (mm): 66.29 58.42 *
G04 PCB-Coordinate-Origin: lower left *
%MOMM*%
%FSLAX43Y43*%
%LNTOPMASK*%
%ADD100C,2.203*%
%ADD99C,1.981*%
%ADD98C,6.200*%
%ADD97C,3.800*%
%ADD96C,1.950*%
%ADD95C,2.000*%
%ADD94C,1.930*%
%ADD93C,0.002*%
G54D93*G36*
X34923Y10269D02*Y8339D01*
X36853D01*
Y10269D01*
X34923D01*
G37*
G54D94*X38428Y9304D03*
G54D95*X16878Y10280D03*
G54D93*G36*
X18378Y8780D02*Y6780D01*
X20378D01*
Y8780D01*
X18378D01*
G37*
G54D95*X14378Y7780D03*
G54D94*X40968Y9304D03*
X43508D03*
X46048D03*
X48588D03*
X51128D03*
X53668D03*
X56208D03*
X58748D03*
G54D93*G36*
X6983Y34653D02*Y32723D01*
X8913D01*
Y34653D01*
X6983D01*
G37*
G54D94*X10488Y33688D03*
X7948Y31148D03*
X10488D03*
X7948Y28608D03*
Y26068D03*
Y23528D03*
X10488Y28608D03*
Y26068D03*
Y23528D03*
G54D95*X10448Y40332D03*
G54D93*G36*
X6948Y43832D02*Y41832D01*
X8948D01*
Y43832D01*
X6948D01*
G37*
G54D95*X12948Y42832D03*
G54D93*G36*
X23493Y23731D02*Y21801D01*
X25423D01*
Y23731D01*
X23493D01*
G37*
G54D94*X21918Y22766D03*
X24458Y25306D03*
X21918D03*
Y27846D03*
G54D93*G36*
X20953Y33891D02*Y31961D01*
X22883D01*
Y33891D01*
X20953D01*
G37*
G54D94*X24458Y32926D03*
G54D93*G36*
X49391Y43553D02*Y41603D01*
X51341D01*
Y43553D01*
X49391D01*
G37*
G54D96*X50366Y40078D03*
X52366D03*
G54D97*X55066Y35328D03*
G54D96*X52366Y42578D03*
G54D97*X55066Y47328D03*
G54D93*G36*
X7999Y52687D02*Y50757D01*
X9929D01*
Y52687D01*
X7999D01*
G37*
G54D94*X8964Y54262D03*
X11504Y51722D03*
Y54262D03*
X14044Y51722D03*
Y54262D03*
X16584Y51722D03*
Y54262D03*
X19124Y51722D03*
Y54262D03*
X21664Y51722D03*
X24204D03*
X26744D03*
X21664Y54262D03*
X24204D03*
X26744D03*
X29284D03*
X31824D03*
X34364D03*
X29284Y51722D03*
X31824D03*
X34364D03*
X36904D03*
Y54262D03*
X39444Y51722D03*
X41984D03*
X44524D03*
X39444Y54262D03*
X41984D03*
X44524D03*
X47064D03*
X49604D03*
X52144D03*
X47064Y51722D03*
X49604D03*
X52144D03*
X54684D03*
Y54262D03*
X57224D03*
Y51722D03*
G54D98*X62094Y3992D03*
Y52992D03*
X4094Y3992D03*
Y52992D03*
G54D93*G36*
X19463Y21056D02*X18561D01*
Y19904D01*
X19463D01*
Y21056D01*
G37*
G54D99*X23696Y19464D03*
G54D93*G36*
X18163Y21056D02*X17261D01*
Y19904D01*
X18163D01*
Y21056D01*
G37*
G54D99*X14298Y20734D03*
G54D93*G36*
X13028Y18702D02*Y17940D01*
X15441D01*
Y18702D01*
X13028D01*
G37*
G36*
X8646Y20366D02*X7250D01*
Y18054D01*
X8646D01*
Y20366D01*
G37*
G36*
X11186D02*X9790D01*
Y18054D01*
X11186D01*
Y20366D01*
G37*
G36*
X13028Y17432D02*Y16670D01*
X15441D01*
Y17432D01*
X13028D01*
G37*
G36*
Y16162D02*Y15400D01*
X15441D01*
Y16162D01*
X13028D01*
G37*
G36*
Y14892D02*Y14130D01*
X15441D01*
Y14892D01*
X13028D01*
G37*
G36*
X18235D02*Y14130D01*
X20648D01*
Y14892D01*
X18235D01*
G37*
G36*
Y16162D02*Y15400D01*
X20648D01*
Y16162D01*
X18235D01*
G37*
G36*
Y17432D02*Y16670D01*
X20648D01*
Y17432D01*
X18235D01*
G37*
G36*
Y18702D02*Y17940D01*
X20648D01*
Y18702D01*
X18235D01*
G37*
G36*
X9044Y14956D02*X7592D01*
Y13304D01*
X9044D01*
Y14956D01*
G37*
G36*
X10844D02*X9392D01*
Y13304D01*
X10844D01*
Y14956D01*
G37*
G36*
Y12670D02*X9392D01*
Y11018D01*
X10844D01*
Y12670D01*
G37*
G36*
X9044D02*X7592D01*
Y11018D01*
X9044D01*
Y12670D01*
G37*
G36*
X10844Y17242D02*X9392D01*
Y15590D01*
X10844D01*
Y17242D01*
G37*
G36*
X9044D02*X7592D01*
Y15590D01*
X9044D01*
Y17242D01*
G37*
G36*
X10844Y10384D02*X9392D01*
Y8732D01*
X10844D01*
Y10384D01*
G37*
G36*
X11694Y7920D02*X10298D01*
Y5608D01*
X11694D01*
Y7920D01*
G37*
G36*
X9044Y10384D02*X7592D01*
Y8732D01*
X9044D01*
Y10384D01*
G37*
G36*
X9154Y7920D02*X7758D01*
Y5608D01*
X9154D01*
Y7920D01*
G37*
G36*
X25559Y28422D02*X24657D01*
Y27270D01*
X25559D01*
Y28422D01*
G37*
G36*
X24259D02*X23357D01*
Y27270D01*
X24259D01*
Y28422D01*
G37*
G36*
X29326Y28036D02*Y27680D01*
X30545D01*
Y28036D01*
X29326D01*
G37*
G36*
Y27536D02*Y27180D01*
X30545D01*
Y27536D01*
X29326D01*
G37*
G36*
Y27036D02*Y26680D01*
X30545D01*
Y27036D01*
X29326D01*
G37*
G36*
Y26536D02*Y26180D01*
X30545D01*
Y26536D01*
X29326D01*
G37*
G36*
Y26036D02*Y25680D01*
X30545D01*
Y26036D01*
X29326D01*
G37*
G36*
Y25536D02*Y25180D01*
X30545D01*
Y25536D01*
X29326D01*
G37*
G36*
Y25036D02*Y24680D01*
X30545D01*
Y25036D01*
X29326D01*
G37*
G36*
X26930Y26153D02*Y25251D01*
X28082D01*
Y26153D01*
X26930D01*
G37*
G36*
Y24853D02*Y23951D01*
X28082D01*
Y24853D01*
X26930D01*
G37*
G54D99*X30300Y21496D03*
G54D93*G36*
X29938Y19866D02*X29138D01*
Y18566D01*
X29938D01*
Y19866D01*
G37*
G36*
X31838D02*X31038D01*
Y18566D01*
X31838D01*
Y19866D01*
G37*
G36*
X27184Y19773D02*Y18871D01*
X28336D01*
Y19773D01*
X27184D01*
G37*
G36*
Y21073D02*Y20171D01*
X28336D01*
Y21073D01*
X27184D01*
G37*
G36*
X32062Y23519D02*X31706D01*
Y22300D01*
X32062D01*
Y23519D01*
G37*
G36*
X32562D02*X32206D01*
Y22300D01*
X32562D01*
Y23519D01*
G37*
G36*
X29938Y17066D02*X29138D01*
Y15766D01*
X29938D01*
Y17066D01*
G37*
G36*
X30888D02*X30088D01*
Y15766D01*
X30888D01*
Y17066D01*
G37*
G36*
X31838D02*X31038D01*
Y15766D01*
X31838D01*
Y17066D01*
G37*
G36*
X25322Y17750D02*X23870D01*
Y16098D01*
X25322D01*
Y17750D01*
G37*
G36*
Y15464D02*X23870D01*
Y13812D01*
X25322D01*
Y15464D01*
G37*
G36*
Y10892D02*X23870D01*
Y9240D01*
X25322D01*
Y10892D01*
G37*
G36*
Y6828D02*X23870D01*
Y5176D01*
X25322D01*
Y6828D01*
G37*
G36*
Y8860D02*X23870D01*
Y7208D01*
X25322D01*
Y8860D01*
G37*
G36*
Y13178D02*X23870D01*
Y11526D01*
X25322D01*
Y13178D01*
G37*
G36*
X23522Y17750D02*X22070D01*
Y16098D01*
X23522D01*
Y17750D01*
G37*
G36*
Y15464D02*X22070D01*
Y13812D01*
X23522D01*
Y15464D01*
G37*
G36*
Y10892D02*X22070D01*
Y9240D01*
X23522D01*
Y10892D01*
G37*
G36*
Y6828D02*X22070D01*
Y5176D01*
X23522D01*
Y6828D01*
G37*
G36*
Y8860D02*X22070D01*
Y7208D01*
X23522D01*
Y8860D01*
G37*
G36*
Y13178D02*X22070D01*
Y11526D01*
X23522D01*
Y13178D01*
G37*
G36*
X16444Y24734D02*Y23338D01*
X18756D01*
Y24734D01*
X16444D01*
G37*
G36*
Y27274D02*Y25878D01*
X18756D01*
Y27274D01*
X16444D01*
G37*
G36*
X18895Y29903D02*X17879D01*
Y28735D01*
X18895D01*
Y29903D01*
G37*
G36*
X15145Y23596D02*X14243D01*
Y22444D01*
X15145D01*
Y23596D01*
G37*
G36*
X13845D02*X12943D01*
Y22444D01*
X13845D01*
Y23596D01*
G37*
G36*
Y25120D02*X12943D01*
Y23968D01*
X13845D01*
Y25120D01*
G37*
G36*
X15145D02*X14243D01*
Y23968D01*
X15145D01*
Y25120D01*
G37*
G36*
X13845Y28168D02*X12943D01*
Y27016D01*
X13845D01*
Y28168D01*
G37*
G36*
X15145Y26644D02*X14243D01*
Y25492D01*
X15145D01*
Y26644D01*
G37*
G36*
X13845D02*X12943D01*
Y25492D01*
X13845D01*
Y26644D01*
G37*
G36*
X15145Y28168D02*X14243D01*
Y27016D01*
X15145D01*
Y28168D01*
G37*
G36*
X14831Y29903D02*X13815D01*
Y28735D01*
X14831D01*
Y29903D01*
G37*
G36*
X22616Y47252D02*Y45800D01*
X24268D01*
Y47252D01*
X22616D01*
G37*
G36*
Y45452D02*Y44000D01*
X24268D01*
Y45452D01*
X22616D01*
G37*
G36*
X20330Y47252D02*Y45800D01*
X21982D01*
Y47252D01*
X20330D01*
G37*
G36*
Y45452D02*Y44000D01*
X21982D01*
Y45452D01*
X20330D01*
G37*
G36*
X24902Y41388D02*Y39936D01*
X26554D01*
Y41388D01*
X24902D01*
G37*
G36*
Y43188D02*Y41736D01*
X26554D01*
Y43188D01*
X24902D01*
G37*
G36*
Y47252D02*Y45800D01*
X26554D01*
Y47252D01*
X24902D01*
G37*
G36*
Y45452D02*Y44000D01*
X26554D01*
Y45452D01*
X24902D01*
G37*
G36*
X27188Y47252D02*Y45800D01*
X28840D01*
Y47252D01*
X27188D01*
G37*
G36*
Y45452D02*Y44000D01*
X28840D01*
Y45452D01*
X27188D01*
G37*
G36*
X23696Y43340D02*X22934D01*
Y40927D01*
X23696D01*
Y43340D01*
G37*
G36*
X22426D02*X21664D01*
Y40927D01*
X22426D01*
Y43340D01*
G37*
G36*
X21156D02*X20394D01*
Y40927D01*
X21156D01*
Y43340D01*
G37*
G36*
X19060Y46782D02*X17664D01*
Y44470D01*
X19060D01*
Y46782D01*
G37*
G36*
X16520D02*X15124D01*
Y44470D01*
X16520D01*
Y46782D01*
G37*
G54D99*X10742Y47277D03*
G54D93*G36*
X17024Y40855D02*Y39953D01*
X18176D01*
Y40855D01*
X17024D01*
G37*
G36*
Y42155D02*Y41253D01*
X18176D01*
Y42155D01*
X17024D01*
G37*
G36*
X14742Y42680D02*Y41228D01*
X16394D01*
Y42680D01*
X14742D01*
G37*
G36*
Y40880D02*Y39428D01*
X16394D01*
Y40880D01*
X14742D01*
G37*
G36*
X19886Y38133D02*X19124D01*
Y35720D01*
X19886D01*
Y38133D01*
G37*
G36*
Y43340D02*X19124D01*
Y40927D01*
X19886D01*
Y43340D01*
G37*
G36*
X21156Y38133D02*X20394D01*
Y35720D01*
X21156D01*
Y38133D01*
G37*
G36*
X22426D02*X21664D01*
Y35720D01*
X22426D01*
Y38133D01*
G37*
G36*
X23696D02*X22934D01*
Y35720D01*
X23696D01*
Y38133D01*
G37*
G36*
X27188Y41388D02*Y39936D01*
X28840D01*
Y41388D01*
X27188D01*
G37*
G36*
Y43188D02*Y41736D01*
X28840D01*
Y43188D01*
X27188D01*
G37*
G54D99*X25855Y38387D03*
G54D93*G36*
X25152Y37075D02*Y36173D01*
X26304D01*
Y37075D01*
X25152D01*
G37*
G36*
Y35775D02*Y34873D01*
X26304D01*
Y35775D01*
X25152D01*
G37*
G36*
X13845Y35280D02*X12943D01*
Y34128D01*
X13845D01*
Y35280D01*
G37*
G36*
X7749Y36804D02*X6847D01*
Y35652D01*
X7749D01*
Y36804D01*
G37*
G36*
X9049D02*X8147D01*
Y35652D01*
X9049D01*
Y36804D01*
G37*
G36*
X15145Y35280D02*X14243D01*
Y34128D01*
X15145D01*
Y35280D01*
G37*
G36*
Y33756D02*X14243D01*
Y32604D01*
X15145D01*
Y33756D01*
G37*
G36*
X13841Y31986D02*X12825D01*
Y30818D01*
X13841D01*
Y31986D01*
G37*
G36*
X19886D02*X18870D01*
Y30818D01*
X19886D01*
Y31986D01*
G37*
G36*
X17905D02*X16889D01*
Y30818D01*
X17905D01*
Y31986D01*
G37*
G36*
X15822D02*X14806D01*
Y30818D01*
X15822D01*
Y31986D01*
G37*
G36*
X13845Y33756D02*X12943D01*
Y32604D01*
X13845D01*
Y33756D01*
G37*
G36*
X15145Y36804D02*X14243D01*
Y35652D01*
X15145D01*
Y36804D01*
G37*
G36*
X13845D02*X12943D01*
Y35652D01*
X13845D01*
Y36804D01*
G37*
G36*
X12097D02*X11195D01*
Y35652D01*
X12097D01*
Y36804D01*
G37*
G36*
X10797D02*X9895D01*
Y35652D01*
X10797D01*
Y36804D01*
G37*
G36*
X45222Y5574D02*Y4122D01*
X46874D01*
Y5574D01*
X45222D01*
G37*
G36*
X47762D02*Y4122D01*
X49414D01*
Y5574D01*
X47762D01*
G37*
G36*
X50302D02*Y4122D01*
X51954D01*
Y5574D01*
X50302D01*
G37*
G36*
X52842D02*Y4122D01*
X54494D01*
Y5574D01*
X52842D01*
G37*
G36*
X42682D02*Y4122D01*
X44334D01*
Y5574D01*
X42682D01*
G37*
G36*
X55382D02*Y4122D01*
X57034D01*
Y5574D01*
X55382D01*
G37*
G36*
X45222Y7374D02*Y5922D01*
X46874D01*
Y7374D01*
X45222D01*
G37*
G36*
X47762D02*Y5922D01*
X49414D01*
Y7374D01*
X47762D01*
G37*
G36*
X50302D02*Y5922D01*
X51954D01*
Y7374D01*
X50302D01*
G37*
G36*
X52842D02*Y5922D01*
X54494D01*
Y7374D01*
X52842D01*
G37*
G36*
X42682D02*Y5922D01*
X44334D01*
Y7374D01*
X42682D01*
G37*
G36*
X55382D02*Y5922D01*
X57034D01*
Y7374D01*
X55382D01*
G37*
G36*
Y12686D02*Y11234D01*
X57034D01*
Y12686D01*
X55382D01*
G37*
G36*
X52842D02*Y11234D01*
X54494D01*
Y12686D01*
X52842D01*
G37*
G36*
X55382Y14486D02*Y13034D01*
X57034D01*
Y14486D01*
X55382D01*
G37*
G36*
X52842D02*Y13034D01*
X54494D01*
Y14486D01*
X52842D01*
G37*
G36*
X45222Y12686D02*Y11234D01*
X46874D01*
Y12686D01*
X45222D01*
G37*
G36*
X47762D02*Y11234D01*
X49414D01*
Y12686D01*
X47762D01*
G37*
G36*
X50302D02*Y11234D01*
X51954D01*
Y12686D01*
X50302D01*
G37*
G36*
X42682D02*Y11234D01*
X44334D01*
Y12686D01*
X42682D01*
G37*
G36*
X45222Y14486D02*Y13034D01*
X46874D01*
Y14486D01*
X45222D01*
G37*
G36*
X47762D02*Y13034D01*
X49414D01*
Y14486D01*
X47762D01*
G37*
G36*
X50302D02*Y13034D01*
X51954D01*
Y14486D01*
X50302D01*
G37*
G36*
X42682D02*Y13034D01*
X44334D01*
Y14486D01*
X42682D01*
G37*
G36*
X52453Y21310D02*X51551D01*
Y20158D01*
X52453D01*
Y21310D01*
G37*
G36*
X53753D02*X52851D01*
Y20158D01*
X53753D01*
Y21310D01*
G37*
G36*
X58342Y21560D02*X56890D01*
Y19908D01*
X58342D01*
Y21560D01*
G37*
G36*
X56542D02*X55090D01*
Y19908D01*
X56542D01*
Y21560D01*
G37*
G36*
X56539Y23108D02*Y22551D01*
X58417D01*
Y23108D01*
X56539D01*
G37*
G36*
X42424Y20535D02*Y19633D01*
X43576D01*
Y20535D01*
X42424D01*
G37*
G36*
Y21835D02*Y20933D01*
X43576D01*
Y21835D01*
X42424D01*
G37*
G36*
X43186Y25391D02*Y24489D01*
X44338D01*
Y25391D01*
X43186D01*
G37*
G36*
Y27393D02*Y26491D01*
X44338D01*
Y27393D01*
X43186D01*
G37*
G36*
Y24091D02*Y23189D01*
X44338D01*
Y24091D01*
X43186D01*
G37*
G54D100*X47318Y22814D02*Y19314D01*
G54D93*G36*
X56539Y23743D02*Y23186D01*
X58417D01*
Y23743D01*
X56539D01*
G37*
G36*
Y24378D02*Y23821D01*
X58417D01*
Y24378D01*
X56539D01*
G37*
G36*
Y25013D02*Y24456D01*
X58417D01*
Y25013D01*
X56539D01*
G37*
G36*
Y25648D02*Y25091D01*
X58417D01*
Y25648D01*
X56539D01*
G37*
G36*
Y26283D02*Y25726D01*
X58417D01*
Y26283D01*
X56539D01*
G37*
G36*
Y26918D02*Y26361D01*
X58417D01*
Y26918D01*
X56539D01*
G37*
G36*
Y27553D02*Y26996D01*
X58417D01*
Y27553D01*
X56539D01*
G37*
G36*
X51459D02*Y26996D01*
X53337D01*
Y27553D01*
X51459D01*
G37*
G36*
Y26918D02*Y26361D01*
X53337D01*
Y26918D01*
X51459D01*
G37*
G36*
Y26283D02*Y25726D01*
X53337D01*
Y26283D01*
X51459D01*
G37*
G36*
Y25648D02*Y25091D01*
X53337D01*
Y25648D01*
X51459D01*
G37*
G36*
X53753Y29692D02*X52851D01*
Y28540D01*
X53753D01*
Y29692D01*
G37*
G36*
X52453D02*X51551D01*
Y28540D01*
X52453D01*
Y29692D01*
G37*
G36*
X51459Y25013D02*Y24456D01*
X53337D01*
Y25013D01*
X51459D01*
G37*
G36*
Y24378D02*Y23821D01*
X53337D01*
Y24378D01*
X51459D01*
G37*
G36*
Y23743D02*Y23186D01*
X53337D01*
Y23743D01*
X51459D01*
G37*
G36*
Y23108D02*Y22551D01*
X53337D01*
Y23108D01*
X51459D01*
G37*
G36*
X52453Y31216D02*X51551D01*
Y30064D01*
X52453D01*
Y31216D01*
G37*
G36*
X53753D02*X52851D01*
Y30064D01*
X53753D01*
Y31216D01*
G37*
G36*
X56801D02*X55899D01*
Y30064D01*
X56801D01*
Y31216D01*
G37*
G36*
X55501D02*X54599D01*
Y30064D01*
X55501D01*
Y31216D01*
G37*
G36*
Y29692D02*X54599D01*
Y28540D01*
X55501D01*
Y29692D01*
G37*
G36*
X56801D02*X55899D01*
Y28540D01*
X56801D01*
Y29692D01*
G37*
G36*
X41120Y41587D02*Y40013D01*
X44372D01*
Y41587D01*
X41120D01*
G37*
G36*
X47004Y38778D02*X45552D01*
Y36726D01*
X47004D01*
Y38778D01*
G37*
G36*
X44004D02*X42552D01*
Y36726D01*
X44004D01*
Y38778D01*
G37*
G36*
X47657Y45186D02*X46755D01*
Y44034D01*
X47657D01*
Y45186D01*
G37*
G36*
Y43408D02*X46755D01*
Y42256D01*
X47657D01*
Y43408D01*
G37*
G36*
X40723Y28536D02*Y28180D01*
X41942D01*
Y28536D01*
X40723D01*
G37*
G36*
Y29036D02*Y28680D01*
X41942D01*
Y29036D01*
X40723D01*
G37*
G36*
Y29536D02*Y29180D01*
X41942D01*
Y29536D01*
X40723D01*
G37*
G36*
Y30036D02*Y29680D01*
X41942D01*
Y30036D01*
X40723D01*
G37*
G36*
Y30536D02*Y30180D01*
X41942D01*
Y30536D01*
X40723D01*
G37*
G36*
X43186Y28693D02*Y27791D01*
X44338D01*
Y28693D01*
X43186D01*
G37*
G54D100*X47318Y32314D02*Y28814D01*
G54D93*G36*
X43186Y30695D02*Y29793D01*
X44338D01*
Y30695D01*
X43186D01*
G37*
G36*
Y31995D02*Y31093D01*
X44338D01*
Y31995D01*
X43186D01*
G37*
G36*
X40723Y31036D02*Y30680D01*
X41942D01*
Y31036D01*
X40723D01*
G37*
G36*
Y31536D02*Y31180D01*
X41942D01*
Y31536D01*
X40723D01*
G37*
G36*
Y32036D02*Y31680D01*
X41942D01*
Y32036D01*
X40723D01*
G37*
G36*
Y32536D02*Y32180D01*
X41942D01*
Y32536D01*
X40723D01*
G37*
G36*
X39562Y34916D02*X39206D01*
Y33697D01*
X39562D01*
Y34916D01*
G37*
G36*
X39062D02*X38706D01*
Y33697D01*
X39062D01*
Y34916D01*
G37*
G36*
X38562D02*X38206D01*
Y33697D01*
X38562D01*
Y34916D01*
G37*
G36*
X38062D02*X37706D01*
Y33697D01*
X38062D01*
Y34916D01*
G37*
G36*
X37562D02*X37206D01*
Y33697D01*
X37562D01*
Y34916D01*
G37*
G36*
X37062D02*X36706D01*
Y33697D01*
X37062D01*
Y34916D01*
G37*
G36*
X36562D02*X36206D01*
Y33697D01*
X36562D01*
Y34916D01*
G37*
G36*
X36062D02*X35706D01*
Y33697D01*
X36062D01*
Y34916D01*
G37*
G36*
X35562D02*X35206D01*
Y33697D01*
X35562D01*
Y34916D01*
G37*
G36*
X35062D02*X34706D01*
Y33697D01*
X35062D01*
Y34916D01*
G37*
G36*
X34562D02*X34206D01*
Y33697D01*
X34562D01*
Y34916D01*
G37*
G36*
X39021Y37312D02*X38119D01*
Y36160D01*
X39021D01*
Y37312D01*
G37*
G36*
X37721D02*X36819D01*
Y36160D01*
X37721D01*
Y37312D01*
G37*
G36*
X34062Y34916D02*X33706D01*
Y33697D01*
X34062D01*
Y34916D01*
G37*
G36*
X33562D02*X33206D01*
Y33697D01*
X33562D01*
Y34916D01*
G37*
G36*
X33062D02*X32706D01*
Y33697D01*
X33062D01*
Y34916D01*
G37*
G36*
X32562D02*X32206D01*
Y33697D01*
X32562D01*
Y34916D01*
G37*
G36*
X32062D02*X31706D01*
Y33697D01*
X32062D01*
Y34916D01*
G37*
G36*
X32925Y37312D02*X32023D01*
Y36160D01*
X32925D01*
Y37312D01*
G37*
G36*
X31625D02*X30723D01*
Y36160D01*
X31625D01*
Y37312D01*
G37*
G36*
X29326Y32536D02*Y32180D01*
X30545D01*
Y32536D01*
X29326D01*
G37*
G36*
Y32036D02*Y31680D01*
X30545D01*
Y32036D01*
X29326D01*
G37*
G36*
Y31536D02*Y31180D01*
X30545D01*
Y31536D01*
X29326D01*
G37*
G36*
Y31036D02*Y30680D01*
X30545D01*
Y31036D01*
X29326D01*
G37*
G36*
Y30536D02*Y30180D01*
X30545D01*
Y30536D01*
X29326D01*
G37*
G36*
Y30036D02*Y29680D01*
X30545D01*
Y30036D01*
X29326D01*
G37*
G36*
Y29536D02*Y29180D01*
X30545D01*
Y29536D01*
X29326D01*
G37*
G36*
Y29036D02*Y28680D01*
X30545D01*
Y29036D01*
X29326D01*
G37*
G36*
Y28536D02*Y28180D01*
X30545D01*
Y28536D01*
X29326D01*
G37*
G36*
X38174Y45855D02*X34923D01*
Y40317D01*
X38174D01*
Y45855D01*
G37*
G36*
X47657Y46964D02*X46755D01*
Y45812D01*
X47657D01*
Y46964D01*
G37*
G36*
X46357D02*X45455D01*
Y45812D01*
X46357D01*
Y46964D01*
G37*
G36*
X41120Y43873D02*Y42299D01*
X44372D01*
Y43873D01*
X41120D01*
G37*
G36*
Y46185D02*Y44610D01*
X44372D01*
Y46185D01*
X41120D01*
G37*
G36*
X46357Y45186D02*X45455D01*
Y44034D01*
X46357D01*
Y45186D01*
G37*
G36*
Y43408D02*X45455D01*
Y42256D01*
X46357D01*
Y43408D01*
G37*
G36*
X40142Y5574D02*Y4122D01*
X41794D01*
Y5574D01*
X40142D01*
G37*
G36*
Y7374D02*Y5922D01*
X41794D01*
Y7374D01*
X40142D01*
G37*
G36*
X37602Y5574D02*Y4122D01*
X39254D01*
Y5574D01*
X37602D01*
G37*
G36*
Y7374D02*Y5922D01*
X39254D01*
Y7374D01*
X37602D01*
G37*
G36*
X35062Y5574D02*Y4122D01*
X36714D01*
Y5574D01*
X35062D01*
G37*
G36*
Y7374D02*Y5922D01*
X36714D01*
Y7374D01*
X35062D01*
G37*
G36*
X32133Y14706D02*X31231D01*
Y13554D01*
X32133D01*
Y14706D01*
G37*
G36*
X31672Y10054D02*Y8554D01*
X33372D01*
Y10054D01*
X31672D01*
G37*
G36*
Y12554D02*Y11054D01*
X33372D01*
Y12554D01*
X31672D01*
G37*
G36*
X29877Y14706D02*X28975D01*
Y13554D01*
X29877D01*
Y14706D01*
G37*
G36*
X28577D02*X27675D01*
Y13554D01*
X28577D01*
Y14706D01*
G37*
G36*
X27672Y10054D02*Y8554D01*
X29372D01*
Y10054D01*
X27672D01*
G37*
G36*
Y12554D02*Y11054D01*
X29372D01*
Y12554D01*
X27672D01*
G37*
G36*
X37602Y12686D02*Y11234D01*
X39254D01*
Y12686D01*
X37602D01*
G37*
G36*
Y14486D02*Y13034D01*
X39254D01*
Y14486D01*
X37602D01*
G37*
G36*
X35062Y12686D02*Y11234D01*
X36714D01*
Y12686D01*
X35062D01*
G37*
G36*
Y14486D02*Y13034D01*
X36714D01*
Y14486D01*
X35062D01*
G37*
G36*
X40142Y12686D02*Y11234D01*
X41794D01*
Y12686D01*
X40142D01*
G37*
G36*
Y14486D02*Y13034D01*
X41794D01*
Y14486D01*
X40142D01*
G37*
G36*
X32518Y16725D02*Y15823D01*
X33670D01*
Y16725D01*
X32518D01*
G37*
G36*
Y18025D02*Y17123D01*
X33670D01*
Y18025D01*
X32518D01*
G37*
G36*
X37412Y18651D02*X36396D01*
Y17483D01*
X37412D01*
Y18651D01*
G37*
G36*
X35431D02*X34415D01*
Y17483D01*
X35431D01*
Y18651D01*
G37*
G36*
X36421Y16568D02*X35405D01*
Y15400D01*
X36421D01*
Y16568D01*
G37*
G36*
X33433Y14706D02*X32531D01*
Y13554D01*
X33433D01*
Y14706D01*
G37*
G36*
X32518Y19773D02*Y18871D01*
X33670D01*
Y19773D01*
X32518D01*
G37*
G36*
X40723Y25036D02*Y24680D01*
X41942D01*
Y25036D01*
X40723D01*
G37*
G36*
Y25536D02*Y25180D01*
X41942D01*
Y25536D01*
X40723D01*
G37*
G36*
Y26036D02*Y25680D01*
X41942D01*
Y26036D01*
X40723D01*
G37*
G36*
Y26536D02*Y26180D01*
X41942D01*
Y26536D01*
X40723D01*
G37*
G36*
Y27036D02*Y26680D01*
X41942D01*
Y27036D01*
X40723D01*
G37*
G36*
Y27536D02*Y27180D01*
X41942D01*
Y27536D01*
X40723D01*
G37*
G36*
Y28036D02*Y27680D01*
X41942D01*
Y28036D01*
X40723D01*
G37*
G36*
X40900Y20535D02*Y19633D01*
X42052D01*
Y20535D01*
X40900D01*
G37*
G36*
Y21835D02*Y20933D01*
X42052D01*
Y21835D01*
X40900D01*
G37*
G36*
X33062Y23519D02*X32706D01*
Y22300D01*
X33062D01*
Y23519D01*
G37*
G36*
X33562D02*X33206D01*
Y22300D01*
X33562D01*
Y23519D01*
G37*
G36*
X34062D02*X33706D01*
Y22300D01*
X34062D01*
Y23519D01*
G37*
G36*
X34562D02*X34206D01*
Y22300D01*
X34562D01*
Y23519D01*
G37*
G36*
X32518Y21073D02*Y20171D01*
X33670D01*
Y21073D01*
X32518D01*
G37*
G36*
X35062Y23519D02*X34706D01*
Y22300D01*
X35062D01*
Y23519D01*
G37*
G36*
X35562D02*X35206D01*
Y22300D01*
X35562D01*
Y23519D01*
G37*
G36*
X36062D02*X35706D01*
Y22300D01*
X36062D01*
Y23519D01*
G37*
G36*
X36562D02*X36206D01*
Y22300D01*
X36562D01*
Y23519D01*
G37*
G36*
X37062D02*X36706D01*
Y22300D01*
X37062D01*
Y23519D01*
G37*
G36*
X37562D02*X37206D01*
Y22300D01*
X37562D01*
Y23519D01*
G37*
G36*
X38062D02*X37706D01*
Y22300D01*
X38062D01*
Y23519D01*
G37*
G36*
X38562D02*X38206D01*
Y22300D01*
X38562D01*
Y23519D01*
G37*
G36*
X39062D02*X38706D01*
Y22300D01*
X39062D01*
Y23519D01*
G37*
G36*
X39562D02*X39206D01*
Y22300D01*
X39562D01*
Y23519D01*
G37*
M02*
