G04 start of page 10 for group -4062 idx -4062 *
G04 Title: MMDVM_pog, soldermask *
G04 Creator: pcb v4.0.0-ga246c150 *
G04 CreationDate: Wed Apr 26 20:29:48 2017 UTC *
G04 For: wojtek *
G04 Format: Gerber/RS-274X *
G04 PCB-Dimensions (mm): 66.29 58.42 *
G04 PCB-Coordinate-Origin: lower left *
%MOMM*%
%FSLAX43Y43*%
%LNBOTTOMMASK*%
%ADD106C,6.200*%
%ADD105C,3.800*%
%ADD104C,1.950*%
%ADD103C,2.000*%
%ADD102C,1.930*%
%ADD101C,0.002*%
G54D101*G36*
X34923Y10269D02*Y8339D01*
X36853D01*
Y10269D01*
X34923D01*
G37*
G54D102*X38428Y9304D03*
G54D103*X16878Y10280D03*
G54D101*G36*
X18378Y8780D02*Y6780D01*
X20378D01*
Y8780D01*
X18378D01*
G37*
G54D103*X14378Y7780D03*
G54D102*X40968Y9304D03*
X43508D03*
X46048D03*
X48588D03*
X51128D03*
X53668D03*
X56208D03*
X58748D03*
G54D101*G36*
X6983Y34653D02*Y32723D01*
X8913D01*
Y34653D01*
X6983D01*
G37*
G54D102*X10488Y33688D03*
X7948Y31148D03*
X10488D03*
X7948Y28608D03*
Y26068D03*
Y23528D03*
X10488Y28608D03*
Y26068D03*
Y23528D03*
G54D103*X10448Y40332D03*
G54D101*G36*
X6948Y43832D02*Y41832D01*
X8948D01*
Y43832D01*
X6948D01*
G37*
G54D103*X12948Y42832D03*
G54D101*G36*
X23493Y23731D02*Y21801D01*
X25423D01*
Y23731D01*
X23493D01*
G37*
G54D102*X21918Y22766D03*
X24458Y25306D03*
X21918D03*
Y27846D03*
G54D101*G36*
X20953Y33891D02*Y31961D01*
X22883D01*
Y33891D01*
X20953D01*
G37*
G54D102*X24458Y32926D03*
G54D101*G36*
X49391Y43553D02*Y41603D01*
X51341D01*
Y43553D01*
X49391D01*
G37*
G54D104*X50366Y40078D03*
X52366D03*
G54D105*X55066Y35328D03*
G54D104*X52366Y42578D03*
G54D105*X55066Y47328D03*
G54D101*G36*
X7999Y52687D02*Y50757D01*
X9929D01*
Y52687D01*
X7999D01*
G37*
G54D102*X8964Y54262D03*
X11504Y51722D03*
Y54262D03*
X14044Y51722D03*
Y54262D03*
X16584Y51722D03*
Y54262D03*
X19124Y51722D03*
Y54262D03*
X21664Y51722D03*
X24204D03*
X26744D03*
X21664Y54262D03*
X24204D03*
X26744D03*
X29284D03*
X31824D03*
X34364D03*
X29284Y51722D03*
X31824D03*
X34364D03*
X36904D03*
Y54262D03*
X39444Y51722D03*
X41984D03*
X44524D03*
X39444Y54262D03*
X41984D03*
X44524D03*
X47064D03*
X49604D03*
X52144D03*
X47064Y51722D03*
X49604D03*
X52144D03*
X54684D03*
Y54262D03*
X57224D03*
Y51722D03*
G54D106*X62094Y3992D03*
Y52992D03*
X4094Y3992D03*
Y52992D03*
G54D101*G36*
X12952Y24798D02*Y23782D01*
X14120D01*
Y24798D01*
X12952D01*
G37*
G36*
Y26779D02*Y25763D01*
X14120D01*
Y26779D01*
X12952D01*
G37*
G36*
X15035Y25789D02*Y24773D01*
X16203D01*
Y25789D01*
X15035D01*
G37*
G36*
X12952Y30640D02*Y29624D01*
X14120D01*
Y30640D01*
X12952D01*
G37*
G36*
Y32621D02*Y31605D01*
X14120D01*
Y32621D01*
X12952D01*
G37*
G36*
X15035Y31631D02*Y30615D01*
X16203D01*
Y31631D01*
X15035D01*
G37*
G36*
X38483Y29184D02*X37581D01*
Y28032D01*
X38483D01*
Y29184D01*
G37*
G36*
X39783D02*X38881D01*
Y28032D01*
X39783D01*
Y29184D01*
G37*
G36*
X40650Y27799D02*Y26347D01*
X42302D01*
Y27799D01*
X40650D01*
G37*
G36*
Y29599D02*Y28147D01*
X42302D01*
Y29599D01*
X40650D01*
G37*
G36*
X39892Y31920D02*X38440D01*
Y29868D01*
X39892D01*
Y31920D01*
G37*
G36*
X36892D02*X35440D01*
Y29868D01*
X36892D01*
Y31920D01*
G37*
M02*
