G04 start of page 15 for group -3984 idx -3984 *
G04 Title: MMDVM_pog, fab *
G04 Creator: pcb v4.0.0-ga246c150 *
G04 CreationDate: Wed Apr 26 20:29:48 2017 UTC *
G04 For: wojtek *
G04 Format: Gerber/RS-274X *
G04 PCB-Dimensions (mm): 66.29 58.42 *
G04 PCB-Coordinate-Origin: lower left *
%MOMM*%
%FSLAX43Y43*%
%LNFAB*%
%ADD128C,0.254*%
%ADD127C,0.191*%
%ADD126C,0.152*%
%ADD125R,0.203X0.203*%
G54D125*X4094Y4805D02*Y3179D01*
X3281Y3992D02*X4907D01*
X3688Y4398D02*X4500D01*
X3688D02*Y3586D01*
X4500D01*
Y4398D02*Y3586D01*
X62094Y4805D02*Y3179D01*
X61281Y3992D02*X62907D01*
X61688Y4398D02*X62500D01*
X61688D02*Y3586D01*
X62500D01*
Y4398D02*Y3586D01*
X62094Y53805D02*Y52179D01*
X61281Y52992D02*X62907D01*
X61688Y53398D02*X62500D01*
X61688D02*Y52586D01*
X62500D01*
Y53398D02*Y52586D01*
X4094Y53805D02*Y52179D01*
X3281Y52992D02*X4907D01*
X3688Y53398D02*X4500D01*
X3688D02*Y52586D01*
X4500D01*
Y53398D02*Y52586D01*
X3810Y62090D02*Y60465D01*
X2997Y61278D02*X4623D01*
X3404Y61684D02*X4216D01*
X3404D02*Y60871D01*
X4216D01*
Y61684D02*Y60871D01*
G54D126*X39370Y61849D02*Y60325D01*
Y61849D02*X40322Y60325D01*
Y61849D02*Y60325D01*
X40780Y61658D02*Y60516D01*
Y61658D02*X40970Y61849D01*
X41351D01*
X41542Y61658D01*
Y60516D01*
X41351Y60325D02*X41542Y60516D01*
X40970Y60325D02*X41351D01*
X40780Y60516D02*X40970Y60325D01*
X28702Y60896D02*X29464Y61849D01*
X28702Y60896D02*X29654D01*
X29464Y61849D02*Y60325D01*
X11430Y60516D02*X11620Y60325D01*
X11430Y61658D02*Y60516D01*
Y61658D02*X11620Y61849D01*
X12002D01*
X12192Y61658D01*
Y60516D01*
X12002Y60325D02*X12192Y60516D01*
X11620Y60325D02*X12002D01*
X11430Y60706D02*X12192Y61468D01*
X12649Y60325D02*X12840D01*
X13297Y61544D02*X13602Y61849D01*
Y60325D01*
X13297D02*X13868D01*
X14326Y60516D02*X14516Y60325D01*
X14326Y61658D02*Y60516D01*
Y61658D02*X14516Y61849D01*
X14897D01*
X15088Y61658D01*
Y60516D01*
X14897Y60325D02*X15088Y60516D01*
X14516Y60325D02*X14897D01*
X14326Y60706D02*X15088Y61468D01*
X15545Y60516D02*X15735Y60325D01*
X15545Y60820D02*Y60516D01*
Y60820D02*X15812Y61087D01*
X16040D01*
X16307Y60820D01*
Y60516D01*
X16116Y60325D02*X16307Y60516D01*
X15735Y60325D02*X16116D01*
X15545Y61354D02*X15812Y61087D01*
X15545Y61658D02*Y61354D01*
Y61658D02*X15735Y61849D01*
X16116D01*
X16307Y61658D01*
Y61354D01*
X16040Y61087D02*X16307Y61354D01*
X16764Y60325D02*X17145Y60706D01*
Y61278D02*Y61087D01*
X18288Y61658D02*X18479Y61849D01*
X19050D01*
X19241Y61658D01*
Y61278D01*
X18288Y60325D02*X19241Y61278D01*
X18288Y60325D02*X19241D01*
X19698D02*X19888D01*
X20536D02*X21298Y61849D01*
X20345D02*X21298D01*
X21755D02*X22517D01*
X21755D02*Y61087D01*
X21946Y61278D01*
X22327D01*
X22517Y61087D01*
Y60516D01*
X22327Y60325D02*X22517Y60516D01*
X21946Y60325D02*X22327D01*
X21755Y60516D02*X21946Y60325D01*
X55066Y35328D02*Y34515D01*
Y35328D02*X55770Y35734D01*
X55066Y35328D02*X54362Y35734D01*
X54660Y35328D02*G75*G03X55472Y35328I406J0D01*G01*
G75*G03X54660Y35328I-406J0D01*G01*
X55066Y47328D02*Y46515D01*
Y47328D02*X55770Y47734D01*
X55066Y47328D02*X54362Y47734D01*
X54660Y47328D02*G75*G03X55472Y47328I406J0D01*G01*
G75*G03X54660Y47328I-406J0D01*G01*
X3810Y65088D02*Y64275D01*
Y65088D02*X4514Y65494D01*
X3810Y65088D02*X3106Y65494D01*
X3404Y65088D02*G75*G03X4216Y65088I406J0D01*G01*
G75*G03X3404Y65088I-406J0D01*G01*
X38100Y65659D02*X38481Y64897D01*
X38862Y65659D01*
X38481Y64897D02*Y64135D01*
X39319Y64973D02*X39891D01*
X39319Y64135D02*X40081D01*
X39319Y65659D02*Y64135D01*
Y65659D02*X40081D01*
X41300D02*X41491Y65469D01*
X40729Y65659D02*X41300D01*
X40538Y65469D02*X40729Y65659D01*
X40538Y65469D02*Y65088D01*
X40729Y64897D01*
X41300D01*
X41491Y64707D01*
Y64326D01*
X41300Y64135D02*X41491Y64326D01*
X40729Y64135D02*X41300D01*
X40538Y64326D02*X40729Y64135D01*
X28702Y65469D02*X28892Y65659D01*
X29464D01*
X29654Y65469D01*
Y65088D01*
X28702Y64135D02*X29654Y65088D01*
X28702Y64135D02*X29654D01*
X11430Y64326D02*X11620Y64135D01*
X11430Y65469D02*Y64326D01*
Y65469D02*X11620Y65659D01*
X12002D01*
X12192Y65469D01*
Y64326D01*
X12002Y64135D02*X12192Y64326D01*
X11620Y64135D02*X12002D01*
X11430Y64516D02*X12192Y65278D01*
X12649Y64135D02*X12840D01*
X13297Y64326D02*X13487Y64135D01*
X13297Y65469D02*Y64326D01*
Y65469D02*X13487Y65659D01*
X13868D01*
X14059Y65469D01*
Y64326D01*
X13868Y64135D02*X14059Y64326D01*
X13487Y64135D02*X13868D01*
X13297Y64516D02*X14059Y65278D01*
X14707Y64135D02*X15278Y64897D01*
Y65469D02*Y64897D01*
X15088Y65659D02*X15278Y65469D01*
X14707Y65659D02*X15088D01*
X14516Y65469D02*X14707Y65659D01*
X14516Y65469D02*Y65088D01*
X14707Y64897D01*
X15278D01*
X15735Y65354D02*X16040Y65659D01*
Y64135D01*
X15735D02*X16307D01*
X16764D02*X17145Y64516D01*
Y65088D02*Y64897D01*
X18288Y65469D02*X18479Y65659D01*
X19050D01*
X19241Y65469D01*
Y65088D01*
X18288Y64135D02*X19241Y65088D01*
X18288Y64135D02*X19241D01*
X19698D02*X19888D01*
X20345Y65469D02*X20536Y65659D01*
X20917D01*
X21107Y65469D01*
X20917Y64135D02*X21107Y64326D01*
X20536Y64135D02*X20917D01*
X20345Y64326D02*X20536Y64135D01*
Y64973D02*X20917D01*
X21107Y65469D02*Y65164D01*
Y64783D02*Y64326D01*
Y64783D02*X20917Y64973D01*
X21107Y65164D02*X20917Y64973D01*
X21565Y64326D02*X21755Y64135D01*
X21565Y65469D02*Y64326D01*
Y65469D02*X21755Y65659D01*
X22136D01*
X22327Y65469D01*
Y64326D01*
X22136Y64135D02*X22327Y64326D01*
X21755Y64135D02*X22136D01*
X21565Y64516D02*X22327Y65278D01*
X24052Y23172D02*X24864D01*
X24052D02*Y22360D01*
X24864D01*
Y23172D02*Y22360D01*
X21512Y23172D02*X22324D01*
X21512D02*Y22360D01*
X22324D01*
Y23172D02*Y22360D01*
X24052Y25712D02*X24864D01*
X24052D02*Y24900D01*
X24864D01*
Y25712D02*Y24900D01*
X21512Y25712D02*X22324D01*
X21512D02*Y24900D01*
X22324D01*
Y25712D02*Y24900D01*
X21512Y28252D02*X22324D01*
X21512D02*Y27440D01*
X22324D01*
Y28252D02*Y27440D01*
X7542Y34094D02*X8354D01*
X7542D02*Y33282D01*
X8354D01*
Y34094D02*Y33282D01*
X10082Y34094D02*X10894D01*
X10082D02*Y33282D01*
X10894D01*
Y34094D02*Y33282D01*
X7542Y31554D02*X8354D01*
X7542D02*Y30742D01*
X8354D01*
Y31554D02*Y30742D01*
X10082Y31554D02*X10894D01*
X10082D02*Y30742D01*
X10894D01*
Y31554D02*Y30742D01*
X7542Y29014D02*X8354D01*
X7542D02*Y28202D01*
X8354D01*
Y29014D02*Y28202D01*
X10082Y29014D02*X10894D01*
X10082D02*Y28202D01*
X10894D01*
Y29014D02*Y28202D01*
X7542Y26474D02*X8354D01*
X7542D02*Y25662D01*
X8354D01*
Y26474D02*Y25662D01*
X10082Y26474D02*X10894D01*
X10082D02*Y25662D01*
X10894D01*
Y26474D02*Y25662D01*
X7542Y23934D02*X8354D01*
X7542D02*Y23122D01*
X8354D01*
Y23934D02*Y23122D01*
X10082Y23934D02*X10894D01*
X10082D02*Y23122D01*
X10894D01*
Y23934D02*Y23122D01*
X35482Y9710D02*X36294D01*
X35482D02*Y8898D01*
X36294D01*
Y9710D02*Y8898D01*
X38022Y9710D02*X38834D01*
X38022D02*Y8898D01*
X38834D01*
Y9710D02*Y8898D01*
X40562Y9710D02*X41374D01*
X40562D02*Y8898D01*
X41374D01*
Y9710D02*Y8898D01*
X43102Y9710D02*X43914D01*
X43102D02*Y8898D01*
X43914D01*
Y9710D02*Y8898D01*
X45642Y9710D02*X46454D01*
X45642D02*Y8898D01*
X46454D01*
Y9710D02*Y8898D01*
X48182Y9710D02*X48994D01*
X48182D02*Y8898D01*
X48994D01*
Y9710D02*Y8898D01*
X50722Y9710D02*X51534D01*
X50722D02*Y8898D01*
X51534D01*
Y9710D02*Y8898D01*
X53262Y9710D02*X54074D01*
X53262D02*Y8898D01*
X54074D01*
Y9710D02*Y8898D01*
X55802Y9710D02*X56614D01*
X55802D02*Y8898D01*
X56614D01*
Y9710D02*Y8898D01*
X58342Y9710D02*X59154D01*
X58342D02*Y8898D01*
X59154D01*
Y9710D02*Y8898D01*
X21512Y33332D02*X22324D01*
X21512D02*Y32520D01*
X22324D01*
Y33332D02*Y32520D01*
X24052Y33332D02*X24864D01*
X24052D02*Y32520D01*
X24864D01*
Y33332D02*Y32520D01*
X8558Y52128D02*X9370D01*
X8558D02*Y51316D01*
X9370D01*
Y52128D02*Y51316D01*
X8558Y54668D02*X9370D01*
X8558D02*Y53856D01*
X9370D01*
Y54668D02*Y53856D01*
X11098Y52128D02*X11910D01*
X11098D02*Y51316D01*
X11910D01*
Y52128D02*Y51316D01*
X11098Y54668D02*X11910D01*
X11098D02*Y53856D01*
X11910D01*
Y54668D02*Y53856D01*
X13638Y52128D02*X14450D01*
X13638D02*Y51316D01*
X14450D01*
Y52128D02*Y51316D01*
X13638Y54668D02*X14450D01*
X13638D02*Y53856D01*
X14450D01*
Y54668D02*Y53856D01*
X16178Y52128D02*X16990D01*
X16178D02*Y51316D01*
X16990D01*
Y52128D02*Y51316D01*
X16178Y54668D02*X16990D01*
X16178D02*Y53856D01*
X16990D01*
Y54668D02*Y53856D01*
X18718Y52128D02*X19530D01*
X18718D02*Y51316D01*
X19530D01*
Y52128D02*Y51316D01*
X18718Y54668D02*X19530D01*
X18718D02*Y53856D01*
X19530D01*
Y54668D02*Y53856D01*
X21258Y52128D02*X22070D01*
X21258D02*Y51316D01*
X22070D01*
Y52128D02*Y51316D01*
X21258Y54668D02*X22070D01*
X21258D02*Y53856D01*
X22070D01*
Y54668D02*Y53856D01*
X23798Y52128D02*X24610D01*
X23798D02*Y51316D01*
X24610D01*
Y52128D02*Y51316D01*
X23798Y54668D02*X24610D01*
X23798D02*Y53856D01*
X24610D01*
Y54668D02*Y53856D01*
X26338Y52128D02*X27150D01*
X26338D02*Y51316D01*
X27150D01*
Y52128D02*Y51316D01*
X26338Y54668D02*X27150D01*
X26338D02*Y53856D01*
X27150D01*
Y54668D02*Y53856D01*
X28878Y52128D02*X29690D01*
X28878D02*Y51316D01*
X29690D01*
Y52128D02*Y51316D01*
X28878Y54668D02*X29690D01*
X28878D02*Y53856D01*
X29690D01*
Y54668D02*Y53856D01*
X31418Y52128D02*X32230D01*
X31418D02*Y51316D01*
X32230D01*
Y52128D02*Y51316D01*
X31418Y54668D02*X32230D01*
X31418D02*Y53856D01*
X32230D01*
Y54668D02*Y53856D01*
X33958Y52128D02*X34770D01*
X33958D02*Y51316D01*
X34770D01*
Y52128D02*Y51316D01*
X33958Y54668D02*X34770D01*
X33958D02*Y53856D01*
X34770D01*
Y54668D02*Y53856D01*
X36498Y52128D02*X37310D01*
X36498D02*Y51316D01*
X37310D01*
Y52128D02*Y51316D01*
X36498Y54668D02*X37310D01*
X36498D02*Y53856D01*
X37310D01*
Y54668D02*Y53856D01*
X39038Y52128D02*X39850D01*
X39038D02*Y51316D01*
X39850D01*
Y52128D02*Y51316D01*
X39038Y54668D02*X39850D01*
X39038D02*Y53856D01*
X39850D01*
Y54668D02*Y53856D01*
X41578Y52128D02*X42390D01*
X41578D02*Y51316D01*
X42390D01*
Y52128D02*Y51316D01*
X41578Y54668D02*X42390D01*
X41578D02*Y53856D01*
X42390D01*
Y54668D02*Y53856D01*
X44118Y52128D02*X44930D01*
X44118D02*Y51316D01*
X44930D01*
Y52128D02*Y51316D01*
X44118Y54668D02*X44930D01*
X44118D02*Y53856D01*
X44930D01*
Y54668D02*Y53856D01*
X46658Y52128D02*X47470D01*
X46658D02*Y51316D01*
X47470D01*
Y52128D02*Y51316D01*
X46658Y54668D02*X47470D01*
X46658D02*Y53856D01*
X47470D01*
Y54668D02*Y53856D01*
X49198Y52128D02*X50010D01*
X49198D02*Y51316D01*
X50010D01*
Y52128D02*Y51316D01*
X49198Y54668D02*X50010D01*
X49198D02*Y53856D01*
X50010D01*
Y54668D02*Y53856D01*
X51738Y52128D02*X52550D01*
X51738D02*Y51316D01*
X52550D01*
Y52128D02*Y51316D01*
X51738Y54668D02*X52550D01*
X51738D02*Y53856D01*
X52550D01*
Y54668D02*Y53856D01*
X54278Y52128D02*X55090D01*
X54278D02*Y51316D01*
X55090D01*
Y52128D02*Y51316D01*
X54278Y54668D02*X55090D01*
X54278D02*Y53856D01*
X55090D01*
Y54668D02*Y53856D01*
X56818Y52128D02*X57630D01*
X56818D02*Y51316D01*
X57630D01*
Y52128D02*Y51316D01*
X56818Y54668D02*X57630D01*
X56818D02*Y53856D01*
X57630D01*
Y54668D02*Y53856D01*
X10042Y40738D02*X10854D01*
X10042D02*Y39926D01*
X10854D01*
Y40738D02*Y39926D01*
X7542Y43238D02*X8354D01*
X7542D02*Y42426D01*
X8354D01*
Y43238D02*Y42426D01*
X12542Y43238D02*X13354D01*
X12542D02*Y42426D01*
X13354D01*
Y43238D02*Y42426D01*
X16472Y10686D02*X17284D01*
X16472D02*Y9874D01*
X17284D01*
Y10686D02*Y9874D01*
X18972Y8186D02*X19784D01*
X18972D02*Y7374D01*
X19784D01*
Y8186D02*Y7374D01*
X13972Y8186D02*X14784D01*
X13972D02*Y7374D01*
X14784D01*
Y8186D02*Y7374D01*
X3404Y69304D02*X4216D01*
X3404D02*Y68491D01*
X4216D01*
Y69304D02*Y68491D01*
X38100Y69469D02*X38481Y68707D01*
X38862Y69469D01*
X38481Y68707D02*Y67945D01*
X39319Y68783D02*X39891D01*
X39319Y67945D02*X40081D01*
X39319Y69469D02*Y67945D01*
Y69469D02*X40081D01*
X41300D02*X41491Y69278D01*
X40729Y69469D02*X41300D01*
X40538Y69278D02*X40729Y69469D01*
X40538Y69278D02*Y68898D01*
X40729Y68707D01*
X41300D01*
X41491Y68516D01*
Y68136D01*
X41300Y67945D02*X41491Y68136D01*
X40729Y67945D02*X41300D01*
X40538Y68136D02*X40729Y67945D01*
X28892D02*X29654Y69469D01*
X28702D02*X29654D01*
X30112Y69278D02*X30302Y69469D01*
X30683D01*
X30874Y69278D01*
X30683Y67945D02*X30874Y68136D01*
X30302Y67945D02*X30683D01*
X30112Y68136D02*X30302Y67945D01*
Y68783D02*X30683D01*
X30874Y69278D02*Y68974D01*
Y68593D02*Y68136D01*
Y68593D02*X30683Y68783D01*
X30874Y68974D02*X30683Y68783D01*
X11430Y68136D02*X11620Y67945D01*
X11430Y69278D02*Y68136D01*
Y69278D02*X11620Y69469D01*
X12002D01*
X12192Y69278D01*
Y68136D01*
X12002Y67945D02*X12192Y68136D01*
X11620Y67945D02*X12002D01*
X11430Y68326D02*X12192Y69088D01*
X12649Y67945D02*X12840D01*
X13297Y68136D02*X13487Y67945D01*
X13297Y69278D02*Y68136D01*
Y69278D02*X13487Y69469D01*
X13868D01*
X14059Y69278D01*
Y68136D01*
X13868Y67945D02*X14059Y68136D01*
X13487Y67945D02*X13868D01*
X13297Y68326D02*X14059Y69088D01*
X14516Y69278D02*X14707Y69469D01*
X15088D01*
X15278Y69278D01*
X15088Y67945D02*X15278Y68136D01*
X14707Y67945D02*X15088D01*
X14516Y68136D02*X14707Y67945D01*
Y68783D02*X15088D01*
X15278Y69278D02*Y68974D01*
Y68593D02*Y68136D01*
Y68593D02*X15088Y68783D01*
X15278Y68974D02*X15088Y68783D01*
X15926Y67945D02*X16497Y68707D01*
Y69278D02*Y68707D01*
X16307Y69469D02*X16497Y69278D01*
X15926Y69469D02*X16307D01*
X15735Y69278D02*X15926Y69469D01*
X15735Y69278D02*Y68898D01*
X15926Y68707D01*
X16497D01*
X16955Y67945D02*X17336Y68326D01*
Y68898D02*Y68707D01*
X18479Y69164D02*X18783Y69469D01*
Y67945D01*
X18479D02*X19050D01*
X19507D02*X19698D01*
X20155Y68136D02*X20345Y67945D01*
X20155Y69278D02*Y68136D01*
Y69278D02*X20345Y69469D01*
X20726D01*
X20917Y69278D01*
Y68136D01*
X20726Y67945D02*X20917Y68136D01*
X20345Y67945D02*X20726D01*
X20155Y68326D02*X20917Y69088D01*
X21374Y68136D02*X21565Y67945D01*
X21374Y69278D02*Y68136D01*
Y69278D02*X21565Y69469D01*
X21946D01*
X22136Y69278D01*
Y68136D01*
X21946Y67945D02*X22136Y68136D01*
X21565Y67945D02*X21946D01*
X21374Y68326D02*X22136Y69088D01*
X50163Y42578D02*G75*G03X50569Y42578I203J0D01*G01*
G75*G03X50163Y42578I-203J0D01*G01*
Y40078D02*G75*G03X50569Y40078I203J0D01*G01*
G75*G03X50163Y40078I-203J0D01*G01*
X52163D02*G75*G03X52569Y40078I203J0D01*G01*
G75*G03X52163Y40078I-203J0D01*G01*
Y42578D02*G75*G03X52569Y42578I203J0D01*G01*
G75*G03X52163Y42578I-203J0D01*G01*
X3607Y72708D02*G75*G03X4013Y72708I203J0D01*G01*
G75*G03X3607Y72708I-203J0D01*G01*
X38100Y73279D02*X38481Y72517D01*
X38862Y73279D01*
X38481Y72517D02*Y71755D01*
X39319Y72593D02*X39891D01*
X39319Y71755D02*X40081D01*
X39319Y73279D02*Y71755D01*
Y73279D02*X40081D01*
X41300D02*X41491Y73088D01*
X40729Y73279D02*X41300D01*
X40538Y73088D02*X40729Y73279D01*
X40538Y73088D02*Y72708D01*
X40729Y72517D01*
X41300D01*
X41491Y72326D01*
Y71946D01*
X41300Y71755D02*X41491Y71946D01*
X40729Y71755D02*X41300D01*
X40538Y71946D02*X40729Y71755D01*
X28702Y72326D02*X29464Y73279D01*
X28702Y72326D02*X29654D01*
X29464Y73279D02*Y71755D01*
X11430Y71946D02*X11620Y71755D01*
X11430Y73088D02*Y71946D01*
Y73088D02*X11620Y73279D01*
X12002D01*
X12192Y73088D01*
Y71946D01*
X12002Y71755D02*X12192Y71946D01*
X11620Y71755D02*X12002D01*
X11430Y72136D02*X12192Y72898D01*
X12649Y71755D02*X12840D01*
X13297Y71946D02*X13487Y71755D01*
X13297Y73088D02*Y71946D01*
Y73088D02*X13487Y73279D01*
X13868D01*
X14059Y73088D01*
Y71946D01*
X13868Y71755D02*X14059Y71946D01*
X13487Y71755D02*X13868D01*
X13297Y72136D02*X14059Y72898D01*
X14516Y73088D02*X14707Y73279D01*
X15088D01*
X15278Y73088D01*
X15088Y71755D02*X15278Y71946D01*
X14707Y71755D02*X15088D01*
X14516Y71946D02*X14707Y71755D01*
Y72593D02*X15088D01*
X15278Y73088D02*Y72784D01*
Y72403D02*Y71946D01*
Y72403D02*X15088Y72593D01*
X15278Y72784D02*X15088Y72593D01*
X15735Y73279D02*X16497D01*
X15735D02*Y72517D01*
X15926Y72708D01*
X16307D01*
X16497Y72517D01*
Y71946D01*
X16307Y71755D02*X16497Y71946D01*
X15926Y71755D02*X16307D01*
X15735Y71946D02*X15926Y71755D01*
X16955D02*X17336Y72136D01*
Y72708D02*Y72517D01*
X18479Y71946D02*X18669Y71755D01*
X18479Y73088D02*Y71946D01*
Y73088D02*X18669Y73279D01*
X19050D01*
X19241Y73088D01*
Y71946D01*
X19050Y71755D02*X19241Y71946D01*
X18669Y71755D02*X19050D01*
X18479Y72136D02*X19241Y72898D01*
X19698Y71755D02*X19888D01*
X20536D02*X21107Y72517D01*
Y73088D02*Y72517D01*
X20917Y73279D02*X21107Y73088D01*
X20536Y73279D02*X20917D01*
X20345Y73088D02*X20536Y73279D01*
X20345Y73088D02*Y72708D01*
X20536Y72517D01*
X21107D01*
X21565Y71946D02*X21755Y71755D01*
X21565Y73088D02*Y71946D01*
Y73088D02*X21755Y73279D01*
X22136D01*
X22327Y73088D01*
Y71946D01*
X22136Y71755D02*X22327Y71946D01*
X21755Y71755D02*X22136D01*
X21565Y72136D02*X22327Y72898D01*
X41425Y34882D02*X42035Y34272D01*
X41425D02*X42035Y34882D01*
X46124Y40089D02*X46734Y39479D01*
X46124D02*X46734Y40089D01*
X3505Y76822D02*X4115Y76213D01*
X3505D02*X4115Y76822D01*
X38100Y77089D02*X38481Y76327D01*
X38862Y77089D01*
X38481Y76327D02*Y75565D01*
X39319Y76403D02*X39891D01*
X39319Y75565D02*X40081D01*
X39319Y77089D02*Y75565D01*
Y77089D02*X40081D01*
X41300D02*X41491Y76898D01*
X40729Y77089D02*X41300D01*
X40538Y76898D02*X40729Y77089D01*
X40538Y76898D02*Y76518D01*
X40729Y76327D01*
X41300D01*
X41491Y76136D01*
Y75756D01*
X41300Y75565D02*X41491Y75756D01*
X40729Y75565D02*X41300D01*
X40538Y75756D02*X40729Y75565D01*
X28702Y76898D02*X28892Y77089D01*
X29464D01*
X29654Y76898D01*
Y76518D01*
X28702Y75565D02*X29654Y76518D01*
X28702Y75565D02*X29654D01*
X11430Y75756D02*X11620Y75565D01*
X11430Y76898D02*Y75756D01*
Y76898D02*X11620Y77089D01*
X12002D01*
X12192Y76898D01*
Y75756D01*
X12002Y75565D02*X12192Y75756D01*
X11620Y75565D02*X12002D01*
X11430Y75946D02*X12192Y76708D01*
X12649Y75565D02*X12840D01*
X13297Y75756D02*X13487Y75565D01*
X13297Y76898D02*Y75756D01*
Y76898D02*X13487Y77089D01*
X13868D01*
X14059Y76898D01*
Y75756D01*
X13868Y75565D02*X14059Y75756D01*
X13487Y75565D02*X13868D01*
X13297Y75946D02*X14059Y76708D01*
X14516Y76898D02*X14707Y77089D01*
X15088D01*
X15278Y76898D01*
X15088Y75565D02*X15278Y75756D01*
X14707Y75565D02*X15088D01*
X14516Y75756D02*X14707Y75565D01*
Y76403D02*X15088D01*
X15278Y76898D02*Y76594D01*
Y76213D02*Y75756D01*
Y76213D02*X15088Y76403D01*
X15278Y76594D02*X15088Y76403D01*
X15735Y76784D02*X16040Y77089D01*
Y75565D01*
X15735D02*X16307D01*
X16764D02*X17145Y75946D01*
Y76518D02*Y76327D01*
X18288Y75756D02*X18479Y75565D01*
X18288Y76898D02*Y75756D01*
Y76898D02*X18479Y77089D01*
X18860D01*
X19050Y76898D01*
Y75756D01*
X18860Y75565D02*X19050Y75756D01*
X18479Y75565D02*X18860D01*
X18288Y75946D02*X19050Y76708D01*
X19507Y75565D02*X19698D01*
X20155Y75756D02*X20345Y75565D01*
X20155Y76060D02*Y75756D01*
Y76060D02*X20422Y76327D01*
X20650D01*
X20917Y76060D01*
Y75756D01*
X20726Y75565D02*X20917Y75756D01*
X20345Y75565D02*X20726D01*
X20155Y76594D02*X20422Y76327D01*
X20155Y76898D02*Y76594D01*
Y76898D02*X20345Y77089D01*
X20726D01*
X20917Y76898D01*
Y76594D01*
X20650Y76327D02*X20917Y76594D01*
X21374Y75756D02*X21565Y75565D01*
X21374Y76898D02*Y75756D01*
Y76898D02*X21565Y77089D01*
X21946D01*
X22136Y76898D01*
Y75756D01*
X21946Y75565D02*X22136Y75756D01*
X21565Y75565D02*X21946D01*
X21374Y75946D02*X22136Y76708D01*
X18870Y22410D02*Y21598D01*
X18464Y22004D02*X19276D01*
X18108Y38158D02*Y37346D01*
X17702Y37752D02*X18514D01*
X34364Y27363D02*Y26551D01*
X33958Y26957D02*X34770D01*
X39190Y26474D02*Y25662D01*
X38784Y26068D02*X39596D01*
X38047Y26474D02*Y25662D01*
X37641Y26068D02*X38453D01*
X33475Y26474D02*Y25662D01*
X33069Y26068D02*X33881D01*
X33475Y30665D02*Y29853D01*
X33069Y30259D02*X33881D01*
X34364Y31554D02*Y30742D01*
X33958Y31148D02*X34770D01*
X30427Y13393D02*Y12581D01*
X30021Y12987D02*X30833D01*
X40587Y23807D02*Y22995D01*
X40181Y23401D02*X40993D01*
X46810Y41841D02*Y41029D01*
X46404Y41435D02*X47216D01*
X37793Y32697D02*Y31885D01*
X37387Y32291D02*X38199D01*
X37793Y31427D02*Y30615D01*
X37387Y31021D02*X38199D01*
X28014Y18219D02*Y17407D01*
X27608Y17813D02*X28420D01*
X29538Y48953D02*Y48141D01*
X29132Y48547D02*X29944D01*
X33475Y49080D02*Y48268D01*
X33069Y48674D02*X33881D01*
X18108Y48953D02*Y48141D01*
X17702Y48547D02*X18514D01*
X44143Y20505D02*Y19693D01*
X43737Y20099D02*X44549D01*
X47318Y26220D02*Y25408D01*
X46912Y25814D02*X47724D01*
X44905Y29649D02*Y28837D01*
X44499Y29243D02*X45311D01*
X18108Y43873D02*Y43061D01*
X17702Y43467D02*X18514D01*
X3810Y80734D02*Y79921D01*
X3404Y80328D02*X4216D01*
X38100Y80899D02*X38481Y80137D01*
X38862Y80899D01*
X38481Y80137D02*Y79375D01*
X39319Y80213D02*X39891D01*
X39319Y79375D02*X40081D01*
X39319Y80899D02*Y79375D01*
Y80899D02*X40081D01*
X41300D02*X41491Y80708D01*
X40729Y80899D02*X41300D01*
X40538Y80708D02*X40729Y80899D01*
X40538Y80708D02*Y80328D01*
X40729Y80137D01*
X41300D01*
X41491Y79946D01*
Y79566D01*
X41300Y79375D02*X41491Y79566D01*
X40729Y79375D02*X41300D01*
X40538Y79566D02*X40729Y79375D01*
X28702Y80708D02*X28892Y80899D01*
X29464D01*
X29654Y80708D01*
Y80328D01*
X28702Y79375D02*X29654Y80328D01*
X28702Y79375D02*X29654D01*
X30112Y80594D02*X30417Y80899D01*
Y79375D01*
X30112D02*X30683D01*
X11430Y79566D02*X11620Y79375D01*
X11430Y80708D02*Y79566D01*
Y80708D02*X11620Y80899D01*
X12002D01*
X12192Y80708D01*
Y79566D01*
X12002Y79375D02*X12192Y79566D01*
X11620Y79375D02*X12002D01*
X11430Y79756D02*X12192Y80518D01*
X12649Y79375D02*X12840D01*
X13297Y79566D02*X13487Y79375D01*
X13297Y80708D02*Y79566D01*
Y80708D02*X13487Y80899D01*
X13868D01*
X14059Y80708D01*
Y79566D01*
X13868Y79375D02*X14059Y79566D01*
X13487Y79375D02*X13868D01*
X13297Y79756D02*X14059Y80518D01*
X14516Y80708D02*X14707Y80899D01*
X15278D01*
X15469Y80708D01*
Y80328D01*
X14516Y79375D02*X15469Y80328D01*
X14516Y79375D02*X15469D01*
X15926Y79566D02*X16116Y79375D01*
X15926Y80708D02*Y79566D01*
Y80708D02*X16116Y80899D01*
X16497D01*
X16688Y80708D01*
Y79566D01*
X16497Y79375D02*X16688Y79566D01*
X16116Y79375D02*X16497D01*
X15926Y79756D02*X16688Y80518D01*
X17145Y79375D02*X17526Y79756D01*
Y80328D02*Y80137D01*
X18669Y79566D02*X18860Y79375D01*
X18669Y80708D02*Y79566D01*
Y80708D02*X18860Y80899D01*
X19241D01*
X19431Y80708D01*
Y79566D01*
X19241Y79375D02*X19431Y79566D01*
X18860Y79375D02*X19241D01*
X18669Y79756D02*X19431Y80518D01*
X19888Y79375D02*X20079D01*
X20536Y80899D02*X21298D01*
X20536D02*Y80137D01*
X20726Y80328D01*
X21107D01*
X21298Y80137D01*
Y79566D01*
X21107Y79375D02*X21298Y79566D01*
X20726Y79375D02*X21107D01*
X20536Y79566D02*X20726Y79375D01*
X21755Y79566D02*X21946Y79375D01*
X21755Y80708D02*Y79566D01*
Y80708D02*X21946Y80899D01*
X22327D01*
X22517Y80708D01*
Y79566D01*
X22327Y79375D02*X22517Y79566D01*
X21946Y79375D02*X22327D01*
X21755Y79756D02*X22517Y80518D01*
X26236Y27719D02*Y27313D01*
Y27719D02*X26588Y27922D01*
X26236Y27719D02*X25884Y27922D01*
X16584Y20480D02*Y20074D01*
Y20480D02*X16936Y20683D01*
X16584Y20480D02*X16232Y20683D01*
X28014Y22766D02*Y22360D01*
Y22766D02*X28366Y22969D01*
X28014Y22766D02*X27662Y22969D01*
X35380Y24163D02*Y23757D01*
Y24163D02*X35732Y24366D01*
X35380Y24163D02*X35028Y24366D01*
X44905Y14892D02*Y14486D01*
Y14892D02*X45257Y15095D01*
X44905Y14892D02*X44553Y15095D01*
X55827Y25433D02*Y25027D01*
Y25433D02*X56179Y25636D01*
X55827Y25433D02*X55475Y25636D01*
X38555Y16670D02*Y16264D01*
Y16670D02*X38907Y16873D01*
X38555Y16670D02*X38203Y16873D01*
X41730Y18956D02*Y18550D01*
Y18956D02*X42082Y19159D01*
X41730Y18956D02*X41378Y19159D01*
X55827Y18067D02*Y17661D01*
Y18067D02*X56179Y18270D01*
X55827Y18067D02*X55475Y18270D01*
X45921Y34196D02*Y33790D01*
Y34196D02*X46273Y34399D01*
X45921Y34196D02*X45569Y34399D01*
X47191Y34196D02*Y33790D01*
Y34196D02*X47543Y34399D01*
X47191Y34196D02*X46839Y34399D01*
X54049Y26576D02*Y26170D01*
Y26576D02*X54401Y26779D01*
X54049Y26576D02*X53697Y26779D01*
X53922Y27846D02*Y27440D01*
Y27846D02*X54274Y28049D01*
X53922Y27846D02*X53570Y28049D01*
X57224Y19210D02*Y18804D01*
Y19210D02*X57576Y19413D01*
X57224Y19210D02*X56872Y19413D01*
X52398Y19591D02*Y19185D01*
Y19591D02*X52750Y19794D01*
X52398Y19591D02*X52046Y19794D01*
X30935Y34704D02*Y34298D01*
Y34704D02*X31287Y34907D01*
X30935Y34704D02*X30583Y34907D01*
X47191Y47531D02*Y47125D01*
Y47531D02*X47543Y47734D01*
X47191Y47531D02*X46839Y47734D01*
X33475Y36736D02*Y36330D01*
Y36736D02*X33827Y36939D01*
X33475Y36736D02*X33123Y36939D01*
X37412Y37752D02*Y37346D01*
Y37752D02*X37764Y37955D01*
X37412Y37752D02*X37060Y37955D01*
X39444Y36355D02*Y35949D01*
Y36355D02*X39796Y36558D01*
X39444Y36355D02*X39092Y36558D01*
X45032Y23655D02*Y23249D01*
Y23655D02*X45384Y23858D01*
X45032Y23655D02*X44680Y23858D01*
X44905Y31529D02*Y31123D01*
Y31529D02*X45257Y31732D01*
X44905Y31529D02*X44553Y31732D01*
X56335Y31783D02*Y31377D01*
Y31783D02*X56687Y31986D01*
X56335Y31783D02*X55983Y31986D01*
X51636Y31529D02*Y31123D01*
Y31529D02*X51988Y31732D01*
X51636Y31529D02*X51284Y31732D01*
X12393Y29497D02*Y29091D01*
Y29497D02*X12745Y29700D01*
X12393Y29497D02*X12041Y29700D01*
X17219Y39403D02*Y38997D01*
Y39403D02*X17571Y39606D01*
X17219Y39403D02*X16867Y39606D01*
X8583Y37371D02*Y36965D01*
Y37371D02*X8935Y37574D01*
X8583Y37371D02*X8231Y37574D01*
X23569Y34958D02*Y34552D01*
Y34958D02*X23921Y35161D01*
X23569Y34958D02*X23217Y35161D01*
X21410Y5875D02*Y5469D01*
Y5875D02*X21762Y6078D01*
X21410Y5875D02*X21058Y6078D01*
X12266Y8542D02*Y8136D01*
Y8542D02*X12618Y8745D01*
X12266Y8542D02*X11914Y8745D01*
X12139Y14511D02*Y14105D01*
Y14511D02*X12491Y14714D01*
X12139Y14511D02*X11787Y14714D01*
X21283Y11844D02*Y11438D01*
Y11844D02*X21635Y12047D01*
X21283Y11844D02*X20931Y12047D01*
X25855Y7272D02*Y6866D01*
Y7272D02*X26207Y7475D01*
X25855Y7272D02*X25503Y7475D01*
X29411Y46515D02*Y46109D01*
Y46515D02*X29763Y46718D01*
X29411Y46515D02*X29059Y46718D01*
X12393Y28227D02*Y27821D01*
Y28227D02*X12745Y28430D01*
X12393Y28227D02*X12041Y28430D01*
X12520Y23401D02*Y22995D01*
Y23401D02*X12872Y23604D01*
X12520Y23401D02*X12168Y23604D01*
X12520Y25941D02*Y25535D01*
Y25941D02*X12872Y26144D01*
X12520Y25941D02*X12168Y26144D01*
X12139Y31529D02*Y31123D01*
Y31529D02*X12491Y31732D01*
X12139Y31529D02*X11787Y31732D01*
X12647Y33307D02*Y32901D01*
Y33307D02*X12999Y33510D01*
X12647Y33307D02*X12295Y33510D01*
X29792Y37117D02*Y36711D01*
Y37117D02*X30144Y37320D01*
X29792Y37117D02*X29440Y37320D01*
X29538Y33180D02*Y32774D01*
Y33180D02*X29890Y33383D01*
X29538Y33180D02*X29186Y33383D01*
X24458Y30640D02*Y30234D01*
Y30640D02*X24810Y30843D01*
X24458Y30640D02*X24106Y30843D01*
X25220Y31529D02*Y31123D01*
Y31529D02*X25572Y31732D01*
X25220Y31529D02*X24868Y31732D01*
X28522Y32291D02*Y31885D01*
Y32291D02*X28874Y32494D01*
X28522Y32291D02*X28170Y32494D01*
X28649Y31148D02*Y30742D01*
Y31148D02*X29001Y31351D01*
X28649Y31148D02*X28297Y31351D01*
X26998Y37117D02*Y36711D01*
Y37117D02*X27350Y37320D01*
X26998Y37117D02*X26646Y37320D01*
X32332Y28862D02*Y28456D01*
Y28862D02*X32684Y29065D01*
X32332Y28862D02*X31980Y29065D01*
X27633Y27465D02*Y27059D01*
Y27465D02*X27985Y27668D01*
X27633Y27465D02*X27281Y27668D01*
X30681Y39022D02*Y38616D01*
Y39022D02*X31033Y39225D01*
X30681Y39022D02*X30329Y39225D01*
X31697Y38514D02*Y38108D01*
Y38514D02*X32049Y38717D01*
X31697Y38514D02*X31345Y38717D01*
X31189Y41435D02*Y41029D01*
Y41435D02*X31541Y41638D01*
X31189Y41435D02*X30837Y41638D01*
X32205Y41943D02*Y41537D01*
Y41943D02*X32557Y42146D01*
X32205Y41943D02*X31853Y42146D01*
X3810Y84138D02*Y83731D01*
Y84138D02*X4162Y84341D01*
X3810Y84138D02*X3458Y84341D01*
X38100Y84709D02*X38481Y83947D01*
X38862Y84709D01*
X38481Y83947D02*Y83185D01*
X39319Y84023D02*X39891D01*
X39319Y83185D02*X40081D01*
X39319Y84709D02*Y83185D01*
Y84709D02*X40081D01*
X41300D02*X41491Y84518D01*
X40729Y84709D02*X41300D01*
X40538Y84518D02*X40729Y84709D01*
X40538Y84518D02*Y84138D01*
X40729Y83947D01*
X41300D01*
X41491Y83756D01*
Y83376D01*
X41300Y83185D02*X41491Y83376D01*
X40729Y83185D02*X41300D01*
X40538Y83376D02*X40729Y83185D01*
X28702Y84709D02*X29464D01*
X28702D02*Y83947D01*
X28892Y84138D01*
X29274D01*
X29464Y83947D01*
Y83376D01*
X29274Y83185D02*X29464Y83376D01*
X28892Y83185D02*X29274D01*
X28702Y83376D02*X28892Y83185D01*
X29921Y84518D02*X30112Y84709D01*
X30683D01*
X30874Y84518D01*
Y84138D01*
X29921Y83185D02*X30874Y84138D01*
X29921Y83185D02*X30874D01*
X11430Y83376D02*X11620Y83185D01*
X11430Y84518D02*Y83376D01*
Y84518D02*X11620Y84709D01*
X12002D01*
X12192Y84518D01*
Y83376D01*
X12002Y83185D02*X12192Y83376D01*
X11620Y83185D02*X12002D01*
X11430Y83566D02*X12192Y84328D01*
X12649Y83185D02*X12840D01*
X13297Y83376D02*X13487Y83185D01*
X13297Y84518D02*Y83376D01*
Y84518D02*X13487Y84709D01*
X13868D01*
X14059Y84518D01*
Y83376D01*
X13868Y83185D02*X14059Y83376D01*
X13487Y83185D02*X13868D01*
X13297Y83566D02*X14059Y84328D01*
X14516Y84404D02*X14821Y84709D01*
Y83185D01*
X14516D02*X15088D01*
X15545Y84518D02*X15735Y84709D01*
X16307D01*
X16497Y84518D01*
Y84138D01*
X15545Y83185D02*X16497Y84138D01*
X15545Y83185D02*X16497D01*
X16955D02*X17336Y83566D01*
Y84138D02*Y83947D01*
X18479Y83376D02*X18669Y83185D01*
X18479Y84518D02*Y83376D01*
Y84518D02*X18669Y84709D01*
X19050D01*
X19241Y84518D01*
Y83376D01*
X19050Y83185D02*X19241Y83376D01*
X18669Y83185D02*X19050D01*
X18479Y83566D02*X19241Y84328D01*
X19698Y83185D02*X19888D01*
X20345Y84518D02*X20536Y84709D01*
X20917D01*
X21107Y84518D01*
X20917Y83185D02*X21107Y83376D01*
X20536Y83185D02*X20917D01*
X20345Y83376D02*X20536Y83185D01*
Y84023D02*X20917D01*
X21107Y84518D02*Y84214D01*
Y83833D02*Y83376D01*
Y83833D02*X20917Y84023D01*
X21107Y84214D02*X20917Y84023D01*
X21565Y83376D02*X21755Y83185D01*
X21565Y84518D02*Y83376D01*
Y84518D02*X21755Y84709D01*
X22136D01*
X22327Y84518D01*
Y83376D01*
X22136Y83185D02*X22327Y83376D01*
X21755Y83185D02*X22136D01*
X21565Y83566D02*X22327Y84328D01*
X762Y88519D02*X952Y88328D01*
X190Y88519D02*X762D01*
X0Y88328D02*X190Y88519D01*
X0Y88328D02*Y87948D01*
X190Y87757D01*
X762D01*
X952Y87566D01*
Y87186D01*
X762Y86995D02*X952Y87186D01*
X190Y86995D02*X762D01*
X0Y87186D02*X190Y86995D01*
X1410Y87757D02*Y87186D01*
X1600Y86995D01*
X2172Y87757D02*Y86614D01*
X1981Y86424D02*X2172Y86614D01*
X1600Y86424D02*X1981D01*
X1410Y86614D02*X1600Y86424D01*
Y86995D02*X1981D01*
X2172Y87186D01*
X2819Y87566D02*Y86995D01*
Y87566D02*X3010Y87757D01*
X3200D01*
X3391Y87566D01*
Y86995D01*
Y87566D02*X3581Y87757D01*
X3772D01*
X3962Y87566D01*
Y86995D01*
X2629Y87757D02*X2819Y87566D01*
X4420Y88519D02*Y86995D01*
Y87186D02*X4610Y86995D01*
X4991D01*
X5182Y87186D01*
Y87566D02*Y87186D01*
X4991Y87757D02*X5182Y87566D01*
X4610Y87757D02*X4991D01*
X4420Y87566D02*X4610Y87757D01*
X5639Y87566D02*Y87186D01*
Y87566D02*X5829Y87757D01*
X6210D01*
X6401Y87566D01*
Y87186D01*
X6210Y86995D02*X6401Y87186D01*
X5829Y86995D02*X6210D01*
X5639Y87186D02*X5829Y86995D01*
X6858Y88519D02*Y87186D01*
X7049Y86995D01*
X0Y86169D02*X7430D01*
X10604Y88519D02*Y86995D01*
X11100Y88519D02*X11366Y88252D01*
Y87262D01*
X11100Y86995D02*X11366Y87262D01*
X10414Y86995D02*X11100D01*
X10414Y88519D02*X11100D01*
G54D127*X11824Y88138D02*Y88100D01*
G54D126*Y87566D02*Y86995D01*
X12776Y87757D02*X12967Y87566D01*
X12395Y87757D02*X12776D01*
X12205Y87566D02*X12395Y87757D01*
X12205Y87566D02*Y87186D01*
X12395Y86995D01*
X12967Y87757D02*Y87186D01*
X13157Y86995D01*
X12395D02*X12776D01*
X12967Y87186D01*
X13805Y87566D02*Y86995D01*
Y87566D02*X13995Y87757D01*
X14186D01*
X14376Y87566D01*
Y86995D01*
Y87566D02*X14567Y87757D01*
X14757D01*
X14948Y87566D01*
Y86995D01*
X13614Y87757D02*X13805Y87566D01*
X15405Y86995D02*X15596D01*
X16739Y87186D02*X16929Y86995D01*
X16739Y88328D02*X16929Y88519D01*
X16739Y88328D02*Y87186D01*
X17386Y88519D02*X17767D01*
X17577D02*Y86995D01*
X17386D02*X17767D01*
X18415Y87566D02*Y86995D01*
Y87566D02*X18606Y87757D01*
X18796D01*
X18987Y87566D01*
Y86995D01*
X18225Y87757D02*X18415Y87566D01*
X19444Y86995D02*X19825Y87376D01*
Y87948D02*Y87757D01*
X21158Y87566D02*Y86995D01*
Y87566D02*X21349Y87757D01*
X21539D01*
X21730Y87566D01*
Y86995D01*
Y87566D02*X21920Y87757D01*
X22111D01*
X22301Y87566D01*
Y86995D01*
X20968Y87757D02*X21158Y87566D01*
X22949D02*Y86995D01*
Y87566D02*X23139Y87757D01*
X23330D01*
X23520Y87566D01*
Y86995D01*
Y87566D02*X23711Y87757D01*
X23901D01*
X24092Y87566D01*
Y86995D01*
X22758Y87757D02*X22949Y87566D01*
X24549Y88519D02*X24740Y88328D01*
Y87186D01*
X24549Y86995D02*X24740Y87186D01*
X10414Y86169D02*X25197D01*
X28207Y86995D02*X28702D01*
X27940Y87262D02*X28207Y86995D01*
X27940Y88252D02*Y87262D01*
Y88252D02*X28207Y88519D01*
X28702D01*
X29159Y87566D02*Y87186D01*
Y87566D02*X29350Y87757D01*
X29731D01*
X29921Y87566D01*
Y87186D01*
X29731Y86995D02*X29921Y87186D01*
X29350Y86995D02*X29731D01*
X29159Y87186D02*X29350Y86995D01*
X30378Y87757D02*Y87186D01*
X30569Y86995D01*
X30950D01*
X31140Y87186D01*
Y87757D02*Y87186D01*
X31788Y87566D02*Y86995D01*
Y87566D02*X31979Y87757D01*
X32169D01*
X32360Y87566D01*
Y86995D01*
X31598Y87757D02*X31788Y87566D01*
X33007Y88519D02*Y87186D01*
X33198Y86995D01*
X32817Y87948D02*X33198D01*
X27940Y86169D02*X33579D01*
X37020Y88519D02*Y86995D01*
X36830Y88519D02*X37592D01*
X37782Y88328D01*
Y87948D01*
X37592Y87757D02*X37782Y87948D01*
X37020Y87757D02*X37592D01*
X38240Y88519D02*Y87186D01*
X38430Y86995D01*
X39383Y87757D02*X39573Y87566D01*
X39002Y87757D02*X39383D01*
X38811Y87566D02*X39002Y87757D01*
X38811Y87566D02*Y87186D01*
X39002Y86995D01*
X39573Y87757D02*Y87186D01*
X39764Y86995D01*
X39002D02*X39383D01*
X39573Y87186D01*
X40411Y88519D02*Y87186D01*
X40602Y86995D01*
X40221Y87948D02*X40602D01*
X41173Y86995D02*X41745D01*
X40983Y87186D02*X41173Y86995D01*
X40983Y87566D02*Y87186D01*
Y87566D02*X41173Y87757D01*
X41554D01*
X41745Y87566D01*
X40983Y87376D02*X41745D01*
Y87566D02*Y87376D01*
X42964Y88519D02*Y86995D01*
X42774D02*X42964Y87186D01*
X42393Y86995D02*X42774D01*
X42202Y87186D02*X42393Y86995D01*
X42202Y87566D02*Y87186D01*
Y87566D02*X42393Y87757D01*
X42774D01*
X42964Y87566D01*
X43802Y87757D02*Y87566D01*
Y87186D02*Y86995D01*
X43421Y88328D02*Y88138D01*
Y88328D02*X43612Y88519D01*
X43993D01*
X44183Y88328D01*
Y88138D01*
X43802Y87757D02*X44183Y88138D01*
X36830Y86169D02*X44641D01*
X0Y92329D02*X762D01*
X381D02*Y90805D01*
X1219Y92329D02*Y90805D01*
Y91376D02*X1410Y91567D01*
X1791D01*
X1981Y91376D01*
Y90805D01*
X2629D02*X3200D01*
X2438Y90996D02*X2629Y90805D01*
X2438Y91376D02*Y90996D01*
Y91376D02*X2629Y91567D01*
X3010D01*
X3200Y91376D01*
X2438Y91186D02*X3200D01*
Y91376D02*Y91186D01*
X3848Y91376D02*Y90805D01*
Y91376D02*X4039Y91567D01*
X4420D01*
X3658D02*X3848Y91376D01*
X5067Y90805D02*X5639D01*
X4877Y90996D02*X5067Y90805D01*
X4877Y91376D02*Y90996D01*
Y91376D02*X5067Y91567D01*
X5448D01*
X5639Y91376D01*
X4877Y91186D02*X5639D01*
Y91376D02*Y91186D01*
X7353Y91567D02*X7544Y91376D01*
X6972Y91567D02*X7353D01*
X6782Y91376D02*X6972Y91567D01*
X6782Y91376D02*Y90996D01*
X6972Y90805D01*
X7544Y91567D02*Y90996D01*
X7734Y90805D01*
X6972D02*X7353D01*
X7544Y90996D01*
X8382Y91376D02*Y90805D01*
Y91376D02*X8573Y91567D01*
X8954D01*
X8192D02*X8382Y91376D01*
X9601Y90805D02*X10173D01*
X9411Y90996D02*X9601Y90805D01*
X9411Y91376D02*Y90996D01*
Y91376D02*X9601Y91567D01*
X9982D01*
X10173Y91376D01*
X9411Y91186D02*X10173D01*
Y91376D02*Y91186D01*
X11506Y90805D02*X12268Y92329D01*
X11316D02*X12268D01*
X14173D02*Y90805D01*
X13983D02*X14173Y90996D01*
X13602Y90805D02*X13983D01*
X13411Y90996D02*X13602Y90805D01*
X13411Y91376D02*Y90996D01*
Y91376D02*X13602Y91567D01*
X13983D01*
X14173Y91376D01*
G54D127*X14630Y91948D02*Y91910D01*
G54D126*Y91376D02*Y90805D01*
X15202Y92138D02*Y90805D01*
Y92138D02*X15392Y92329D01*
X15583D01*
X15011Y91567D02*X15392D01*
X16154Y92138D02*Y90805D01*
Y92138D02*X16345Y92329D01*
X16535D01*
X15964Y91567D02*X16345D01*
X17107Y90805D02*X17678D01*
X16916Y90996D02*X17107Y90805D01*
X16916Y91376D02*Y90996D01*
Y91376D02*X17107Y91567D01*
X17488D01*
X17678Y91376D01*
X16916Y91186D02*X17678D01*
Y91376D02*Y91186D01*
X18326Y91376D02*Y90805D01*
Y91376D02*X18517Y91567D01*
X18898D01*
X18136D02*X18326Y91376D01*
X19545Y90805D02*X20117D01*
X19355Y90996D02*X19545Y90805D01*
X19355Y91376D02*Y90996D01*
Y91376D02*X19545Y91567D01*
X19926D01*
X20117Y91376D01*
X19355Y91186D02*X20117D01*
Y91376D02*Y91186D01*
X20765Y91376D02*Y90805D01*
Y91376D02*X20955Y91567D01*
X21146D01*
X21336Y91376D01*
Y90805D01*
X20574Y91567D02*X20765Y91376D01*
X21984Y92329D02*Y90996D01*
X22174Y90805D01*
X21793Y91758D02*X22174D01*
X24003Y92329D02*Y90805D01*
X23813D02*X24003Y90996D01*
X23432Y90805D02*X23813D01*
X23241Y90996D02*X23432Y90805D01*
X23241Y91376D02*Y90996D01*
Y91376D02*X23432Y91567D01*
X23813D01*
X24003Y91376D01*
X24651D02*Y90805D01*
Y91376D02*X24841Y91567D01*
X25222D01*
X24460D02*X24651Y91376D01*
G54D127*X25679Y91948D02*Y91910D01*
G54D126*Y91376D02*Y90805D01*
X26060Y92329D02*Y90996D01*
X26251Y90805D01*
X26632Y92329D02*Y90996D01*
X26822Y90805D01*
X28080D02*X28651D01*
X28842Y90996D01*
X28651Y91186D02*X28842Y90996D01*
X28080Y91186D02*X28651D01*
X27889Y91376D02*X28080Y91186D01*
X27889Y91376D02*X28080Y91567D01*
X28651D01*
X28842Y91376D01*
X27889Y90996D02*X28080Y90805D01*
G54D127*X29299Y91948D02*Y91910D01*
G54D126*Y91376D02*Y90805D01*
X29680Y91567D02*X30442D01*
X29680Y90805D02*X30442Y91567D01*
X29680Y90805D02*X30442D01*
X31090D02*X31661D01*
X30899Y90996D02*X31090Y90805D01*
X30899Y91376D02*Y90996D01*
Y91376D02*X31090Y91567D01*
X31471D01*
X31661Y91376D01*
X30899Y91186D02*X31661D01*
Y91376D02*Y91186D01*
X32309Y90805D02*X32880D01*
X33071Y90996D01*
X32880Y91186D02*X33071Y90996D01*
X32309Y91186D02*X32880D01*
X32118Y91376D02*X32309Y91186D01*
X32118Y91376D02*X32309Y91567D01*
X32880D01*
X33071Y91376D01*
X32118Y90996D02*X32309Y90805D01*
X34214Y91567D02*Y90996D01*
X34404Y90805D01*
X34785D01*
X34976Y90996D01*
Y91567D02*Y90996D01*
X35624Y90805D02*X36195D01*
X36386Y90996D01*
X36195Y91186D02*X36386Y90996D01*
X35624Y91186D02*X36195D01*
X35433Y91376D02*X35624Y91186D01*
X35433Y91376D02*X35624Y91567D01*
X36195D01*
X36386Y91376D01*
X35433Y90996D02*X35624Y90805D01*
X37033D02*X37605D01*
X36843Y90996D02*X37033Y90805D01*
X36843Y91376D02*Y90996D01*
Y91376D02*X37033Y91567D01*
X37414D01*
X37605Y91376D01*
X36843Y91186D02*X37605D01*
Y91376D02*Y91186D01*
X38824Y92329D02*Y90805D01*
X38633D02*X38824Y90996D01*
X38252Y90805D02*X38633D01*
X38062Y90996D02*X38252Y90805D01*
X38062Y91376D02*Y90996D01*
Y91376D02*X38252Y91567D01*
X38633D01*
X38824Y91376D01*
G54D127*X39967Y91948D02*Y91910D01*
G54D126*Y91376D02*Y90805D01*
X40538Y91376D02*Y90805D01*
Y91376D02*X40729Y91567D01*
X40919D01*
X41110Y91376D01*
Y90805D01*
X40348Y91567D02*X40538Y91376D01*
X42443Y92329D02*Y90996D01*
X42634Y90805D01*
X42253Y91758D02*X42634D01*
X43015Y92329D02*Y90805D01*
Y91376D02*X43205Y91567D01*
X43586D01*
X43777Y91376D01*
Y90805D01*
G54D127*X44234Y91948D02*Y91910D01*
G54D126*Y91376D02*Y90805D01*
X44806D02*X45377D01*
X45568Y90996D01*
X45377Y91186D02*X45568Y90996D01*
X44806Y91186D02*X45377D01*
X44615Y91376D02*X44806Y91186D01*
X44615Y91376D02*X44806Y91567D01*
X45377D01*
X45568Y91376D01*
X44615Y90996D02*X44806Y90805D01*
X46711Y92329D02*Y90996D01*
X46901Y90805D01*
X47854Y91567D02*X48044Y91376D01*
X47473Y91567D02*X47854D01*
X47282Y91376D02*X47473Y91567D01*
X47282Y91376D02*Y90996D01*
X47473Y90805D01*
X48044Y91567D02*Y90996D01*
X48235Y90805D01*
X47473D02*X47854D01*
X48044Y90996D01*
X48692Y91567D02*Y90996D01*
X48882Y90805D01*
X49454Y91567D02*Y90424D01*
X49263Y90234D02*X49454Y90424D01*
X48882Y90234D02*X49263D01*
X48692Y90424D02*X48882Y90234D01*
Y90805D02*X49263D01*
X49454Y90996D01*
X49911Y91376D02*Y90996D01*
Y91376D02*X50102Y91567D01*
X50483D01*
X50673Y91376D01*
Y90996D01*
X50483Y90805D02*X50673Y90996D01*
X50102Y90805D02*X50483D01*
X49911Y90996D02*X50102Y90805D01*
X51130Y91567D02*Y90996D01*
X51321Y90805D01*
X51702D01*
X51892Y90996D01*
Y91567D02*Y90996D01*
X52540Y92329D02*Y90996D01*
X52730Y90805D01*
X52349Y91758D02*X52730D01*
X53111Y90424D02*X53492Y90805D01*
X54635Y92024D02*X54940Y92329D01*
Y90805D01*
X54635D02*X55207D01*
X55664Y92329D02*X56426D01*
X55664D02*Y91567D01*
X55855Y91758D01*
X56236D01*
X56426Y91567D01*
Y90996D01*
X56236Y90805D02*X56426Y90996D01*
X55855Y90805D02*X56236D01*
X55664Y90996D02*X55855Y90805D01*
X56883Y90996D02*X57074Y90805D01*
X56883Y91300D02*Y90996D01*
Y91300D02*X57150Y91567D01*
X57379D01*
X57645Y91300D01*
Y90996D01*
X57455Y90805D02*X57645Y90996D01*
X57074Y90805D02*X57455D01*
X56883Y91834D02*X57150Y91567D01*
X56883Y92138D02*Y91834D01*
Y92138D02*X57074Y92329D01*
X57455D01*
X57645Y92138D01*
Y91834D01*
X57379Y91567D02*X57645Y91834D01*
X58788Y92329D02*Y90805D01*
Y91376D02*X58979Y91567D01*
X59360D01*
X59550Y91376D01*
Y90805D01*
X60008Y91376D02*Y90996D01*
Y91376D02*X60198Y91567D01*
X60579D01*
X60770Y91376D01*
Y90996D01*
X60579Y90805D02*X60770Y90996D01*
X60198Y90805D02*X60579D01*
X60008Y90996D02*X60198Y90805D01*
X61227Y92329D02*Y90996D01*
X61417Y90805D01*
X61989D02*X62560D01*
X61798Y90996D02*X61989Y90805D01*
X61798Y91376D02*Y90996D01*
Y91376D02*X61989Y91567D01*
X62370D01*
X62560Y91376D01*
X61798Y91186D02*X62560D01*
Y91376D02*Y91186D01*
X63208Y90805D02*X63779D01*
X63970Y90996D01*
X63779Y91186D02*X63970Y90996D01*
X63208Y91186D02*X63779D01*
X63017Y91376D02*X63208Y91186D01*
X63017Y91376D02*X63208Y91567D01*
X63779D01*
X63970Y91376D01*
X63017Y90996D02*X63208Y90805D01*
X65303Y92329D02*Y90996D01*
X65494Y90805D01*
X65113Y91758D02*X65494D01*
X65875Y91376D02*Y90996D01*
Y91376D02*X66065Y91567D01*
X66446D01*
X66637Y91376D01*
Y90996D01*
X66446Y90805D02*X66637Y90996D01*
X66065Y90805D02*X66446D01*
X65875Y90996D02*X66065Y90805D01*
X67285Y92329D02*Y90996D01*
X67475Y90805D01*
X67094Y91758D02*X67475D01*
X68428Y91567D02*X68618Y91376D01*
X68047Y91567D02*X68428D01*
X67856Y91376D02*X68047Y91567D01*
X67856Y91376D02*Y90996D01*
X68047Y90805D01*
X68618Y91567D02*Y90996D01*
X68809Y90805D01*
X68047D02*X68428D01*
X68618Y90996D01*
X69266Y92329D02*Y90996D01*
X69456Y90805D01*
G54D128*X62594Y492D02*X3594D01*
X65594Y53992D02*Y3492D01*
X3594Y56992D02*X62594D01*
X594Y3492D02*Y53992D01*
X65594D02*G75*G03X62594Y56992I-3000J0D01*G01*
X65594Y3492D02*G75*G02X62594Y492I-3000J0D01*G01*
X594Y53992D02*G75*G02X3594Y56992I3000J0D01*G01*
X594Y3492D02*G75*G03X3594Y492I3000J0D01*G01*
G54D126*X11220Y-2413D02*X11982D01*
X12173Y-2222D01*
Y-1765D02*Y-2222D01*
X11982Y-1575D02*X12173Y-1765D01*
X11411Y-1575D02*X11982D01*
X11411Y-889D02*Y-2413D01*
X11220Y-889D02*X11982D01*
X12173Y-1080D01*
Y-1384D01*
X11982Y-1575D02*X12173Y-1384D01*
X12630Y-1842D02*Y-2222D01*
Y-1842D02*X12821Y-1651D01*
X13202D01*
X13392Y-1842D01*
Y-2222D01*
X13202Y-2413D02*X13392Y-2222D01*
X12821Y-2413D02*X13202D01*
X12630Y-2222D02*X12821Y-2413D01*
X14421Y-1651D02*X14611Y-1842D01*
X14040Y-1651D02*X14421D01*
X13849Y-1842D02*X14040Y-1651D01*
X13849Y-1842D02*Y-2222D01*
X14040Y-2413D01*
X14611Y-1651D02*Y-2222D01*
X14802Y-2413D01*
X14040D02*X14421D01*
X14611Y-2222D01*
X15450Y-1842D02*Y-2413D01*
Y-1842D02*X15640Y-1651D01*
X16021D01*
X15259D02*X15450Y-1842D01*
X17240Y-889D02*Y-2413D01*
X17050D02*X17240Y-2222D01*
X16669Y-2413D02*X17050D01*
X16478Y-2222D02*X16669Y-2413D01*
X16478Y-1842D02*Y-2222D01*
Y-1842D02*X16669Y-1651D01*
X17050D01*
X17240Y-1842D01*
X18383D02*Y-2222D01*
Y-1842D02*X18574Y-1651D01*
X18955D01*
X19145Y-1842D01*
Y-2222D01*
X18955Y-2413D02*X19145Y-2222D01*
X18574Y-2413D02*X18955D01*
X18383Y-2222D02*X18574Y-2413D01*
X19602Y-1651D02*Y-2222D01*
X19793Y-2413D01*
X20174D01*
X20364Y-2222D01*
Y-1651D02*Y-2222D01*
X21012Y-889D02*Y-2222D01*
X21203Y-2413D01*
X20822Y-1460D02*X21203D01*
X21584Y-889D02*Y-2222D01*
X21774Y-2413D01*
G54D127*X22155Y-1270D02*Y-1308D01*
G54D126*Y-1842D02*Y-2413D01*
X22727Y-1842D02*Y-2413D01*
Y-1842D02*X22917Y-1651D01*
X23108D01*
X23298Y-1842D01*
Y-2413D01*
X22536Y-1651D02*X22727Y-1842D01*
X23946Y-2413D02*X24517D01*
X23755Y-2222D02*X23946Y-2413D01*
X23755Y-1842D02*Y-2222D01*
Y-1842D02*X23946Y-1651D01*
X24327D01*
X24517Y-1842D01*
X23755Y-2032D02*X24517D01*
Y-1842D02*Y-2032D01*
G54D127*X25660Y-1270D02*Y-1308D01*
G54D126*Y-1842D02*Y-2413D01*
X26232D02*X26803D01*
X26994Y-2222D01*
X26803Y-2032D02*X26994Y-2222D01*
X26232Y-2032D02*X26803D01*
X26041Y-1842D02*X26232Y-2032D01*
X26041Y-1842D02*X26232Y-1651D01*
X26803D01*
X26994Y-1842D01*
X26041Y-2222D02*X26232Y-2413D01*
X28327Y-889D02*Y-2222D01*
X28518Y-2413D01*
X28137Y-1460D02*X28518D01*
X28899Y-889D02*Y-2413D01*
Y-1842D02*X29089Y-1651D01*
X29470D01*
X29661Y-1842D01*
Y-2413D01*
X30309D02*X30880D01*
X30118Y-2222D02*X30309Y-2413D01*
X30118Y-1842D02*Y-2222D01*
Y-1842D02*X30309Y-1651D01*
X30690D01*
X30880Y-1842D01*
X30118Y-2032D02*X30880D01*
Y-1842D02*Y-2032D01*
X32214Y-1651D02*X32785D01*
X32023Y-1842D02*X32214Y-1651D01*
X32023Y-1842D02*Y-2222D01*
X32214Y-2413D01*
X32785D01*
X33433D02*X34004D01*
X33242Y-2222D02*X33433Y-2413D01*
X33242Y-1842D02*Y-2222D01*
Y-1842D02*X33433Y-1651D01*
X33814D01*
X34004Y-1842D01*
X33242Y-2032D02*X34004D01*
Y-1842D02*Y-2032D01*
X34652Y-1842D02*Y-2413D01*
Y-1842D02*X34842Y-1651D01*
X35033D01*
X35223Y-1842D01*
Y-2413D01*
X34461Y-1651D02*X34652Y-1842D01*
X35871Y-889D02*Y-2222D01*
X36062Y-2413D01*
X35681Y-1460D02*X36062D01*
X36633Y-2413D02*X37205D01*
X36443Y-2222D02*X36633Y-2413D01*
X36443Y-1842D02*Y-2222D01*
Y-1842D02*X36633Y-1651D01*
X37014D01*
X37205Y-1842D01*
X36443Y-2032D02*X37205D01*
Y-1842D02*Y-2032D01*
X37852Y-1842D02*Y-2413D01*
Y-1842D02*X38043Y-1651D01*
X38424D01*
X37662D02*X37852Y-1842D01*
X38881Y-889D02*Y-2222D01*
X39072Y-2413D01*
G54D127*X39453Y-1270D02*Y-1308D01*
G54D126*Y-1842D02*Y-2413D01*
X40024Y-1842D02*Y-2413D01*
Y-1842D02*X40215Y-1651D01*
X40405D01*
X40596Y-1842D01*
Y-2413D01*
X39834Y-1651D02*X40024Y-1842D01*
X41243Y-2413D02*X41815D01*
X41053Y-2222D02*X41243Y-2413D01*
X41053Y-1842D02*Y-2222D01*
Y-1842D02*X41243Y-1651D01*
X41624D01*
X41815Y-1842D01*
X41053Y-2032D02*X41815D01*
Y-1842D02*Y-2032D01*
X42958Y-1842D02*Y-2222D01*
Y-1842D02*X43148Y-1651D01*
X43529D01*
X43720Y-1842D01*
Y-2222D01*
X43529Y-2413D02*X43720Y-2222D01*
X43148Y-2413D02*X43529D01*
X42958Y-2222D02*X43148Y-2413D01*
X44367Y-1080D02*Y-2413D01*
Y-1080D02*X44558Y-889D01*
X44748D01*
X44177Y-1651D02*X44558D01*
X46006Y-889D02*Y-2222D01*
X46196Y-2413D01*
X45815Y-1460D02*X46196D01*
X46577Y-889D02*Y-2413D01*
Y-1842D02*X46768Y-1651D01*
X47149D01*
X47339Y-1842D01*
Y-2413D01*
G54D127*X47796Y-1270D02*Y-1308D01*
G54D126*Y-1842D02*Y-2413D01*
X48368D02*X48939D01*
X49130Y-2222D01*
X48939Y-2032D02*X49130Y-2222D01*
X48368Y-2032D02*X48939D01*
X48177Y-1842D02*X48368Y-2032D01*
X48177Y-1842D02*X48368Y-1651D01*
X48939D01*
X49130Y-1842D01*
X48177Y-2222D02*X48368Y-2413D01*
X50463Y-1842D02*Y-2984D01*
X50273Y-1651D02*X50463Y-1842D01*
X50654Y-1651D01*
X51035D01*
X51225Y-1842D01*
Y-2222D01*
X51035Y-2413D02*X51225Y-2222D01*
X50654Y-2413D02*X51035D01*
X50463Y-2222D02*X50654Y-2413D01*
X52254Y-1651D02*X52445Y-1842D01*
X51873Y-1651D02*X52254D01*
X51683Y-1842D02*X51873Y-1651D01*
X51683Y-1842D02*Y-2222D01*
X51873Y-2413D01*
X52445Y-1651D02*Y-2222D01*
X52635Y-2413D01*
X51873D02*X52254D01*
X52445Y-2222D01*
X53283Y-889D02*Y-2222D01*
X53473Y-2413D01*
X53092Y-1460D02*X53473D01*
X53854Y-889D02*Y-2413D01*
Y-1842D02*X54045Y-1651D01*
X54426D01*
X54616Y-1842D01*
Y-2413D01*
X50990Y65659D02*Y64135D01*
X51486Y65659D02*X51752Y65392D01*
Y64402D01*
X51486Y64135D02*X51752Y64402D01*
X50800Y64135D02*X51486D01*
X50800Y65659D02*X51486D01*
X52781Y64897D02*X52972Y64707D01*
X52400Y64897D02*X52781D01*
X52210Y64707D02*X52400Y64897D01*
X52210Y64707D02*Y64326D01*
X52400Y64135D01*
X52972Y64897D02*Y64326D01*
X53162Y64135D01*
X52400D02*X52781D01*
X52972Y64326D01*
X53810Y65659D02*Y64326D01*
X54000Y64135D01*
X53619Y65088D02*X54000D01*
X54572Y64135D02*X55143D01*
X54381Y64326D02*X54572Y64135D01*
X54381Y64707D02*Y64326D01*
Y64707D02*X54572Y64897D01*
X54953D01*
X55143Y64707D01*
X54381Y64516D02*X55143D01*
Y64707D02*Y64516D01*
X55601Y65088D02*X55791D01*
X55601Y64707D02*X55791D01*
X56934Y65659D02*Y64897D01*
X57125Y64135D01*
X57506Y64897D01*
X57887Y64135D01*
X58077Y64897D01*
Y65659D02*Y64897D01*
X58725Y64135D02*X59296D01*
X58534Y64326D02*X58725Y64135D01*
X58534Y64707D02*Y64326D01*
Y64707D02*X58725Y64897D01*
X59106D01*
X59296Y64707D01*
X58534Y64516D02*X59296D01*
Y64707D02*Y64516D01*
X60516Y65659D02*Y64135D01*
X60325D02*X60516Y64326D01*
X59944Y64135D02*X60325D01*
X59754Y64326D02*X59944Y64135D01*
X59754Y64707D02*Y64326D01*
Y64707D02*X59944Y64897D01*
X60325D01*
X60516Y64707D01*
X61659Y65278D02*Y64135D01*
Y65278D02*X61925Y65659D01*
X62344D01*
X62611Y65278D01*
Y64135D01*
X61659Y64897D02*X62611D01*
X63259Y64707D02*Y63564D01*
X63068Y64897D02*X63259Y64707D01*
X63449Y64897D01*
X63830D01*
X64021Y64707D01*
Y64326D01*
X63830Y64135D02*X64021Y64326D01*
X63449Y64135D02*X63830D01*
X63259Y64326D02*X63449Y64135D01*
X64668Y64707D02*Y64135D01*
Y64707D02*X64859Y64897D01*
X65240D01*
X64478D02*X64668Y64707D01*
X66383Y65469D02*X66573Y65659D01*
X67145D01*
X67335Y65469D01*
Y65088D01*
X66383Y64135D02*X67335Y65088D01*
X66383Y64135D02*X67335D01*
X68364Y65659D02*X68555Y65469D01*
X67983Y65659D02*X68364D01*
X67793Y65469D02*X67983Y65659D01*
X67793Y65469D02*Y64326D01*
X67983Y64135D01*
X68364Y64973D02*X68555Y64783D01*
X67793Y64973D02*X68364D01*
X67983Y64135D02*X68364D01*
X68555Y64326D01*
Y64783D02*Y64326D01*
X69698Y65469D02*X69888Y65659D01*
X70460D01*
X70650Y65469D01*
Y65088D01*
X69698Y64135D02*X70650Y65088D01*
X69698Y64135D02*X70650D01*
X71107Y64326D02*X71298Y64135D01*
X71107Y65469D02*Y64326D01*
Y65469D02*X71298Y65659D01*
X71679D01*
X71869Y65469D01*
Y64326D01*
X71679Y64135D02*X71869Y64326D01*
X71298Y64135D02*X71679D01*
X71107Y64516D02*X71869Y65278D01*
X72327Y65088D02*X72517D01*
X72327Y64707D02*X72517D01*
X72974Y65469D02*X73165Y65659D01*
X73736D01*
X73927Y65469D01*
Y65088D01*
X72974Y64135D02*X73927Y65088D01*
X72974Y64135D02*X73927D01*
X74574D02*X75146Y64897D01*
Y65469D02*Y64897D01*
X74955Y65659D02*X75146Y65469D01*
X74574Y65659D02*X74955D01*
X74384Y65469D02*X74574Y65659D01*
X74384Y65469D02*Y65088D01*
X74574Y64897D01*
X75146D01*
X75603Y65088D02*X75794D01*
X75603Y64707D02*X75794D01*
X76251D02*X77013Y65659D01*
X76251Y64707D02*X77203D01*
X77013Y65659D02*Y64135D01*
X77661Y64326D02*X77851Y64135D01*
X77661Y64630D02*Y64326D01*
Y64630D02*X77927Y64897D01*
X78156D01*
X78423Y64630D01*
Y64326D01*
X78232Y64135D02*X78423Y64326D01*
X77851Y64135D02*X78232D01*
X77661Y65164D02*X77927Y64897D01*
X77661Y65469D02*Y65164D01*
Y65469D02*X77851Y65659D01*
X78232D01*
X78423Y65469D01*
Y65164D01*
X78156Y64897D02*X78423Y65164D01*
X79566Y65469D02*X79756Y65659D01*
X80328D01*
X80518Y65469D01*
Y65088D01*
X79566Y64135D02*X80518Y65088D01*
X79566Y64135D02*X80518D01*
X80975Y64326D02*X81166Y64135D01*
X80975Y65469D02*Y64326D01*
Y65469D02*X81166Y65659D01*
X81547D01*
X81737Y65469D01*
Y64326D01*
X81547Y64135D02*X81737Y64326D01*
X81166Y64135D02*X81547D01*
X80975Y64516D02*X81737Y65278D01*
X82194Y65354D02*X82499Y65659D01*
Y64135D01*
X82194D02*X82766D01*
X83414D02*X84176Y65659D01*
X83223D02*X84176D01*
X85319D02*Y64326D01*
X85509Y64135D01*
X85890D01*
X86081Y64326D01*
Y65659D02*Y64326D01*
X86538Y65659D02*X87300D01*
X86919D02*Y64135D01*
X88024D02*X88519D01*
X87757Y64402D02*X88024Y64135D01*
X87757Y65392D02*Y64402D01*
Y65392D02*X88024Y65659D01*
X88519D01*
X50800Y69088D02*Y67945D01*
Y69088D02*X51067Y69469D01*
X51486D01*
X51752Y69088D01*
Y67945D01*
X50800Y68707D02*X51752D01*
X52210D02*Y68136D01*
X52400Y67945D01*
X52781D01*
X52972Y68136D01*
Y68707D02*Y68136D01*
X53619Y69469D02*Y68136D01*
X53810Y67945D01*
X53429Y68898D02*X53810D01*
X54191Y69469D02*Y67945D01*
Y68516D02*X54381Y68707D01*
X54762D01*
X54953Y68516D01*
Y67945D01*
X55410Y68516D02*Y68136D01*
Y68516D02*X55601Y68707D01*
X55982D01*
X56172Y68516D01*
Y68136D01*
X55982Y67945D02*X56172Y68136D01*
X55601Y67945D02*X55982D01*
X55410Y68136D02*X55601Y67945D01*
X56820Y68516D02*Y67945D01*
Y68516D02*X57010Y68707D01*
X57391D01*
X56629D02*X56820Y68516D01*
X57849Y68898D02*X58039D01*
X57849Y68516D02*X58039D01*
X59182Y69469D02*Y68707D01*
X59373Y67945D01*
X59754Y68707D01*
X60135Y67945D01*
X60325Y68707D01*
Y69469D02*Y68707D01*
X60782Y68516D02*Y68136D01*
Y68516D02*X60973Y68707D01*
X61354D01*
X61544Y68516D01*
Y68136D01*
X61354Y67945D02*X61544Y68136D01*
X60973Y67945D02*X61354D01*
X60782Y68136D02*X60973Y67945D01*
G54D127*X62192Y69088D02*Y69050D01*
G54D126*Y68516D02*Y67564D01*
X62001Y67374D02*X62192Y67564D01*
X62763Y68707D02*X63335D01*
X62573Y68516D02*X62763Y68707D01*
X62573Y68516D02*Y68136D01*
X62763Y67945D01*
X63335D01*
G54D127*X63792Y69088D02*Y69050D01*
G54D126*Y68516D02*Y67945D01*
X64364D02*X64935D01*
X64173Y68136D02*X64364Y67945D01*
X64173Y68516D02*Y68136D01*
Y68516D02*X64364Y68707D01*
X64745D01*
X64935Y68516D01*
X64173Y68326D02*X64935D01*
Y68516D02*Y68326D01*
X65583Y68707D02*X66154D01*
X65392Y68516D02*X65583Y68707D01*
X65392Y68516D02*Y68136D01*
X65583Y67945D01*
X66154D01*
X66612Y69469D02*Y67945D01*
Y68516D02*X66802Y68707D01*
X67183D01*
X67374Y68516D01*
Y67945D01*
X68517Y69469D02*Y67945D01*
Y68707D02*X69279Y69469D01*
X68517Y68707D02*X69279Y67945D01*
X69926Y68516D02*Y67945D01*
Y68516D02*X70117Y68707D01*
X70498D01*
X69736D02*X69926Y68516D01*
X70955Y68707D02*Y68136D01*
X71145Y67945D01*
X71526D01*
X71717Y68136D01*
Y68707D02*Y68136D01*
X72365Y69469D02*Y68136D01*
X72555Y67945D01*
X72174Y68898D02*X72555D01*
X73127Y68516D02*Y67945D01*
Y68516D02*X73317Y68707D01*
X73508D01*
X73698Y68516D01*
Y67945D01*
X72936Y68707D02*X73127Y68516D01*
G54D127*X74155Y69088D02*Y69050D01*
G54D126*Y68516D02*Y67945D01*
X74536Y69469D02*Y67945D01*
Y68516D02*X75108Y67945D01*
X74536Y68516D02*X74917Y68898D01*
X50800Y73279D02*X51562D01*
X51181D02*Y71755D01*
G54D127*X52019Y72898D02*Y72860D01*
G54D126*Y72326D02*Y71755D01*
X52591Y73279D02*Y71946D01*
X52781Y71755D01*
X52400Y72708D02*X52781D01*
X53162Y73279D02*Y71946D01*
X53353Y71755D01*
X53924D02*X54496D01*
X53734Y71946D02*X53924Y71755D01*
X53734Y72326D02*Y71946D01*
Y72326D02*X53924Y72517D01*
X54305D01*
X54496Y72326D01*
X53734Y72136D02*X54496D01*
Y72326D02*Y72136D01*
X54953Y72708D02*X55143D01*
X54953Y72326D02*X55143D01*
X56286Y73279D02*Y71755D01*
Y73279D02*X56858Y72517D01*
X57429Y73279D01*
Y71755D01*
X57887Y73279D02*Y71755D01*
Y73279D02*X58458Y72517D01*
X59030Y73279D01*
Y71755D01*
X59677Y73279D02*Y71755D01*
X60173Y73279D02*X60439Y73012D01*
Y72022D01*
X60173Y71755D02*X60439Y72022D01*
X59487Y71755D02*X60173D01*
X59487Y73279D02*X60173D01*
X60897D02*X61278Y71755D01*
X61659Y73279D01*
X62116D02*Y71755D01*
Y73279D02*X62687Y72517D01*
X63259Y73279D01*
Y71755D01*
X63716D02*X64478D01*
X65126Y72326D02*Y71184D01*
X64935Y72517D02*X65126Y72326D01*
X65316Y72517D01*
X65697D01*
X65888Y72326D01*
Y71946D01*
X65697Y71755D02*X65888Y71946D01*
X65316Y71755D02*X65697D01*
X65126Y71946D02*X65316Y71755D01*
X66345Y72326D02*Y71946D01*
Y72326D02*X66535Y72517D01*
X66916D01*
X67107Y72326D01*
Y71946D01*
X66916Y71755D02*X67107Y71946D01*
X66535Y71755D02*X66916D01*
X66345Y71946D02*X66535Y71755D01*
X68136Y72517D02*X68326Y72326D01*
X67755Y72517D02*X68136D01*
X67564Y72326D02*X67755Y72517D01*
X67564Y72326D02*Y71946D01*
X67755Y71755D01*
X68136D01*
X68326Y71946D01*
X67564Y71374D02*X67755Y71184D01*
X68136D01*
X68326Y71374D01*
Y72517D02*Y71374D01*
X69469Y72517D02*X70231D01*
X71374Y73279D02*Y71755D01*
Y73279D02*X72136D01*
X71374Y72593D02*X71946D01*
X73165Y72517D02*X73355Y72326D01*
X72784Y72517D02*X73165D01*
X72593Y72326D02*X72784Y72517D01*
X72593Y72326D02*Y71946D01*
X72784Y71755D01*
X73355Y72517D02*Y71946D01*
X73546Y71755D01*
X72784D02*X73165D01*
X73355Y71946D01*
X74003Y73279D02*Y71755D01*
Y71946D02*X74193Y71755D01*
X74574D01*
X74765Y71946D01*
Y72326D02*Y71946D01*
X74574Y72517D02*X74765Y72326D01*
X74193Y72517D02*X74574D01*
X74003Y72326D02*X74193Y72517D01*
X75413Y72326D02*Y71755D01*
Y72326D02*X75603Y72517D01*
X75984D01*
X75222D02*X75413Y72326D01*
G54D127*X76441Y72898D02*Y72860D01*
G54D126*Y72326D02*Y71755D01*
X77013Y72517D02*X77584D01*
X76822Y72326D02*X77013Y72517D01*
X76822Y72326D02*Y71946D01*
X77013Y71755D01*
X77584D01*
X78613Y72517D02*X78804Y72326D01*
X78232Y72517D02*X78613D01*
X78042Y72326D02*X78232Y72517D01*
X78042Y72326D02*Y71946D01*
X78232Y71755D01*
X78804Y72517D02*Y71946D01*
X78994Y71755D01*
X78232D02*X78613D01*
X78804Y71946D01*
X79642Y73279D02*Y71946D01*
X79832Y71755D01*
X79451Y72708D02*X79832D01*
G54D127*X80213Y72898D02*Y72860D01*
G54D126*Y72326D02*Y71755D01*
X80594Y72326D02*Y71946D01*
Y72326D02*X80785Y72517D01*
X81166D01*
X81356Y72326D01*
Y71946D01*
X81166Y71755D02*X81356Y71946D01*
X80785Y71755D02*X81166D01*
X80594Y71946D02*X80785Y71755D01*
X82004Y72326D02*Y71755D01*
Y72326D02*X82194Y72517D01*
X82385D01*
X82575Y72326D01*
Y71755D01*
X81813Y72517D02*X82004Y72326D01*
X83909Y73279D02*Y71755D01*
X84404Y73279D02*X84671Y73012D01*
Y72022D01*
X84404Y71755D02*X84671Y72022D01*
X83718Y71755D02*X84404D01*
X83718Y73279D02*X84404D01*
X85319Y72326D02*Y71755D01*
Y72326D02*X85509Y72517D01*
X85890D01*
X85128D02*X85319Y72326D01*
X86919Y72517D02*X87109Y72326D01*
X86538Y72517D02*X86919D01*
X86347Y72326D02*X86538Y72517D01*
X86347Y72326D02*Y71946D01*
X86538Y71755D01*
X87109Y72517D02*Y71946D01*
X87300Y71755D01*
X86538D02*X86919D01*
X87109Y71946D01*
X87757Y72517D02*Y71946D01*
X87948Y71755D01*
X88138D01*
X88329Y71946D01*
Y72517D02*Y71946D01*
X88519Y71755D01*
X88710D01*
X88900Y71946D01*
Y72517D02*Y71946D01*
G54D127*X89357Y72898D02*Y72860D01*
G54D126*Y72326D02*Y71755D01*
X89929Y72326D02*Y71755D01*
Y72326D02*X90119Y72517D01*
X90310D01*
X90500Y72326D01*
Y71755D01*
X89738Y72517D02*X89929Y72326D01*
X91529Y72517D02*X91719Y72326D01*
X91148Y72517D02*X91529D01*
X90957Y72326D02*X91148Y72517D01*
X90957Y72326D02*Y71946D01*
X91148Y71755D01*
X91529D01*
X91719Y71946D01*
X90957Y71374D02*X91148Y71184D01*
X91529D01*
X91719Y71374D01*
Y72517D02*Y71374D01*
M02*
