M48
METRIC,000.000
T91C0.800
T90C0.300
T89C0.500
T88C2.300
T87C0.900
T86C1.000
%
T90
X008583Y037371
X012139Y031529
X012139Y014511
X012266Y008542
X012393Y029497
X012393Y028227
X012520Y025941
X012520Y023401
X012647Y033307
X016584Y020480
X017219Y039403
X021283Y011844
X021410Y005875
X023569Y034958
X024458Y030640
X025220Y031529
X025855Y007272
X026236Y027719
X026998Y037117
X027633Y027465
X028014Y022766
X028522Y032291
X028649Y031148
X029411Y046515
X029538Y033180
X029792Y037117
X030681Y039022
X030935Y034704
X031189Y041435
X031697Y038514
X032205Y041943
X032332Y028862
X033475Y036736
X035380Y024163
X037412Y037752
X038555Y016670
X039444Y036355
X041730Y018956
X044905Y031529
X044905Y014892
X045032Y023655
X045921Y034196
X047191Y047531
X047191Y034196
X051636Y031529
X052398Y019591
X053922Y027846
X054049Y026576
X055827Y025433
X055827Y018067
X056335Y031783
X057224Y019210
T89
X018108Y048547
X018108Y043467
X018108Y037752
X018870Y022004
X028014Y017813
X029538Y048547
X030427Y012987
X033475Y048674
X033475Y030259
X033475Y026068
X034364Y031148
X034364Y026957
X037793Y032291
X037793Y031021
X038047Y026068
X039190Y026068
X040587Y023401
X044143Y020099
X044905Y029243
X046810Y041435
X047318Y025814
T91
X041730Y034577
X046429Y039784
T87
X050366Y042578
X050366Y040078
X052366Y042578
X052366Y040078
T86
X007948Y042832
X007948Y033688
X007948Y031148
X007948Y028608
X007948Y026068
X007948Y023528
X008964Y054262
X008964Y051722
X010448Y040332
X010488Y033688
X010488Y031148
X010488Y028608
X010488Y026068
X010488Y023528
X011504Y054262
X011504Y051722
X012948Y042832
X014044Y054262
X014044Y051722
X014378Y007780
X016584Y054262
X016584Y051722
X016878Y010280
X019124Y054262
X019124Y051722
X019378Y007780
X021664Y054262
X021664Y051722
X021918Y032926
X021918Y027846
X021918Y025306
X021918Y022766
X024204Y054262
X024204Y051722
X024458Y032926
X024458Y025306
X024458Y022766
X026744Y054262
X026744Y051722
X029284Y054262
X029284Y051722
X031824Y054262
X031824Y051722
X034364Y054262
X034364Y051722
X035888Y009304
X036904Y054262
X036904Y051722
X038428Y009304
X039444Y054262
X039444Y051722
X040968Y009304
X041984Y054262
X041984Y051722
X043508Y009304
X044524Y054262
X044524Y051722
X046048Y009304
X047064Y054262
X047064Y051722
X048588Y009304
X049604Y054262
X049604Y051722
X051128Y009304
X052144Y054262
X052144Y051722
X053668Y009304
X054684Y054262
X054684Y051722
X056208Y009304
X057224Y054262
X057224Y051722
X058748Y009304
T88
X055066Y047328
X055066Y035328
M30
