G04 This is an RS-274x file exported by *
G04 gerbv version 2.6.1 *
G04 More information is available about gerbv at *
G04 http://gerbv.geda-project.org/ *
G04 --End of header info--*
%MOIN*%
%FSLAX34Y34*%
%IPPOS*%
G04 --Define apertures--*
%ADD10C,0.0001*%
%ADD11C,0.0700*%
%ADD12C,0.0709*%
%ADD13C,0.0689*%
%ADD14C,0.1417*%
%ADD15C,0.0433*%
%ADD16C,0.0354*%
%ADD17C,0.0591*%
%ADD18C,0.1083*%
%ADD19C,0.0197*%
%ADD20C,0.0118*%
%ADD21C,0.0315*%
%ADD22C,0.0394*%
%ADD23C,0.0906*%
%ADD24C,0.0760*%
%ADD25C,0.0787*%
%ADD26C,0.0768*%
%ADD27C,0.1496*%
%ADD28C,0.2441*%
%ADD29C,0.0780*%
%ADD30C,0.0867*%
G04 --Start main section--*
G54D10*
G36*
G01X0006763Y0001644D02*
G01X0006989Y0001644D01*
G01X0007019Y0001644D01*
G01X0007234Y0001576D01*
G01X0007247Y0001564D01*
G01X0007210Y0001639D01*
G01X0007505Y0001639D01*
G01X0007826Y0000981D01*
G01X0007876Y0000981D01*
G01X0008191Y0001635D01*
G01X0008485Y0001635D01*
G01X0008055Y0000768D01*
G01X0007641Y0000768D01*
G01X0007337Y0001382D01*
G01X0007339Y0001366D01*
G01X0007346Y0001187D01*
G01X0007346Y0001169D01*
G01X0007344Y0001131D01*
G01X0007335Y0001014D01*
G01X0007300Y0000890D01*
G01X0007213Y0000805D01*
G01X0007087Y0000768D01*
G01X0007044Y0000766D01*
G01X0006763Y0000765D01*
G01X0006763Y0000984D01*
G01X0006954Y0000985D01*
G01X0007015Y0001012D01*
G01X0007059Y0001042D01*
G01X0007079Y0001155D01*
G01X0007080Y0001188D01*
G01X0007080Y0001215D01*
G01X0007063Y0001350D01*
G01X0007007Y0001396D01*
G01X0006947Y0001419D01*
G01X0006763Y0001419D01*
G01X0006763Y0001644D01*
G37*
G36*
G01X0006180Y0001644D02*
G01X0006763Y0001644D01*
G01X0006763Y0001419D01*
G01X0006446Y0001419D01*
G01X0006446Y0000983D01*
G01X0006763Y0000984D01*
G01X0006763Y0000765D01*
G01X0006180Y0000763D01*
G01X0006180Y0001644D01*
G37*
G36*
G01X0002640Y0000653D02*
G01X0009958Y0000653D01*
G01X0009958Y0000439D01*
G01X0002550Y0000441D01*
G01X0002640Y0000653D01*
G37*
G01X0000000Y0000000D02*
G36*
G01X0013749Y0004043D02*
G01X0013749Y0003283D01*
G01X0014509Y0003283D01*
G01X0014509Y0004043D01*
G01X0013749Y0004043D01*
G37*
G54D24*
G01X0015129Y0003663D03*
G54D25*
G01X0006645Y0004047D03*
G54D10*
G36*
G01X0007235Y0003457D02*
G01X0007235Y0002669D01*
G01X0008023Y0002669D01*
G01X0008023Y0003457D01*
G01X0007235Y0003457D01*
G37*
G54D25*
G01X0005661Y0003063D03*
G54D24*
G01X0016129Y0003663D03*
G01X0017129Y0003663D03*
G01X0018129Y0003663D03*
G01X0019129Y0003663D03*
G01X0020129Y0003663D03*
G01X0021129Y0003663D03*
G01X0022129Y0003663D03*
G01X0023129Y0003663D03*
G54D10*
G36*
G01X0002749Y0013643D02*
G01X0002749Y0012883D01*
G01X0003509Y0012883D01*
G01X0003509Y0013643D01*
G01X0002749Y0013643D01*
G37*
G54D24*
G01X0004129Y0013263D03*
G01X0003129Y0012263D03*
G01X0004129Y0012263D03*
G01X0003129Y0011263D03*
G01X0003129Y0010263D03*
G01X0003129Y0009263D03*
G01X0004129Y0011263D03*
G01X0004129Y0010263D03*
G01X0004129Y0009263D03*
G54D25*
G01X0004113Y0015879D03*
G54D10*
G36*
G01X0002735Y0017257D02*
G01X0002735Y0016469D01*
G01X0003523Y0016469D01*
G01X0003523Y0017257D01*
G01X0002735Y0017257D01*
G37*
G54D25*
G01X0005098Y0016863D03*
G54D10*
G36*
G01X0009249Y0009343D02*
G01X0009249Y0008583D01*
G01X0010009Y0008583D01*
G01X0010009Y0009343D01*
G01X0009249Y0009343D01*
G37*
G54D24*
G01X0008629Y0008963D03*
G01X0009629Y0009963D03*
G01X0008629Y0009963D03*
G01X0008629Y0010963D03*
G54D10*
G36*
G01X0008249Y0013343D02*
G01X0008249Y0012583D01*
G01X0009009Y0012583D01*
G01X0009009Y0013343D01*
G01X0008249Y0013343D01*
G37*
G54D24*
G01X0009629Y0012963D03*
G54D10*
G36*
G01X0019445Y0017147D02*
G01X0019445Y0016379D01*
G01X0020213Y0016379D01*
G01X0020213Y0017147D01*
G01X0019445Y0017147D01*
G37*
G54D26*
G01X0019829Y0015779D03*
G01X0020617Y0015779D03*
G54D27*
G01X0021680Y0013909D03*
G54D26*
G01X0020617Y0016763D03*
G54D27*
G01X0021680Y0018633D03*
G54D10*
G36*
G01X0003149Y0020743D02*
G01X0003149Y0019983D01*
G01X0003909Y0019983D01*
G01X0003909Y0020743D01*
G01X0003149Y0020743D01*
G37*
G54D24*
G01X0003529Y0021363D03*
G01X0004529Y0020363D03*
G01X0004529Y0021363D03*
G01X0005529Y0020363D03*
G01X0005529Y0021363D03*
G01X0006529Y0020363D03*
G01X0006529Y0021363D03*
G01X0007529Y0020363D03*
G01X0007529Y0021363D03*
G01X0008529Y0020363D03*
G01X0009529Y0020363D03*
G01X0010529Y0020363D03*
G01X0008529Y0021363D03*
G01X0009529Y0021363D03*
G01X0010529Y0021363D03*
G01X0011529Y0021363D03*
G01X0012529Y0021363D03*
G01X0013529Y0021363D03*
G01X0011529Y0020363D03*
G01X0012529Y0020363D03*
G01X0013529Y0020363D03*
G01X0014529Y0020363D03*
G01X0014529Y0021363D03*
G01X0015529Y0020363D03*
G01X0016529Y0020363D03*
G01X0017529Y0020363D03*
G01X0015529Y0021363D03*
G01X0016529Y0021363D03*
G01X0017529Y0021363D03*
G01X0018529Y0021363D03*
G01X0019529Y0021363D03*
G01X0020529Y0021363D03*
G01X0018529Y0020363D03*
G01X0019529Y0020363D03*
G01X0020529Y0020363D03*
G01X0021529Y0020363D03*
G01X0021529Y0021363D03*
G01X0022529Y0021363D03*
G01X0022529Y0020363D03*
G54D28*
G01X0024446Y0001572D03*
G01X0024446Y0020863D03*
G01X0001612Y0001572D03*
G01X0001612Y0020863D03*
G54D10*
G36*
G01X0007663Y0008290D02*
G01X0007307Y0008290D01*
G01X0007307Y0007836D01*
G01X0007663Y0007836D01*
G01X0007663Y0008290D01*
G37*
G54D29*
G01X0009329Y0007663D03*
G54D10*
G36*
G01X0007151Y0008290D02*
G01X0006796Y0008290D01*
G01X0006796Y0007836D01*
G01X0007151Y0007836D01*
G01X0007151Y0008290D01*
G37*
G54D29*
G01X0005629Y0008163D03*
G54D10*
G36*
G01X0005129Y0007363D02*
G01X0005129Y0007063D01*
G01X0006079Y0007063D01*
G01X0006079Y0007363D01*
G01X0005129Y0007363D01*
G37*
G36*
G01X0003404Y0008018D02*
G01X0002854Y0008018D01*
G01X0002854Y0007108D01*
G01X0003404Y0007108D01*
G01X0003404Y0008018D01*
G37*
G36*
G01X0004404Y0008018D02*
G01X0003854Y0008018D01*
G01X0003854Y0007108D01*
G01X0004404Y0007108D01*
G01X0004404Y0008018D01*
G37*
G36*
G01X0005129Y0006863D02*
G01X0005129Y0006563D01*
G01X0006079Y0006563D01*
G01X0006079Y0006863D01*
G01X0005129Y0006863D01*
G37*
G36*
G01X0005129Y0006363D02*
G01X0005129Y0006063D01*
G01X0006079Y0006063D01*
G01X0006079Y0006363D01*
G01X0005129Y0006363D01*
G37*
G36*
G01X0005129Y0005863D02*
G01X0005129Y0005563D01*
G01X0006079Y0005563D01*
G01X0006079Y0005863D01*
G01X0005129Y0005863D01*
G37*
G36*
G01X0007179Y0005863D02*
G01X0007179Y0005563D01*
G01X0008129Y0005563D01*
G01X0008129Y0005863D01*
G01X0007179Y0005863D01*
G37*
G36*
G01X0007179Y0006363D02*
G01X0007179Y0006063D01*
G01X0008129Y0006063D01*
G01X0008129Y0006363D01*
G01X0007179Y0006363D01*
G37*
G36*
G01X0007179Y0006863D02*
G01X0007179Y0006563D01*
G01X0008129Y0006563D01*
G01X0008129Y0006863D01*
G01X0007179Y0006863D01*
G37*
G36*
G01X0007179Y0007363D02*
G01X0007179Y0007063D01*
G01X0008129Y0007063D01*
G01X0008129Y0007363D01*
G01X0007179Y0007363D01*
G37*
G36*
G01X0003561Y0005888D02*
G01X0002989Y0005888D01*
G01X0002989Y0005238D01*
G01X0003561Y0005238D01*
G01X0003561Y0005888D01*
G37*
G36*
G01X0004269Y0005888D02*
G01X0003698Y0005888D01*
G01X0003698Y0005238D01*
G01X0004269Y0005238D01*
G01X0004269Y0005888D01*
G37*
G36*
G01X0004269Y0004988D02*
G01X0003698Y0004988D01*
G01X0003698Y0004338D01*
G01X0004269Y0004338D01*
G01X0004269Y0004988D01*
G37*
G36*
G01X0003561Y0004988D02*
G01X0002989Y0004988D01*
G01X0002989Y0004338D01*
G01X0003561Y0004338D01*
G01X0003561Y0004988D01*
G37*
G36*
G01X0004269Y0006788D02*
G01X0003698Y0006788D01*
G01X0003698Y0006138D01*
G01X0004269Y0006138D01*
G01X0004269Y0006788D01*
G37*
G36*
G01X0003561Y0006788D02*
G01X0002989Y0006788D01*
G01X0002989Y0006138D01*
G01X0003561Y0006138D01*
G01X0003561Y0006788D01*
G37*
G36*
G01X0004269Y0004088D02*
G01X0003698Y0004088D01*
G01X0003698Y0003438D01*
G01X0004269Y0003438D01*
G01X0004269Y0004088D01*
G37*
G36*
G01X0004604Y0003118D02*
G01X0004054Y0003118D01*
G01X0004054Y0002208D01*
G01X0004604Y0002208D01*
G01X0004604Y0003118D01*
G37*
G36*
G01X0003561Y0004088D02*
G01X0002989Y0004088D01*
G01X0002989Y0003438D01*
G01X0003561Y0003438D01*
G01X0003561Y0004088D01*
G37*
G36*
G01X0003604Y0003118D02*
G01X0003054Y0003118D01*
G01X0003054Y0002208D01*
G01X0003604Y0002208D01*
G01X0003604Y0003118D01*
G37*
G36*
G01X0010063Y0011190D02*
G01X0009707Y0011190D01*
G01X0009707Y0010736D01*
G01X0010063Y0010736D01*
G01X0010063Y0011190D01*
G37*
G36*
G01X0009551Y0011190D02*
G01X0009196Y0011190D01*
G01X0009196Y0010736D01*
G01X0009551Y0010736D01*
G01X0009551Y0011190D01*
G37*
G36*
G01X0011546Y0011038D02*
G01X0011546Y0010898D01*
G01X0012026Y0010898D01*
G01X0012026Y0011038D01*
G01X0011546Y0011038D01*
G37*
G36*
G01X0011546Y0010841D02*
G01X0011546Y0010701D01*
G01X0012026Y0010701D01*
G01X0012026Y0010841D01*
G01X0011546Y0010841D01*
G37*
G36*
G01X0011546Y0010644D02*
G01X0011546Y0010504D01*
G01X0012026Y0010504D01*
G01X0012026Y0010644D01*
G01X0011546Y0010644D01*
G37*
G36*
G01X0011546Y0010447D02*
G01X0011546Y0010307D01*
G01X0012026Y0010307D01*
G01X0012026Y0010447D01*
G01X0011546Y0010447D01*
G37*
G36*
G01X0011546Y0010250D02*
G01X0011546Y0010110D01*
G01X0012026Y0010110D01*
G01X0012026Y0010250D01*
G01X0011546Y0010250D01*
G37*
G36*
G01X0011546Y0010054D02*
G01X0011546Y0009913D01*
G01X0012026Y0009913D01*
G01X0012026Y0010054D01*
G01X0011546Y0010054D01*
G37*
G36*
G01X0011546Y0009857D02*
G01X0011546Y0009717D01*
G01X0012026Y0009717D01*
G01X0012026Y0009857D01*
G01X0011546Y0009857D01*
G37*
G36*
G01X0010602Y0010296D02*
G01X0010602Y0009941D01*
G01X0011056Y0009941D01*
G01X0011056Y0010296D01*
G01X0010602Y0010296D01*
G37*
G36*
G01X0010602Y0009785D02*
G01X0010602Y0009430D01*
G01X0011056Y0009430D01*
G01X0011056Y0009785D01*
G01X0010602Y0009785D01*
G37*
G54D29*
G01X0011929Y0008463D03*
G54D10*
G36*
G01X0011787Y0007821D02*
G01X0011472Y0007821D01*
G01X0011472Y0007309D01*
G01X0011787Y0007309D01*
G01X0011787Y0007821D01*
G37*
G36*
G01X0012535Y0007821D02*
G01X0012220Y0007821D01*
G01X0012220Y0007309D01*
G01X0012535Y0007309D01*
G01X0012535Y0007821D01*
G37*
G36*
G01X0010702Y0007785D02*
G01X0010702Y0007430D01*
G01X0011156Y0007430D01*
G01X0011156Y0007785D01*
G01X0010702Y0007785D01*
G37*
G36*
G01X0010702Y0008296D02*
G01X0010702Y0007941D01*
G01X0011156Y0007941D01*
G01X0011156Y0008296D01*
G01X0010702Y0008296D01*
G37*
G36*
G01X0012623Y0009259D02*
G01X0012483Y0009259D01*
G01X0012483Y0008780D01*
G01X0012623Y0008780D01*
G01X0012623Y0009259D01*
G37*
G36*
G01X0012820Y0009259D02*
G01X0012680Y0009259D01*
G01X0012680Y0008780D01*
G01X0012820Y0008780D01*
G01X0012820Y0009259D01*
G37*
G36*
G01X0011787Y0006719D02*
G01X0011472Y0006719D01*
G01X0011472Y0006207D01*
G01X0011787Y0006207D01*
G01X0011787Y0006719D01*
G37*
G36*
G01X0012161Y0006719D02*
G01X0011846Y0006719D01*
G01X0011846Y0006207D01*
G01X0012161Y0006207D01*
G01X0012161Y0006719D01*
G37*
G36*
G01X0012535Y0006719D02*
G01X0012220Y0006719D01*
G01X0012220Y0006207D01*
G01X0012535Y0006207D01*
G01X0012535Y0006719D01*
G37*
G36*
G01X0009969Y0006988D02*
G01X0009398Y0006988D01*
G01X0009398Y0006338D01*
G01X0009969Y0006338D01*
G01X0009969Y0006988D01*
G37*
G36*
G01X0009969Y0006088D02*
G01X0009398Y0006088D01*
G01X0009398Y0005438D01*
G01X0009969Y0005438D01*
G01X0009969Y0006088D01*
G37*
G36*
G01X0009969Y0004288D02*
G01X0009398Y0004288D01*
G01X0009398Y0003638D01*
G01X0009969Y0003638D01*
G01X0009969Y0004288D01*
G37*
G36*
G01X0009969Y0002688D02*
G01X0009398Y0002688D01*
G01X0009398Y0002038D01*
G01X0009969Y0002038D01*
G01X0009969Y0002688D01*
G37*
G36*
G01X0009969Y0003488D02*
G01X0009398Y0003488D01*
G01X0009398Y0002838D01*
G01X0009969Y0002838D01*
G01X0009969Y0003488D01*
G37*
G36*
G01X0009969Y0005188D02*
G01X0009398Y0005188D01*
G01X0009398Y0004538D01*
G01X0009969Y0004538D01*
G01X0009969Y0005188D01*
G37*
G36*
G01X0009261Y0006988D02*
G01X0008689Y0006988D01*
G01X0008689Y0006338D01*
G01X0009261Y0006338D01*
G01X0009261Y0006988D01*
G37*
G36*
G01X0009261Y0006088D02*
G01X0008689Y0006088D01*
G01X0008689Y0005438D01*
G01X0009261Y0005438D01*
G01X0009261Y0006088D01*
G37*
G36*
G01X0009261Y0004288D02*
G01X0008689Y0004288D01*
G01X0008689Y0003638D01*
G01X0009261Y0003638D01*
G01X0009261Y0004288D01*
G37*
G36*
G01X0009261Y0002688D02*
G01X0008689Y0002688D01*
G01X0008689Y0002038D01*
G01X0009261Y0002038D01*
G01X0009261Y0002688D01*
G37*
G36*
G01X0009261Y0003488D02*
G01X0008689Y0003488D01*
G01X0008689Y0002838D01*
G01X0009261Y0002838D01*
G01X0009261Y0003488D01*
G37*
G36*
G01X0009261Y0005188D02*
G01X0008689Y0005188D01*
G01X0008689Y0004538D01*
G01X0009261Y0004538D01*
G01X0009261Y0005188D01*
G37*
G36*
G01X0006474Y0009738D02*
G01X0006474Y0009188D01*
G01X0007384Y0009188D01*
G01X0007384Y0009738D01*
G01X0006474Y0009738D01*
G37*
G36*
G01X0006474Y0010738D02*
G01X0006474Y0010188D01*
G01X0007384Y0010188D01*
G01X0007384Y0010738D01*
G01X0006474Y0010738D01*
G37*
G36*
G01X0007439Y0011773D02*
G01X0007039Y0011773D01*
G01X0007039Y0011313D01*
G01X0007439Y0011313D01*
G01X0007439Y0011773D01*
G37*
G36*
G01X0005963Y0009290D02*
G01X0005607Y0009290D01*
G01X0005607Y0008836D01*
G01X0005963Y0008836D01*
G01X0005963Y0009290D01*
G37*
G36*
G01X0005451Y0009290D02*
G01X0005096Y0009290D01*
G01X0005096Y0008836D01*
G01X0005451Y0008836D01*
G01X0005451Y0009290D01*
G37*
G36*
G01X0005451Y0009890D02*
G01X0005096Y0009890D01*
G01X0005096Y0009436D01*
G01X0005451Y0009436D01*
G01X0005451Y0009890D01*
G37*
G36*
G01X0005963Y0009890D02*
G01X0005607Y0009890D01*
G01X0005607Y0009436D01*
G01X0005963Y0009436D01*
G01X0005963Y0009890D01*
G37*
G36*
G01X0005451Y0011090D02*
G01X0005096Y0011090D01*
G01X0005096Y0010636D01*
G01X0005451Y0010636D01*
G01X0005451Y0011090D01*
G37*
G36*
G01X0005963Y0010490D02*
G01X0005607Y0010490D01*
G01X0005607Y0010036D01*
G01X0005963Y0010036D01*
G01X0005963Y0010490D01*
G37*
G36*
G01X0005451Y0010490D02*
G01X0005096Y0010490D01*
G01X0005096Y0010036D01*
G01X0005451Y0010036D01*
G01X0005451Y0010490D01*
G37*
G36*
G01X0005963Y0011090D02*
G01X0005607Y0011090D01*
G01X0005607Y0010636D01*
G01X0005963Y0010636D01*
G01X0005963Y0011090D01*
G37*
G36*
G01X0005839Y0011773D02*
G01X0005439Y0011773D01*
G01X0005439Y0011313D01*
G01X0005839Y0011313D01*
G01X0005839Y0011773D01*
G37*
G36*
G01X0008904Y0018603D02*
G01X0008904Y0018031D01*
G01X0009554Y0018031D01*
G01X0009554Y0018603D01*
G01X0008904Y0018603D01*
G37*
G36*
G01X0008904Y0017894D02*
G01X0008904Y0017323D01*
G01X0009554Y0017323D01*
G01X0009554Y0017894D01*
G01X0008904Y0017894D01*
G37*
G36*
G01X0008004Y0018603D02*
G01X0008004Y0018031D01*
G01X0008654Y0018031D01*
G01X0008654Y0018603D01*
G01X0008004Y0018603D01*
G37*
G36*
G01X0008004Y0017894D02*
G01X0008004Y0017323D01*
G01X0008654Y0017323D01*
G01X0008654Y0017894D01*
G01X0008004Y0017894D01*
G37*
G36*
G01X0009804Y0016294D02*
G01X0009804Y0015723D01*
G01X0010454Y0015723D01*
G01X0010454Y0016294D01*
G01X0009804Y0016294D01*
G37*
G36*
G01X0009804Y0017003D02*
G01X0009804Y0016431D01*
G01X0010454Y0016431D01*
G01X0010454Y0017003D01*
G01X0009804Y0017003D01*
G37*
G36*
G01X0009804Y0018603D02*
G01X0009804Y0018031D01*
G01X0010454Y0018031D01*
G01X0010454Y0018603D01*
G01X0009804Y0018603D01*
G37*
G36*
G01X0009804Y0017894D02*
G01X0009804Y0017323D01*
G01X0010454Y0017323D01*
G01X0010454Y0017894D01*
G01X0009804Y0017894D01*
G37*
G36*
G01X0010704Y0018603D02*
G01X0010704Y0018031D01*
G01X0011354Y0018031D01*
G01X0011354Y0018603D01*
G01X0010704Y0018603D01*
G37*
G36*
G01X0010704Y0017894D02*
G01X0010704Y0017323D01*
G01X0011354Y0017323D01*
G01X0011354Y0017894D01*
G01X0010704Y0017894D01*
G37*
G36*
G01X0009329Y0017063D02*
G01X0009029Y0017063D01*
G01X0009029Y0016113D01*
G01X0009329Y0016113D01*
G01X0009329Y0017063D01*
G37*
G36*
G01X0008829Y0017063D02*
G01X0008529Y0017063D01*
G01X0008529Y0016113D01*
G01X0008829Y0016113D01*
G01X0008829Y0017063D01*
G37*
G36*
G01X0008329Y0017063D02*
G01X0008029Y0017063D01*
G01X0008029Y0016113D01*
G01X0008329Y0016113D01*
G01X0008329Y0017063D01*
G37*
G36*
G01X0007504Y0018418D02*
G01X0006954Y0018418D01*
G01X0006954Y0017508D01*
G01X0007504Y0017508D01*
G01X0007504Y0018418D01*
G37*
G36*
G01X0006504Y0018418D02*
G01X0005954Y0018418D01*
G01X0005954Y0017508D01*
G01X0006504Y0017508D01*
G01X0006504Y0018418D01*
G37*
G54D29*
G01X0004229Y0018613D03*
G54D10*
G36*
G01X0006702Y0016085D02*
G01X0006702Y0015730D01*
G01X0007156Y0015730D01*
G01X0007156Y0016085D01*
G01X0006702Y0016085D01*
G37*
G36*
G01X0006702Y0016596D02*
G01X0006702Y0016241D01*
G01X0007156Y0016241D01*
G01X0007156Y0016596D01*
G01X0006702Y0016596D01*
G37*
G36*
G01X0005804Y0016803D02*
G01X0005804Y0016231D01*
G01X0006454Y0016231D01*
G01X0006454Y0016803D01*
G01X0005804Y0016803D01*
G37*
G36*
G01X0005804Y0016094D02*
G01X0005804Y0015523D01*
G01X0006454Y0015523D01*
G01X0006454Y0016094D01*
G01X0005804Y0016094D01*
G37*
G36*
G01X0007829Y0015013D02*
G01X0007529Y0015013D01*
G01X0007529Y0014063D01*
G01X0007829Y0014063D01*
G01X0007829Y0015013D01*
G37*
G36*
G01X0007829Y0017063D02*
G01X0007529Y0017063D01*
G01X0007529Y0016113D01*
G01X0007829Y0016113D01*
G01X0007829Y0017063D01*
G37*
G36*
G01X0008329Y0015013D02*
G01X0008029Y0015013D01*
G01X0008029Y0014063D01*
G01X0008329Y0014063D01*
G01X0008329Y0015013D01*
G37*
G36*
G01X0008829Y0015013D02*
G01X0008529Y0015013D01*
G01X0008529Y0014063D01*
G01X0008829Y0014063D01*
G01X0008829Y0015013D01*
G37*
G36*
G01X0009329Y0015013D02*
G01X0009029Y0015013D01*
G01X0009029Y0014063D01*
G01X0009329Y0014063D01*
G01X0009329Y0015013D01*
G37*
G36*
G01X0010704Y0016294D02*
G01X0010704Y0015723D01*
G01X0011354Y0015723D01*
G01X0011354Y0016294D01*
G01X0010704Y0016294D01*
G37*
G36*
G01X0010704Y0017003D02*
G01X0010704Y0016431D01*
G01X0011354Y0016431D01*
G01X0011354Y0017003D01*
G01X0010704Y0017003D01*
G37*
G54D29*
G01X0010179Y0015113D03*
G54D10*
G36*
G01X0009902Y0014596D02*
G01X0009902Y0014241D01*
G01X0010356Y0014241D01*
G01X0010356Y0014596D01*
G01X0009902Y0014596D01*
G37*
G36*
G01X0009902Y0014085D02*
G01X0009902Y0013730D01*
G01X0010356Y0013730D01*
G01X0010356Y0014085D01*
G01X0009902Y0014085D01*
G37*
G36*
G01X0005451Y0013890D02*
G01X0005096Y0013890D01*
G01X0005096Y0013436D01*
G01X0005451Y0013436D01*
G01X0005451Y0013890D01*
G37*
G36*
G01X0003051Y0014490D02*
G01X0002696Y0014490D01*
G01X0002696Y0014036D01*
G01X0003051Y0014036D01*
G01X0003051Y0014490D01*
G37*
G36*
G01X0003563Y0014490D02*
G01X0003207Y0014490D01*
G01X0003207Y0014036D01*
G01X0003563Y0014036D01*
G01X0003563Y0014490D01*
G37*
G36*
G01X0005963Y0013890D02*
G01X0005607Y0013890D01*
G01X0005607Y0013436D01*
G01X0005963Y0013436D01*
G01X0005963Y0013890D01*
G37*
G36*
G01X0005963Y0013290D02*
G01X0005607Y0013290D01*
G01X0005607Y0012836D01*
G01X0005963Y0012836D01*
G01X0005963Y0013290D01*
G37*
G36*
G01X0005449Y0012593D02*
G01X0005049Y0012593D01*
G01X0005049Y0012133D01*
G01X0005449Y0012133D01*
G01X0005449Y0012593D01*
G37*
G36*
G01X0007829Y0012593D02*
G01X0007429Y0012593D01*
G01X0007429Y0012133D01*
G01X0007829Y0012133D01*
G01X0007829Y0012593D01*
G37*
G36*
G01X0007049Y0012593D02*
G01X0006649Y0012593D01*
G01X0006649Y0012133D01*
G01X0007049Y0012133D01*
G01X0007049Y0012593D01*
G37*
G36*
G01X0006229Y0012593D02*
G01X0005829Y0012593D01*
G01X0005829Y0012133D01*
G01X0006229Y0012133D01*
G01X0006229Y0012593D01*
G37*
G36*
G01X0005451Y0013290D02*
G01X0005096Y0013290D01*
G01X0005096Y0012836D01*
G01X0005451Y0012836D01*
G01X0005451Y0013290D01*
G37*
G36*
G01X0005963Y0014490D02*
G01X0005607Y0014490D01*
G01X0005607Y0014036D01*
G01X0005963Y0014036D01*
G01X0005963Y0014490D01*
G37*
G36*
G01X0005451Y0014490D02*
G01X0005096Y0014490D01*
G01X0005096Y0014036D01*
G01X0005451Y0014036D01*
G01X0005451Y0014490D01*
G37*
G36*
G01X0004763Y0014490D02*
G01X0004407Y0014490D01*
G01X0004407Y0014036D01*
G01X0004763Y0014036D01*
G01X0004763Y0014490D01*
G37*
G36*
G01X0004251Y0014490D02*
G01X0003896Y0014490D01*
G01X0003896Y0014036D01*
G01X0004251Y0014036D01*
G01X0004251Y0014490D01*
G37*
G36*
G01X0017804Y0002194D02*
G01X0017804Y0001623D01*
G01X0018454Y0001623D01*
G01X0018454Y0002194D01*
G01X0017804Y0002194D01*
G37*
G36*
G01X0018804Y0002194D02*
G01X0018804Y0001623D01*
G01X0019454Y0001623D01*
G01X0019454Y0002194D01*
G01X0018804Y0002194D01*
G37*
G36*
G01X0019804Y0002194D02*
G01X0019804Y0001623D01*
G01X0020454Y0001623D01*
G01X0020454Y0002194D01*
G01X0019804Y0002194D01*
G37*
G36*
G01X0020804Y0002194D02*
G01X0020804Y0001623D01*
G01X0021454Y0001623D01*
G01X0021454Y0002194D01*
G01X0020804Y0002194D01*
G37*
G36*
G01X0016804Y0002194D02*
G01X0016804Y0001623D01*
G01X0017454Y0001623D01*
G01X0017454Y0002194D01*
G01X0016804Y0002194D01*
G37*
G36*
G01X0021804Y0002194D02*
G01X0021804Y0001623D01*
G01X0022454Y0001623D01*
G01X0022454Y0002194D01*
G01X0021804Y0002194D01*
G37*
G36*
G01X0017804Y0002903D02*
G01X0017804Y0002331D01*
G01X0018454Y0002331D01*
G01X0018454Y0002903D01*
G01X0017804Y0002903D01*
G37*
G36*
G01X0018804Y0002903D02*
G01X0018804Y0002331D01*
G01X0019454Y0002331D01*
G01X0019454Y0002903D01*
G01X0018804Y0002903D01*
G37*
G36*
G01X0019804Y0002903D02*
G01X0019804Y0002331D01*
G01X0020454Y0002331D01*
G01X0020454Y0002903D01*
G01X0019804Y0002903D01*
G37*
G36*
G01X0020804Y0002903D02*
G01X0020804Y0002331D01*
G01X0021454Y0002331D01*
G01X0021454Y0002903D01*
G01X0020804Y0002903D01*
G37*
G36*
G01X0016804Y0002903D02*
G01X0016804Y0002331D01*
G01X0017454Y0002331D01*
G01X0017454Y0002903D01*
G01X0016804Y0002903D01*
G37*
G36*
G01X0021804Y0002903D02*
G01X0021804Y0002331D01*
G01X0022454Y0002331D01*
G01X0022454Y0002903D01*
G01X0021804Y0002903D01*
G37*
G36*
G01X0021804Y0004994D02*
G01X0021804Y0004423D01*
G01X0022454Y0004423D01*
G01X0022454Y0004994D01*
G01X0021804Y0004994D01*
G37*
G36*
G01X0020804Y0004994D02*
G01X0020804Y0004423D01*
G01X0021454Y0004423D01*
G01X0021454Y0004994D01*
G01X0020804Y0004994D01*
G37*
G36*
G01X0021804Y0005703D02*
G01X0021804Y0005131D01*
G01X0022454Y0005131D01*
G01X0022454Y0005703D01*
G01X0021804Y0005703D01*
G37*
G36*
G01X0020804Y0005703D02*
G01X0020804Y0005131D01*
G01X0021454Y0005131D01*
G01X0021454Y0005703D01*
G01X0020804Y0005703D01*
G37*
G36*
G01X0017804Y0004994D02*
G01X0017804Y0004423D01*
G01X0018454Y0004423D01*
G01X0018454Y0004994D01*
G01X0017804Y0004994D01*
G37*
G36*
G01X0018804Y0004994D02*
G01X0018804Y0004423D01*
G01X0019454Y0004423D01*
G01X0019454Y0004994D01*
G01X0018804Y0004994D01*
G37*
G36*
G01X0019804Y0004994D02*
G01X0019804Y0004423D01*
G01X0020454Y0004423D01*
G01X0020454Y0004994D01*
G01X0019804Y0004994D01*
G37*
G36*
G01X0016804Y0004994D02*
G01X0016804Y0004423D01*
G01X0017454Y0004423D01*
G01X0017454Y0004994D01*
G01X0016804Y0004994D01*
G37*
G36*
G01X0017804Y0005703D02*
G01X0017804Y0005131D01*
G01X0018454Y0005131D01*
G01X0018454Y0005703D01*
G01X0017804Y0005703D01*
G37*
G36*
G01X0018804Y0005703D02*
G01X0018804Y0005131D01*
G01X0019454Y0005131D01*
G01X0019454Y0005703D01*
G01X0018804Y0005703D01*
G37*
G36*
G01X0019804Y0005703D02*
G01X0019804Y0005131D01*
G01X0020454Y0005131D01*
G01X0020454Y0005703D01*
G01X0019804Y0005703D01*
G37*
G36*
G01X0016804Y0005703D02*
G01X0016804Y0005131D01*
G01X0017454Y0005131D01*
G01X0017454Y0005703D01*
G01X0016804Y0005703D01*
G37*
G36*
G01X0020651Y0008390D02*
G01X0020296Y0008390D01*
G01X0020296Y0007936D01*
G01X0020651Y0007936D01*
G01X0020651Y0008390D01*
G37*
G36*
G01X0021163Y0008390D02*
G01X0020807Y0008390D01*
G01X0020807Y0007936D01*
G01X0021163Y0007936D01*
G01X0021163Y0008390D01*
G37*
G36*
G01X0022969Y0008488D02*
G01X0022398Y0008488D01*
G01X0022398Y0007838D01*
G01X0022969Y0007838D01*
G01X0022969Y0008488D01*
G37*
G36*
G01X0022261Y0008488D02*
G01X0021689Y0008488D01*
G01X0021689Y0007838D01*
G01X0022261Y0007838D01*
G01X0022261Y0008488D01*
G37*
G36*
G01X0022259Y0009098D02*
G01X0022259Y0008878D01*
G01X0022999Y0008878D01*
G01X0022999Y0009098D01*
G01X0022259Y0009098D01*
G37*
G36*
G01X0016702Y0008085D02*
G01X0016702Y0007730D01*
G01X0017156Y0007730D01*
G01X0017156Y0008085D01*
G01X0016702Y0008085D01*
G37*
G36*
G01X0016702Y0008596D02*
G01X0016702Y0008241D01*
G01X0017156Y0008241D01*
G01X0017156Y0008596D01*
G01X0016702Y0008596D01*
G37*
G36*
G01X0017002Y0009996D02*
G01X0017002Y0009641D01*
G01X0017456Y0009641D01*
G01X0017456Y0009996D01*
G01X0017002Y0009996D01*
G37*
G36*
G01X0017002Y0010785D02*
G01X0017002Y0010430D01*
G01X0017456Y0010430D01*
G01X0017456Y0010785D01*
G01X0017002Y0010785D01*
G37*
G36*
G01X0017002Y0009485D02*
G01X0017002Y0009130D01*
G01X0017456Y0009130D01*
G01X0017456Y0009485D01*
G01X0017002Y0009485D01*
G37*
G54D30*
G01X0018629Y0008982D02*
G01X0018629Y0007604D01*
G54D10*
G36*
G01X0022259Y0009348D02*
G01X0022259Y0009128D01*
G01X0022999Y0009128D01*
G01X0022999Y0009348D01*
G01X0022259Y0009348D01*
G37*
G36*
G01X0022259Y0009598D02*
G01X0022259Y0009378D01*
G01X0022999Y0009378D01*
G01X0022999Y0009598D01*
G01X0022259Y0009598D01*
G37*
G36*
G01X0022259Y0009848D02*
G01X0022259Y0009628D01*
G01X0022999Y0009628D01*
G01X0022999Y0009848D01*
G01X0022259Y0009848D01*
G37*
G36*
G01X0022259Y0010098D02*
G01X0022259Y0009878D01*
G01X0022999Y0009878D01*
G01X0022999Y0010098D01*
G01X0022259Y0010098D01*
G37*
G36*
G01X0022259Y0010348D02*
G01X0022259Y0010128D01*
G01X0022999Y0010128D01*
G01X0022999Y0010348D01*
G01X0022259Y0010348D01*
G37*
G36*
G01X0022259Y0010598D02*
G01X0022259Y0010378D01*
G01X0022999Y0010378D01*
G01X0022999Y0010598D01*
G01X0022259Y0010598D01*
G37*
G36*
G01X0022259Y0010848D02*
G01X0022259Y0010628D01*
G01X0022999Y0010628D01*
G01X0022999Y0010848D01*
G01X0022259Y0010848D01*
G37*
G36*
G01X0020259Y0010848D02*
G01X0020259Y0010628D01*
G01X0020999Y0010628D01*
G01X0020999Y0010848D01*
G01X0020259Y0010848D01*
G37*
G36*
G01X0020259Y0010598D02*
G01X0020259Y0010378D01*
G01X0020999Y0010378D01*
G01X0020999Y0010598D01*
G01X0020259Y0010598D01*
G37*
G36*
G01X0020259Y0010348D02*
G01X0020259Y0010128D01*
G01X0020999Y0010128D01*
G01X0020999Y0010348D01*
G01X0020259Y0010348D01*
G37*
G36*
G01X0020259Y0010098D02*
G01X0020259Y0009878D01*
G01X0020999Y0009878D01*
G01X0020999Y0010098D01*
G01X0020259Y0010098D01*
G37*
G36*
G01X0021163Y0011690D02*
G01X0020807Y0011690D01*
G01X0020807Y0011236D01*
G01X0021163Y0011236D01*
G01X0021163Y0011690D01*
G37*
G36*
G01X0020651Y0011690D02*
G01X0020296Y0011690D01*
G01X0020296Y0011236D01*
G01X0020651Y0011236D01*
G01X0020651Y0011690D01*
G37*
G36*
G01X0020259Y0009848D02*
G01X0020259Y0009628D01*
G01X0020999Y0009628D01*
G01X0020999Y0009848D01*
G01X0020259Y0009848D01*
G37*
G36*
G01X0020259Y0009598D02*
G01X0020259Y0009378D01*
G01X0020999Y0009378D01*
G01X0020999Y0009598D01*
G01X0020259Y0009598D01*
G37*
G36*
G01X0020259Y0009348D02*
G01X0020259Y0009128D01*
G01X0020999Y0009128D01*
G01X0020999Y0009348D01*
G01X0020259Y0009348D01*
G37*
G36*
G01X0020259Y0009098D02*
G01X0020259Y0008878D01*
G01X0020999Y0008878D01*
G01X0020999Y0009098D01*
G01X0020259Y0009098D01*
G37*
G36*
G01X0020651Y0012290D02*
G01X0020296Y0012290D01*
G01X0020296Y0011836D01*
G01X0020651Y0011836D01*
G01X0020651Y0012290D01*
G37*
G36*
G01X0021163Y0012290D02*
G01X0020807Y0012290D01*
G01X0020807Y0011836D01*
G01X0021163Y0011836D01*
G01X0021163Y0012290D01*
G37*
G36*
G01X0022363Y0012290D02*
G01X0022007Y0012290D01*
G01X0022007Y0011836D01*
G01X0022363Y0011836D01*
G01X0022363Y0012290D01*
G37*
G36*
G01X0021851Y0012290D02*
G01X0021496Y0012290D01*
G01X0021496Y0011836D01*
G01X0021851Y0011836D01*
G01X0021851Y0012290D01*
G37*
G36*
G01X0021851Y0011690D02*
G01X0021496Y0011690D01*
G01X0021496Y0011236D01*
G01X0021851Y0011236D01*
G01X0021851Y0011690D01*
G37*
G36*
G01X0022363Y0011690D02*
G01X0022007Y0011690D01*
G01X0022007Y0011236D01*
G01X0022363Y0011236D01*
G01X0022363Y0011690D01*
G37*
G36*
G01X0016189Y0016373D02*
G01X0016189Y0015753D01*
G01X0017469Y0015753D01*
G01X0017469Y0016373D01*
G01X0016189Y0016373D01*
G37*
G36*
G01X0018506Y0015267D02*
G01X0017934Y0015267D01*
G01X0017934Y0014459D01*
G01X0018506Y0014459D01*
G01X0018506Y0015267D01*
G37*
G36*
G01X0017324Y0015267D02*
G01X0016753Y0015267D01*
G01X0016753Y0014459D01*
G01X0017324Y0014459D01*
G01X0017324Y0015267D01*
G37*
G36*
G01X0018763Y0017790D02*
G01X0018407Y0017790D01*
G01X0018407Y0017336D01*
G01X0018763Y0017336D01*
G01X0018763Y0017790D01*
G37*
G36*
G01X0018763Y0017090D02*
G01X0018407Y0017090D01*
G01X0018407Y0016636D01*
G01X0018763Y0016636D01*
G01X0018763Y0017090D01*
G37*
G36*
G01X0016033Y0011235D02*
G01X0016033Y0011094D01*
G01X0016513Y0011094D01*
G01X0016513Y0011235D01*
G01X0016033Y0011235D01*
G37*
G36*
G01X0016033Y0011431D02*
G01X0016033Y0011291D01*
G01X0016513Y0011291D01*
G01X0016513Y0011431D01*
G01X0016033Y0011431D01*
G37*
G36*
G01X0016033Y0011628D02*
G01X0016033Y0011488D01*
G01X0016513Y0011488D01*
G01X0016513Y0011628D01*
G01X0016033Y0011628D01*
G37*
G36*
G01X0016033Y0011825D02*
G01X0016033Y0011685D01*
G01X0016513Y0011685D01*
G01X0016513Y0011825D01*
G01X0016033Y0011825D01*
G37*
G36*
G01X0016033Y0012022D02*
G01X0016033Y0011882D01*
G01X0016513Y0011882D01*
G01X0016513Y0012022D01*
G01X0016033Y0012022D01*
G37*
G36*
G01X0017002Y0011296D02*
G01X0017002Y0010941D01*
G01X0017456Y0010941D01*
G01X0017456Y0011296D01*
G01X0017002Y0011296D01*
G37*
G54D30*
G01X0018629Y0012722D02*
G01X0018629Y0011344D01*
G54D10*
G36*
G01X0017002Y0012085D02*
G01X0017002Y0011730D01*
G01X0017456Y0011730D01*
G01X0017456Y0012085D01*
G01X0017002Y0012085D01*
G37*
G36*
G01X0017002Y0012596D02*
G01X0017002Y0012241D01*
G01X0017456Y0012241D01*
G01X0017456Y0012596D01*
G01X0017002Y0012596D01*
G37*
G36*
G01X0016033Y0012219D02*
G01X0016033Y0012079D01*
G01X0016513Y0012079D01*
G01X0016513Y0012219D01*
G01X0016033Y0012219D01*
G37*
G36*
G01X0016033Y0012416D02*
G01X0016033Y0012276D01*
G01X0016513Y0012276D01*
G01X0016513Y0012416D01*
G01X0016033Y0012416D01*
G37*
G36*
G01X0016033Y0012613D02*
G01X0016033Y0012472D01*
G01X0016513Y0012472D01*
G01X0016513Y0012613D01*
G01X0016033Y0012613D01*
G37*
G36*
G01X0016033Y0012809D02*
G01X0016033Y0012669D01*
G01X0016513Y0012669D01*
G01X0016513Y0012809D01*
G01X0016033Y0012809D01*
G37*
G36*
G01X0015576Y0013746D02*
G01X0015435Y0013746D01*
G01X0015435Y0013267D01*
G01X0015576Y0013267D01*
G01X0015576Y0013746D01*
G37*
G36*
G01X0015379Y0013746D02*
G01X0015239Y0013746D01*
G01X0015239Y0013267D01*
G01X0015379Y0013267D01*
G01X0015379Y0013746D01*
G37*
G36*
G01X0015182Y0013746D02*
G01X0015042Y0013746D01*
G01X0015042Y0013267D01*
G01X0015182Y0013267D01*
G01X0015182Y0013746D01*
G37*
G36*
G01X0014985Y0013746D02*
G01X0014845Y0013746D01*
G01X0014845Y0013267D01*
G01X0014985Y0013267D01*
G01X0014985Y0013746D01*
G37*
G36*
G01X0014788Y0013746D02*
G01X0014648Y0013746D01*
G01X0014648Y0013267D01*
G01X0014788Y0013267D01*
G01X0014788Y0013746D01*
G37*
G36*
G01X0014591Y0013746D02*
G01X0014451Y0013746D01*
G01X0014451Y0013267D01*
G01X0014591Y0013267D01*
G01X0014591Y0013746D01*
G37*
G36*
G01X0014394Y0013746D02*
G01X0014254Y0013746D01*
G01X0014254Y0013267D01*
G01X0014394Y0013267D01*
G01X0014394Y0013746D01*
G37*
G36*
G01X0014198Y0013746D02*
G01X0014057Y0013746D01*
G01X0014057Y0013267D01*
G01X0014198Y0013267D01*
G01X0014198Y0013746D01*
G37*
G36*
G01X0014001Y0013746D02*
G01X0013861Y0013746D01*
G01X0013861Y0013267D01*
G01X0014001Y0013267D01*
G01X0014001Y0013746D01*
G37*
G36*
G01X0013804Y0013746D02*
G01X0013664Y0013746D01*
G01X0013664Y0013267D01*
G01X0013804Y0013267D01*
G01X0013804Y0013746D01*
G37*
G36*
G01X0013607Y0013746D02*
G01X0013467Y0013746D01*
G01X0013467Y0013267D01*
G01X0013607Y0013267D01*
G01X0013607Y0013746D01*
G37*
G36*
G01X0015363Y0014690D02*
G01X0015007Y0014690D01*
G01X0015007Y0014236D01*
G01X0015363Y0014236D01*
G01X0015363Y0014690D01*
G37*
G36*
G01X0014851Y0014690D02*
G01X0014496Y0014690D01*
G01X0014496Y0014236D01*
G01X0014851Y0014236D01*
G01X0014851Y0014690D01*
G37*
G36*
G01X0013410Y0013746D02*
G01X0013270Y0013746D01*
G01X0013270Y0013267D01*
G01X0013410Y0013267D01*
G01X0013410Y0013746D01*
G37*
G36*
G01X0013213Y0013746D02*
G01X0013073Y0013746D01*
G01X0013073Y0013267D01*
G01X0013213Y0013267D01*
G01X0013213Y0013746D01*
G37*
G36*
G01X0013017Y0013746D02*
G01X0012876Y0013746D01*
G01X0012876Y0013267D01*
G01X0013017Y0013267D01*
G01X0013017Y0013746D01*
G37*
G36*
G01X0012820Y0013746D02*
G01X0012680Y0013746D01*
G01X0012680Y0013267D01*
G01X0012820Y0013267D01*
G01X0012820Y0013746D01*
G37*
G36*
G01X0012623Y0013746D02*
G01X0012483Y0013746D01*
G01X0012483Y0013267D01*
G01X0012623Y0013267D01*
G01X0012623Y0013746D01*
G37*
G36*
G01X0012963Y0014690D02*
G01X0012607Y0014690D01*
G01X0012607Y0014236D01*
G01X0012963Y0014236D01*
G01X0012963Y0014690D01*
G37*
G36*
G01X0012451Y0014690D02*
G01X0012096Y0014690D01*
G01X0012096Y0014236D01*
G01X0012451Y0014236D01*
G01X0012451Y0014690D01*
G37*
G36*
G01X0011546Y0012809D02*
G01X0011546Y0012669D01*
G01X0012026Y0012669D01*
G01X0012026Y0012809D01*
G01X0011546Y0012809D01*
G37*
G36*
G01X0011546Y0012613D02*
G01X0011546Y0012472D01*
G01X0012026Y0012472D01*
G01X0012026Y0012613D01*
G01X0011546Y0012613D01*
G37*
G36*
G01X0011546Y0012416D02*
G01X0011546Y0012276D01*
G01X0012026Y0012276D01*
G01X0012026Y0012416D01*
G01X0011546Y0012416D01*
G37*
G36*
G01X0011546Y0012219D02*
G01X0011546Y0012079D01*
G01X0012026Y0012079D01*
G01X0012026Y0012219D01*
G01X0011546Y0012219D01*
G37*
G36*
G01X0011546Y0012022D02*
G01X0011546Y0011882D01*
G01X0012026Y0011882D01*
G01X0012026Y0012022D01*
G01X0011546Y0012022D01*
G37*
G36*
G01X0011546Y0011825D02*
G01X0011546Y0011685D01*
G01X0012026Y0011685D01*
G01X0012026Y0011825D01*
G01X0011546Y0011825D01*
G37*
G36*
G01X0011546Y0011628D02*
G01X0011546Y0011488D01*
G01X0012026Y0011488D01*
G01X0012026Y0011628D01*
G01X0011546Y0011628D01*
G37*
G36*
G01X0011546Y0011431D02*
G01X0011546Y0011291D01*
G01X0012026Y0011291D01*
G01X0012026Y0011431D01*
G01X0011546Y0011431D01*
G37*
G36*
G01X0011546Y0011235D02*
G01X0011546Y0011094D01*
G01X0012026Y0011094D01*
G01X0012026Y0011235D01*
G01X0011546Y0011235D01*
G37*
G36*
G01X0015029Y0018053D02*
G01X0013749Y0018053D01*
G01X0013749Y0015873D01*
G01X0015029Y0015873D01*
G01X0015029Y0018053D01*
G37*
G36*
G01X0018763Y0018490D02*
G01X0018407Y0018490D01*
G01X0018407Y0018036D01*
G01X0018763Y0018036D01*
G01X0018763Y0018490D01*
G37*
G36*
G01X0018251Y0018490D02*
G01X0017896Y0018490D01*
G01X0017896Y0018036D01*
G01X0018251Y0018036D01*
G01X0018251Y0018490D01*
G37*
G36*
G01X0016189Y0017273D02*
G01X0016189Y0016653D01*
G01X0017469Y0016653D01*
G01X0017469Y0017273D01*
G01X0016189Y0017273D01*
G37*
G36*
G01X0016189Y0018183D02*
G01X0016189Y0017563D01*
G01X0017469Y0017563D01*
G01X0017469Y0018183D01*
G01X0016189Y0018183D01*
G37*
G36*
G01X0018251Y0017790D02*
G01X0017896Y0017790D01*
G01X0017896Y0017336D01*
G01X0018251Y0017336D01*
G01X0018251Y0017790D01*
G37*
G36*
G01X0018251Y0017090D02*
G01X0017896Y0017090D01*
G01X0017896Y0016636D01*
G01X0018251Y0016636D01*
G01X0018251Y0017090D01*
G37*
G36*
G01X0015804Y0002194D02*
G01X0015804Y0001623D01*
G01X0016454Y0001623D01*
G01X0016454Y0002194D01*
G01X0015804Y0002194D01*
G37*
G36*
G01X0015804Y0002903D02*
G01X0015804Y0002331D01*
G01X0016454Y0002331D01*
G01X0016454Y0002903D01*
G01X0015804Y0002903D01*
G37*
G36*
G01X0014804Y0002194D02*
G01X0014804Y0001623D01*
G01X0015454Y0001623D01*
G01X0015454Y0002194D01*
G01X0014804Y0002194D01*
G37*
G36*
G01X0014804Y0002903D02*
G01X0014804Y0002331D01*
G01X0015454Y0002331D01*
G01X0015454Y0002903D01*
G01X0014804Y0002903D01*
G37*
G36*
G01X0013804Y0002194D02*
G01X0013804Y0001623D01*
G01X0014454Y0001623D01*
G01X0014454Y0002194D01*
G01X0013804Y0002194D01*
G37*
G36*
G01X0013804Y0002903D02*
G01X0013804Y0002331D01*
G01X0014454Y0002331D01*
G01X0014454Y0002903D01*
G01X0013804Y0002903D01*
G37*
G36*
G01X0012651Y0005790D02*
G01X0012296Y0005790D01*
G01X0012296Y0005336D01*
G01X0012651Y0005336D01*
G01X0012651Y0005790D01*
G37*
G36*
G01X0012469Y0003958D02*
G01X0012469Y0003368D01*
G01X0013139Y0003368D01*
G01X0013139Y0003958D01*
G01X0012469Y0003958D01*
G37*
G36*
G01X0012469Y0004943D02*
G01X0012469Y0004352D01*
G01X0013139Y0004352D01*
G01X0013139Y0004943D01*
G01X0012469Y0004943D01*
G37*
G36*
G01X0011763Y0005790D02*
G01X0011407Y0005790D01*
G01X0011407Y0005336D01*
G01X0011763Y0005336D01*
G01X0011763Y0005790D01*
G37*
G36*
G01X0011251Y0005790D02*
G01X0010896Y0005790D01*
G01X0010896Y0005336D01*
G01X0011251Y0005336D01*
G01X0011251Y0005790D01*
G37*
G36*
G01X0010894Y0003958D02*
G01X0010894Y0003368D01*
G01X0011564Y0003368D01*
G01X0011564Y0003958D01*
G01X0010894Y0003958D01*
G37*
G36*
G01X0010894Y0004943D02*
G01X0010894Y0004352D01*
G01X0011564Y0004352D01*
G01X0011564Y0004943D01*
G01X0010894Y0004943D01*
G37*
G36*
G01X0014804Y0004994D02*
G01X0014804Y0004423D01*
G01X0015454Y0004423D01*
G01X0015454Y0004994D01*
G01X0014804Y0004994D01*
G37*
G36*
G01X0014804Y0005703D02*
G01X0014804Y0005131D01*
G01X0015454Y0005131D01*
G01X0015454Y0005703D01*
G01X0014804Y0005703D01*
G37*
G36*
G01X0013804Y0004994D02*
G01X0013804Y0004423D01*
G01X0014454Y0004423D01*
G01X0014454Y0004994D01*
G01X0013804Y0004994D01*
G37*
G36*
G01X0013804Y0005703D02*
G01X0013804Y0005131D01*
G01X0014454Y0005131D01*
G01X0014454Y0005703D01*
G01X0013804Y0005703D01*
G37*
G36*
G01X0015804Y0004994D02*
G01X0015804Y0004423D01*
G01X0016454Y0004423D01*
G01X0016454Y0004994D01*
G01X0015804Y0004994D01*
G37*
G36*
G01X0015804Y0005703D02*
G01X0015804Y0005131D01*
G01X0016454Y0005131D01*
G01X0016454Y0005703D01*
G01X0015804Y0005703D01*
G37*
G36*
G01X0012802Y0006585D02*
G01X0012802Y0006230D01*
G01X0013256Y0006230D01*
G01X0013256Y0006585D01*
G01X0012802Y0006585D01*
G37*
G36*
G01X0012802Y0007096D02*
G01X0012802Y0006741D01*
G01X0013256Y0006741D01*
G01X0013256Y0007096D01*
G01X0012802Y0007096D01*
G37*
G36*
G01X0014729Y0007343D02*
G01X0014329Y0007343D01*
G01X0014329Y0006883D01*
G01X0014729Y0006883D01*
G01X0014729Y0007343D01*
G37*
G36*
G01X0013949Y0007343D02*
G01X0013549Y0007343D01*
G01X0013549Y0006883D01*
G01X0013949Y0006883D01*
G01X0013949Y0007343D01*
G37*
G36*
G01X0014339Y0006523D02*
G01X0013939Y0006523D01*
G01X0013939Y0006063D01*
G01X0014339Y0006063D01*
G01X0014339Y0006523D01*
G37*
G36*
G01X0013163Y0005790D02*
G01X0012807Y0005790D01*
G01X0012807Y0005336D01*
G01X0013163Y0005336D01*
G01X0013163Y0005790D01*
G37*
G36*
G01X0012802Y0007785D02*
G01X0012802Y0007430D01*
G01X0013256Y0007430D01*
G01X0013256Y0007785D01*
G01X0012802Y0007785D01*
G37*
G36*
G01X0016033Y0009857D02*
G01X0016033Y0009717D01*
G01X0016513Y0009717D01*
G01X0016513Y0009857D01*
G01X0016033Y0009857D01*
G37*
G36*
G01X0016033Y0010054D02*
G01X0016033Y0009913D01*
G01X0016513Y0009913D01*
G01X0016513Y0010054D01*
G01X0016033Y0010054D01*
G37*
G36*
G01X0016033Y0010250D02*
G01X0016033Y0010110D01*
G01X0016513Y0010110D01*
G01X0016513Y0010250D01*
G01X0016033Y0010250D01*
G37*
G36*
G01X0016033Y0010447D02*
G01X0016033Y0010307D01*
G01X0016513Y0010307D01*
G01X0016513Y0010447D01*
G01X0016033Y0010447D01*
G37*
G36*
G01X0016033Y0010644D02*
G01X0016033Y0010504D01*
G01X0016513Y0010504D01*
G01X0016513Y0010644D01*
G01X0016033Y0010644D01*
G37*
G36*
G01X0016033Y0010841D02*
G01X0016033Y0010701D01*
G01X0016513Y0010701D01*
G01X0016513Y0010841D01*
G01X0016033Y0010841D01*
G37*
G36*
G01X0016033Y0011038D02*
G01X0016033Y0010898D01*
G01X0016513Y0010898D01*
G01X0016513Y0011038D01*
G01X0016033Y0011038D01*
G37*
G36*
G01X0016102Y0008085D02*
G01X0016102Y0007730D01*
G01X0016556Y0007730D01*
G01X0016556Y0008085D01*
G01X0016102Y0008085D01*
G37*
G36*
G01X0016102Y0008596D02*
G01X0016102Y0008241D01*
G01X0016556Y0008241D01*
G01X0016556Y0008596D01*
G01X0016102Y0008596D01*
G37*
G36*
G01X0013017Y0009259D02*
G01X0012876Y0009259D01*
G01X0012876Y0008780D01*
G01X0013017Y0008780D01*
G01X0013017Y0009259D01*
G37*
G36*
G01X0013213Y0009259D02*
G01X0013073Y0009259D01*
G01X0013073Y0008780D01*
G01X0013213Y0008780D01*
G01X0013213Y0009259D01*
G37*
G36*
G01X0013410Y0009259D02*
G01X0013270Y0009259D01*
G01X0013270Y0008780D01*
G01X0013410Y0008780D01*
G01X0013410Y0009259D01*
G37*
G36*
G01X0013607Y0009259D02*
G01X0013467Y0009259D01*
G01X0013467Y0008780D01*
G01X0013607Y0008780D01*
G01X0013607Y0009259D01*
G37*
G36*
G01X0012802Y0008296D02*
G01X0012802Y0007941D01*
G01X0013256Y0007941D01*
G01X0013256Y0008296D01*
G01X0012802Y0008296D01*
G37*
G36*
G01X0013804Y0009259D02*
G01X0013664Y0009259D01*
G01X0013664Y0008780D01*
G01X0013804Y0008780D01*
G01X0013804Y0009259D01*
G37*
G36*
G01X0014001Y0009259D02*
G01X0013861Y0009259D01*
G01X0013861Y0008780D01*
G01X0014001Y0008780D01*
G01X0014001Y0009259D01*
G37*
G36*
G01X0014198Y0009259D02*
G01X0014057Y0009259D01*
G01X0014057Y0008780D01*
G01X0014198Y0008780D01*
G01X0014198Y0009259D01*
G37*
G36*
G01X0014394Y0009259D02*
G01X0014254Y0009259D01*
G01X0014254Y0008780D01*
G01X0014394Y0008780D01*
G01X0014394Y0009259D01*
G37*
G36*
G01X0014591Y0009259D02*
G01X0014451Y0009259D01*
G01X0014451Y0008780D01*
G01X0014591Y0008780D01*
G01X0014591Y0009259D01*
G37*
G36*
G01X0014788Y0009259D02*
G01X0014648Y0009259D01*
G01X0014648Y0008780D01*
G01X0014788Y0008780D01*
G01X0014788Y0009259D01*
G37*
G36*
G01X0014985Y0009259D02*
G01X0014845Y0009259D01*
G01X0014845Y0008780D01*
G01X0014985Y0008780D01*
G01X0014985Y0009259D01*
G37*
G36*
G01X0015182Y0009259D02*
G01X0015042Y0009259D01*
G01X0015042Y0008780D01*
G01X0015182Y0008780D01*
G01X0015182Y0009259D01*
G37*
G36*
G01X0015379Y0009259D02*
G01X0015239Y0009259D01*
G01X0015239Y0008780D01*
G01X0015379Y0008780D01*
G01X0015379Y0009259D01*
G37*
G36*
G01X0015576Y0009259D02*
G01X0015435Y0009259D01*
G01X0015435Y0008780D01*
G01X0015576Y0008780D01*
G01X0015576Y0009259D01*
G37*
M02*
