<?xml version="1.0" encoding="UTF-8" standalone="no"?>
<!-- Created with Inkscape (http://www.inkscape.org/) -->

<svg
   xmlns:dc="http://purl.org/dc/elements/1.1/"
   xmlns:cc="http://creativecommons.org/ns#"
   xmlns:rdf="http://www.w3.org/1999/02/22-rdf-syntax-ns#"
   xmlns:svg="http://www.w3.org/2000/svg"
   xmlns="http://www.w3.org/2000/svg"
   xmlns:sodipodi="http://sodipodi.sourceforge.net/DTD/sodipodi-0.dtd"
   xmlns:inkscape="http://www.inkscape.org/namespaces/inkscape"
   width="25.207205mm"
   height="4.7959175mm"
   viewBox="0 0 25.207205 4.7959174"
   version="1.1"
   id="svg8"
   inkscape:version="0.92.0 r15299"
   sodipodi:docname="led_text.svg">
  <defs
     id="defs2" />
  <sodipodi:namedview
     id="base"
     pagecolor="#ffffff"
     bordercolor="#666666"
     borderopacity="1.0"
     inkscape:pageopacity="0.0"
     inkscape:pageshadow="2"
     inkscape:zoom="45.254834"
     inkscape:cx="8.8706449"
     inkscape:cy="7.6879648"
     inkscape:document-units="mm"
     inkscape:current-layer="layer1"
     showgrid="true"
     inkscape:window-width="1280"
     inkscape:window-height="972"
     inkscape:window-x="0"
     inkscape:window-y="0"
     inkscape:window-maximized="1"
     fit-margin-top="1"
     fit-margin-left="1"
     fit-margin-right="1"
     fit-margin-bottom="1"
     inkscape:measure-start="20.8242,6.42266"
     inkscape:measure-end="30.5,6"
     showguides="true"
     inkscape:guide-bbox="true"
     inkscape:object-nodes="false"
     inkscape:snap-bbox="true"
     inkscape:bbox-nodes="true">
    <inkscape:grid
       type="xygrid"
       id="grid4523"
       units="in"
       spacingx="2.5400001"
       spacingy="1.27"
       originx="1.3472045"
       originy="-0.0140831" />
  </sodipodi:namedview>
  <metadata
     id="metadata5">
    <rdf:RDF>
      <cc:Work
         rdf:about="">
        <dc:format>image/svg+xml</dc:format>
        <dc:type
           rdf:resource="http://purl.org/dc/dcmitype/StillImage" />
        <dc:title></dc:title>
      </cc:Work>
    </rdf:RDF>
  </metadata>
  <g
     inkscape:label="Layer 1"
     inkscape:groupmode="layer"
     id="layer1"
     transform="translate(-20.617975,-57.308361)">
    <g
       aria-label="PWR"
       transform="matrix(0.07076654,-0.07076654,0.0515791,0.0515791,-2.5170335,48.672494)"
       style="font-style:normal;font-variant:normal;font-weight:normal;font-stretch:normal;font-size:26.66666603px;line-height:25px;font-family:'Lucid Type A BRK';-inkscape-font-specification:'Lucid Type A BRK';letter-spacing:0px;word-spacing:0px;fill:#000000;fill-opacity:1;stroke:none"
       id="flowRoot10">
      <path
         d="m 89.878932,345.47866 q 0.08,0 0.266667,0 0.186667,-0.0267 0.4,-0.0267 h 0.4 0.266667 q 0.666666,0 1.306666,0.0533 0.666667,0.0267 1.253334,0.21333 0.613333,0.16 1.119999,0.53333 0.506667,0.37334 0.88,1.01334 0.133334,0.21333 0.266667,0.56 0.16,0.32 0.16,0.58666 v 4 q 0,0.37334 -0.213333,0.90667 -0.213334,0.50667 -0.426667,0.77333 -0.666667,0.90667 -1.493333,1.17334 -0.8,0.26666 -1.76,0.26666 h -1.306667 v 7.17334 q 0,0.18666 -0.133333,0.32 -0.133333,0.10666 -0.32,0.18666 -0.16,0.08 -0.373333,0.10667 -0.186667,0.0267 -0.293334,0.0267 -0.266666,0 -0.666666,-0.10667 -0.373334,-0.13333 -0.373334,-0.53333 v -16.50667 q 0,-0.34667 0.4,-0.50667 0.4,-0.16 0.64,-0.21333 z m 1.173334,7.76 h 2 q 0.373333,0 0.64,-0.4 0.293333,-0.42667 0.293333,-0.74667 v -3.25333 q 0,-0.4 -0.266667,-0.64 -0.24,-0.24 -0.586666,-0.34667 -0.346667,-0.13333 -0.746667,-0.16 -0.4,-0.0267 -0.666667,-0.0267 h -0.666666 z"
         id="path3943"
         inkscape:connector-curvature="0" />
      <path
         d="m 96.807682,346.59866 q 0,-0.48 0.293334,-0.8 0.293333,-0.32 0.8,-0.32 0.293333,0 0.613333,0.21333 0.346667,0.21334 0.4,0.50667 l 1.573331,9.36 1.57334,-9.36 q 0.0533,-0.32 0.42666,-0.50667 0.4,-0.21333 0.69334,-0.21333 0.26666,0 0.58666,0.21333 0.34667,0.21334 0.4,0.50667 l 1.57334,9.36 1.57333,-9.36 q 0.0533,-0.32 0.42667,-0.50667 0.4,-0.21333 0.69333,-0.21333 0.45333,0 0.72,0.34667 0.26667,0.34666 0.26667,0.77333 v 0.34667 l -2.61334,15.76 q -0.08,0.4 -0.42666,0.53333 -0.32,0.10667 -0.64,0.10667 -0.29334,0 -0.64,-0.10667 -0.34667,-0.13333 -0.4,-0.53333 l -1.57334,-9.36 -1.6,9.36 q -0.0533,0.4 -0.4,0.53333 -0.34666,0.10667 -0.64,0.10667 -0.32,0 -0.666664,-0.10667 -0.32,-0.13333 -0.373334,-0.53333 l -2.64,-15.76 z"
         id="path3945"
         inkscape:connector-curvature="0" />
      <path
         d="m 111.02476,345.47866 q 0.08,0 0.26667,0 0.18667,-0.0267 0.4,-0.0267 h 0.4 0.26667 q 0.66666,0 1.30666,0.0533 0.66667,0.0267 1.25334,0.21333 0.61333,0.16 1.12,0.53333 0.50666,0.37334 0.88,1.01334 0.13333,0.21333 0.26666,0.56 0.16,0.32 0.16,0.58666 v 4 q 0,0.29334 -0.13333,0.58667 -0.13333,0.29333 -0.29333,0.58667 -0.16,0.26666 -0.29334,0.50666 -0.13333,0.21334 -0.13333,0.37334 0,0.10666 0.13333,0.32 0.13334,0.21333 0.29334,0.48 0.16,0.24 0.29333,0.53333 0.13333,0.26667 0.13333,0.50667 v 6.4 q 0,0.4 -0.4,0.53333 -0.37333,0.10667 -0.64,0.10667 -0.13333,0 -0.32,-0.0267 -0.18666,-0.0267 -0.37333,-0.10667 -0.16,-0.08 -0.29333,-0.18666 -0.13334,-0.13334 -0.13334,-0.32 v -5.97334 q 0,-0.26666 -0.18666,-0.48 -0.16,-0.24 -0.42667,-0.37333 -0.24,-0.16 -0.53333,-0.24 -0.26667,-0.08 -0.48,-0.08 -0.08,0 -0.29334,0.0267 -0.18666,0 -0.42666,0 -0.21334,0 -0.42667,0.0267 -0.18667,0 -0.26667,0 v 7.09334 q 0,0.18666 -0.13333,0.32 -0.13333,0.10666 -0.32,0.18666 -0.16,0.08 -0.37333,0.10667 -0.18667,0.0267 -0.29334,0.0267 -0.26666,0 -0.66666,-0.10667 -0.37334,-0.13333 -0.37334,-0.53333 v -16.50667 q 0,-0.34667 0.4,-0.50667 0.4,-0.16 0.64,-0.21333 z m 1.17334,2.18667 v 5.57333 h 2 q 0.37333,0 0.64,-0.4 0.29333,-0.42667 0.29333,-0.74667 v -3.25333 q 0,-0.4 -0.26667,-0.64 -0.24,-0.24 -0.58666,-0.34667 -0.34667,-0.13333 -0.74667,-0.16 -0.4,-0.0267 -0.66667,-0.0267 z"
         id="path3947"
         inkscape:connector-curvature="0" />
    </g>
    <text
       xml:space="preserve"
       style="font-style:normal;font-weight:normal;font-size:6.96383333px;line-height:4.35239553px;font-family:sans-serif;letter-spacing:0px;word-spacing:0px;fill:#000000;fill-opacity:1;stroke:none;stroke-width:0.17409582"
       x="28.956446"
       y="92.4291"
       id="text20"><tspan
         sodipodi:role="line"
         id="tspan18"
         x="28.956446"
         y="96.414261"
         style="stroke-width:0.17409582" /></text>
    <g
       aria-label="ACT"
       transform="matrix(0.5449893,-0.5449893,0.39722248,0.39722248,7.7880046,20.115515)"
       style="font-style:normal;font-variant:normal;font-weight:normal;font-stretch:normal;font-size:3.46265125px;line-height:3.24623537px;font-family:'Lucid Type A BRK';-inkscape-font-specification:'Lucid Type A BRK';letter-spacing:0px;word-spacing:0px;fill:#000000;fill-opacity:1;stroke:none;stroke-width:0.12984942"
       id="text24">
      <path
         d="m -20.483471,71.368177 q 0.0831,0 0.166208,0.03116 0.08657,0.0277 0.155819,0.0831 0.06925,0.05194 0.110805,0.128118 0.04501,0.07618 0.04501,0.16967 v 1.82828 q 0,0.05194 -0.05194,0.06925 -0.04848,0.01385 -0.0831,0.01385 -0.01731,0 -0.04155,-0.0035 -0.02424,-0.0035 -0.04848,-0.01385 -0.02078,-0.01039 -0.03809,-0.02424 -0.01731,-0.01731 -0.01731,-0.04155 v -0.927991 h -0.394742 v 0.927991 q 0,0.02424 -0.01731,0.04155 -0.01731,0.01385 -0.04155,0.02424 -0.02078,0.01039 -0.04848,0.01385 -0.02424,0.0035 -0.03809,0.0035 -0.03463,0 -0.08657,-0.01385 -0.04848,-0.01731 -0.04848,-0.06925 v -1.82828 q 0,-0.09349 0.04155,-0.16967 0.04502,-0.07618 0.114268,-0.128118 0.06925,-0.0554 0.152356,-0.0831 0.08657,-0.03116 0.16967,-0.03116 z m 0,0.30125 q -0.06925,0 -0.13158,0.03463 -0.05887,0.03463 -0.05887,0.11773 v 0.557487 h 0.380892 v -0.557487 q 0,-0.0831 -0.06233,-0.11773 -0.05887,-0.03463 -0.128118,-0.03463 z"
         style="font-style:normal;font-variant:normal;font-weight:normal;font-stretch:normal;font-size:3.46265125px;font-family:'Lucid Type A BRK';-inkscape-font-specification:'Lucid Type A BRK';stroke-width:0.12984942"
         id="path3936"
         inkscape:connector-curvature="0" />
      <path
         d="m -19.455496,71.368177 q 0.07618,0 0.159282,0.0277 0.0831,0.0277 0.152357,0.07964 0.07272,0.04848 0.11773,0.11773 0.04848,0.06925 0.04848,0.155819 v 0.491697 q 0,0.04848 -0.05194,0.06579 -0.04848,0.01731 -0.0831,0.01731 -0.01731,0 -0.04155,-0.0035 -0.02424,-0.0035 -0.04848,-0.01385 -0.02078,-0.01039 -0.03809,-0.02424 -0.01731,-0.01731 -0.01731,-0.04155 v -0.436294 q 0,-0.03463 -0.02078,-0.06233 -0.02078,-0.0277 -0.05194,-0.04155 -0.0277,-0.01731 -0.06233,-0.02424 -0.03463,-0.01039 -0.06233,-0.01039 -0.0277,0 -0.06233,0.01039 -0.03463,0.0069 -0.06233,0.02424 -0.0277,0.01385 -0.04848,0.04155 -0.01731,0.0277 -0.01731,0.06233 v 1.447388 q 0,0.0831 0.05887,0.11773 0.06233,0.03463 0.131581,0.03463 0.04848,0 0.0831,-0.0069 0.03809,-0.0069 0.06579,-0.05194 0.01385,-0.01731 0.03116,-0.05194 0.01731,-0.03463 0.01731,-0.04155 v -0.422444 q 0,-0.02078 0.01731,-0.03809 0.01731,-0.01731 0.04155,-0.03116 0.0277,-0.01385 0.05194,-0.02078 0.02424,-0.0069 0.04155,-0.0069 0.03116,0 0.07964,0.03116 0.04848,0.0277 0.04848,0.06579 v 0.463996 q 0,0.09349 -0.04501,0.16967 -0.04155,0.07272 -0.110805,0.128118 -0.06925,0.05194 -0.155819,0.0831 -0.0831,0.0277 -0.166207,0.0277 -0.0831,0 -0.16967,-0.0277 -0.0831,-0.03116 -0.152357,-0.0831 -0.06925,-0.05194 -0.114267,-0.128118 -0.04155,-0.07618 -0.04155,-0.16967 v -1.544343 q 0,-0.08657 0.04501,-0.155819 0.04848,-0.06925 0.11773,-0.11773 0.07271,-0.05194 0.155819,-0.07964 0.0831,-0.0277 0.159282,-0.0277 z"
         style="font-style:normal;font-variant:normal;font-weight:normal;font-stretch:normal;font-size:3.46265125px;font-family:'Lucid Type A BRK';-inkscape-font-specification:'Lucid Type A BRK';stroke-width:0.12984942"
         id="path3938"
         inkscape:connector-curvature="0" />
      <path
         d="m -18.866223,71.648651 q -0.04501,0 -0.06579,-0.05194 -0.01731,-0.05194 -0.01731,-0.0831 0,-0.05887 0.03463,-0.100417 0.03809,-0.04155 0.100417,-0.04155 h 0.699455 q 0.05887,0 0.09003,0.04848 0.03116,0.04502 0.03116,0.09349 0,0.03116 -0.02078,0.0831 -0.01731,0.05194 -0.06233,0.05194 h -0.252773 v 1.959861 q 0,0.02424 -0.01731,0.04155 -0.01385,0.01385 -0.03809,0.02424 -0.02424,0.01039 -0.04848,0.01385 -0.02424,0.0035 -0.03809,0.0035 -0.01731,0 -0.04155,-0.0035 -0.02078,-0.0035 -0.04501,-0.01385 -0.02424,-0.01039 -0.04155,-0.02424 -0.01385,-0.01731 -0.01385,-0.04155 v -1.959861 z"
         style="font-style:normal;font-variant:normal;font-weight:normal;font-stretch:normal;font-size:3.46265125px;font-family:'Lucid Type A BRK';-inkscape-font-specification:'Lucid Type A BRK';stroke-width:0.12984942"
         id="path3940"
         inkscape:connector-curvature="0" />
    </g>
    <g
       aria-label="LED"
       transform="matrix(0.5449893,-0.5449893,0.39722248,0.39722248,7.9727826,19.992788)"
       style="font-style:normal;font-variant:normal;font-weight:normal;font-stretch:normal;font-size:3.46265125px;line-height:3.24623537px;font-family:'Lucid Type A BRK';-inkscape-font-specification:'Lucid Type A BRK';letter-spacing:0px;word-spacing:0px;fill:#000000;fill-opacity:1;stroke:none;stroke-width:0.12984942"
       id="text28">
      <path
         d="m -18.738287,74.264562 q 0.01385,0 0.03809,0.01039 0.02424,0.0069 0.04501,0.02424 0.02424,0.01385 0.03809,0.03116 0.01731,0.01731 0.01731,0.03116 v 1.94601 h 0.554024 q 0.05886,0 0.09003,0.05194 0.03116,0.05194 0.03116,0.100417 0,0.03116 -0.01731,0.07964 -0.01731,0.04848 -0.06579,0.04848 h -0.789485 q -0.02424,0 -0.0554,-0.0277 -0.0277,-0.03116 -0.0277,-0.0554 v -2.143381 q 0,-0.02078 0.01385,-0.03809 0.01731,-0.01731 0.04155,-0.03116 0.02424,-0.01385 0.04501,-0.02078 0.02424,-0.0069 0.04155,-0.0069 z"
         style="font-style:normal;font-variant:normal;font-weight:normal;font-stretch:normal;font-size:3.46265125px;font-family:'Lucid Type A BRK';-inkscape-font-specification:'Lucid Type A BRK';stroke-width:0.12984942"
         id="path3929"
         inkscape:connector-curvature="0" />
      <path
         d="m -16.889827,74.409993 q 0,0.03116 -0.02078,0.0831 -0.01731,0.05194 -0.06233,0.05194 h -0.585189 v 0.737545 h 0.547099 q 0.05886,0 0.09003,0.05194 0.03116,0.05194 0.03116,0.100417 0,0.03116 -0.02078,0.0831 -0.01731,0.05194 -0.06233,0.05194 h -0.585189 v 0.737545 h 0.547099 q 0.05886,0 0.09003,0.05194 0.03116,0.05194 0.03116,0.100417 0,0.03116 -0.01731,0.07964 -0.01731,0.04848 -0.06579,0.04848 h -0.789485 q -0.02424,0 -0.0554,-0.0277 -0.0277,-0.03116 -0.0277,-0.0554 v -2.143381 q 0,-0.03809 0.05194,-0.06579 0.05194,-0.0277 0.0831,-0.0277 h 0.699455 q 0.05886,0 0.09003,0.04848 0.03116,0.04501 0.03116,0.09349 z"
         style="font-style:normal;font-variant:normal;font-weight:normal;font-stretch:normal;font-size:3.46265125px;font-family:'Lucid Type A BRK';-inkscape-font-specification:'Lucid Type A BRK';stroke-width:0.12984942"
         id="path3931"
         inkscape:connector-curvature="0" />
      <path
         d="m -16.727677,76.584538 q -0.02424,-0.0069 -0.0554,-0.03116 -0.0277,-0.02424 -0.0277,-0.05194 v -2.143381 q 0,-0.03809 0.05194,-0.06579 0.05194,-0.0277 0.0831,-0.0277 h 0.356654 q 0.08657,0 0.155819,0.05194 0.06925,0.05194 0.121193,0.135044 0.05194,0.0831 0.08657,0.186983 0.03463,0.10388 0.0554,0.207759 0.02424,0.100417 0.03463,0.193909 0.01039,0.09349 0.01039,0.152356 v 0.238923 0.238923 q 0,0.06233 -0.01039,0.155819 -0.0069,0.09003 -0.03116,0.193909 -0.02078,0.103879 -0.0554,0.207759 -0.03463,0.100417 -0.08657,0.183521 -0.05194,0.0831 -0.124655,0.135043 -0.06925,0.05194 -0.162745,0.05194 h -0.0069 q -0.02078,0 -0.07964,0 -0.0554,-0.0035 -0.11773,-0.0069 -0.06233,-0.0035 -0.121193,-0.0035 -0.0554,-0.0035 -0.07618,-0.0035 z m 0.204296,-0.2874 h 0.190446 q 0.0035,0 0.01731,-0.01385 0.01731,-0.01731 0.02424,-0.0277 0.05887,-0.07964 0.09003,-0.18352 0.03116,-0.10388 0.04501,-0.214685 0.01385,-0.114267 0.01385,-0.225072 0.0035,-0.110805 0.0035,-0.200834 0,-0.16967 -0.01731,-0.325489 -0.01385,-0.159282 -0.05194,-0.325489 -0.0069,-0.01731 -0.02078,-0.0554 -0.01385,-0.03809 -0.03463,-0.07618 -0.02078,-0.04155 -0.04501,-0.06925 -0.02424,-0.03116 -0.05194,-0.03116 h -0.162745 z"
         style="font-style:normal;font-variant:normal;font-weight:normal;font-stretch:normal;font-size:3.46265125px;font-family:'Lucid Type A BRK';-inkscape-font-specification:'Lucid Type A BRK';stroke-width:0.12984942"
         id="path3933"
         inkscape:connector-curvature="0" />
    </g>
    <g
       aria-label="D*"
       transform="matrix(0.5449893,-0.5449893,0.39722248,0.39722248,9.3991988,19.724214)"
       style="font-style:normal;font-variant:normal;font-weight:normal;font-stretch:normal;font-size:3.46265125px;line-height:3.24623537px;font-family:'Lucid Type A BRK';-inkscape-font-specification:'Lucid Type A BRK';letter-spacing:0px;word-spacing:0px;fill:#000000;fill-opacity:1;stroke:none;stroke-width:0.12984942"
       id="text32">
      <path
         d="m -9.5791931,88.43063 q -0.024239,-0.0069 -0.055402,-0.03116 -0.027701,-0.02424 -0.027701,-0.05194 v -2.143381 q 0,-0.03809 0.05194,-0.06579 0.05194,-0.0277 0.083104,-0.0277 h 0.356653 q 0.086566,0 0.1558193,0.05194 0.069253,0.05194 0.1211928,0.135043 0.05194,0.0831 0.086566,0.186983 0.034626,0.10388 0.055402,0.207759 0.024239,0.100417 0.034626,0.193909 0.010388,0.09349 0.010388,0.152356 v 0.238923 0.238923 q 0,0.06233 -0.010388,0.15582 -0.00693,0.09003 -0.031164,0.193908 -0.020776,0.10388 -0.055402,0.207759 -0.034626,0.100417 -0.086566,0.183521 -0.05194,0.0831 -0.1246555,0.135043 -0.069253,0.05194 -0.1627446,0.05194 h -0.00693 q -0.020776,0 -0.079641,0 -0.055403,-0.0035 -0.1177302,-0.0069 -0.062328,-0.0035 -0.1211928,-0.0035 -0.055402,-0.0035 -0.076178,-0.0035 z m 0.2042964,-0.2874 h 0.1904458 q 0.00346,0 0.017313,-0.01385 0.017313,-0.01731 0.024239,-0.0277 0.058865,-0.07964 0.090029,-0.18352 0.031164,-0.10388 0.045014,-0.214684 0.013851,-0.114268 0.013851,-0.225073 0.00346,-0.110805 0.00346,-0.200834 0,-0.169669 -0.017313,-0.325489 -0.013851,-0.159282 -0.05194,-0.325489 -0.00693,-0.01731 -0.020776,-0.0554 -0.013851,-0.03809 -0.034626,-0.07618 -0.020776,-0.04155 -0.045014,-0.06925 -0.024239,-0.03116 -0.05194,-0.03116 h -0.1627446 z"
         style="font-style:normal;font-variant:normal;font-weight:normal;font-stretch:normal;font-size:3.46265125px;font-family:'Lucid Type A BRK';-inkscape-font-specification:'Lucid Type A BRK';stroke-width:0.12984942"
         id="path3924"
         inkscape:connector-curvature="0" />
      <path
         d="m -8.4648145,87.094047 q 0.010388,-0.03809 0.034626,-0.08657 0.024238,-0.05194 0.034626,-0.07964 v -0.0069 -0.0069 q -0.041552,0 -0.086566,-0.0035 -0.041552,-0.0035 -0.076178,-0.01731 -0.031164,-0.01731 -0.05194,-0.04501 -0.020776,-0.03116 -0.020776,-0.0831 0,-0.05194 0.020776,-0.07964 0.020776,-0.03116 0.05194,-0.04501 0.034626,-0.01731 0.076178,-0.02078 0.045015,-0.0035 0.086566,-0.0035 v -0.0069 q 0,-0.03809 -0.031164,-0.09003 -0.027701,-0.05194 -0.038089,-0.09695 v -0.0069 q 0,-0.05886 0.045014,-0.09349 0.045015,-0.03463 0.1004169,-0.03463 0.069253,0 0.1038795,0.04501 0.038089,0.04155 0.06579,0.103879 0.027701,-0.06233 0.062328,-0.103879 0.038089,-0.04501 0.1073422,-0.04501 0.1315808,0 0.1315808,0.141969 0,0.05194 -0.027701,0.09349 -0.027701,0.03809 -0.027701,0.08657 v 0.0069 q 0.041552,0 0.083104,0.0035 0.045015,0.0035 0.076178,0.02078 0.034626,0.01385 0.055402,0.04501 0.020776,0.0277 0.020776,0.07964 0,0.05194 -0.020776,0.0831 -0.020776,0.0277 -0.055402,0.04501 -0.031164,0.01385 -0.076178,0.01731 -0.041552,0.0035 -0.083104,0.0035 v 0.0069 q 0,0.04848 0.027701,0.09003 0.027701,0.03809 0.027701,0.09003 0,0.141969 -0.1315808,0.141969 -0.069253,0 -0.1073422,-0.04155 -0.034626,-0.04501 -0.062328,-0.107342 -0.027701,0.06233 -0.06579,0.107342 -0.034626,0.04155 -0.1038795,0.04155 -0.062328,0 -0.1038795,-0.03809 -0.041552,-0.03809 -0.041552,-0.10388 z"
         style="font-style:normal;font-variant:normal;font-weight:normal;font-stretch:normal;font-size:3.46265125px;font-family:'Lucid Type A BRK';-inkscape-font-specification:'Lucid Type A BRK';stroke-width:0.12984942"
         id="path3926"
         inkscape:connector-curvature="0" />
    </g>
    <g
       aria-label="YSF"
       transform="matrix(0.5449893,-0.5449893,0.39722248,0.39722248,9.3847704,20.129319)"
       style="font-style:normal;font-variant:normal;font-weight:normal;font-stretch:normal;font-size:3.46265125px;line-height:3.24623537px;font-family:'Lucid Type A BRK';-inkscape-font-specification:'Lucid Type A BRK';letter-spacing:0px;word-spacing:0px;fill:#000000;fill-opacity:1;stroke:none;stroke-width:0.12984942"
       id="text36">
      <path
         d="m -7.976834,90.055358 q -0.058865,-0.01731 -0.1177302,-0.0554 -0.058865,-0.03809 -0.1073422,-0.09003 -0.048477,-0.0554 -0.079641,-0.117731 -0.031164,-0.06233 -0.031164,-0.13158 v -0.806798 q 0,-0.02078 0.013851,-0.03809 0.017313,-0.01731 0.041552,-0.03116 0.024239,-0.01385 0.045015,-0.02078 0.024238,-0.0069 0.041552,-0.0069 0.013851,0 0.038089,0.01039 0.024238,0.0069 0.045014,0.02424 0.024239,0.01385 0.038089,0.03116 0.017313,0.01731 0.017313,0.03116 v 0.765246 q 0,0.0069 0.017313,0.04501 0.020776,0.03463 0.031164,0.05194 0.027701,0.04501 0.062328,0.05194 0.038089,0.0035 0.086566,0.0035 0.06579,0 0.1315807,-0.03463 0.06579,-0.03809 0.06579,-0.11773 v -0.765246 q 0,-0.02078 0.017313,-0.03809 0.017313,-0.01731 0.041552,-0.0277 0.027701,-0.01385 0.05194,-0.02078 0.024239,-0.01039 0.041552,-0.01039 0.031164,0 0.079641,0.03116 0.048477,0.0277 0.048477,0.06579 v 0.806798 q 0,0.06925 -0.031164,0.135043 -0.027701,0.06233 -0.076178,0.114268 -0.045014,0.05194 -0.1073421,0.09003 -0.058865,0.03809 -0.1211928,0.0554 v 0.941841 q 0,0.02424 -0.017313,0.04155 -0.013851,0.01385 -0.038089,0.02424 -0.024239,0.01039 -0.048477,0.01385 -0.024239,0.0035 -0.038089,0.0035 -0.017313,0 -0.041552,-0.0035 -0.020776,-0.0035 -0.045014,-0.01385 -0.024239,-0.01039 -0.041552,-0.02424 -0.013851,-0.01731 -0.013851,-0.04155 v -0.941841 z"
         style="font-style:normal;font-variant:normal;font-weight:normal;font-stretch:normal;font-size:3.46265125px;font-family:'Lucid Type A BRK';-inkscape-font-specification:'Lucid Type A BRK';stroke-width:0.12984942"
         id="path3917"
         inkscape:connector-curvature="0" />
      <path
         d="m -7.2847366,90.633621 v -0.07618 q 0.010388,-0.04155 0.055402,-0.06925 0.045015,-0.0277 0.086566,-0.0277 0.079641,0 0.1038795,0.05194 0.024239,0.05194 0.038089,0.114267 0.017313,0.06233 0.05194,0.114268 0.038089,0.05194 0.1419687,0.05194 0.031164,0 0.062328,-0.0069 0.034626,-0.01039 0.062328,-0.02424 0.027701,-0.01731 0.045015,-0.04155 0.020776,-0.0277 0.020776,-0.06579 v -0.422444 q 0,-0.07272 -0.041552,-0.107342 -0.041552,-0.03463 -0.1004169,-0.04502 -0.058865,-0.01385 -0.1211928,-0.01731 -0.062328,-0.0069 -0.1038795,-0.02424 -0.05194,-0.02078 -0.1073422,-0.05886 -0.05194,-0.03809 -0.096954,-0.09003 -0.041552,-0.05194 -0.069253,-0.110805 -0.027701,-0.05886 -0.027701,-0.121193 v -0.505547 q 0,-0.08657 0.045014,-0.159282 0.045014,-0.07272 0.1142675,-0.124655 0.069253,-0.05194 0.1523566,-0.07964 0.086566,-0.03116 0.1662073,-0.03116 0.096954,0 0.1835205,0.03463 0.086566,0.03463 0.1523566,0.09695 0.06579,0.05886 0.1038796,0.145432 0.038089,0.0831 0.038089,0.180058 v 0.07272 q -0.013851,0.05194 -0.055402,0.06925 -0.038089,0.01385 -0.079641,0.01385 -0.090029,0 -0.1142674,-0.04848 -0.024239,-0.04848 -0.038089,-0.107342 -0.013851,-0.06233 -0.045014,-0.110805 -0.031164,-0.04848 -0.1350434,-0.04848 -0.027701,0 -0.062328,0.0069 -0.034626,0.0069 -0.06579,0.02424 -0.031164,0.01385 -0.05194,0.04155 -0.020776,0.0277 -0.020776,0.06579 v 0.422443 q 0,0.06579 0.034627,0.100417 0.038089,0.03116 0.090029,0.04848 0.05194,0.01385 0.1073422,0.01731 0.055402,0.0035 0.093492,0.01039 0.062328,0.01039 0.1246554,0.05194 0.062328,0.03809 0.1108049,0.09349 0.048477,0.0554 0.076178,0.121193 0.031164,0.06579 0.031164,0.13158 v 0.519398 q 0,0.08657 -0.048477,0.155819 -0.045014,0.06925 -0.1177301,0.121193 -0.069253,0.04848 -0.1523567,0.07618 -0.083104,0.0277 -0.1592819,0.0277 -0.096954,0 -0.1835205,-0.03463 -0.086566,-0.03463 -0.1523567,-0.09349 -0.06579,-0.06233 -0.1038795,-0.145432 -0.038089,-0.0831 -0.038089,-0.18352 z"
         style="font-style:normal;font-variant:normal;font-weight:normal;font-stretch:normal;font-size:3.46265125px;font-family:'Lucid Type A BRK';-inkscape-font-specification:'Lucid Type A BRK';stroke-width:0.12984942"
         id="path3919"
         inkscape:connector-curvature="0" />
      <path
         d="m -5.2943073,88.902295 q 0,0.03116 -0.020776,0.0831 -0.017313,0.05194 -0.062328,0.05194 H -5.962599 v 0.737545 h 0.5470989 q 0.058865,0 0.090029,0.05194 0.031164,0.05194 0.031164,0.100417 0,0.03116 -0.020776,0.0831 -0.017313,0.05194 -0.062328,0.05194 h -0.5921134 v 0.934916 q 0,0.02424 -0.017313,0.04155 -0.017313,0.01385 -0.041552,0.02424 -0.020776,0.01039 -0.048477,0.01385 -0.024238,0.0035 -0.038089,0.0035 -0.034626,0 -0.086566,-0.01385 -0.048477,-0.01731 -0.048477,-0.06925 v -2.143381 q 0,-0.03809 0.05194,-0.06579 0.05194,-0.0277 0.083104,-0.0277 h 0.6994555 q 0.058865,0 0.090029,0.04848 0.031164,0.04502 0.031164,0.09349 z"
         style="font-style:normal;font-variant:normal;font-weight:normal;font-stretch:normal;font-size:3.46265125px;font-family:'Lucid Type A BRK';-inkscape-font-specification:'Lucid Type A BRK';stroke-width:0.12984942"
         id="path3921"
         inkscape:connector-curvature="0" />
    </g>
    <g
       aria-label="DMR"
       transform="matrix(0.5449893,-0.5449893,0.39722248,0.39722248,8.4469287,20.138496)"
       style="font-style:normal;font-variant:normal;font-weight:normal;font-stretch:normal;font-size:3.46265125px;line-height:3.24623537px;font-family:'Lucid Type A BRK';-inkscape-font-specification:'Lucid Type A BRK';letter-spacing:0px;word-spacing:0px;fill:#000000;fill-opacity:1;stroke:none;stroke-width:0.12984942"
       id="text40">
      <path
         d="m -12.622075,85.278882 q -0.02424,-0.0069 -0.0554,-0.03116 -0.0277,-0.02424 -0.0277,-0.05194 v -2.143381 q 0,-0.03809 0.05194,-0.06579 0.05194,-0.0277 0.0831,-0.0277 h 0.356653 q 0.08657,0 0.155819,0.05194 0.06925,0.05194 0.121193,0.135043 0.05194,0.0831 0.08657,0.186984 0.03463,0.103879 0.0554,0.207759 0.02424,0.100417 0.03463,0.193908 0.01039,0.09349 0.01039,0.152357 v 0.238923 0.238923 q 0,0.06233 -0.01039,0.155819 -0.0069,0.09003 -0.03116,0.193908 -0.02078,0.10388 -0.0554,0.20776 -0.03463,0.100416 -0.08657,0.18352 -0.05194,0.0831 -0.124656,0.135043 -0.06925,0.05194 -0.162745,0.05194 h -0.0069 q -0.02078,0 -0.07964,0 -0.0554,-0.0035 -0.11773,-0.0069 -0.06233,-0.0035 -0.121193,-0.0035 -0.0554,-0.0035 -0.07618,-0.0035 z m 0.204296,-0.2874 h 0.190446 q 0.0035,0 0.01731,-0.01385 0.01731,-0.01731 0.02424,-0.0277 0.05887,-0.07964 0.09003,-0.183521 0.03116,-0.103879 0.04501,-0.214684 0.01385,-0.114268 0.01385,-0.225072 0.0035,-0.110805 0.0035,-0.200834 0,-0.16967 -0.01731,-0.325489 -0.01385,-0.159282 -0.05194,-0.32549 -0.0069,-0.01731 -0.02078,-0.0554 -0.01385,-0.03809 -0.03463,-0.07618 -0.02078,-0.04155 -0.04501,-0.06925 -0.02424,-0.03116 -0.05194,-0.03116 h -0.162745 z"
         style="font-style:normal;font-variant:normal;font-weight:normal;font-stretch:normal;font-size:3.46265125px;font-family:'Lucid Type A BRK';-inkscape-font-specification:'Lucid Type A BRK';stroke-width:0.12984942"
         id="path3910"
         inkscape:connector-curvature="0" />
      <path
         d="m -11.528472,82.965831 q 0.03809,0 0.07964,0.0277 0.04155,0.0277 0.05194,0.06579 l 0.367041,1.457776 h 0.01385 l 0.367041,-1.457776 q 0.01385,-0.04155 0.05886,-0.06579 0.04502,-0.0277 0.08657,-0.0277 0.03116,0 0.07964,0.0277 0.04848,0.0277 0.04848,0.06579 v 2.139919 q 0,0.05194 -0.05194,0.06925 -0.04848,0.01385 -0.0831,0.01385 -0.01731,0 -0.04155,-0.0035 -0.02424,-0.0035 -0.04848,-0.01385 -0.02078,-0.01039 -0.03809,-0.02424 -0.01731,-0.01731 -0.01731,-0.04155 v -0.886439 l -0.225073,0.858737 q -0.0277,0.110805 -0.138506,0.110805 -0.06579,0 -0.09695,-0.02078 -0.03116,-0.02078 -0.04848,-0.09003 l -0.225072,-0.858737 v 0.886439 q 0,0.02424 -0.01731,0.04155 -0.01731,0.01385 -0.04155,0.02424 -0.02078,0.01039 -0.04848,0.01385 -0.02424,0.0035 -0.03809,0.0035 -0.03463,0 -0.08657,-0.01385 -0.04848,-0.01731 -0.04848,-0.06925 v -2.139919 q 0,-0.02078 0.01385,-0.03809 0.01731,-0.01731 0.04155,-0.0277 0.02424,-0.01385 0.04501,-0.02078 0.02424,-0.0069 0.04155,-0.0069 z"
         style="font-style:normal;font-variant:normal;font-weight:normal;font-stretch:normal;font-size:3.46265125px;font-family:'Lucid Type A BRK';-inkscape-font-specification:'Lucid Type A BRK';stroke-width:0.12984942"
         id="path3912"
         inkscape:connector-curvature="0" />
      <path
         d="m -10.169274,82.962368 q 0.01039,0 0.03463,0 0.02424,-0.0035 0.05194,-0.0035 h 0.05194 0.034627 q 0.086566,0 0.1696699,0.0069 0.086566,0.0035 0.1627446,0.0277 0.079641,0.02078 0.1454314,0.06925 0.06579,0.04848 0.1142675,0.131581 0.017313,0.0277 0.034626,0.07272 0.020776,0.04155 0.020776,0.07618 v 0.519397 q 0,0.03809 -0.017313,0.07618 -0.017313,0.03809 -0.038089,0.07618 -0.020776,0.03463 -0.038089,0.06579 -0.017313,0.0277 -0.017313,0.04848 0,0.01385 0.017313,0.04155 0.017313,0.0277 0.038089,0.06233 0.020776,0.03116 0.038089,0.06925 0.017313,0.03463 0.017313,0.06579 v 0.831037 q 0,0.05194 -0.05194,0.06925 -0.048477,0.01385 -0.083104,0.01385 -0.017313,0 -0.041552,-0.0035 -0.024239,-0.0035 -0.048477,-0.01385 -0.020776,-0.01039 -0.038089,-0.02424 -0.017313,-0.01731 -0.017313,-0.04155 v -0.775634 q 0,-0.03463 -0.024239,-0.06233 -0.020776,-0.03116 -0.055402,-0.04848 -0.031164,-0.02078 -0.069253,-0.03116 -0.034626,-0.01039 -0.062328,-0.01039 -0.010388,0 -0.038089,0.0035 -0.024238,0 -0.055402,0 -0.027701,0 -0.055402,0.0035 -0.024238,0 -0.034626,0 v 0.921066 q 0,0.02424 -0.01731,0.04155 -0.01731,0.01385 -0.04155,0.02424 -0.02078,0.01039 -0.04848,0.01385 -0.02424,0.0035 -0.03809,0.0035 -0.03463,0 -0.08657,-0.01385 -0.04848,-0.01731 -0.04848,-0.06925 V 83.05586 q 0,-0.04501 0.05194,-0.06579 0.05194,-0.02078 0.0831,-0.0277 z m 0.152357,0.283937 v 0.723694 h 0.2596989 q 0.048477,0 0.083104,-0.05194 0.038089,-0.0554 0.038089,-0.09695 v -0.422443 q 0,-0.05194 -0.034626,-0.0831 -0.031164,-0.03116 -0.076178,-0.04501 -0.045014,-0.01731 -0.096954,-0.02078 -0.05194,-0.0035 -0.086566,-0.0035 z"
         style="font-style:normal;font-variant:normal;font-weight:normal;font-stretch:normal;font-size:3.46265125px;font-family:'Lucid Type A BRK';-inkscape-font-specification:'Lucid Type A BRK';stroke-width:0.12984942"
         id="path3914"
         inkscape:connector-curvature="0" />
    </g>
    <g
       aria-label="P25"
       transform="matrix(0.5449893,-0.5449893,0.39722248,0.39722248,9.3436292,20.131882)"
       style="font-style:normal;font-variant:normal;font-weight:normal;font-stretch:normal;font-size:3.46265125px;line-height:3.24623537px;font-family:'Lucid Type A BRK';-inkscape-font-specification:'Lucid Type A BRK';letter-spacing:0px;word-spacing:0px;fill:#000000;fill-opacity:1;stroke:none;stroke-width:0.12984942"
       id="text44">
      <path
         d="m -6.0712454,91.656704 q 0.010388,0 0.034626,0 0.024239,-0.0035 0.05194,-0.0035 h 0.05194 0.034626 q 0.086566,0 0.1696699,0.0069 0.086566,0.0035 0.1627446,0.0277 0.079641,0.02078 0.1454313,0.06925 0.06579,0.04848 0.1142675,0.131581 0.017313,0.0277 0.034627,0.07272 0.020776,0.04155 0.020776,0.07618 v 0.519397 q 0,0.04848 -0.027701,0.11773 -0.027701,0.06579 -0.055402,0.100417 -0.086566,0.11773 -0.1939084,0.152357 -0.1038796,0.03463 -0.228535,0.03463 H -5.925814 v 0.931454 q 0,0.02424 -0.017313,0.04155 -0.017313,0.01385 -0.041552,0.02424 -0.020776,0.01039 -0.048477,0.01385 -0.024239,0.0035 -0.038089,0.0035 -0.034627,0 -0.086566,-0.01385 -0.048477,-0.01731 -0.048477,-0.06925 v -2.143382 q 0,-0.04501 0.05194,-0.06579 0.05194,-0.02078 0.083104,-0.0277 z m 0.1523567,1.007631 h 0.2596988 q 0.048477,0 0.083104,-0.05194 0.038089,-0.0554 0.038089,-0.09696 v -0.422443 q 0,-0.05194 -0.034626,-0.0831 -0.031164,-0.03116 -0.076178,-0.04501 -0.045015,-0.01731 -0.096954,-0.02078 -0.05194,-0.0035 -0.086566,-0.0035 h -0.086566 z"
         style="font-style:normal;font-variant:normal;font-weight:normal;font-stretch:normal;font-size:3.46265125px;font-family:'Lucid Type A BRK';-inkscape-font-specification:'Lucid Type A BRK';stroke-width:0.12984942"
         id="path3903"
         inkscape:connector-curvature="0" />
      <path
         d="m -5.1715512,93.893577 v -0.08657 q 0,-0.166207 0.058865,-0.318564 0.062328,-0.155819 0.1731325,-0.277012 0.010388,-0.01039 0.045014,-0.04501 0.034626,-0.03809 0.076178,-0.0831 0.041552,-0.04501 0.076178,-0.0831 0.038089,-0.03809 0.048477,-0.04848 0.069253,-0.07272 0.1281181,-0.173132 0.062328,-0.100417 0.062328,-0.207759 v -0.463995 q 0,-0.0831 -0.062328,-0.117731 -0.058865,-0.03463 -0.1281181,-0.03463 -0.072716,0 -0.1108049,0.02424 -0.034626,0.02078 -0.05194,0.05887 -0.017313,0.03463 -0.027701,0.07618 -0.00693,0.03809 -0.020776,0.07618 -0.013851,0.03463 -0.045014,0.05886 -0.027701,0.02078 -0.086566,0.02078 -0.1350434,0 -0.1350434,-0.141969 0,-0.100416 0.034626,-0.186983 0.038089,-0.08657 0.1004169,-0.148894 0.06579,-0.06579 0.1523567,-0.100417 0.090029,-0.03809 0.1904458,-0.03809 0.083104,0 0.1662072,0.03116 0.086566,0.0277 0.1558193,0.0831 0.069253,0.0554 0.1108049,0.13158 0.045014,0.07272 0.045014,0.166208 v 0.547099 q 0,0.121192 -0.045014,0.218147 -0.045014,0.09695 -0.1142675,0.186983 -0.06579,0.08657 -0.148894,0.166207 -0.079641,0.07618 -0.1523567,0.159282 -0.072716,0.07964 -0.1281181,0.166207 -0.05194,0.08657 -0.06579,0.186983 h 0.5332483 q 0.058865,0 0.090029,0.05194 0.031164,0.05194 0.031164,0.100417 0,0.03116 -0.017313,0.07964 -0.017313,0.04848 -0.06579,0.04848 h -0.7894845 q -0.027701,0 -0.05194,-0.0277 -0.024239,-0.03116 -0.031164,-0.0554 z"
         style="font-style:normal;font-variant:normal;font-weight:normal;font-stretch:normal;font-size:3.46265125px;font-family:'Lucid Type A BRK';-inkscape-font-specification:'Lucid Type A BRK';stroke-width:0.12984942"
         id="path3905"
         inkscape:connector-curvature="0" />
      <path
         d="m -4.05371,93.973218 q -0.048477,-0.01385 -0.06579,-0.04848 -0.017313,-0.03809 -0.017313,-0.07964 0,-0.0554 0.038089,-0.103879 0.038089,-0.04848 0.096954,-0.04848 h 0.4120555 q 0.020776,0 0.041552,-0.01731 0.020776,-0.01731 0.038089,-0.04155 0.020776,-0.02424 0.031164,-0.05194 0.010388,-0.0277 0.010388,-0.04501 V 93.11448 q 0,-0.03463 -0.020776,-0.06233 -0.020776,-0.0277 -0.05194,-0.04501 -0.031164,-0.02078 -0.069253,-0.03116 -0.034627,-0.01039 -0.062328,-0.01385 -0.020776,0 -0.076178,0 -0.05194,-0.0035 -0.1142675,-0.0069 -0.062328,-0.0035 -0.1177301,-0.0035 -0.05194,-0.0035 -0.072716,-0.0035 -0.024239,-0.0069 -0.055402,-0.03116 -0.027701,-0.02424 -0.027701,-0.04848 v -1.121899 q 0,-0.03809 0.05194,-0.06579 0.05194,-0.0277 0.083104,-0.0277 h 0.6994555 q 0.058865,0 0.090029,0.04848 0.031164,0.04502 0.031164,0.09349 0,0.03116 -0.020776,0.0831 -0.017313,0.05194 -0.062328,0.05194 h -0.5851881 v 0.73062 q 0.086566,0.0069 0.1731326,0.01385 0.090029,0.0069 0.1696699,0.03116 0.083104,0.02078 0.1523567,0.06925 0.069253,0.04502 0.1177301,0.131581 0.017313,0.0277 0.034627,0.07272 0.020776,0.04501 0.020776,0.07964 v 0.519397 q 0,0.08657 -0.041552,0.162745 -0.041552,0.07272 -0.1108048,0.128118 -0.06579,0.0554 -0.148894,0.08657 -0.079641,0.03116 -0.1627446,0.03116 h -0.013851 q -0.020776,0 -0.079641,0 -0.055402,-0.0035 -0.1177302,-0.0069 -0.062328,-0.0035 -0.1211928,-0.0035 -0.055402,-0.0035 -0.076178,-0.0035 z"
         style="font-style:normal;font-variant:normal;font-weight:normal;font-stretch:normal;font-size:3.46265125px;font-family:'Lucid Type A BRK';-inkscape-font-specification:'Lucid Type A BRK';stroke-width:0.12984942"
         id="path3907"
         inkscape:connector-curvature="0" />
    </g>
    <g
       aria-label="COS"
       transform="matrix(0.5449893,-0.5449893,0.39722248,0.39722248,8.1542974,20.04449)"
       style="font-style:normal;font-variant:normal;font-weight:normal;font-stretch:normal;font-size:3.46265125px;line-height:3.24623537px;font-family:'Lucid Type A BRK';-inkscape-font-specification:'Lucid Type A BRK';letter-spacing:0px;word-spacing:0px;fill:#000000;fill-opacity:1;stroke:none;stroke-width:0.12984942"
       id="text48">
      <path
         d="m -16.284809,77.160077 q 0.07618,0 0.159282,0.0277 0.0831,0.0277 0.152357,0.07964 0.07272,0.04848 0.11773,0.117731 0.04848,0.06925 0.04848,0.155819 v 0.491696 q 0,0.04848 -0.05194,0.06579 -0.04848,0.01731 -0.0831,0.01731 -0.01731,0 -0.04155,-0.0035 -0.02424,-0.0035 -0.04848,-0.01385 -0.02078,-0.01039 -0.03809,-0.02424 -0.01731,-0.01731 -0.01731,-0.04155 v -0.436294 q 0,-0.03463 -0.02078,-0.06233 -0.02078,-0.0277 -0.05194,-0.04155 -0.0277,-0.01731 -0.06233,-0.02424 -0.03463,-0.01039 -0.06233,-0.01039 -0.0277,0 -0.06233,0.01039 -0.03463,0.0069 -0.06233,0.02424 -0.0277,0.01385 -0.04848,0.04155 -0.01731,0.0277 -0.01731,0.06233 v 1.447388 q 0,0.0831 0.05887,0.117731 0.06233,0.03463 0.131581,0.03463 0.04848,0 0.0831,-0.0069 0.03809,-0.0069 0.06579,-0.05194 0.01385,-0.01731 0.03116,-0.05194 0.01731,-0.03463 0.01731,-0.04155 v -0.422443 q 0,-0.02078 0.01731,-0.03809 0.01731,-0.01731 0.04155,-0.03116 0.0277,-0.01385 0.05194,-0.02078 0.02424,-0.0069 0.04155,-0.0069 0.03116,0 0.07964,0.03116 0.04848,0.0277 0.04848,0.06579 v 0.463995 q 0,0.09349 -0.04501,0.16967 -0.04155,0.07272 -0.110805,0.128118 -0.06925,0.05194 -0.15582,0.0831 -0.0831,0.0277 -0.166207,0.0277 -0.0831,0 -0.16967,-0.0277 -0.0831,-0.03116 -0.152356,-0.0831 -0.06925,-0.05194 -0.114268,-0.128118 -0.04155,-0.07618 -0.04155,-0.16967 v -1.544342 q 0,-0.08657 0.04501,-0.155819 0.04848,-0.06925 0.11773,-0.117731 0.07272,-0.05194 0.155819,-0.07964 0.0831,-0.0277 0.159282,-0.0277 z"
         style="font-style:normal;font-variant:normal;font-weight:normal;font-stretch:normal;font-size:3.46265125px;font-family:'Lucid Type A BRK';-inkscape-font-specification:'Lucid Type A BRK';stroke-width:0.12984942"
         id="path3896"
         inkscape:connector-curvature="0" />
      <path
         d="m -15.249909,77.156615 q 0.0831,0 0.166207,0.03116 0.0831,0.03116 0.148894,0.08657 0.06925,0.05194 0.110805,0.128118 0.04501,0.07618 0.04501,0.166207 v 1.516641 q 0,0.09349 -0.04501,0.16967 -0.04155,0.07272 -0.110805,0.128118 -0.06925,0.05194 -0.155819,0.0831 -0.0831,0.0277 -0.166207,0.0277 -0.0831,0 -0.16967,-0.0277 -0.0831,-0.03116 -0.152357,-0.0831 -0.06925,-0.0554 -0.114267,-0.128118 -0.04155,-0.07618 -0.04155,-0.16967 V 77.56867 q 0,-0.09349 0.04501,-0.16967 0.04502,-0.07618 0.114268,-0.128118 0.07272,-0.0554 0.155819,-0.0831 0.08657,-0.03116 0.16967,-0.03116 z m -0.0069,0.30125 q -0.06925,0 -0.131581,0.03463 -0.05886,0.03463 -0.05886,0.11773 v 1.433537 q 0,0.0831 0.05886,0.117731 0.06233,0.03463 0.131581,0.03463 0.06925,0 0.128118,-0.03463 0.06233,-0.03463 0.06233,-0.117731 v -1.433537 q 0,-0.0831 -0.06233,-0.11773 -0.05886,-0.03463 -0.128118,-0.03463 z"
         style="font-style:normal;font-variant:normal;font-weight:normal;font-stretch:normal;font-size:3.46265125px;font-family:'Lucid Type A BRK';-inkscape-font-specification:'Lucid Type A BRK';stroke-width:0.12984942"
         id="path3898"
         inkscape:connector-curvature="0" />
      <path
         d="m -14.699943,79.036834 v -0.07618 q 0.01039,-0.04155 0.0554,-0.06925 0.04501,-0.0277 0.08657,-0.0277 0.07964,0 0.10388,0.05194 0.02424,0.05194 0.03809,0.114268 0.01731,0.06233 0.05194,0.114267 0.03809,0.05194 0.141968,0.05194 0.03116,0 0.06233,-0.0069 0.03463,-0.01039 0.06233,-0.02424 0.0277,-0.01731 0.04501,-0.04155 0.02078,-0.0277 0.02078,-0.06579 v -0.422443 q 0,-0.07272 -0.04155,-0.107343 -0.04155,-0.03463 -0.100417,-0.04501 -0.05887,-0.01385 -0.121192,-0.01731 -0.06233,-0.0069 -0.10388,-0.02424 -0.05194,-0.02078 -0.107342,-0.05887 -0.05194,-0.03809 -0.09695,-0.09003 -0.04155,-0.05194 -0.06925,-0.110805 -0.0277,-0.05886 -0.0277,-0.121193 v -0.505547 q 0,-0.08657 0.04501,-0.159282 0.04501,-0.07272 0.114267,-0.124655 0.06925,-0.05194 0.152357,-0.07964 0.08657,-0.03116 0.166207,-0.03116 0.09695,0 0.183521,0.03463 0.08657,0.03463 0.152356,0.09695 0.06579,0.05886 0.10388,0.145431 0.03809,0.0831 0.03809,0.180058 v 0.07272 q -0.01385,0.05194 -0.0554,0.06925 -0.03809,0.01385 -0.07964,0.01385 -0.09003,0 -0.114268,-0.04848 -0.02424,-0.04848 -0.03809,-0.107342 -0.01385,-0.06233 -0.04501,-0.110805 -0.03116,-0.04848 -0.135044,-0.04848 -0.0277,0 -0.06233,0.0069 -0.03463,0.0069 -0.06579,0.02424 -0.03116,0.01385 -0.05194,0.04155 -0.02078,0.0277 -0.02078,0.06579 v 0.422444 q 0,0.06579 0.03463,0.100417 0.03809,0.03116 0.09003,0.04848 0.05194,0.01385 0.107342,0.01731 0.0554,0.0035 0.09349,0.01039 0.06233,0.01039 0.124655,0.05194 0.06233,0.03809 0.110805,0.09349 0.04848,0.0554 0.07618,0.121193 0.03116,0.06579 0.03116,0.131581 v 0.519397 q 0,0.08657 -0.04848,0.15582 -0.04501,0.06925 -0.11773,0.121193 -0.06925,0.04848 -0.152357,0.07618 -0.0831,0.0277 -0.159282,0.0277 -0.09695,0 -0.18352,-0.03463 -0.08657,-0.03463 -0.152357,-0.09349 -0.06579,-0.06233 -0.103879,-0.145431 -0.03809,-0.0831 -0.03809,-0.183521 z"
         style="font-style:normal;font-variant:normal;font-weight:normal;font-stretch:normal;font-size:3.46265125px;font-family:'Lucid Type A BRK';-inkscape-font-specification:'Lucid Type A BRK';stroke-width:0.12984942"
         id="path3900"
         inkscape:connector-curvature="0" />
    </g>
    <g
       aria-label="PTT"
       transform="matrix(0.5449893,-0.5449893,0.39722248,0.39722248,8.5017486,20.114593)"
       style="font-style:normal;font-variant:normal;font-weight:normal;font-stretch:normal;font-size:3.46265125px;line-height:3.24623537px;font-family:'Lucid Type A BRK';-inkscape-font-specification:'Lucid Type A BRK';letter-spacing:0px;word-spacing:0px;fill:#000000;fill-opacity:1;stroke:none;stroke-width:0.12984942"
       id="text52">
      <path
         d="m -14.487598,80.065983 q 0.01039,0 0.03463,0 0.02424,-0.0035 0.05194,-0.0035 h 0.05194 0.03463 q 0.08657,0 0.16967,0.0069 0.08657,0.0035 0.162744,0.0277 0.07964,0.02078 0.145432,0.06925 0.06579,0.04848 0.114267,0.13158 0.01731,0.0277 0.03463,0.07272 0.02078,0.04155 0.02078,0.07618 v 0.519398 q 0,0.04848 -0.0277,0.11773 -0.0277,0.06579 -0.0554,0.100417 -0.08657,0.11773 -0.193908,0.152357 -0.10388,0.03463 -0.228535,0.03463 h -0.16967 v 0.931453 q 0,0.02424 -0.01731,0.04155 -0.01731,0.01385 -0.04155,0.02424 -0.02078,0.01039 -0.04848,0.01385 -0.02424,0.0035 -0.03809,0.0035 -0.03463,0 -0.08657,-0.01385 -0.04848,-0.01731 -0.04848,-0.06925 v -2.143381 q 0,-0.04501 0.05194,-0.06579 0.05194,-0.02078 0.0831,-0.0277 z m 0.152357,1.007631 h 0.259699 q 0.04848,0 0.0831,-0.05194 0.03809,-0.0554 0.03809,-0.09695 v -0.422443 q 0,-0.05194 -0.03463,-0.0831 -0.03116,-0.03116 -0.07618,-0.04501 -0.04502,-0.01731 -0.09695,-0.02078 -0.05194,-0.0035 -0.08657,-0.0035 h -0.08657 z"
         style="font-style:normal;font-variant:normal;font-weight:normal;font-stretch:normal;font-size:3.46265125px;font-family:'Lucid Type A BRK';-inkscape-font-specification:'Lucid Type A BRK';stroke-width:0.12984942"
         id="path3889"
         inkscape:connector-curvature="0" />
      <path
         d="m -13.562285,80.342995 q -0.04502,0 -0.06579,-0.05194 -0.01731,-0.05194 -0.01731,-0.0831 0,-0.05886 0.03463,-0.100416 0.03809,-0.04155 0.100417,-0.04155 h 0.699455 q 0.05887,0 0.09003,0.04848 0.03116,0.04501 0.03116,0.09349 0,0.03116 -0.02078,0.0831 -0.01731,0.05194 -0.06233,0.05194 h -0.252773 v 1.95986 q 0,0.02424 -0.01731,0.04155 -0.01385,0.01385 -0.03809,0.02424 -0.02424,0.01039 -0.04848,0.01385 -0.02424,0.0035 -0.03809,0.0035 -0.01731,0 -0.04155,-0.0035 -0.02078,-0.0035 -0.04501,-0.01385 -0.02424,-0.01039 -0.04155,-0.02424 -0.01385,-0.01731 -0.01385,-0.04155 v -1.95986 z"
         style="font-style:normal;font-variant:normal;font-weight:normal;font-stretch:normal;font-size:3.46265125px;font-family:'Lucid Type A BRK';-inkscape-font-specification:'Lucid Type A BRK';stroke-width:0.12984942"
         id="path3891"
         inkscape:connector-curvature="0" />
      <path
         d="m -12.530929,80.342995 q -0.04501,0 -0.06579,-0.05194 -0.01731,-0.05194 -0.01731,-0.0831 0,-0.05886 0.03463,-0.100416 0.03809,-0.04155 0.100417,-0.04155 h 0.699455 q 0.05887,0 0.09003,0.04848 0.03116,0.04501 0.03116,0.09349 0,0.03116 -0.02078,0.0831 -0.01731,0.05194 -0.06233,0.05194 h -0.252773 v 1.95986 q 0,0.02424 -0.01731,0.04155 -0.01385,0.01385 -0.03809,0.02424 -0.02424,0.01039 -0.04848,0.01385 -0.02424,0.0035 -0.03809,0.0035 -0.01731,0 -0.04155,-0.0035 -0.02078,-0.0035 -0.04501,-0.01385 -0.02424,-0.01039 -0.04155,-0.02424 -0.01385,-0.01731 -0.01385,-0.04155 v -1.95986 z"
         style="font-style:normal;font-variant:normal;font-weight:normal;font-stretch:normal;font-size:3.46265125px;font-family:'Lucid Type A BRK';-inkscape-font-specification:'Lucid Type A BRK';stroke-width:0.12984942"
         id="path3893"
         inkscape:connector-curvature="0" />
    </g>
    <text
       xml:space="preserve"
       style="font-style:normal;font-variant:normal;font-weight:normal;font-stretch:normal;font-size:3.48191667px;line-height:4.35239553px;font-family:'Lucid Type A BRK';-inkscape-font-specification:'Lucid Type A BRK';letter-spacing:0px;word-spacing:0px;fill:#000000;fill-opacity:1;stroke:none;stroke-width:0.17409582"
       x="27.605886"
       y="50.136509"
       id="text3971"><tspan
         sodipodi:role="line"
         id="tspan3969"
         x="27.605886"
         y="53.410267"
         style="font-style:normal;font-variant:normal;font-weight:normal;font-stretch:normal;font-size:3.48191667px;font-family:'Lucid Type A BRK';-inkscape-font-specification:'Lucid Type A BRK';stroke-width:0.17409582" /></text>
  </g>
</svg>
