<?xml version="1.0" encoding="UTF-8" standalone="no"?>
<!-- Created with Inkscape (http://www.inkscape.org/) -->

<svg
   xmlns:dc="http://purl.org/dc/elements/1.1/"
   xmlns:cc="http://creativecommons.org/ns#"
   xmlns:rdf="http://www.w3.org/1999/02/22-rdf-syntax-ns#"
   xmlns:svg="http://www.w3.org/2000/svg"
   xmlns="http://www.w3.org/2000/svg"
   xmlns:sodipodi="http://sodipodi.sourceforge.net/DTD/sodipodi-0.dtd"
   xmlns:inkscape="http://www.inkscape.org/namespaces/inkscape"
   width="18.815788mm"
   height="3.0760243mm"
   viewBox="0 0 66.670116 10.899299"
   id="svg2"
   version="1.1"
   inkscape:version="0.92.0 r15299"
   sodipodi:docname="MMDVM_logo.svg">
  <defs
     id="defs4" />
  <sodipodi:namedview
     id="base"
     pagecolor="#ffffff"
     bordercolor="#666666"
     borderopacity="1.0"
     inkscape:pageopacity="0.0"
     inkscape:pageshadow="2"
     inkscape:zoom="5.6568543"
     inkscape:cx="15.758556"
     inkscape:cy="5.3121339"
     inkscape:document-units="mm"
     inkscape:current-layer="layer1"
     showgrid="false"
     showguides="true"
     inkscape:window-width="1280"
     inkscape:window-height="972"
     inkscape:window-x="0"
     inkscape:window-y="0"
     inkscape:window-maximized="1"
     fit-margin-top="0"
     fit-margin-left="0"
     fit-margin-right="0"
     fit-margin-bottom="0"
     inkscape:guide-bbox="true"
     inkscape:measure-start="0.714286,231.954"
     inkscape:measure-end="0.357143,84.3591">
    <sodipodi:guide
       position="-399.58779,-65.086737"
       orientation="0,1"
       id="guide4487"
       inkscape:locked="false" />
    <sodipodi:guide
       position="-417.02903,-54.502641"
       orientation="0,1"
       id="guide4489"
       inkscape:locked="false" />
    <sodipodi:guide
       position="-330.49631,73.283618"
       orientation="0,1"
       id="guide4491"
       inkscape:locked="false" />
    <sodipodi:guide
       position="18.61717,3.1451188"
       orientation="1,0"
       id="guide4492"
       inkscape:locked="false" />
    <sodipodi:guide
       position="57.58447,10.619659"
       orientation="0,1"
       id="guide4494"
       inkscape:locked="false" />
    <sodipodi:guide
       position="20.845759,3.1451189"
       orientation="0,1"
       id="guide4496"
       inkscape:locked="false" />
  </sodipodi:namedview>
  <metadata
     id="metadata7">
    <rdf:RDF>
      <cc:Work
         rdf:about="">
        <dc:format>image/svg+xml</dc:format>
        <dc:type
           rdf:resource="http://purl.org/dc/dcmitype/StillImage" />
        <dc:title />
      </cc:Work>
    </rdf:RDF>
  </metadata>
  <g
     inkscape:label="Layer 1"
     inkscape:groupmode="layer"
     id="layer1"
     transform="translate(-571.42776,-318.5222)">
    <path
       style="fill:#000000;stroke-width:0.077"
       d="m 572.23655,327.49199 -0.8088,1.91116 66.67012,0.0183 v -1.92951 z"
       id="path3426"
       inkscape:connector-curvature="0"
       sodipodi:nodetypes="ccccc" />
    <path
       style="fill:none;fill-rule:evenodd;stroke:#000000;stroke-width:0.59704381;stroke-linecap:butt;stroke-linejoin:miter;stroke-miterlimit:4;stroke-dasharray:none;stroke-opacity:1"
       d="m 572.84163,326.27952 h 2.36855 l 3.05019,-5.85068 3.00888,5.82429 h 2.00741 l 2.95041,-5.68549 h 0.51121 v 5.69019 h 2.19089 v -7.45599 h -4.29902 l -2.35643,4.88141 -2.3759,-4.88141 h -3.15002 z"
       id="path3456"
       inkscape:connector-curvature="0"
       sodipodi:nodetypes="ccccccccccccccc" />
    <path
       style="fill:none;fill-rule:evenodd;stroke:#000000;stroke-width:0.58791262;stroke-linecap:butt;stroke-linejoin:miter;stroke-miterlimit:4;stroke-dasharray:none;stroke-opacity:1"
       d="m 590.04493,326.27638 h 2.22859 v -5.61647 h 0.41703 l 2.89585,5.58677 h 1.89164 l 2.87582,-5.60657 h 0.44038 v 5.64287 h 2.24862 v -7.48114 l -4.25035,0 -2.26196,4.8214 -2.31034,-4.8214 h -4.17528 z"
       id="path4258"
       inkscape:connector-curvature="0"
       sodipodi:nodetypes="cccccccccccccccc" />
    <path
       style="fill:none;fill-rule:evenodd;stroke:#000000;stroke-width:0.58484288;stroke-linecap:butt;stroke-linejoin:miter;stroke-miterlimit:4;stroke-dasharray:none;stroke-opacity:1"
       d="m 622.19754,326.28415 h 2.28748 l 2.9458,-5.81295 2.9059,5.78673 h 1.93871 l 2.84943,-5.64883 h 0.49371 v 5.6535 h 2.11592 v -7.45613 h -4.15189 l -2.27578,4.89816 -2.29459,-4.90279 h -3.04221 z"
       id="path3456-4"
       inkscape:connector-curvature="0" />
    <path
       style="fill:#000000;fill-opacity:1;fill-rule:evenodd;stroke:none;stroke-width:0.077px;stroke-linecap:butt;stroke-linejoin:miter;stroke-opacity:1"
       d="m 604.09364,318.57225 v 7.9337 l 7.78242,-0.0275 c 2.61163,-0.1426 2.63474,-1.60648 2.70883,-3.62998 0.0214,-0.66351 0.0256,-1.32374 -0.075,-1.91988 l 2.73711,5.53136 h 3.72878 l 3.86715,-7.81219 h -2.64462 l -2.83652,5.89321 h -0.45252 l -2.8875,-5.92058 h -2.6541 l 0.33342,0.67375 c -0.4822,-0.43191 -1.21388,-0.70137 -2.31993,-0.72187 z m 6.55147,2.02335 c 1.66088,0.006 1.53395,0.96806 1.54481,2.12833 -0.0405,1.00135 0.0149,1.77441 -1.44089,1.78664 l -4.25124,0.0135 v -3.92609 h 3.98084 c 0.0574,-0.002 0.1129,-0.003 0.16648,-0.002 z"
       id="path4275"
       inkscape:connector-curvature="0" />
  </g>
</svg>
